<svg xmlns="http://www.w3.org/2000/svg" xmlns:xlink="http://www.w3.org/1999/xlink" xmlns:s="https://github.com/nturley/netlistsvg" width="667" height="788"><style>svg {
  stroke:#000;
  fill:none;
}
text {
  fill:#000;
  stroke:none;
  font-size:10px;
  font-weight: bold;
  font-family: "Courier New", monospace;
}
line {
    stroke-linecap: round;
}
.nodelabel {
  text-anchor: middle;
}
.inputPortLabel {
  text-anchor: end;
}
.splitjoinBody {
  fill:#000;
}</style><g s:type="NOR3" transform="translate(454,411.5)" s:width="30" s:height="25" id="cell_$abc$150$auto$blifparse.cc:386:parse_blif$151"><s:alias val="NOR3"/><s:alias val="$NOR3"/><path d="M0,0 A30 25 0 0 1 0,25 A30 25 0 0 0 30,12.5 A30 25 0 0 0 0,0" class="cell_$abc$150$auto$blifparse.cc:386:parse_blif$151"/><circle cx="33" cy="12.5" r="3" class="cell_$abc$150$auto$blifparse.cc:386:parse_blif$151"/><g s:x="2" s:y="6" s:pid="A"/><g s:x="3" s:y="12.5" s:pid="B"/><g s:x="2" s:y="19" s:pid="C"/><g s:x="36" s:y="12.5" s:pid="Y"/></g><g s:type="NOR3" transform="translate(454,514)" s:width="30" s:height="25" id="cell_$abc$150$auto$blifparse.cc:386:parse_blif$152"><s:alias val="NOR3"/><s:alias val="$NOR3"/><path d="M0,0 A30 25 0 0 1 0,25 A30 25 0 0 0 30,12.5 A30 25 0 0 0 0,0" class="cell_$abc$150$auto$blifparse.cc:386:parse_blif$152"/><circle cx="33" cy="12.5" r="3" class="cell_$abc$150$auto$blifparse.cc:386:parse_blif$152"/><g s:x="2" s:y="6" s:pid="A"/><g s:x="3" s:y="12.5" s:pid="B"/><g s:x="2" s:y="19" s:pid="C"/><g s:x="36" s:y="12.5" s:pid="Y"/></g><g s:type="NOR4" transform="translate(454,86.84000000000003)" s:width="30" s:height="25" id="cell_$abc$150$auto$blifparse.cc:386:parse_blif$153"><s:alias val="NOR4"/><s:alias val="$NOR4"/><path d="M0,0 A30 25 0 0 1 0,25 A30 25 0 0 0 30,12.5 A30 25 0 0 0 0,0" class="cell_$abc$150$auto$blifparse.cc:386:parse_blif$153"/><circle cx="33" cy="12.5" r="3" class="cell_$abc$150$auto$blifparse.cc:386:parse_blif$153"/><g s:x="1" s:y="3" s:pid="A"/><g s:x="3" s:y="9.33" s:pid="B"/><g s:x="3" s:y="15.66" s:pid="C"/><g s:x="1" s:y="22" s:pid="D"/><g s:x="36" s:y="12.5" s:pid="Y"/></g><g s:type="NOR6" transform="translate(312,124.5)" s:width="30" s:height="25" id="cell_$abc$150$auto$blifparse.cc:386:parse_blif$154"><s:alias val="NOR6"/><s:alias val="$NOR6"/><path d="M0,0 A30 25 0 0 1 0,25 A30 25 0 0 0 30,12.5 A30 25 0 0 0 0,0" class="cell_$abc$150$auto$blifparse.cc:386:parse_blif$154"/><circle cx="33" cy="12.5" r="3" class="cell_$abc$150$auto$blifparse.cc:386:parse_blif$154"/><g s:x="1" s:y="3" s:pid="A"/><g s:x="3" s:y="7.75" s:pid="B"/><g s:x="3" s:y="12.5" s:pid="C"/><g s:x="1" s:y="17.25" s:pid="D"/><g s:x="1" s:y="22" s:pid="E"/><g s:x="1" s:y="22" s:pid="F"/><g s:x="36" s:y="12.5" s:pid="Y"/></g><g s:type="NOR4" transform="translate(312,241.5)" s:width="30" s:height="25" id="cell_$abc$150$auto$blifparse.cc:386:parse_blif$155"><s:alias val="NOR4"/><s:alias val="$NOR4"/><path d="M0,0 A30 25 0 0 1 0,25 A30 25 0 0 0 30,12.5 A30 25 0 0 0 0,0" class="cell_$abc$150$auto$blifparse.cc:386:parse_blif$155"/><circle cx="33" cy="12.5" r="3" class="cell_$abc$150$auto$blifparse.cc:386:parse_blif$155"/><g s:x="1" s:y="3" s:pid="A"/><g s:x="3" s:y="9.33" s:pid="B"/><g s:x="3" s:y="15.66" s:pid="C"/><g s:x="1" s:y="22" s:pid="D"/><g s:x="36" s:y="12.5" s:pid="Y"/></g><g s:type="NOR4" transform="translate(312,184.5)" s:width="30" s:height="25" id="cell_$abc$150$auto$blifparse.cc:386:parse_blif$156"><s:alias val="NOR4"/><s:alias val="$NOR4"/><path d="M0,0 A30 25 0 0 1 0,25 A30 25 0 0 0 30,12.5 A30 25 0 0 0 0,0" class="cell_$abc$150$auto$blifparse.cc:386:parse_blif$156"/><circle cx="33" cy="12.5" r="3" class="cell_$abc$150$auto$blifparse.cc:386:parse_blif$156"/><g s:x="1" s:y="3" s:pid="A"/><g s:x="3" s:y="9.33" s:pid="B"/><g s:x="3" s:y="15.66" s:pid="C"/><g s:x="1" s:y="22" s:pid="D"/><g s:x="36" s:y="12.5" s:pid="Y"/></g><g s:type="NAND3" transform="translate(383,241.5)" s:width="30" s:height="25" id="cell_$abc$150$auto$blifparse.cc:386:parse_blif$157"><s:alias val="NAND3"/><s:alias val="$NAND3"/><path d="M0,0 L0,25 L15,25 A15 12.5 0 0 0 15,0 Z" class="cell_$abc$150$auto$blifparse.cc:386:parse_blif$157"/><circle cx="34" cy="12.5" r="3" class="cell_$abc$150$auto$blifparse.cc:386:parse_blif$157"/><g s:x="0" s:y="3" s:pid="A"/><g s:x="0" s:y="12.5" s:pid="B"/><g s:x="0" s:y="22" s:pid="C"/><g s:x="36" s:y="12.5" s:pid="Y"/></g><g s:type="NOR6" transform="translate(312,643.5)" s:width="30" s:height="25" id="cell_$abc$150$auto$blifparse.cc:386:parse_blif$158"><s:alias val="NOR6"/><s:alias val="$NOR6"/><path d="M0,0 A30 25 0 0 1 0,25 A30 25 0 0 0 30,12.5 A30 25 0 0 0 0,0" class="cell_$abc$150$auto$blifparse.cc:386:parse_blif$158"/><circle cx="33" cy="12.5" r="3" class="cell_$abc$150$auto$blifparse.cc:386:parse_blif$158"/><g s:x="1" s:y="3" s:pid="A"/><g s:x="3" s:y="7.75" s:pid="B"/><g s:x="3" s:y="12.5" s:pid="C"/><g s:x="1" s:y="17.25" s:pid="D"/><g s:x="1" s:y="22" s:pid="E"/><g s:x="1" s:y="22" s:pid="F"/><g s:x="36" s:y="12.5" s:pid="Y"/></g><g s:type="NOT" transform="translate(386,646)" s:width="30" s:height="20" id="cell_$abc$150$auto$blifparse.cc:386:parse_blif$159"><s:alias val="NOT"/><s:alias val="$NOT"/><path d="M0,0 L0,20 L20,10 Z" class="cell_$abc$150$auto$blifparse.cc:386:parse_blif$159"/><circle cx="24" cy="10" r="3" class="cell_$abc$150$auto$blifparse.cc:386:parse_blif$159"/><g s:x="-1" s:y="10" s:pid="A"/><g s:x="27" s:y="10" s:pid="Y"/></g><g s:type="NOR4" transform="translate(454,238.34000000000003)" s:width="30" s:height="25" id="cell_$abc$150$auto$blifparse.cc:386:parse_blif$160"><s:alias val="NOR4"/><s:alias val="$NOR4"/><path d="M0,0 A30 25 0 0 1 0,25 A30 25 0 0 0 30,12.5 A30 25 0 0 0 0,0" class="cell_$abc$150$auto$blifparse.cc:386:parse_blif$160"/><circle cx="33" cy="12.5" r="3" class="cell_$abc$150$auto$blifparse.cc:386:parse_blif$160"/><g s:x="1" s:y="3" s:pid="A"/><g s:x="3" s:y="9.33" s:pid="B"/><g s:x="3" s:y="15.66" s:pid="C"/><g s:x="1" s:y="22" s:pid="D"/><g s:x="36" s:y="12.5" s:pid="Y"/></g><g s:type="NAND4" transform="translate(530,421)" s:width="30" s:height="25" id="cell_$abc$150$auto$blifparse.cc:386:parse_blif$161"><s:alias val="NAND4"/><s:alias val="$NAND4"/><path d="M0,0 L0,25 L15,25 A15 12.5 0 0 0 15,0 Z" class="cell_$abc$150$auto$blifparse.cc:386:parse_blif$161"/><circle cx="34" cy="12.5" r="3" class="cell_$abc$150$auto$blifparse.cc:386:parse_blif$161"/><g s:x="0" s:y="3" s:pid="A"/><g s:x="0" s:y="9.33" s:pid="B"/><g s:x="0" s:y="15.66" s:pid="C"/><g s:x="0" s:y="22" s:pid="D"/><g s:x="36" s:y="12.5" s:pid="Y"/></g><g s:type="inputExt" transform="translate(12,22)" s:width="30" s:height="20" id="cell_or_input0"><text x="15" y="-4" class="nodelabel cell_or_input0" s:attribute="ref">or_input0</text><s:alias val="$_inputExt_"/><path d="M0,0 L0,20 L15,20 L30,10 L15,0 Z" class="cell_or_input0"/><g s:x="30" s:y="10" s:pid="Y"/></g><g s:type="inputExt" transform="translate(12,404)" s:width="30" s:height="20" id="cell_or_input1"><text x="15" y="-4" class="nodelabel cell_or_input1" s:attribute="ref">or_input1</text><s:alias val="$_inputExt_"/><path d="M0,0 L0,20 L15,20 L30,10 L15,0 Z" class="cell_or_input1"/><g s:x="30" s:y="10" s:pid="Y"/></g><g s:type="outputExt" transform="translate(601,423.5)" s:width="30" s:height="20" id="cell_or_output"><text x="15" y="-4" class="nodelabel cell_or_output" s:attribute="ref">or_output</text><s:alias val="$_outputExt_"/><path d="M30,0 L30,20 L15,20 L0,10 L15,0 Z" class="cell_or_output"/><g s:x="0" s:y="10" s:pid="A"/></g><g s:type="split" transform="translate(140,436)" s:width="5" s:height="40" id="cell_$split$,18,19,20,21,22,23,24,25,26,27,28,29,30,31,32,33,"><rect width="5" height="320" class="splitjoinBody" s:generic="body"/><s:alias val="$_split_"/><g s:x="0" s:y="20" s:pid="in"/><g transform="translate(4,10)" s:x="4" s:y="10" s:pid="out0"><text x="5" y="-4">9</text></g><g transform="translate(4,30)" s:x="4" s:y="10" s:pid="out0"><text x="5" y="-4">10</text></g><g transform="translate(4,50)" s:x="4" s:y="10" s:pid="out0"><text x="5" y="-4">15</text></g><g transform="translate(4,70)" s:x="4" s:y="10" s:pid="out0"><text x="5" y="-4">8</text></g><g transform="translate(4,90)" s:x="4" s:y="10" s:pid="out0"><text x="5" y="-4">11</text></g><g transform="translate(4,110)" s:x="4" s:y="10" s:pid="out0"><text x="5" y="-4">14</text></g><g transform="translate(4,130)" s:x="4" s:y="10" s:pid="out0"><text x="5" y="-4">4</text></g><g transform="translate(4,150)" s:x="4" s:y="10" s:pid="out0"><text x="5" y="-4">5</text></g><g transform="translate(4,170)" s:x="4" s:y="10" s:pid="out0"><text x="5" y="-4">6</text></g><g transform="translate(4,190)" s:x="4" s:y="10" s:pid="out0"><text x="5" y="-4">7</text></g><g transform="translate(4,210)" s:x="4" s:y="10" s:pid="out0"><text x="5" y="-4">1</text></g><g transform="translate(4,230)" s:x="4" s:y="10" s:pid="out0"><text x="5" y="-4">0</text></g><g transform="translate(4,250)" s:x="4" s:y="10" s:pid="out0"><text x="5" y="-4">3</text></g><g transform="translate(4,270)" s:x="4" s:y="10" s:pid="out0"><text x="5" y="-4">2</text></g><g transform="translate(4,290)" s:x="4" s:y="10" s:pid="out0"><text x="5" y="-4">13</text></g><g transform="translate(4,310)" s:x="4" s:y="10" s:pid="out0"><text x="5" y="-4">12</text></g></g><g s:type="split" transform="translate(140,54)" s:width="5" s:height="40" id="cell_$split$,2,3,4,5,6,7,8,9,10,11,12,13,14,15,16,17,"><rect width="5" height="320" class="splitjoinBody" s:generic="body"/><s:alias val="$_split_"/><g s:x="0" s:y="20" s:pid="in"/><g transform="translate(4,10)" s:x="4" s:y="10" s:pid="out0"><text x="5" y="-4">1</text></g><g transform="translate(4,30)" s:x="4" s:y="10" s:pid="out0"><text x="5" y="-4">4</text></g><g transform="translate(4,50)" s:x="4" s:y="10" s:pid="out0"><text x="5" y="-4">7</text></g><g transform="translate(4,70)" s:x="4" s:y="10" s:pid="out0"><text x="5" y="-4">14</text></g><g transform="translate(4,90)" s:x="4" s:y="10" s:pid="out0"><text x="5" y="-4">3</text></g><g transform="translate(4,110)" s:x="4" s:y="10" s:pid="out0"><text x="5" y="-4">5</text></g><g transform="translate(4,130)" s:x="4" s:y="10" s:pid="out0"><text x="5" y="-4">6</text></g><g transform="translate(4,150)" s:x="4" s:y="10" s:pid="out0"><text x="5" y="-4">10</text></g><g transform="translate(4,170)" s:x="4" s:y="10" s:pid="out0"><text x="5" y="-4">12</text></g><g transform="translate(4,190)" s:x="4" s:y="10" s:pid="out0"><text x="5" y="-4">0</text></g><g transform="translate(4,210)" s:x="4" s:y="10" s:pid="out0"><text x="5" y="-4">15</text></g><g transform="translate(4,230)" s:x="4" s:y="10" s:pid="out0"><text x="5" y="-4">9</text></g><g transform="translate(4,250)" s:x="4" s:y="10" s:pid="out0"><text x="5" y="-4">8</text></g><g transform="translate(4,270)" s:x="4" s:y="10" s:pid="out0"><text x="5" y="-4">11</text></g><g transform="translate(4,290)" s:x="4" s:y="10" s:pid="out0"><text x="5" y="-4">2</text></g><g transform="translate(4,310)" s:x="4" s:y="10" s:pid="out0"><text x="5" y="-4">13</text></g></g><line x1="144.5" x2="144.5" y1="446" y2="404" class="net_27 width_1" style="stroke-width: 1"/><line x1="144.5" x2="439" y1="404" y2="404" class="net_27 width_1" style="stroke-width: 1"/><line x1="439" x2="439" y1="404" y2="417.5" class="net_27 width_1" style="stroke-width: 1"/><line x1="439" x2="456" y1="417.5" y2="417.5" class="net_27 width_1" style="stroke-width: 1"/><line x1="144.5" x2="144.5" y1="466" y2="424" class="net_28 width_1" style="stroke-width: 1"/><line x1="144.5" x2="457" y1="424" y2="424" class="net_28 width_1" style="stroke-width: 1"/><line x1="145" x2="439" y1="486.5" y2="486.5" class="net_33 width_1" style="stroke-width: 1"/><line x1="439" x2="439" y1="486.5" y2="430.5" class="net_33 width_1" style="stroke-width: 1"/><line x1="439" x2="456" y1="430.5" y2="430.5" class="net_33 width_1" style="stroke-width: 1"/><line x1="145" x2="439" y1="506.5" y2="506.5" class="net_26 width_1" style="stroke-width: 1"/><line x1="439" x2="439" y1="506.5" y2="520" class="net_26 width_1" style="stroke-width: 1"/><line x1="439" x2="456" y1="520" y2="520" class="net_26 width_1" style="stroke-width: 1"/><line x1="145" x2="457" y1="526.5" y2="526.5" class="net_29 width_1" style="stroke-width: 1"/><line x1="145" x2="439" y1="546.5" y2="546.5" class="net_32 width_1" style="stroke-width: 1"/><line x1="439" x2="439" y1="546.5" y2="533" class="net_32 width_1" style="stroke-width: 1"/><line x1="439" x2="456" y1="533" y2="533" class="net_32 width_1" style="stroke-width: 1"/><line x1="144.5" x2="144.5" y1="64" y2="42" class="net_3 width_1" style="stroke-width: 1"/><line x1="144.5" x2="429" y1="42" y2="42" class="net_3 width_1" style="stroke-width: 1"/><line x1="429" x2="429" y1="42" y2="89.84000000000003" class="net_3 width_1" style="stroke-width: 1"/><line x1="429" x2="455" y1="89.84000000000003" y2="89.84000000000003" class="net_3 width_1" style="stroke-width: 1"/><line x1="144.5" x2="144.5" y1="84" y2="22" class="net_6 width_1" style="stroke-width: 1"/><line x1="144.5" x2="439" y1="22" y2="22" class="net_6 width_1" style="stroke-width: 1"/><line x1="439" x2="439" y1="22" y2="96.17000000000007" class="net_6 width_1" style="stroke-width: 1"/><line x1="439" x2="457" y1="96.17000000000007" y2="96.17000000000003" class="net_6 width_1" style="stroke-width: 1"/><line x1="145" x2="162" y1="104.5" y2="104.5" class="net_9 width_1" style="stroke-width: 1"/><line x1="162" x2="162" y1="104.5" y2="102.5" class="net_9 width_1" style="stroke-width: 1"/><line x1="162" x2="457" y1="102.5" y2="102.50000000000003" class="net_9 width_1" style="stroke-width: 1"/><line x1="145" x2="162" y1="124.5" y2="124.5" class="net_16 width_1" style="stroke-width: 1"/><line x1="162" x2="162" y1="124.5" y2="113.5" class="net_16 width_1" style="stroke-width: 1"/><line x1="162" x2="429" y1="113.5" y2="113.5" class="net_16 width_1" style="stroke-width: 1"/><line x1="429" x2="429" y1="113.5" y2="108.84000000000003" class="net_16 width_1" style="stroke-width: 1"/><line x1="429" x2="455" y1="108.84000000000003" y2="108.84000000000003" class="net_16 width_1" style="stroke-width: 1"/><line x1="145" x2="172" y1="144.5" y2="144.5" class="net_5 width_1" style="stroke-width: 1"/><line x1="172" x2="172" y1="144.5" y2="127.5" class="net_5 width_1" style="stroke-width: 1"/><line x1="172" x2="313" y1="127.5" y2="127.5" class="net_5 width_1" style="stroke-width: 1"/><line x1="145" x2="182" y1="164.5" y2="164.5" class="net_7 width_1" style="stroke-width: 1"/><line x1="182" x2="182" y1="164.5" y2="132.25" class="net_7 width_1" style="stroke-width: 1"/><line x1="182" x2="315" y1="132.25" y2="132.25" class="net_7 width_1" style="stroke-width: 1"/><line x1="145" x2="192" y1="184.5" y2="184.5" class="net_8 width_1" style="stroke-width: 1"/><line x1="192" x2="192" y1="184.5" y2="137" class="net_8 width_1" style="stroke-width: 1"/><line x1="192" x2="315" y1="137" y2="137" class="net_8 width_1" style="stroke-width: 1"/><line x1="145" x2="202" y1="204.5" y2="204.5" class="net_12 width_1" style="stroke-width: 1"/><line x1="202" x2="202" y1="204.5" y2="141.75" class="net_12 width_1" style="stroke-width: 1"/><line x1="202" x2="313" y1="141.75" y2="141.75" class="net_12 width_1" style="stroke-width: 1"/><line x1="145" x2="212" y1="224.5" y2="224.5" class="net_14 width_1" style="stroke-width: 1"/><line x1="212" x2="212" y1="224.5" y2="146.5" class="net_14 width_1" style="stroke-width: 1"/><line x1="212" x2="313" y1="146.5" y2="146.5" class="net_14 width_1" style="stroke-width: 1"/><line x1="145" x2="262" y1="566.5" y2="566.5" class="net_22 width_1" style="stroke-width: 1"/><line x1="262" x2="262" y1="566.5" y2="146.5" class="net_22 width_1" style="stroke-width: 1"/><line x1="262" x2="313" y1="146.5" y2="146.5" class="net_22 width_1" style="stroke-width: 1"/><line x1="145" x2="313" y1="244.5" y2="244.5" class="net_2 width_1" style="stroke-width: 1"/><line x1="145" x2="162" y1="264.5" y2="264.5" class="net_17 width_1" style="stroke-width: 1"/><line x1="162" x2="162" y1="264.5" y2="250.83000000000004" class="net_17 width_1" style="stroke-width: 1"/><line x1="162" x2="315" y1="250.83000000000004" y2="250.83" class="net_17 width_1" style="stroke-width: 1"/><line x1="145" x2="282" y1="586.5" y2="586.5" class="net_23 width_1" style="stroke-width: 1"/><line x1="282" x2="282" y1="586.5" y2="257.15999999999997" class="net_23 width_1" style="stroke-width: 1"/><line x1="282" x2="315" y1="257.15999999999997" y2="257.15999999999997" class="net_23 width_1" style="stroke-width: 1"/><line x1="145" x2="302" y1="606.5" y2="606.5" class="net_24 width_1" style="stroke-width: 1"/><line x1="302" x2="302" y1="606.5" y2="263.5" class="net_24 width_1" style="stroke-width: 1"/><line x1="302" x2="313" y1="263.5" y2="263.5" class="net_24 width_1" style="stroke-width: 1"/><line x1="145" x2="222" y1="284.5" y2="284.5" class="net_11 width_1" style="stroke-width: 1"/><line x1="222" x2="222" y1="284.5" y2="187.5" class="net_11 width_1" style="stroke-width: 1"/><line x1="222" x2="313" y1="187.5" y2="187.5" class="net_11 width_1" style="stroke-width: 1"/><line x1="145" x2="232" y1="304.5" y2="304.5" class="net_10 width_1" style="stroke-width: 1"/><line x1="232" x2="232" y1="304.5" y2="193.83000000000004" class="net_10 width_1" style="stroke-width: 1"/><line x1="232" x2="315" y1="193.83000000000004" y2="193.83" class="net_10 width_1" style="stroke-width: 1"/><line x1="145" x2="242" y1="324.5" y2="324.5" class="net_13 width_1" style="stroke-width: 1"/><line x1="242" x2="242" y1="324.5" y2="200.15999999999997" class="net_13 width_1" style="stroke-width: 1"/><line x1="242" x2="315" y1="200.15999999999997" y2="200.16" class="net_13 width_1" style="stroke-width: 1"/><line x1="145" x2="292" y1="626.5" y2="626.5" class="net_25 width_1" style="stroke-width: 1"/><line x1="292" x2="292" y1="626.5" y2="206.5" class="net_25 width_1" style="stroke-width: 1"/><line x1="292" x2="313" y1="206.5" y2="206.5" class="net_25 width_1" style="stroke-width: 1"/><line x1="348" x2="368" y1="137" y2="137" class="net_38 width_1" style="stroke-width: 1"/><line x1="368" x2="368" y1="137" y2="244.5" class="net_38 width_1" style="stroke-width: 1"/><line x1="368" x2="383" y1="244.5" y2="244.5" class="net_38 width_1" style="stroke-width: 1"/><line x1="348" x2="383" y1="254" y2="254" class="net_39 width_1" style="stroke-width: 1"/><line x1="348" x2="358" y1="197" y2="197" class="net_40 width_1" style="stroke-width: 1"/><line x1="358" x2="358" y1="197" y2="263.5" class="net_40 width_1" style="stroke-width: 1"/><line x1="358" x2="383" y1="263.5" y2="263.5" class="net_40 width_1" style="stroke-width: 1"/><line x1="145" x2="313" y1="646.5" y2="646.5" class="net_19 width_1" style="stroke-width: 1"/><line x1="145" x2="162" y1="666.5" y2="666.5" class="net_18 width_1" style="stroke-width: 1"/><line x1="162" x2="162" y1="666.5" y2="651.25" class="net_18 width_1" style="stroke-width: 1"/><line x1="162" x2="315" y1="651.25" y2="651.25" class="net_18 width_1" style="stroke-width: 1"/><line x1="145" x2="172" y1="686.5" y2="686.5" class="net_21 width_1" style="stroke-width: 1"/><line x1="172" x2="172" y1="686.5" y2="656" class="net_21 width_1" style="stroke-width: 1"/><line x1="172" x2="315" y1="656" y2="656" class="net_21 width_1" style="stroke-width: 1"/><line x1="145" x2="182" y1="706.5" y2="706.5" class="net_20 width_1" style="stroke-width: 1"/><line x1="182" x2="182" y1="706.5" y2="660.75" class="net_20 width_1" style="stroke-width: 1"/><line x1="182" x2="313" y1="660.75" y2="660.75" class="net_20 width_1" style="stroke-width: 1"/><line x1="144.5" x2="144.5" y1="727" y2="776" class="net_31 width_1" style="stroke-width: 1"/><line x1="144.5" x2="202" y1="776" y2="776" class="net_31 width_1" style="stroke-width: 1"/><line x1="202" x2="202" y1="776" y2="665.5" class="net_31 width_1" style="stroke-width: 1"/><line x1="202" x2="313" y1="665.5" y2="665.5" class="net_31 width_1" style="stroke-width: 1"/><line x1="144.5" x2="144.5" y1="747" y2="766" class="net_30 width_1" style="stroke-width: 1"/><line x1="144.5" x2="192" y1="766" y2="766" class="net_30 width_1" style="stroke-width: 1"/><line x1="192" x2="192" y1="766" y2="665.5" class="net_30 width_1" style="stroke-width: 1"/><line x1="192" x2="313" y1="665.5" y2="665.5" class="net_30 width_1" style="stroke-width: 1"/><line x1="348" x2="385" y1="656" y2="656" class="net_42 width_1" style="stroke-width: 1"/><line x1="144.5" x2="144.5" y1="345" y2="384" class="net_4 width_1" style="stroke-width: 1"/><line x1="144.5" x2="252" y1="384" y2="384" class="net_4 width_1" style="stroke-width: 1"/><line x1="252" x2="252" y1="384" y2="219.5" class="net_4 width_1" style="stroke-width: 1"/><line x1="252" x2="439" y1="219.5" y2="219.5" class="net_4 width_1" style="stroke-width: 1"/><line x1="439" x2="439" y1="219.5" y2="241.34000000000003" class="net_4 width_1" style="stroke-width: 1"/><line x1="439" x2="455" y1="241.34000000000003" y2="241.34000000000003" class="net_4 width_1" style="stroke-width: 1"/><line x1="144.5" x2="144.5" y1="365" y2="394" class="net_15 width_1" style="stroke-width: 1"/><line x1="144.5" x2="272" y1="394" y2="394" class="net_15 width_1" style="stroke-width: 1"/><line x1="272" x2="272" y1="394" y2="230.5" class="net_15 width_1" style="stroke-width: 1"/><line x1="272" x2="429" y1="230.5" y2="230.5" class="net_15 width_1" style="stroke-width: 1"/><line x1="429" x2="429" y1="230.5" y2="247.67000000000007" class="net_15 width_1" style="stroke-width: 1"/><line x1="429" x2="457" y1="247.67000000000007" y2="247.67000000000004" class="net_15 width_1" style="stroke-width: 1"/><line x1="419" x2="457" y1="254" y2="254.00000000000003" class="net_41 width_1" style="stroke-width: 1"/><line x1="413" x2="429" y1="656" y2="656" class="net_43 width_1" style="stroke-width: 1"/><line x1="429" x2="429" y1="656" y2="260.34000000000003" class="net_43 width_1" style="stroke-width: 1"/><line x1="429" x2="455" y1="260.34000000000003" y2="260.34000000000003" class="net_43 width_1" style="stroke-width: 1"/><line x1="490" x2="530" y1="424" y2="424" class="net_35 width_1" style="stroke-width: 1"/><line x1="490" x2="510" y1="526.5" y2="526.5" class="net_36 width_1" style="stroke-width: 1"/><line x1="510" x2="510" y1="526.5" y2="430.33" class="net_36 width_1" style="stroke-width: 1"/><line x1="510" x2="530" y1="430.33" y2="430.33" class="net_36 width_1" style="stroke-width: 1"/><line x1="490" x2="520" y1="99.34000000000003" y2="99.34000000000003" class="net_37 width_1" style="stroke-width: 1"/><line x1="520" x2="520" y1="99.34000000000003" y2="436.66" class="net_37 width_1" style="stroke-width: 1"/><line x1="520" x2="530" y1="436.66" y2="436.66" class="net_37 width_1" style="stroke-width: 1"/><line x1="490" x2="500" y1="250.84000000000003" y2="250.84000000000003" class="net_44 width_1" style="stroke-width: 1"/><line x1="500" x2="500" y1="250.84000000000003" y2="443" class="net_44 width_1" style="stroke-width: 1"/><line x1="500" x2="530" y1="443" y2="443" class="net_44 width_1" style="stroke-width: 1"/><line x1="566" x2="601" y1="433.5" y2="433.5" class="net_34 width_1" style="stroke-width: 1"/><line x1="42" x2="140.5" y1="414" y2="414" class="net_18,19,20,21,22,23,24,25,26,27,28,29,30,31,32,33 width_16" style="stroke-width: 2"/><line x1="140.5" x2="140.5" y1="414" y2="456" class="net_18,19,20,21,22,23,24,25,26,27,28,29,30,31,32,33 width_16" style="stroke-width: 2"/><line x1="42" x2="140.5" y1="32" y2="32" class="net_2,3,4,5,6,7,8,9,10,11,12,13,14,15,16,17 width_16" style="stroke-width: 2"/><line x1="140.5" x2="140.5" y1="32" y2="74" class="net_2,3,4,5,6,7,8,9,10,11,12,13,14,15,16,17 width_16" style="stroke-width: 2"/><rect x="102" y="409" width="22" height="9" class="net_18,19,20,21,22,23,24,25,26,27,28,29,30,31,32,33 width_16 busLabel_16" style="fill: white; stroke: none"/><text x="101" y="417" class="net_18,19,20,21,22,23,24,25,26,27,28,29,30,31,32,33 width_16 busLabel_16">/16/</text><rect x="102" y="27" width="22" height="9" class="net_2,3,4,5,6,7,8,9,10,11,12,13,14,15,16,17 width_16 busLabel_16" style="fill: white; stroke: none"/><text x="101" y="35" class="net_2,3,4,5,6,7,8,9,10,11,12,13,14,15,16,17 width_16 busLabel_16">/16/</text></svg>