<svg xmlns="http://www.w3.org/2000/svg" xmlns:xlink="http://www.w3.org/1999/xlink" xmlns:s="https://github.com/nturley/netlistsvg" width="186" height="119"><style>svg {
  stroke:#000;
  fill:none;
}
text {
  fill:#000;
  stroke:none;
  font-size:10px;
  font-weight: bold;
  font-family: "Courier New", monospace;
}
line {
    stroke-linecap: round;
}
.nodelabel {
  text-anchor: middle;
}
.inputPortLabel {
  text-anchor: end;
}
.splitjoinBody {
  fill:#000;
}</style><g s:type="dff" transform="translate(78,22)" s:width="30" s:height="40" id="cell_$auto$ff.cc:266:slice$80"><s:alias val="$dff"/><s:alias val="$_DFF_"/><s:alias val="$_DFF_P_"/><s:alias val="$adff"/><s:alias val="$_DFF_"/><s:alias val="$_DFF_P_"/><s:alias val="$sdff"/><s:alias val="$_DFF_"/><s:alias val="$_DFF_P_"/><rect width="30" height="40" x="0" y="0" class="cell_$auto$ff.cc:266:slice$80"/><path d="M0,35 L5,30 L0,25" class="cell_$auto$ff.cc:266:slice$80"/><g s:x="31" s:y="10" s:pid="Q"/><g s:x="-1" s:y="30" s:pid="CLK"/><g s:x="-1" s:y="30" s:pid="C"/><g s:x="-1" s:y="10" s:pid="D"/><g s:x="15" s:y="40" s:pid="ARST"/><g s:x="15" s:y="40" s:pid="SRST"/></g><g s:type="inputExt" transform="translate(12,87)" s:width="30" s:height="20" id="cell_C"><text x="15" y="-4" class="nodelabel cell_C" s:attribute="ref">C</text><s:alias val="$_inputExt_"/><path d="M0,0 L0,20 L15,20 L30,10 L15,0 Z" class="cell_C"/><g s:x="30" s:y="10" s:pid="Y"/></g><g s:type="inputExt" transform="translate(12,22)" s:width="30" s:height="20" id="cell_D"><text x="15" y="-4" class="nodelabel cell_D" s:attribute="ref">D</text><s:alias val="$_inputExt_"/><path d="M0,0 L0,20 L15,20 L30,10 L15,0 Z" class="cell_D"/><g s:x="30" s:y="10" s:pid="Y"/></g><g s:type="outputExt" transform="translate(144,22)" s:width="30" s:height="20" id="cell_Q"><text x="15" y="-4" class="nodelabel cell_Q" s:attribute="ref">Q</text><s:alias val="$_outputExt_"/><path d="M30,0 L30,20 L15,20 L0,10 L15,0 Z" class="cell_Q"/><g s:x="0" s:y="10" s:pid="A"/></g><line x1="42" x2="52" y1="97" y2="97" class="net_2 width_1" style="stroke-width: 1"/><line x1="52" x2="52" y1="97" y2="52" class="net_2 width_1" style="stroke-width: 1"/><line x1="52" x2="77" y1="52" y2="52" class="net_2 width_1" style="stroke-width: 1"/><line x1="42" x2="77" y1="32" y2="32" class="net_3 width_1" style="stroke-width: 1"/><line x1="109" x2="144" y1="32" y2="32" class="net_4 width_1" style="stroke-width: 1"/></svg>