<svg  xmlns="http://www.w3.org/2000/svg"
  xmlns:xlink="http://www.w3.org/1999/xlink"
  xmlns:s="https://github.com/nturley/netlistsvg"
  width="800" height="500">
  <s:properties>
    <s:layoutEngine
      org.eclipse.elk.layered.spacing.nodeNodeBetweenLayers="35"
      org.eclipse.elk.spacing.nodeNode= "35"
      org.eclipse.elk.layered.layering.strategy= "LONGEST_PATH"
    />
    <s:low_priority_alias val="$dff" />
  </s:properties>
<style>
svg {
  stroke:#000;
  fill:none;
}
text {
  fill:#000;
  stroke:none;
  font-size:10px;
  font-weight: bold;
  font-family: "Courier New", monospace;
}
line {
    stroke-linecap: round;
}
.nodelabel {
  text-anchor: middle;
}
.inputPortLabel {
  text-anchor: end;
}
.splitjoinBody {
  fill:#000;
}
</style>

  <!-- and -->
  <g s:type="AND" transform="translate(150,50)" s:width="30" s:height="25">
    <s:alias val="$AND"/>
    <s:alias val="$logic_and"/>
    <s:alias val="$_AND_"/>
    <s:alias val="$reduce_and"/>

    <path d="M0,0 L0,25 L15,25 A15 12.5 0 0 0 15,0 Z" class="$cell_id"/>

    <g s:x="0" s:y="5" s:pid="A"/>
    <g s:x="0" s:y="20" s:pid="B"/>
    <g s:x="30" s:y="12.5" s:pid="Y"/>
  </g>
  
  
  <g s:type="NAND2" transform="translate(150,100)" s:width="30" s:height="25">
    <s:alias val="NAND2"/>
    <s:alias val="$NAND2"/>

    <path d="M0,0 L0,25 L15,25 A15 12.5 0 0 0 15,0 Z" class="$cell_id"/>
    <circle cx="34" cy="12.5" r="3" class="$cell_id"/>

    <g s:x="0" s:y="5" s:pid="A"/>
    <g s:x="0" s:y="20" s:pid="B"/>
    <g s:x="36" s:y="12.5" s:pid="Y"/>
  </g>

  <g s:type="NAND3" transform="translate(150,130)" s:width="30" s:height="25">
    <s:alias val="NAND3"/>
    <s:alias val="$NAND3"/>

    <path d="M0,0 L0,25 L15,25 A15 12.5 0 0 0 15,0 Z" class="$cell_id"/>
    <circle cx="34" cy="12.5" r="3" class="$cell_id"/>

    <g s:x="0" s:y="3" s:pid="A"/>
    <g s:x="0" s:y="12.5" s:pid="B"/>
    <g s:x="0" s:y="22" s:pid="C"/>
    <g s:x="36" s:y="12.5" s:pid="Y"/>
  </g>

  <g s:type="NAND4" transform="translate(150,160)" s:width="30" s:height="25">
    <s:alias val="NAND4"/>
    <s:alias val="$NAND4"/>

    <path d="M0,0 L0,25 L15,25 A15 12.5 0 0 0 15,0 Z" class="$cell_id"/>
    <circle cx="34" cy="12.5" r="3" class="$cell_id"/>

    <g s:x="0" s:y="3" s:pid="A"/>
    <g s:x="0" s:y="9.33" s:pid="B"/>
    <g s:x="0" s:y="15.66" s:pid="C"/>
    <g s:x="0" s:y="22" s:pid="D"/>
    <g s:x="36" s:y="12.5" s:pid="Y"/>
  </g>
  
  <g s:type="NAND5" transform="translate(150,160)" s:width="30" s:height="25">
    <s:alias val="NAND5"/>
    <s:alias val="$NAND5"/>

    <path d="M0,0 L0,25 L15,25 A15 12.5 0 0 0 15,0 Z" class="$cell_id"/>
    <circle cx="34" cy="12.5" r="3" class="$cell_id"/>

    <g s:x="0" s:y="3" s:pid="A"/>
    <g s:x="0" s:y="7.75" s:pid="B"/>
    <g s:x="0" s:y="12.5" s:pid="C"/>
    <g s:x="0" s:y="17.25" s:pid="D"/>
    <g s:x="0" s:y="22" s:pid="E"/>
    <g s:x="36" s:y="12.5" s:pid="Y"/>
  </g>
  
  <g s:type="NAND6" transform="translate(150,160)" s:width="30" s:height="25">
    <s:alias val="NAND6"/>
    <s:alias val="$NAND6"/>

    <path d="M0,0 L0,25 L15,25 A15 12.5 0 0 0 15,0 Z" class="$cell_id"/>
    <circle cx="34" cy="12.5" r="3" class="$cell_id"/>

    <g s:x="0" s:y="3" s:pid="A"/>
    <g s:x="0" s:y="6.8" s:pid="B"/>
    <g s:x="0" s:y="10.6" s:pid="C"/>
    <g s:x="0" s:y="14.4" s:pid="D"/>
    <g s:x="0" s:y="18.2" s:pid="E"/>
    <g s:x="0" s:y="22" s:pid="F"/>
    <g s:x="36" s:y="12.5" s:pid="Y"/>
  </g>
  
  <g s:type="NAND7" transform="translate(150,160)" s:width="30" s:height="25">
    <s:alias val="NAND7"/>
    <s:alias val="$NAND7"/>

    <path d="M0,0 L0,25 L15,25 A15 12.5 0 0 0 15,0 Z" class="$cell_id"/>
    <circle cx="34" cy="12.5" r="3" class="$cell_id"/>

    <g s:x="0" s:y="3" s:pid="A"/>
    <g s:x="0" s:y="6.167" s:pid="B"/>
    <g s:x="0" s:y="9.33" s:pid="C"/>
    <g s:x="0" s:y="12.5" s:pid="D"/>
    <g s:x="0" s:y="15.67" s:pid="E"/>
    <g s:x="0" s:y="18.83" s:pid="F"/>
    <g s:x="0" s:y="22" s:pid="G"/>
    <g s:x="36" s:y="12.5" s:pid="Y"/>
  </g>
  
  <g s:type="NAND8" transform="translate(150,160)" s:width="30" s:height="25">
    <s:alias val="NAND8"/>
    <s:alias val="$NAND8"/>

    <path d="M0,0 L0,25 L15,25 A15 12.5 0 0 0 15,0 Z" class="$cell_id"/>
    <circle cx="34" cy="12.5" r="3" class="$cell_id"/>

    <g s:x="0" s:y="3" s:pid="A"/>
    <g s:x="0" s:y="5.714" s:pid="B"/>
    <g s:x="0" s:y="8.428" s:pid="C"/>
    <g s:x="0" s:y="11.14" s:pid="D"/>
    <g s:x="0" s:y="13.857" s:pid="E"/>
    <g s:x="0" s:y="16.57" s:pid="F"/>
    <g s:x="0" s:y="19.286" s:pid="G"/>
    <g s:x="0" s:y="22" s:pid="H"/>
    <g s:x="36" s:y="12.5" s:pid="Y"/>
  </g>
  
  <g s:type="NAND16" transform="translate(150,160)" s:width="30" s:height="25">
    <s:alias val="NAND16"/>
    <s:alias val="$NAND16"/>

    <path d="M0,0 L0,25 L15,25 A15 12.5 0 0 0 15,0 Z" class="$cell_id"/>
    <circle cx="34" cy="12.5" r="3" class="$cell_id"/>

    <g s:x="0" s:y="3" s:pid="A"/>
    <g s:x="0" s:y="4.1875" s:pid="B"/>
    <g s:x="0" s:y="5.375" s:pid="C"/>
    <g s:x="0" s:y="6.5625" s:pid="D"/>
    <g s:x="0" s:y="7.75" s:pid="E"/>
    <g s:x="0" s:y="8.9375" s:pid="F"/>
    <g s:x="0" s:y="10.125" s:pid="G"/>
    <g s:x="0" s:y="11.3125" s:pid="H"/>
    <g s:x="0" s:y="12.5" s:pid="I"/>
    <g s:x="0" s:y="13.6875" s:pid="J"/>
    <g s:x="0" s:y="14.875" s:pid="K"/>
    <g s:x="0" s:y="16.0625" s:pid="L"/>
    <g s:x="0" s:y="17.25" s:pid="M"/>
    <g s:x="0" s:y="18.4375" s:pid="N"/>
    <g s:x="0" s:y="19.625" s:pid="O"/>
    <g s:x="0" s:y="20.8125" s:pid="P"/>
    <g s:x="36" s:y="12.5" s:pid="Y"/>
  </g>

  <!-- or -->
  <g s:type="or" transform="translate(250,50)" s:width="30" s:height="25">
    <s:alias val="$or"/>
    <s:alias val="$logic_or"/>
    <s:alias val="$_OR_"/>
    <s:alias val="$reduce_or"/>
    <s:alias val="$reduce_bool"/>

    <path d="M0,0 A30 25 0 0 1 0,25 A30 25 0 0 0 30,12.5 A30 25 0 0 0 0,0" class="$cell_id"/>
 
    <g s:x="2" s:y="5" s:pid="A"/>
    <g s:x="2" s:y="20" s:pid="B"/>
    <g s:x="30" s:y="12.5" s:pid="Y"/>
  </g>
  
  <g s:type="NOR2" transform="translate(250, 100)" s:width="33" s:height="25">
    <s:alias val="NOR2"/>
    <s:alias val="$NOR2"/>

    <path d="M0,0 A30 25 0 0 1 0,25 A30 25 0 0 0 30,12.5 A30 25 0 0 0 0,0" class="$cell_id"/>
    <circle cx="33" cy="12.5" r="3" class="$cell_id"/>

    <g s:x="2" s:y="5" s:pid="A"/>
    <g s:x="2" s:y="20" s:pid="B"/>
    <g s:x="36" s:y="12.5" s:pid="Y"/>
  </g>

  <g s:type="NOR3" transform="translate(250,130)" s:width="30" s:height="25">
    <s:alias val="NOR3"/>
    <s:alias val="$NOR3"/>

    <path d="M0,0 A30 25 0 0 1 0,25 A30 25 0 0 0 30,12.5 A30 25 0 0 0 0,0" class="$cell_id"/>
    <circle cx="33" cy="12.5" r="3" class="$cell_id"/>

    <g s:x="2" s:y="8" s:pid="A"/>
    <g s:x="3" s:y="12.5" s:pid="B"/>
    <g s:x="2" s:y="17" s:pid="C"/>
    <g s:x="36" s:y="12.5" s:pid="Y"/>
  </g>

  <g s:type="NOR4" transform="translate(250,160)" s:width="30" s:height="25">
    <s:alias val="NOR4"/>
    <s:alias val="$NOR4"/>

    <path d="M0,0 A30 25 0 0 1 0,25 A30 25 0 0 0 30,12.5 A30 25 0 0 0 0,0" class="$cell_id"/>
    <circle cx="33" cy="12.5" r="3" class="$cell_id"/>

    <g s:x="1" s:y="3" s:pid="A"/>
    <g s:x="3" s:y="9.33" s:pid="B"/>
    <g s:x="3" s:y="15.66" s:pid="C"/>
    <g s:x="1" s:y="22" s:pid="D"/>
    <g s:x="36" s:y="12.5" s:pid="Y"/>
  </g>
  
  <g s:type="NOR5" transform="translate(250,160)" s:width="30" s:height="25">
    <s:alias val="NOR5"/>
    <s:alias val="$NOR5"/>

    <path d="M0,0 A30 25 0 0 1 0,25 A30 25 0 0 0 30,12.5 A30 25 0 0 0 0,0" class="$cell_id"/>
    <circle cx="33" cy="12.5" r="3" class="$cell_id"/>

    <g s:x="1" s:y="3" s:pid="A"/>
    <g s:x="3" s:y="7.75" s:pid="B"/>
    <g s:x="3" s:y="12.5" s:pid="C"/>
    <g s:x="3" s:y="17.25" s:pid="D"/>
    <g s:x="1" s:y="22" s:pid="E"/>
    <g s:x="36" s:y="12.5" s:pid="Y"/>
  </g>
  
  <g s:type="NOR6" transform="translate(250,160)" s:width="30" s:height="25">
    <s:alias val="NOR6"/>
    <s:alias val="$NOR6"/>

    <path d="M0,0 A30 25 0 0 1 0,25 A30 25 0 0 0 30,12.5 A30 25 0 0 0 0,0" class="$cell_id"/>
    <circle cx="33" cy="12.5" r="3" class="$cell_id"/>

    <g s:x="1" s:y="3" s:pid="A"/>
    <g s:x="3" s:y="7.75" s:pid="B"/>
    <g s:x="3" s:y="12.5" s:pid="C"/>
    <g s:x="1" s:y="17.25" s:pid="D"/>
    <g s:x="1" s:y="22" s:pid="E"/>
    <g s:x="1" s:y="22" s:pid="F"/>
    <g s:x="36" s:y="12.5" s:pid="Y"/>
  </g>
  
  <g s:type="NOR7" transform="translate(250,160)" s:width="30" s:height="25">
    <s:alias val="NOR7"/>
    <s:alias val="$NOR7"/>

    <path d="M0,0 A30 25 0 0 1 0,25 A30 25 0 0 0 30,12.5 A30 25 0 0 0 0,0" class="$cell_id"/>
    <circle cx="33" cy="12.5" r="3" class="$cell_id"/>

    <g s:x="1" s:y="3" s:pid="A"/>
    <g s:x="3" s:y="7.75" s:pid="B"/>
    <g s:x="3" s:y="12.5" s:pid="C"/>
    <g s:x="1" s:y="17.25" s:pid="D"/>
    <g s:x="1" s:y="22" s:pid="E"/>
    <g s:x="1" s:y="22" s:pid="F"/>
    <g s:x="1" s:y="22" s:pid="G"/>
    <g s:x="36" s:y="12.5" s:pid="Y"/>
  </g>
  
  <g s:type="NOR8" transform="translate(250,160)" s:width="30" s:height="25">
    <s:alias val="NOR8"/>
    <s:alias val="$NOR8"/>

    <path d="M0,0 A30 25 0 0 1 0,25 A30 25 0 0 0 30,12.5 A30 25 0 0 0 0,0" class="$cell_id"/>
    <circle cx="33" cy="12.5" r="3" class="$cell_id"/>

    <g s:x="1" s:y="3" s:pid="A"/>
    <g s:x="3" s:y="7.75" s:pid="B"/>
    <g s:x="3" s:y="12.5" s:pid="C"/>
    <g s:x="1" s:y="17.25" s:pid="D"/>
    <g s:x="1" s:y="22" s:pid="E"/>
    <g s:x="1" s:y="22" s:pid="F"/>
    <g s:x="1" s:y="22" s:pid="G"/>
    <g s:x="1" s:y="22" s:pid="H"/>
    <g s:x="36" s:y="12.5" s:pid="Y"/>
  </g>
  


  <!--xor -->
  <g s:type="reduce_xor" transform="translate(350, 50)" s:width="33" s:height="25">
    <s:alias val="$xor"/>
    <s:alias val="$reduce_xor"/>
    <s:alias val="$_XOR_"/>

    <path d="M3,0 A30 25 0 0 1 3,25 A30 25 0 0 0 33,12.5 A30 25 0 0 0 3,0" class="$cell_id"/>
    <path d="M0,0 A30 25 0 0 1 0,25" class="$cell_id"/>

    <g s:x="2" s:y="5" s:pid="A"/>
    <g s:x="2" s:y="20" s:pid="B"/>
    <g s:x="33" s:y="12.5" s:pid="Y"/>
  </g>

  <g s:type="reduce_nxor" transform="translate(350, 100)" s:width="33" s:height="25">
    <s:alias val="$xnor"/>
    <s:alias val="$reduce_xnor"/>
    <s:alias val="$_XNOR_"/>

    <path d="M3,0 A30 25 0 0 1 3,25 A30 25 0 0 0 33,12.5 A30 25 0 0 0 3,0" class="$cell_id"/>
    <path d="M0,0 A30 25 0 0 1 0,25" class="$cell_id"/>
    <circle cx="36" cy="12.5" r="3" class="$cell_id"/>

    <g s:x="2" s:y="5" s:pid="A"/>
    <g s:x="2" s:y="20" s:pid="B"/>
    <g s:x="38" s:y="12.5" s:pid="Y"/>
  </g>

  
  <!--buffer -->
  <g s:type="NOT" transform="translate(450,100)" s:width="30" s:height="20">
    <s:alias val="NOT"/>
    <s:alias val="$NOT"/>

    <path d="M0,0 L0,20 L20,10 Z" class="$cell_id"/>
    <circle cx="24" cy="10" r="3" class="$cell_id"/>

    <g s:x="-1" s:y="10" s:pid="A"/>
    <g s:x="27" s:y="10" s:pid="Y"/>
  </g>
  
  <g s:type="buf" transform="translate(450,50)" s:width="30" s:height="20">
    <s:alias val="buf"/>
    <s:alias val="$buf"/>

    <path d="M0,0 L0,20 L20,10 Z" class="$cell_id"/>

    <g s:x="0" s:y="10" s:pid="A"/>
    <g s:x="20" s:y="10" s:pid="Y"/>
    <!-- <path d="M -5,10 L 0,10"/> -->
    <!-- <path d="M 25,10 L 20,10"/> -->
  </g>


  <g s:type="inputExt" transform="translate(50,400)" s:width="30" s:height="20">
    <text x="15" y="-4" class="nodelabel $cell_id" s:attribute="ref">input</text>
    <s:alias val="$_inputExt_"/>
    <path d="M0,0 L0,20 L15,20 L30,10 L15,0 Z" class="$cell_id"/>
    <g s:x="30" s:y="10" s:pid="Y"/>
  </g>

  <g s:type="constant" transform="translate(150,400)" s:width="30" s:height="20">
    <text x="15" y="-4" class="nodelabel $cell_id" s:attribute="ref">constant</text>

    <s:alias val="$_constant_"/>
    <rect width="30" height="20" class="$cell_id"/>

    <g s:x="31" s:y="10" s:pid="Y"/>
  </g>

  <g s:type="outputExt" transform="translate(250,400)" s:width="30" s:height="20">
    <text x="15" y="-4" class="nodelabel $cell_id" s:attribute="ref">output</text>
    <s:alias val="$_outputExt_"/>
    <path d="M30,0 L30,20 L15,20 L0,10 L15,0 Z" class="$cell_id"/>

    <g s:x="0" s:y="10" s:pid="A"/>
  </g>

  <g s:type="dff" transform="translate(50,450)" s:width="30" s:height="40">
    <s:alias val="$dff"/>
    <s:alias val="$_DFF_"/>
    <s:alias val="$_DFF_P_"/>

    <s:alias val="$adff"/>
    <s:alias val="$_DFF_"/>
    <s:alias val="$_DFF_P_"/>

    <s:alias val="$sdff"/>
    <s:alias val="$_DFF_"/>
    <s:alias val="$_DFF_P_"/>

    <rect width="30" height="40" x="0" y="0" class="$cell_id"/>
    <path d="M0,35 L5,30 L0,25" class="$cell_id"/>

    <g s:x="31" s:y="10" s:pid="Q"/>
    <g s:x="-1" s:y="30" s:pid="CLK"/>
    <g s:x="-1" s:y="30" s:pid="C"/>
    <g s:x="-1" s:y="10" s:pid="D"/>
    <g s:x="15" s:y="40" s:pid="ARST"/>
    <g s:x="15" s:y="40" s:pid="SRST"/>
  </g>

  <g s:type="dff-bus" transform="translate(100,450)" s:width="34" s:height="44">
    <s:alias val="$dff-bus"/>
    <s:alias val="$_DFF_-bus"/>
    <s:alias val="$_DFF_P_-bus"/>

    <s:alias val="adff-bus"/>
    <s:alias val="$adff-bus"/>
    <s:alias val="$_DFF_-bus"/>
    <s:alias val="$_DFF_P_-bus"/>

    <s:alias val="sdff-bus"/>
    <s:alias val="$sdff-bus"/>
    <s:alias val="$_DFF_-bus"/>
    <s:alias val="$_DFF_P_-bus"/>

    <rect width="30" height="40" x="0" y="0" class="$cell_id"/>
    <path d="M0,35 L5,30 L0,25" class="$cell_id"/>
    <path d="M30,2 L32,2 L32,42 L2,42 L2,40" class="$cell_id"/>
    <path d="M32,4 L34,4 L34,44 L4,44 L4,42" class="$cell_id"/>

    <g s:x="35" s:y="10" s:pid="Q"/>
    <g s:x="-1" s:y="30" s:pid="CLK"/>
    <g s:x="-1" s:y="30" s:pid="C"/>
    <g s:x="-1" s:y="10" s:pid="D"/>
    <g s:x="17" s:y="44" s:pid="ARST"/>
    <g s:x="17" s:y="44" s:pid="SRST"/>
  </g>

  <g s:type="dffn" transform="translate(150,450)" s:width="30" s:height="40">
    <s:alias val="$dffn"/>
    <s:alias val="$_DFF_N_"/>

    <rect width="30" height="40" x="0" y="0" class="$cell_id"/>
    <path d="M0,35 L5,30 L0,25" class="$cell_id"/>
    <circle cx="-3" cy="30" r="3" class="$cell_id"/>

    <g s:x="30" s:y="10" s:pid="Q"/>
    <g s:x="-6" s:y="30" s:pid="CLK"/>
    <g s:x="-6" s:y="30" s:pid="C"/>
    <g s:x="0" s:y="10" s:pid="D"/>
  </g>

  <g s:type="dffn-bus" transform="translate(200,450)" s:width="30" s:height="40">
    <s:alias val="$dffn-bus"/>
    <s:alias val="$_DFF_N_-bus"/>

    <rect width="30" height="40" x="0" y="0" class="$cell_id"/>
    <path d="M0,35 L5,30 L0,25" class="$cell_id"/>
    <circle cx="-3" cy="30" r="3" class="$cell_id"/>
    <path d="M30,2 L32,2 L32,42 L2,42 L2,40" class="$cell_id"/>
    <path d="M32,4 L34,4 L34,44 L4,44 L4,42" class="$cell_id"/>

    <g s:x="35" s:y="10" s:pid="Q"/>
    <g s:x="-6" s:y="30" s:pid="CLK"/>
    <g s:x="-6" s:y="30" s:pid="C"/>
    <g s:x="0" s:y="10" s:pid="D"/>
  </g>

  <g s:type="dlatch" transform="translate(250,450)" s:width="30" s:height="40">
    <s:alias val="$dlatch"/>
    <s:alias val="$_DLATCH_"/>
    <s:alias val="adlatch"/>
    <s:alias val="$adlatch"/>

    <rect width="30" height="40" x="0" y="0" class="$cell_id"/>

    <path d="M 1,35 H 4 V 25 h 5 v 10 h 3" class="$cell_id"/>

    <g s:x="30" s:y="10" s:pid="Q"/>
    <g s:x="0" s:y="10" s:pid="D"/>
    <g s:x="-1" s:y="30" s:pid="EN"/>
    <g s:x="15" s:y="40" s:pid="ARST"/>
  </g>

  <g s:type="dlatch-bus" transform="translate(300,450)" s:width="30" s:height="40">
    <s:alias val="$dlatch-bus"/>
    <s:alias val="$_DLATCH_-bus"/>
    <s:alias val="adlatch-bus"/>
    <s:alias val="$adlatch-bus"/>

    <rect width="30" height="40" x="0" y="0" class="$cell_id"/>

    <path d="M 1,35 H 4 V 25 h 5 v 10 h 3" class="$cell_id"/>
    <path d="M30,2 L32,2 L32,42 L2,42 L2,40" class="$cell_id"/>
    <path d="M32,4 L34,4 L34,44 L4,44 L4,42" class="$cell_id"/>

    <g s:x="35" s:y="10" s:pid="Q"/>
    <g s:x="0" s:y="10" s:pid="D"/>
    <g s:x="-1" s:y="30" s:pid="EN"/>
    <g s:x="17" s:y="44" s:pid="ARST"/>
  </g>

  <g s:type="dlatchn" transform="translate(350,450)" s:width="30" s:height="40">
    <s:alias val="$dlatchn"/>
    <s:alias val="$_DLATCH_N_"/>

    <rect width="30" height="40" x="0" y="0" class="$cell_id"/>

    <path d="M 1,25 H 4 V 35 H 9 V 25 h 3" class="$cell_id"/>

    <g s:x="30" s:y="10" s:pid="Q"/>
    <g s:x="0" s:y="10" s:pid="D"/>
    <g s:x="-1" s:y="30" s:pid="EN"/>
  </g>

  <g s:type="dlatchn-bus" transform="translate(400,450)" s:width="30" s:height="40">
    <s:alias val="$dlatchn-bus"/>
    <s:alias val="$_DLATCH_N_-bus"/>

    <rect width="30" height="40" x="0" y="0" class="$cell_id"/>

    <path d="M 1,25 H 4 V 35 H 9 V 25 h 3" class="$cell_id"/>
    <path d="M30,2 L32,2 L32,42 L2,42 L2,40" class="$cell_id"/>
    <path d="M32,4 L34,4 L34,44 L4,44 L4,42" class="$cell_id"/>

    <g s:x="35" s:y="10" s:pid="Q"/>
    <g s:x="0" s:y="10" s:pid="D"/>
    <g s:x="-1" s:y="30" s:pid="EN"/>
  </g>
  
   <g s:type="split" transform="translate(350,250)" s:width="5" s:height="40">
    <rect width="5" height="40" class="splitjoinBody" s:generic="body"/>
    <s:alias val="$_split_"/>

    <g s:x="0" s:y="20" s:pid="in"/>
    <g transform="translate(5, 10)" s:x="4" s:y="10" s:pid="out0">
      <text x="5" y="-4">hi:lo</text>
    </g>
    <g transform="translate(5, 30)" s:x="4" s:y="30" s:pid="out1">
      <text x="5" y="-4">hi:lo</text>
    </g>
  </g>

  <g s:type="join" transform="translate(450,250)" s:width="4" s:height="40">
    <rect width="5" height="40" class="splitjoinBody" s:generic="body"/>
    <s:alias val="$_join_"/>
    <g s:x="5" s:y="20"  s:pid="out"/>
    <g transform="translate(0, 10)" s:x="0" s:y="10" s:pid="in0">
      <text x="-3" y="-4" class="inputPortLabel">hi:lo</text>
    </g>
    <g transform="translate(0, 30)" s:x="0" s:y="30" s:pid="in1">
      <text x="-3" y="-4" class="inputPortLabel">hi:lo</text>
    </g>
  </g>


  <g s:type="generic" transform="translate(550,450)" s:width="30" s:height="40">

    <text x="15" y="-4" class="nodelabel $cell_id" s:attribute="ref">generic</text>
    <rect width="30" height="40" s:generic="body" class="$cell_id"/>

    <g transform="translate(30, 10)" s:x="30" s:y="10" s:pid="out0">
      <text x="5" y="-4" style="fill:#000; stroke:none" class="$cell_id">out0</text>
    </g>
    <g transform="translate(30, 30)" s:x="30" s:y="30" s:pid="out1">
      <text x="5" y="-4" style="fill:#000;stroke:none" class="$cell_id">out1</text>
    </g>
    <g transform="translate(0, 10)" s:x="0" s:y="10" s:pid="in0">
      <text x="-3" y="-4" class="inputPortLabel $cell_id">in0</text>
    </g>
    <g transform="translate(0, 30)" s:x="0" s:y="30" s:pid="in1">
      <text x="-3" y="-4" class="inputPortLabel $cell_id">in1</text>
    </g>
  </g>

</svg>
