<svg xmlns="http://www.w3.org/2000/svg" xmlns:xlink="http://www.w3.org/1999/xlink" xmlns:s="https://github.com/nturley/netlistsvg" width="604" height="1078"><style>svg {
  stroke:#000;
  fill:none;
}
text {
  fill:#000;
  stroke:none;
  font-size:10px;
  font-weight: bold;
  font-family: "Courier New", monospace;
}
line {
    stroke-linecap: round;
}
.nodelabel {
  text-anchor: middle;
}
.inputPortLabel {
  text-anchor: end;
}
.splitjoinBody {
  fill:#000;
}</style><g s:type="NOT" transform="translate(259,83)" s:width="30" s:height="20" id="cell_$abc$123$auto$blifparse.cc:386:parse_blif$124"><s:alias val="NOT"/><s:alias val="$NOT"/><path d="M0,0 L0,20 L20,10 Z" class="cell_$abc$123$auto$blifparse.cc:386:parse_blif$124"/><circle cx="24" cy="10" r="3" class="cell_$abc$123$auto$blifparse.cc:386:parse_blif$124"/><g s:x="-1" s:y="10" s:pid="A"/><g s:x="27" s:y="10" s:pid="Y"/></g><g s:type="NOT" transform="translate(259,28)" s:width="30" s:height="20" id="cell_$abc$123$auto$blifparse.cc:386:parse_blif$125"><s:alias val="NOT"/><s:alias val="$NOT"/><path d="M0,0 L0,20 L20,10 Z" class="cell_$abc$123$auto$blifparse.cc:386:parse_blif$125"/><circle cx="24" cy="10" r="3" class="cell_$abc$123$auto$blifparse.cc:386:parse_blif$125"/><g s:x="-1" s:y="10" s:pid="A"/><g s:x="27" s:y="10" s:pid="Y"/></g><g s:type="NOT" transform="translate(259,763)" s:width="30" s:height="20" id="cell_$abc$123$auto$blifparse.cc:386:parse_blif$126"><s:alias val="NOT"/><s:alias val="$NOT"/><path d="M0,0 L0,20 L20,10 Z" class="cell_$abc$123$auto$blifparse.cc:386:parse_blif$126"/><circle cx="24" cy="10" r="3" class="cell_$abc$123$auto$blifparse.cc:386:parse_blif$126"/><g s:x="-1" s:y="10" s:pid="A"/><g s:x="27" s:y="10" s:pid="Y"/></g><g s:type="NOT" transform="translate(259,708)" s:width="30" s:height="20" id="cell_$abc$123$auto$blifparse.cc:386:parse_blif$127"><s:alias val="NOT"/><s:alias val="$NOT"/><path d="M0,0 L0,20 L20,10 Z" class="cell_$abc$123$auto$blifparse.cc:386:parse_blif$127"/><circle cx="24" cy="10" r="3" class="cell_$abc$123$auto$blifparse.cc:386:parse_blif$127"/><g s:x="-1" s:y="10" s:pid="A"/><g s:x="27" s:y="10" s:pid="Y"/></g><g s:type="NOT" transform="translate(259,219)" s:width="30" s:height="20" id="cell_$abc$123$auto$blifparse.cc:386:parse_blif$128"><s:alias val="NOT"/><s:alias val="$NOT"/><path d="M0,0 L0,20 L20,10 Z" class="cell_$abc$123$auto$blifparse.cc:386:parse_blif$128"/><circle cx="24" cy="10" r="3" class="cell_$abc$123$auto$blifparse.cc:386:parse_blif$128"/><g s:x="-1" s:y="10" s:pid="A"/><g s:x="27" s:y="10" s:pid="Y"/></g><g s:type="NOT" transform="translate(259,164)" s:width="30" s:height="20" id="cell_$abc$123$auto$blifparse.cc:386:parse_blif$129"><s:alias val="NOT"/><s:alias val="$NOT"/><path d="M0,0 L0,20 L20,10 Z" class="cell_$abc$123$auto$blifparse.cc:386:parse_blif$129"/><circle cx="24" cy="10" r="3" class="cell_$abc$123$auto$blifparse.cc:386:parse_blif$129"/><g s:x="-1" s:y="10" s:pid="A"/><g s:x="27" s:y="10" s:pid="Y"/></g><g s:type="NOT" transform="translate(259,1035)" s:width="30" s:height="20" id="cell_$abc$123$auto$blifparse.cc:386:parse_blif$130"><s:alias val="NOT"/><s:alias val="$NOT"/><path d="M0,0 L0,20 L20,10 Z" class="cell_$abc$123$auto$blifparse.cc:386:parse_blif$130"/><circle cx="24" cy="10" r="3" class="cell_$abc$123$auto$blifparse.cc:386:parse_blif$130"/><g s:x="-1" s:y="10" s:pid="A"/><g s:x="27" s:y="10" s:pid="Y"/></g><g s:type="NOT" transform="translate(259,980)" s:width="30" s:height="20" id="cell_$abc$123$auto$blifparse.cc:386:parse_blif$131"><s:alias val="NOT"/><s:alias val="$NOT"/><path d="M0,0 L0,20 L20,10 Z" class="cell_$abc$123$auto$blifparse.cc:386:parse_blif$131"/><circle cx="24" cy="10" r="3" class="cell_$abc$123$auto$blifparse.cc:386:parse_blif$131"/><g s:x="-1" s:y="10" s:pid="A"/><g s:x="27" s:y="10" s:pid="Y"/></g><g s:type="NOT" transform="translate(259,899)" s:width="30" s:height="20" id="cell_$abc$123$auto$blifparse.cc:386:parse_blif$132"><s:alias val="NOT"/><s:alias val="$NOT"/><path d="M0,0 L0,20 L20,10 Z" class="cell_$abc$123$auto$blifparse.cc:386:parse_blif$132"/><circle cx="24" cy="10" r="3" class="cell_$abc$123$auto$blifparse.cc:386:parse_blif$132"/><g s:x="-1" s:y="10" s:pid="A"/><g s:x="27" s:y="10" s:pid="Y"/></g><g s:type="NOT" transform="translate(259,844)" s:width="30" s:height="20" id="cell_$abc$123$auto$blifparse.cc:386:parse_blif$133"><s:alias val="NOT"/><s:alias val="$NOT"/><path d="M0,0 L0,20 L20,10 Z" class="cell_$abc$123$auto$blifparse.cc:386:parse_blif$133"/><circle cx="24" cy="10" r="3" class="cell_$abc$123$auto$blifparse.cc:386:parse_blif$133"/><g s:x="-1" s:y="10" s:pid="A"/><g s:x="27" s:y="10" s:pid="Y"/></g><g s:type="NOT" transform="translate(259,355)" s:width="30" s:height="20" id="cell_$abc$123$auto$blifparse.cc:386:parse_blif$134"><s:alias val="NOT"/><s:alias val="$NOT"/><path d="M0,0 L0,20 L20,10 Z" class="cell_$abc$123$auto$blifparse.cc:386:parse_blif$134"/><circle cx="24" cy="10" r="3" class="cell_$abc$123$auto$blifparse.cc:386:parse_blif$134"/><g s:x="-1" s:y="10" s:pid="A"/><g s:x="27" s:y="10" s:pid="Y"/></g><g s:type="NOT" transform="translate(259,300)" s:width="30" s:height="20" id="cell_$abc$123$auto$blifparse.cc:386:parse_blif$135"><s:alias val="NOT"/><s:alias val="$NOT"/><path d="M0,0 L0,20 L20,10 Z" class="cell_$abc$123$auto$blifparse.cc:386:parse_blif$135"/><circle cx="24" cy="10" r="3" class="cell_$abc$123$auto$blifparse.cc:386:parse_blif$135"/><g s:x="-1" s:y="10" s:pid="A"/><g s:x="27" s:y="10" s:pid="Y"/></g><g s:type="NOT" transform="translate(259,491)" s:width="30" s:height="20" id="cell_$abc$123$auto$blifparse.cc:386:parse_blif$136"><s:alias val="NOT"/><s:alias val="$NOT"/><path d="M0,0 L0,20 L20,10 Z" class="cell_$abc$123$auto$blifparse.cc:386:parse_blif$136"/><circle cx="24" cy="10" r="3" class="cell_$abc$123$auto$blifparse.cc:386:parse_blif$136"/><g s:x="-1" s:y="10" s:pid="A"/><g s:x="27" s:y="10" s:pid="Y"/></g><g s:type="NOT" transform="translate(259,436)" s:width="30" s:height="20" id="cell_$abc$123$auto$blifparse.cc:386:parse_blif$137"><s:alias val="NOT"/><s:alias val="$NOT"/><path d="M0,0 L0,20 L20,10 Z" class="cell_$abc$123$auto$blifparse.cc:386:parse_blif$137"/><circle cx="24" cy="10" r="3" class="cell_$abc$123$auto$blifparse.cc:386:parse_blif$137"/><g s:x="-1" s:y="10" s:pid="A"/><g s:x="27" s:y="10" s:pid="Y"/></g><g s:type="NOT" transform="translate(259,627)" s:width="30" s:height="20" id="cell_$abc$123$auto$blifparse.cc:386:parse_blif$138"><s:alias val="NOT"/><s:alias val="$NOT"/><path d="M0,0 L0,20 L20,10 Z" class="cell_$abc$123$auto$blifparse.cc:386:parse_blif$138"/><circle cx="24" cy="10" r="3" class="cell_$abc$123$auto$blifparse.cc:386:parse_blif$138"/><g s:x="-1" s:y="10" s:pid="A"/><g s:x="27" s:y="10" s:pid="Y"/></g><g s:type="NOT" transform="translate(259,572)" s:width="30" s:height="20" id="cell_$abc$123$auto$blifparse.cc:386:parse_blif$139"><s:alias val="NOT"/><s:alias val="$NOT"/><path d="M0,0 L0,20 L20,10 Z" class="cell_$abc$123$auto$blifparse.cc:386:parse_blif$139"/><circle cx="24" cy="10" r="3" class="cell_$abc$123$auto$blifparse.cc:386:parse_blif$139"/><g s:x="-1" s:y="10" s:pid="A"/><g s:x="27" s:y="10" s:pid="Y"/></g><g s:type="NAND2" transform="translate(324,284)" s:width="30" s:height="25" id="cell_$abc$123$auto$blifparse.cc:386:parse_blif$140"><s:alias val="NAND2"/><s:alias val="$NAND2"/><path d="M0,0 L0,25 L15,25 A15 12.5 0 0 0 15,0 Z" class="cell_$abc$123$auto$blifparse.cc:386:parse_blif$140"/><circle cx="34" cy="12.5" r="3" class="cell_$abc$123$auto$blifparse.cc:386:parse_blif$140"/><g s:x="0" s:y="5" s:pid="A"/><g s:x="0" s:y="20" s:pid="B"/><g s:x="36" s:y="12.5" s:pid="Y"/></g><g s:type="NAND2" transform="translate(324,360)" s:width="30" s:height="25" id="cell_$abc$123$auto$blifparse.cc:386:parse_blif$141"><s:alias val="NAND2"/><s:alias val="$NAND2"/><path d="M0,0 L0,25 L15,25 A15 12.5 0 0 0 15,0 Z" class="cell_$abc$123$auto$blifparse.cc:386:parse_blif$141"/><circle cx="34" cy="12.5" r="3" class="cell_$abc$123$auto$blifparse.cc:386:parse_blif$141"/><g s:x="0" s:y="5" s:pid="A"/><g s:x="0" s:y="20" s:pid="B"/><g s:x="36" s:y="12.5" s:pid="Y"/></g><g s:type="NAND2" transform="translate(324,420)" s:width="30" s:height="25" id="cell_$abc$123$auto$blifparse.cc:386:parse_blif$142"><s:alias val="NAND2"/><s:alias val="$NAND2"/><path d="M0,0 L0,25 L15,25 A15 12.5 0 0 0 15,0 Z" class="cell_$abc$123$auto$blifparse.cc:386:parse_blif$142"/><circle cx="34" cy="12.5" r="3" class="cell_$abc$123$auto$blifparse.cc:386:parse_blif$142"/><g s:x="0" s:y="5" s:pid="A"/><g s:x="0" s:y="20" s:pid="B"/><g s:x="36" s:y="12.5" s:pid="Y"/></g><g s:type="NAND2" transform="translate(324,496)" s:width="30" s:height="25" id="cell_$abc$123$auto$blifparse.cc:386:parse_blif$143"><s:alias val="NAND2"/><s:alias val="$NAND2"/><path d="M0,0 L0,25 L15,25 A15 12.5 0 0 0 15,0 Z" class="cell_$abc$123$auto$blifparse.cc:386:parse_blif$143"/><circle cx="34" cy="12.5" r="3" class="cell_$abc$123$auto$blifparse.cc:386:parse_blif$143"/><g s:x="0" s:y="5" s:pid="A"/><g s:x="0" s:y="20" s:pid="B"/><g s:x="36" s:y="12.5" s:pid="Y"/></g><g s:type="NAND2" transform="translate(324,12)" s:width="30" s:height="25" id="cell_$abc$123$auto$blifparse.cc:386:parse_blif$144"><s:alias val="NAND2"/><s:alias val="$NAND2"/><path d="M0,0 L0,25 L15,25 A15 12.5 0 0 0 15,0 Z" class="cell_$abc$123$auto$blifparse.cc:386:parse_blif$144"/><circle cx="34" cy="12.5" r="3" class="cell_$abc$123$auto$blifparse.cc:386:parse_blif$144"/><g s:x="0" s:y="5" s:pid="A"/><g s:x="0" s:y="20" s:pid="B"/><g s:x="36" s:y="12.5" s:pid="Y"/></g><g s:type="NAND2" transform="translate(324,88)" s:width="30" s:height="25" id="cell_$abc$123$auto$blifparse.cc:386:parse_blif$145"><s:alias val="NAND2"/><s:alias val="$NAND2"/><path d="M0,0 L0,25 L15,25 A15 12.5 0 0 0 15,0 Z" class="cell_$abc$123$auto$blifparse.cc:386:parse_blif$145"/><circle cx="34" cy="12.5" r="3" class="cell_$abc$123$auto$blifparse.cc:386:parse_blif$145"/><g s:x="0" s:y="5" s:pid="A"/><g s:x="0" s:y="20" s:pid="B"/><g s:x="36" s:y="12.5" s:pid="Y"/></g><g s:type="NAND2" transform="translate(324,556)" s:width="30" s:height="25" id="cell_$abc$123$auto$blifparse.cc:386:parse_blif$146"><s:alias val="NAND2"/><s:alias val="$NAND2"/><path d="M0,0 L0,25 L15,25 A15 12.5 0 0 0 15,0 Z" class="cell_$abc$123$auto$blifparse.cc:386:parse_blif$146"/><circle cx="34" cy="12.5" r="3" class="cell_$abc$123$auto$blifparse.cc:386:parse_blif$146"/><g s:x="0" s:y="5" s:pid="A"/><g s:x="0" s:y="20" s:pid="B"/><g s:x="36" s:y="12.5" s:pid="Y"/></g><g s:type="NAND2" transform="translate(324,632)" s:width="30" s:height="25" id="cell_$abc$123$auto$blifparse.cc:386:parse_blif$147"><s:alias val="NAND2"/><s:alias val="$NAND2"/><path d="M0,0 L0,25 L15,25 A15 12.5 0 0 0 15,0 Z" class="cell_$abc$123$auto$blifparse.cc:386:parse_blif$147"/><circle cx="34" cy="12.5" r="3" class="cell_$abc$123$auto$blifparse.cc:386:parse_blif$147"/><g s:x="0" s:y="5" s:pid="A"/><g s:x="0" s:y="20" s:pid="B"/><g s:x="36" s:y="12.5" s:pid="Y"/></g><g s:type="NAND2" transform="translate(324,692)" s:width="30" s:height="25" id="cell_$abc$123$auto$blifparse.cc:386:parse_blif$148"><s:alias val="NAND2"/><s:alias val="$NAND2"/><path d="M0,0 L0,25 L15,25 A15 12.5 0 0 0 15,0 Z" class="cell_$abc$123$auto$blifparse.cc:386:parse_blif$148"/><circle cx="34" cy="12.5" r="3" class="cell_$abc$123$auto$blifparse.cc:386:parse_blif$148"/><g s:x="0" s:y="5" s:pid="A"/><g s:x="0" s:y="20" s:pid="B"/><g s:x="36" s:y="12.5" s:pid="Y"/></g><g s:type="NAND2" transform="translate(324,768)" s:width="30" s:height="25" id="cell_$abc$123$auto$blifparse.cc:386:parse_blif$149"><s:alias val="NAND2"/><s:alias val="$NAND2"/><path d="M0,0 L0,25 L15,25 A15 12.5 0 0 0 15,0 Z" class="cell_$abc$123$auto$blifparse.cc:386:parse_blif$149"/><circle cx="34" cy="12.5" r="3" class="cell_$abc$123$auto$blifparse.cc:386:parse_blif$149"/><g s:x="0" s:y="5" s:pid="A"/><g s:x="0" s:y="20" s:pid="B"/><g s:x="36" s:y="12.5" s:pid="Y"/></g><g s:type="NAND2" transform="translate(324,828)" s:width="30" s:height="25" id="cell_$abc$123$auto$blifparse.cc:386:parse_blif$150"><s:alias val="NAND2"/><s:alias val="$NAND2"/><path d="M0,0 L0,25 L15,25 A15 12.5 0 0 0 15,0 Z" class="cell_$abc$123$auto$blifparse.cc:386:parse_blif$150"/><circle cx="34" cy="12.5" r="3" class="cell_$abc$123$auto$blifparse.cc:386:parse_blif$150"/><g s:x="0" s:y="5" s:pid="A"/><g s:x="0" s:y="20" s:pid="B"/><g s:x="36" s:y="12.5" s:pid="Y"/></g><g s:type="NAND2" transform="translate(324,904)" s:width="30" s:height="25" id="cell_$abc$123$auto$blifparse.cc:386:parse_blif$151"><s:alias val="NAND2"/><s:alias val="$NAND2"/><path d="M0,0 L0,25 L15,25 A15 12.5 0 0 0 15,0 Z" class="cell_$abc$123$auto$blifparse.cc:386:parse_blif$151"/><circle cx="34" cy="12.5" r="3" class="cell_$abc$123$auto$blifparse.cc:386:parse_blif$151"/><g s:x="0" s:y="5" s:pid="A"/><g s:x="0" s:y="20" s:pid="B"/><g s:x="36" s:y="12.5" s:pid="Y"/></g><g s:type="NAND2" transform="translate(324,148)" s:width="30" s:height="25" id="cell_$abc$123$auto$blifparse.cc:386:parse_blif$152"><s:alias val="NAND2"/><s:alias val="$NAND2"/><path d="M0,0 L0,25 L15,25 A15 12.5 0 0 0 15,0 Z" class="cell_$abc$123$auto$blifparse.cc:386:parse_blif$152"/><circle cx="34" cy="12.5" r="3" class="cell_$abc$123$auto$blifparse.cc:386:parse_blif$152"/><g s:x="0" s:y="5" s:pid="A"/><g s:x="0" s:y="20" s:pid="B"/><g s:x="36" s:y="12.5" s:pid="Y"/></g><g s:type="NAND2" transform="translate(324,224)" s:width="30" s:height="25" id="cell_$abc$123$auto$blifparse.cc:386:parse_blif$153"><s:alias val="NAND2"/><s:alias val="$NAND2"/><path d="M0,0 L0,25 L15,25 A15 12.5 0 0 0 15,0 Z" class="cell_$abc$123$auto$blifparse.cc:386:parse_blif$153"/><circle cx="34" cy="12.5" r="3" class="cell_$abc$123$auto$blifparse.cc:386:parse_blif$153"/><g s:x="0" s:y="5" s:pid="A"/><g s:x="0" s:y="20" s:pid="B"/><g s:x="36" s:y="12.5" s:pid="Y"/></g><g s:type="NAND2" transform="translate(324,964)" s:width="30" s:height="25" id="cell_$abc$123$auto$blifparse.cc:386:parse_blif$154"><s:alias val="NAND2"/><s:alias val="$NAND2"/><path d="M0,0 L0,25 L15,25 A15 12.5 0 0 0 15,0 Z" class="cell_$abc$123$auto$blifparse.cc:386:parse_blif$154"/><circle cx="34" cy="12.5" r="3" class="cell_$abc$123$auto$blifparse.cc:386:parse_blif$154"/><g s:x="0" s:y="5" s:pid="A"/><g s:x="0" s:y="20" s:pid="B"/><g s:x="36" s:y="12.5" s:pid="Y"/></g><g s:type="NAND2" transform="translate(324,1040)" s:width="30" s:height="25" id="cell_$abc$123$auto$blifparse.cc:386:parse_blif$155"><s:alias val="NAND2"/><s:alias val="$NAND2"/><path d="M0,0 L0,25 L15,25 A15 12.5 0 0 0 15,0 Z" class="cell_$abc$123$auto$blifparse.cc:386:parse_blif$155"/><circle cx="34" cy="12.5" r="3" class="cell_$abc$123$auto$blifparse.cc:386:parse_blif$155"/><g s:x="0" s:y="5" s:pid="A"/><g s:x="0" s:y="20" s:pid="B"/><g s:x="36" s:y="12.5" s:pid="Y"/></g><g s:type="NAND4" transform="translate(420,21.5)" s:width="30" s:height="25" id="cell_$abc$123$auto$blifparse.cc:386:parse_blif$156"><s:alias val="NAND4"/><s:alias val="$NAND4"/><path d="M0,0 L0,25 L15,25 A15 12.5 0 0 0 15,0 Z" class="cell_$abc$123$auto$blifparse.cc:386:parse_blif$156"/><circle cx="34" cy="12.5" r="3" class="cell_$abc$123$auto$blifparse.cc:386:parse_blif$156"/><g s:x="0" s:y="3" s:pid="A"/><g s:x="0" s:y="9.33" s:pid="B"/><g s:x="0" s:y="15.66" s:pid="C"/><g s:x="0" s:y="22" s:pid="D"/><g s:x="36" s:y="12.5" s:pid="Y"/></g><g s:type="NAND6" transform="translate(420,293.5)" s:width="30" s:height="25" id="cell_$abc$123$auto$blifparse.cc:386:parse_blif$157"><s:alias val="NAND6"/><s:alias val="$NAND6"/><path d="M0,0 L0,25 L15,25 A15 12.5 0 0 0 15,0 Z" class="cell_$abc$123$auto$blifparse.cc:386:parse_blif$157"/><circle cx="34" cy="12.5" r="3" class="cell_$abc$123$auto$blifparse.cc:386:parse_blif$157"/><g s:x="0" s:y="3" s:pid="A"/><g s:x="0" s:y="6.8" s:pid="B"/><g s:x="0" s:y="10.6" s:pid="C"/><g s:x="0" s:y="14.4" s:pid="D"/><g s:x="0" s:y="18.2" s:pid="E"/><g s:x="0" s:y="22" s:pid="F"/><g s:x="36" s:y="12.5" s:pid="Y"/></g><g s:type="NAND6" transform="translate(420,701.5)" s:width="30" s:height="25" id="cell_$abc$123$auto$blifparse.cc:386:parse_blif$158"><s:alias val="NAND6"/><s:alias val="$NAND6"/><path d="M0,0 L0,25 L15,25 A15 12.5 0 0 0 15,0 Z" class="cell_$abc$123$auto$blifparse.cc:386:parse_blif$158"/><circle cx="34" cy="12.5" r="3" class="cell_$abc$123$auto$blifparse.cc:386:parse_blif$158"/><g s:x="0" s:y="3" s:pid="A"/><g s:x="0" s:y="6.8" s:pid="B"/><g s:x="0" s:y="10.6" s:pid="C"/><g s:x="0" s:y="14.4" s:pid="D"/><g s:x="0" s:y="18.2" s:pid="E"/><g s:x="0" s:y="22" s:pid="F"/><g s:x="36" s:y="12.5" s:pid="Y"/></g><g s:type="NOR3" transform="translate(491,31)" s:width="30" s:height="25" id="cell_$abc$123$auto$blifparse.cc:386:parse_blif$159"><s:alias val="NOR3"/><s:alias val="$NOR3"/><path d="M0,0 A30 25 0 0 1 0,25 A30 25 0 0 0 30,12.5 A30 25 0 0 0 0,0" class="cell_$abc$123$auto$blifparse.cc:386:parse_blif$159"/><circle cx="33" cy="12.5" r="3" class="cell_$abc$123$auto$blifparse.cc:386:parse_blif$159"/><g s:x="1" s:y="3" s:pid="A"/><g s:x="3" s:y="12.5" s:pid="B"/><g s:x="1" s:y="22" s:pid="C"/><g s:x="36" s:y="12.5" s:pid="Y"/></g><g s:type="inputExt" transform="translate(12,698)" s:width="30" s:height="20" id="cell_bus0"><text x="15" y="-4" class="nodelabel cell_bus0" s:attribute="ref">bus0</text><s:alias val="$_inputExt_"/><path d="M0,0 L0,20 L15,20 L30,10 L15,0 Z" class="cell_bus0"/><g s:x="30" s:y="10" s:pid="Y"/></g><g s:type="inputExt" transform="translate(12,381)" s:width="30" s:height="20" id="cell_bus1"><text x="15" y="-4" class="nodelabel cell_bus1" s:attribute="ref">bus1</text><s:alias val="$_inputExt_"/><path d="M0,0 L0,20 L15,20 L30,10 L15,0 Z" class="cell_bus1"/><g s:x="30" s:y="10" s:pid="Y"/></g><g s:type="outputExt" transform="translate(562,33.5)" s:width="30" s:height="20" id="cell_out"><text x="15" y="-4" class="nodelabel cell_out" s:attribute="ref">out</text><s:alias val="$_outputExt_"/><path d="M30,0 L30,20 L15,20 L0,10 L15,0 Z" class="cell_out"/><g s:x="0" s:y="10" s:pid="A"/></g><g s:type="split" transform="translate(116,370.5)" s:width="5" s:height="40" id="cell_$split$,10,11,12,13,14,15,16,17,"><rect width="5" height="160" class="splitjoinBody" s:generic="body"/><s:alias val="$_split_"/><g s:x="0" s:y="20" s:pid="in"/><g transform="translate(4,10)" s:x="4" s:y="10" s:pid="out0"><text x="5" y="-4">0</text></g><g transform="translate(4,30)" s:x="4" s:y="10" s:pid="out0"><text x="5" y="-4">1</text></g><g transform="translate(4,50)" s:x="4" s:y="10" s:pid="out0"><text x="5" y="-4">2</text></g><g transform="translate(4,70)" s:x="4" s:y="10" s:pid="out0"><text x="5" y="-4">3</text></g><g transform="translate(4,90)" s:x="4" s:y="10" s:pid="out0"><text x="5" y="-4">4</text></g><g transform="translate(4,110)" s:x="4" s:y="10" s:pid="out0"><text x="5" y="-4">5</text></g><g transform="translate(4,130)" s:x="4" s:y="10" s:pid="out0"><text x="5" y="-4">6</text></g><g transform="translate(4,150)" s:x="4" s:y="10" s:pid="out0"><text x="5" y="-4">7</text></g></g><g s:type="split" transform="translate(116,687.5)" s:width="5" s:height="40" id="cell_$split$,2,3,4,5,6,7,8,9,"><rect width="5" height="160" class="splitjoinBody" s:generic="body"/><s:alias val="$_split_"/><g s:x="0" s:y="20" s:pid="in"/><g transform="translate(4,10)" s:x="4" s:y="10" s:pid="out0"><text x="5" y="-4">0</text></g><g transform="translate(4,30)" s:x="4" s:y="10" s:pid="out0"><text x="5" y="-4">1</text></g><g transform="translate(4,50)" s:x="4" s:y="10" s:pid="out0"><text x="5" y="-4">2</text></g><g transform="translate(4,70)" s:x="4" s:y="10" s:pid="out0"><text x="5" y="-4">3</text></g><g transform="translate(4,90)" s:x="4" s:y="10" s:pid="out0"><text x="5" y="-4">4</text></g><g transform="translate(4,110)" s:x="4" s:y="10" s:pid="out0"><text x="5" y="-4">5</text></g><g transform="translate(4,130)" s:x="4" s:y="10" s:pid="out0"><text x="5" y="-4">6</text></g><g transform="translate(4,150)" s:x="4" s:y="10" s:pid="out0"><text x="5" y="-4">7</text></g></g><line x1="120.5" x2="120.5" y1="380.5" y2="17" class="net_10 width_1" style="stroke-width: 1"/><line x1="120.5" x2="148" y1="17" y2="17" class="net_10 width_1" style="stroke-width: 1"/><line x1="148" x2="148" y1="17" y2="93" class="net_10 width_1" style="stroke-width: 1"/><circle cx="148" cy="17" r="2" style="fill:#000" class="net_10 width_1"/><line x1="148" x2="258" y1="93" y2="93" class="net_10 width_1" style="stroke-width: 1"/><line x1="120.5" x2="120.5" y1="380.5" y2="17" class="net_10 width_1" style="stroke-width: 1"/><line x1="120.5" x2="324" y1="17" y2="17" class="net_10 width_1" style="stroke-width: 1"/><line x1="120.5" x2="120.5" y1="697.5" y2="571" class="net_2 width_1" style="stroke-width: 1"/><line x1="120.5" x2="138" y1="571" y2="571" class="net_2 width_1" style="stroke-width: 1"/><line x1="138" x2="138" y1="571" y2="38" class="net_2 width_1" style="stroke-width: 1"/><line x1="138" x2="258" y1="38" y2="38" class="net_2 width_1" style="stroke-width: 1"/><line x1="120.5" x2="120.5" y1="697.5" y2="571" class="net_2 width_1" style="stroke-width: 1"/><line x1="120.5" x2="138" y1="571" y2="571" class="net_2 width_1" style="stroke-width: 1"/><line x1="138" x2="138" y1="571" y2="113" class="net_2 width_1" style="stroke-width: 1"/><line x1="138" x2="299" y1="113" y2="113" class="net_2 width_1" style="stroke-width: 1"/><line x1="299" x2="299" y1="113" y2="108" class="net_2 width_1" style="stroke-width: 1"/><circle cx="138" cy="113" r="2" style="fill:#000" class="net_2 width_1"/><line x1="299" x2="324" y1="108" y2="108" class="net_2 width_1" style="stroke-width: 1"/><line x1="121" x2="238" y1="401" y2="401" class="net_11 width_1" style="stroke-width: 1"/><line x1="238" x2="238" y1="401" y2="773" class="net_11 width_1" style="stroke-width: 1"/><line x1="238" x2="258" y1="773" y2="773" class="net_11 width_1" style="stroke-width: 1"/><line x1="121" x2="238" y1="401" y2="401" class="net_11 width_1" style="stroke-width: 1"/><line x1="238" x2="238" y1="401" y2="697" class="net_11 width_1" style="stroke-width: 1"/><circle cx="238" cy="697" r="2" style="fill:#000" class="net_11 width_1"/><line x1="238" x2="324" y1="697" y2="697" class="net_11 width_1" style="stroke-width: 1"/><line x1="121" x2="258" y1="718" y2="718" class="net_3 width_1" style="stroke-width: 1"/><line x1="121" x2="228" y1="718" y2="718" class="net_3 width_1" style="stroke-width: 1"/><line x1="228" x2="228" y1="718" y2="793" class="net_3 width_1" style="stroke-width: 1"/><line x1="228" x2="299" y1="793" y2="793" class="net_3 width_1" style="stroke-width: 1"/><line x1="299" x2="299" y1="793" y2="788" class="net_3 width_1" style="stroke-width: 1"/><circle cx="228" cy="718" r="2" style="fill:#000" class="net_3 width_1"/><line x1="299" x2="324" y1="788" y2="788" class="net_3 width_1" style="stroke-width: 1"/><line x1="121" x2="148" y1="421" y2="421" class="net_12 width_1" style="stroke-width: 1"/><line x1="148" x2="148" y1="421" y2="229" class="net_12 width_1" style="stroke-width: 1"/><circle cx="148" cy="229" r="2" style="fill:#000" class="net_12 width_1"/><line x1="148" x2="258" y1="229" y2="229" class="net_12 width_1" style="stroke-width: 1"/><line x1="121" x2="148" y1="421" y2="421" class="net_12 width_1" style="stroke-width: 1"/><line x1="148" x2="148" y1="421" y2="153" class="net_12 width_1" style="stroke-width: 1"/><line x1="148" x2="324" y1="153" y2="153" class="net_12 width_1" style="stroke-width: 1"/><line x1="121" x2="158" y1="738" y2="738" class="net_4 width_1" style="stroke-width: 1"/><line x1="158" x2="158" y1="738" y2="174" class="net_4 width_1" style="stroke-width: 1"/><line x1="158" x2="258" y1="174" y2="174" class="net_4 width_1" style="stroke-width: 1"/><line x1="121" x2="158" y1="738" y2="738" class="net_4 width_1" style="stroke-width: 1"/><line x1="158" x2="158" y1="738" y2="249" class="net_4 width_1" style="stroke-width: 1"/><line x1="158" x2="299" y1="249" y2="249" class="net_4 width_1" style="stroke-width: 1"/><line x1="299" x2="299" y1="249" y2="244" class="net_4 width_1" style="stroke-width: 1"/><circle cx="158" cy="249" r="2" style="fill:#000" class="net_4 width_1"/><line x1="299" x2="324" y1="244" y2="244" class="net_4 width_1" style="stroke-width: 1"/><line x1="121" x2="148" y1="441" y2="441" class="net_13 width_1" style="stroke-width: 1"/><line x1="148" x2="148" y1="441" y2="1045" class="net_13 width_1" style="stroke-width: 1"/><line x1="148" x2="258" y1="1045" y2="1045" class="net_13 width_1" style="stroke-width: 1"/><line x1="121" x2="148" y1="441" y2="441" class="net_13 width_1" style="stroke-width: 1"/><line x1="148" x2="148" y1="441" y2="969" class="net_13 width_1" style="stroke-width: 1"/><circle cx="148" cy="969" r="2" style="fill:#000" class="net_13 width_1"/><line x1="148" x2="324" y1="969" y2="969" class="net_13 width_1" style="stroke-width: 1"/><line x1="121" x2="138" y1="758" y2="758" class="net_5 width_1" style="stroke-width: 1"/><line x1="138" x2="138" y1="758" y2="990" class="net_5 width_1" style="stroke-width: 1"/><circle cx="138" cy="990" r="2" style="fill:#000" class="net_5 width_1"/><line x1="138" x2="258" y1="990" y2="990" class="net_5 width_1" style="stroke-width: 1"/><line x1="121" x2="138" y1="758" y2="758" class="net_5 width_1" style="stroke-width: 1"/><line x1="138" x2="138" y1="758" y2="1065" class="net_5 width_1" style="stroke-width: 1"/><line x1="138" x2="299" y1="1065" y2="1065" class="net_5 width_1" style="stroke-width: 1"/><line x1="299" x2="299" y1="1065" y2="1060" class="net_5 width_1" style="stroke-width: 1"/><line x1="299" x2="324" y1="1060" y2="1060" class="net_5 width_1" style="stroke-width: 1"/><line x1="121" x2="188" y1="461" y2="461" class="net_14 width_1" style="stroke-width: 1"/><line x1="188" x2="188" y1="461" y2="909" class="net_14 width_1" style="stroke-width: 1"/><line x1="188" x2="258" y1="909" y2="909" class="net_14 width_1" style="stroke-width: 1"/><line x1="121" x2="188" y1="461" y2="461" class="net_14 width_1" style="stroke-width: 1"/><line x1="188" x2="188" y1="461" y2="833" class="net_14 width_1" style="stroke-width: 1"/><circle cx="188" cy="833" r="2" style="fill:#000" class="net_14 width_1"/><line x1="188" x2="324" y1="833" y2="833" class="net_14 width_1" style="stroke-width: 1"/><line x1="121" x2="218" y1="778" y2="778" class="net_6 width_1" style="stroke-width: 1"/><line x1="218" x2="218" y1="778" y2="854" class="net_6 width_1" style="stroke-width: 1"/><circle cx="218" cy="854" r="2" style="fill:#000" class="net_6 width_1"/><line x1="218" x2="258" y1="854" y2="854" class="net_6 width_1" style="stroke-width: 1"/><line x1="121" x2="218" y1="778" y2="778" class="net_6 width_1" style="stroke-width: 1"/><line x1="218" x2="218" y1="778" y2="929" class="net_6 width_1" style="stroke-width: 1"/><line x1="218" x2="299" y1="929" y2="929" class="net_6 width_1" style="stroke-width: 1"/><line x1="299" x2="299" y1="929" y2="924" class="net_6 width_1" style="stroke-width: 1"/><line x1="299" x2="324" y1="924" y2="924" class="net_6 width_1" style="stroke-width: 1"/><line x1="121" x2="168" y1="481" y2="481" class="net_15 width_1" style="stroke-width: 1"/><line x1="168" x2="168" y1="481" y2="365" class="net_15 width_1" style="stroke-width: 1"/><circle cx="168" cy="365" r="2" style="fill:#000" class="net_15 width_1"/><line x1="168" x2="258" y1="365" y2="365" class="net_15 width_1" style="stroke-width: 1"/><line x1="121" x2="168" y1="481" y2="481" class="net_15 width_1" style="stroke-width: 1"/><line x1="168" x2="168" y1="481" y2="289" class="net_15 width_1" style="stroke-width: 1"/><line x1="168" x2="324" y1="289" y2="289" class="net_15 width_1" style="stroke-width: 1"/><line x1="121" x2="178" y1="798" y2="798" class="net_7 width_1" style="stroke-width: 1"/><line x1="178" x2="178" y1="798" y2="310" class="net_7 width_1" style="stroke-width: 1"/><line x1="178" x2="258" y1="310" y2="310" class="net_7 width_1" style="stroke-width: 1"/><line x1="121" x2="178" y1="798" y2="798" class="net_7 width_1" style="stroke-width: 1"/><line x1="178" x2="178" y1="798" y2="385" class="net_7 width_1" style="stroke-width: 1"/><line x1="178" x2="299" y1="385" y2="385" class="net_7 width_1" style="stroke-width: 1"/><line x1="299" x2="299" y1="385" y2="380" class="net_7 width_1" style="stroke-width: 1"/><circle cx="178" cy="385" r="2" style="fill:#000" class="net_7 width_1"/><line x1="299" x2="324" y1="380" y2="380" class="net_7 width_1" style="stroke-width: 1"/><line x1="121" x2="258" y1="501" y2="501" class="net_16 width_1" style="stroke-width: 1"/><line x1="121" x2="248" y1="501" y2="501" class="net_16 width_1" style="stroke-width: 1"/><line x1="248" x2="248" y1="501" y2="425" class="net_16 width_1" style="stroke-width: 1"/><circle cx="248" cy="501" r="2" style="fill:#000" class="net_16 width_1"/><line x1="248" x2="324" y1="425" y2="425" class="net_16 width_1" style="stroke-width: 1"/><line x1="121" x2="198" y1="818" y2="818" class="net_8 width_1" style="stroke-width: 1"/><line x1="198" x2="198" y1="818" y2="446" class="net_8 width_1" style="stroke-width: 1"/><line x1="198" x2="258" y1="446" y2="446" class="net_8 width_1" style="stroke-width: 1"/><line x1="121" x2="198" y1="818" y2="818" class="net_8 width_1" style="stroke-width: 1"/><line x1="198" x2="198" y1="818" y2="521" class="net_8 width_1" style="stroke-width: 1"/><line x1="198" x2="299" y1="521" y2="521" class="net_8 width_1" style="stroke-width: 1"/><line x1="299" x2="299" y1="521" y2="516" class="net_8 width_1" style="stroke-width: 1"/><circle cx="198" cy="521" r="2" style="fill:#000" class="net_8 width_1"/><line x1="299" x2="324" y1="516" y2="516" class="net_8 width_1" style="stroke-width: 1"/><line x1="120.5" x2="120.5" y1="521.5" y2="561" class="net_17 width_1" style="stroke-width: 1"/><line x1="120.5" x2="248" y1="561" y2="561" class="net_17 width_1" style="stroke-width: 1"/><line x1="248" x2="248" y1="561" y2="637" class="net_17 width_1" style="stroke-width: 1"/><circle cx="248" cy="561" r="2" style="fill:#000" class="net_17 width_1"/><line x1="248" x2="258" y1="637" y2="637" class="net_17 width_1" style="stroke-width: 1"/><line x1="120.5" x2="120.5" y1="521.5" y2="561" class="net_17 width_1" style="stroke-width: 1"/><line x1="120.5" x2="324" y1="561" y2="561" class="net_17 width_1" style="stroke-width: 1"/><line x1="120.5" x2="120.5" y1="838.5" y2="857.5" class="net_9 width_1" style="stroke-width: 1"/><line x1="120.5" x2="208" y1="857.5" y2="857.5" class="net_9 width_1" style="stroke-width: 1"/><line x1="208" x2="208" y1="857.5" y2="582" class="net_9 width_1" style="stroke-width: 1"/><line x1="208" x2="258" y1="582" y2="582" class="net_9 width_1" style="stroke-width: 1"/><line x1="120.5" x2="120.5" y1="838.5" y2="857.5" class="net_9 width_1" style="stroke-width: 1"/><line x1="120.5" x2="208" y1="857.5" y2="857.5" class="net_9 width_1" style="stroke-width: 1"/><line x1="208" x2="208" y1="857.5" y2="657" class="net_9 width_1" style="stroke-width: 1"/><line x1="208" x2="299" y1="657" y2="657" class="net_9 width_1" style="stroke-width: 1"/><line x1="299" x2="299" y1="657" y2="652" class="net_9 width_1" style="stroke-width: 1"/><circle cx="208" cy="657" r="2" style="fill:#000" class="net_9 width_1"/><line x1="299" x2="324" y1="652" y2="652" class="net_9 width_1" style="stroke-width: 1"/><line x1="286" x2="299" y1="310" y2="310" class="net_30 width_1" style="stroke-width: 1"/><line x1="299" x2="299" y1="310" y2="304" class="net_30 width_1" style="stroke-width: 1"/><line x1="299" x2="324" y1="304" y2="304" class="net_30 width_1" style="stroke-width: 1"/><line x1="286" x2="324" y1="365" y2="365" class="net_29 width_1" style="stroke-width: 1"/><line x1="286" x2="299" y1="446" y2="446" class="net_32 width_1" style="stroke-width: 1"/><line x1="299" x2="299" y1="446" y2="440" class="net_32 width_1" style="stroke-width: 1"/><line x1="299" x2="324" y1="440" y2="440" class="net_32 width_1" style="stroke-width: 1"/><line x1="286" x2="324" y1="501" y2="501" class="net_31 width_1" style="stroke-width: 1"/><line x1="286" x2="299" y1="38" y2="38" class="net_20 width_1" style="stroke-width: 1"/><line x1="299" x2="299" y1="38" y2="32" class="net_20 width_1" style="stroke-width: 1"/><line x1="299" x2="324" y1="32" y2="32" class="net_20 width_1" style="stroke-width: 1"/><line x1="286" x2="324" y1="93" y2="93" class="net_19 width_1" style="stroke-width: 1"/><line x1="286" x2="299" y1="582" y2="582" class="net_34 width_1" style="stroke-width: 1"/><line x1="299" x2="299" y1="582" y2="576" class="net_34 width_1" style="stroke-width: 1"/><line x1="299" x2="324" y1="576" y2="576" class="net_34 width_1" style="stroke-width: 1"/><line x1="286" x2="324" y1="637" y2="637" class="net_33 width_1" style="stroke-width: 1"/><line x1="286" x2="299" y1="718" y2="718" class="net_22 width_1" style="stroke-width: 1"/><line x1="299" x2="299" y1="718" y2="712" class="net_22 width_1" style="stroke-width: 1"/><line x1="299" x2="324" y1="712" y2="712" class="net_22 width_1" style="stroke-width: 1"/><line x1="286" x2="324" y1="773" y2="773" class="net_21 width_1" style="stroke-width: 1"/><line x1="286" x2="299" y1="854" y2="854" class="net_28 width_1" style="stroke-width: 1"/><line x1="299" x2="299" y1="854" y2="848" class="net_28 width_1" style="stroke-width: 1"/><line x1="299" x2="324" y1="848" y2="848" class="net_28 width_1" style="stroke-width: 1"/><line x1="286" x2="324" y1="909" y2="909" class="net_27 width_1" style="stroke-width: 1"/><line x1="286" x2="299" y1="174" y2="174" class="net_24 width_1" style="stroke-width: 1"/><line x1="299" x2="299" y1="174" y2="168" class="net_24 width_1" style="stroke-width: 1"/><line x1="299" x2="324" y1="168" y2="168" class="net_24 width_1" style="stroke-width: 1"/><line x1="286" x2="324" y1="229" y2="229" class="net_23 width_1" style="stroke-width: 1"/><line x1="286" x2="299" y1="990" y2="990" class="net_26 width_1" style="stroke-width: 1"/><line x1="299" x2="299" y1="990" y2="984" class="net_26 width_1" style="stroke-width: 1"/><line x1="299" x2="324" y1="984" y2="984" class="net_26 width_1" style="stroke-width: 1"/><line x1="286" x2="324" y1="1045" y2="1045" class="net_25 width_1" style="stroke-width: 1"/><line x1="360" x2="420" y1="24.5" y2="24.5" class="net_39 width_1" style="stroke-width: 1"/><line x1="360" x2="370" y1="100.5" y2="100.5" class="net_40 width_1" style="stroke-width: 1"/><line x1="370" x2="370" y1="100.5" y2="30.83" class="net_40 width_1" style="stroke-width: 1"/><line x1="370" x2="420" y1="30.83" y2="30.83" class="net_40 width_1" style="stroke-width: 1"/><line x1="360" x2="380" y1="160.5" y2="160.5" class="net_47 width_1" style="stroke-width: 1"/><line x1="380" x2="380" y1="160.5" y2="37.16" class="net_47 width_1" style="stroke-width: 1"/><line x1="380" x2="420" y1="37.16" y2="37.16" class="net_47 width_1" style="stroke-width: 1"/><line x1="360" x2="390" y1="236.5" y2="236.5" class="net_48 width_1" style="stroke-width: 1"/><line x1="390" x2="390" y1="236.5" y2="43.5" class="net_48 width_1" style="stroke-width: 1"/><line x1="390" x2="420" y1="43.5" y2="43.5" class="net_48 width_1" style="stroke-width: 1"/><line x1="360" x2="420" y1="296.5" y2="296.5" class="net_35 width_1" style="stroke-width: 1"/><line x1="360" x2="370" y1="372.5" y2="372.5" class="net_36 width_1" style="stroke-width: 1"/><line x1="370" x2="370" y1="372.5" y2="300.3" class="net_36 width_1" style="stroke-width: 1"/><line x1="370" x2="420" y1="300.3" y2="300.3" class="net_36 width_1" style="stroke-width: 1"/><line x1="360" x2="380" y1="432.5" y2="432.5" class="net_37 width_1" style="stroke-width: 1"/><line x1="380" x2="380" y1="432.5" y2="304.1" class="net_37 width_1" style="stroke-width: 1"/><line x1="380" x2="420" y1="304.1" y2="304.1" class="net_37 width_1" style="stroke-width: 1"/><line x1="360" x2="390" y1="508.5" y2="508.5" class="net_38 width_1" style="stroke-width: 1"/><line x1="390" x2="390" y1="508.5" y2="307.9" class="net_38 width_1" style="stroke-width: 1"/><line x1="390" x2="420" y1="307.9" y2="307.9" class="net_38 width_1" style="stroke-width: 1"/><line x1="360" x2="400" y1="568.5" y2="568.5" class="net_41 width_1" style="stroke-width: 1"/><line x1="400" x2="400" y1="568.5" y2="311.7" class="net_41 width_1" style="stroke-width: 1"/><line x1="400" x2="420" y1="311.7" y2="311.7" class="net_41 width_1" style="stroke-width: 1"/><line x1="360" x2="410" y1="644.5" y2="644.5" class="net_42 width_1" style="stroke-width: 1"/><line x1="410" x2="410" y1="644.5" y2="315.5" class="net_42 width_1" style="stroke-width: 1"/><line x1="410" x2="420" y1="315.5" y2="315.5" class="net_42 width_1" style="stroke-width: 1"/><line x1="360" x2="420" y1="704.5" y2="704.5" class="net_43 width_1" style="stroke-width: 1"/><line x1="360" x2="370" y1="780.5" y2="780.5" class="net_44 width_1" style="stroke-width: 1"/><line x1="370" x2="370" y1="780.5" y2="708.3" class="net_44 width_1" style="stroke-width: 1"/><line x1="370" x2="420" y1="708.3" y2="708.3" class="net_44 width_1" style="stroke-width: 1"/><line x1="360" x2="380" y1="840.5" y2="840.5" class="net_45 width_1" style="stroke-width: 1"/><line x1="380" x2="380" y1="840.5" y2="712.1" class="net_45 width_1" style="stroke-width: 1"/><line x1="380" x2="420" y1="712.1" y2="712.1" class="net_45 width_1" style="stroke-width: 1"/><line x1="360" x2="390" y1="916.5" y2="916.5" class="net_46 width_1" style="stroke-width: 1"/><line x1="390" x2="390" y1="916.5" y2="715.9" class="net_46 width_1" style="stroke-width: 1"/><line x1="390" x2="420" y1="715.9" y2="715.9" class="net_46 width_1" style="stroke-width: 1"/><line x1="360" x2="400" y1="976.5" y2="976.5" class="net_49 width_1" style="stroke-width: 1"/><line x1="400" x2="400" y1="976.5" y2="719.7" class="net_49 width_1" style="stroke-width: 1"/><line x1="400" x2="420" y1="719.7" y2="719.7" class="net_49 width_1" style="stroke-width: 1"/><line x1="360" x2="410" y1="1052.5" y2="1052.5" class="net_50 width_1" style="stroke-width: 1"/><line x1="410" x2="410" y1="1052.5" y2="723.5" class="net_50 width_1" style="stroke-width: 1"/><line x1="410" x2="420" y1="723.5" y2="723.5" class="net_50 width_1" style="stroke-width: 1"/><line x1="456" x2="492" y1="34" y2="34" class="net_51 width_1" style="stroke-width: 1"/><line x1="456" x2="466" y1="306" y2="306" class="net_52 width_1" style="stroke-width: 1"/><line x1="466" x2="466" y1="306" y2="43.5" class="net_52 width_1" style="stroke-width: 1"/><line x1="466" x2="494" y1="43.5" y2="43.5" class="net_52 width_1" style="stroke-width: 1"/><line x1="456" x2="476" y1="714" y2="714" class="net_53 width_1" style="stroke-width: 1"/><line x1="476" x2="476" y1="714" y2="53" class="net_53 width_1" style="stroke-width: 1"/><line x1="476" x2="492" y1="53" y2="53" class="net_53 width_1" style="stroke-width: 1"/><line x1="527" x2="562" y1="43.5" y2="43.5" class="net_18 width_1" style="stroke-width: 1"/><line x1="42" x2="116" y1="391" y2="391" class="net_10,11,12,13,14,15,16,17 width_8" style="stroke-width: 2"/><line x1="42" x2="116" y1="708" y2="708" class="net_2,3,4,5,6,7,8,9 width_8" style="stroke-width: 2"/><rect x="78" y="386" width="16" height="9" class="net_10,11,12,13,14,15,16,17 width_8 busLabel_8" style="fill: white; stroke: none"/><text x="77" y="394" class="net_10,11,12,13,14,15,16,17 width_8 busLabel_8">/8/</text><rect x="78" y="703" width="16" height="9" class="net_2,3,4,5,6,7,8,9 width_8 busLabel_8" style="fill: white; stroke: none"/><text x="77" y="711" class="net_2,3,4,5,6,7,8,9 width_8 busLabel_8">/8/</text></svg>