<svg xmlns="http://www.w3.org/2000/svg" xmlns:xlink="http://www.w3.org/1999/xlink" xmlns:s="https://github.com/nturley/netlistsvg" width="441" height="406"><style>svg {
  stroke:#000;
  fill:none;
}
text {
  fill:#000;
  stroke:none;
  font-size:10px;
  font-weight: bold;
  font-family: "Courier New", monospace;
}
line {
    stroke-linecap: round;
}
.nodelabel {
  text-anchor: middle;
}
.inputPortLabel {
  text-anchor: end;
}
.splitjoinBody {
  fill:#000;
}</style><g s:type="NOT" transform="translate(177,12)" s:width="30" s:height="20" id="cell_$abc$142$auto$blifparse.cc:386:parse_blif$143"><s:alias val="NOT"/><s:alias val="$NOT"/><path d="M0,0 L0,20 L20,10 Z" class="cell_$abc$142$auto$blifparse.cc:386:parse_blif$143"/><circle cx="24" cy="10" r="3" class="cell_$abc$142$auto$blifparse.cc:386:parse_blif$143"/><g s:x="-1" s:y="10" s:pid="A"/><g s:x="27" s:y="10" s:pid="Y"/></g><g s:type="NOR4" transform="translate(174,95.17)" s:width="30" s:height="25" id="cell_$abc$142$auto$blifparse.cc:386:parse_blif$144"><s:alias val="NOR4"/><s:alias val="$NOR4"/><path d="M0,0 A30 25 0 0 1 0,25 A30 25 0 0 0 30,12.5 A30 25 0 0 0 0,0" class="cell_$abc$142$auto$blifparse.cc:386:parse_blif$144"/><circle cx="33" cy="12.5" r="3" class="cell_$abc$142$auto$blifparse.cc:386:parse_blif$144"/><g s:x="1" s:y="3" s:pid="A"/><g s:x="3" s:y="9.33" s:pid="B"/><g s:x="3" s:y="15.66" s:pid="C"/><g s:x="1" s:y="22" s:pid="D"/><g s:x="36" s:y="12.5" s:pid="Y"/></g><g s:type="NOR2" transform="translate(174,164.5)" s:width="33" s:height="25" id="cell_$abc$142$auto$blifparse.cc:386:parse_blif$145"><s:alias val="NOR2"/><s:alias val="$NOR2"/><path d="M0,0 A30 25 0 0 1 0,25 A30 25 0 0 0 30,12.5 A30 25 0 0 0 0,0" class="cell_$abc$142$auto$blifparse.cc:386:parse_blif$145"/><circle cx="33" cy="12.5" r="3" class="cell_$abc$142$auto$blifparse.cc:386:parse_blif$145"/><g s:x="2" s:y="5" s:pid="A"/><g s:x="2" s:y="20" s:pid="B"/><g s:x="36" s:y="12.5" s:pid="Y"/></g><g s:type="NAND4" transform="translate(245,92.01)" s:width="30" s:height="25" id="cell_$abc$142$auto$blifparse.cc:386:parse_blif$146"><s:alias val="NAND4"/><s:alias val="$NAND4"/><path d="M0,0 L0,25 L15,25 A15 12.5 0 0 0 15,0 Z" class="cell_$abc$142$auto$blifparse.cc:386:parse_blif$146"/><circle cx="34" cy="12.5" r="3" class="cell_$abc$142$auto$blifparse.cc:386:parse_blif$146"/><g s:x="0" s:y="3" s:pid="A"/><g s:x="0" s:y="9.33" s:pid="B"/><g s:x="0" s:y="15.66" s:pid="C"/><g s:x="0" s:y="22" s:pid="D"/><g s:x="36" s:y="12.5" s:pid="Y"/></g><g s:type="NOR4" transform="translate(174,262.5)" s:width="30" s:height="25" id="cell_$abc$142$auto$blifparse.cc:386:parse_blif$147"><s:alias val="NOR4"/><s:alias val="$NOR4"/><path d="M0,0 A30 25 0 0 1 0,25 A30 25 0 0 0 30,12.5 A30 25 0 0 0 0,0" class="cell_$abc$142$auto$blifparse.cc:386:parse_blif$147"/><circle cx="33" cy="12.5" r="3" class="cell_$abc$142$auto$blifparse.cc:386:parse_blif$147"/><g s:x="1" s:y="3" s:pid="A"/><g s:x="3" s:y="9.33" s:pid="B"/><g s:x="3" s:y="15.66" s:pid="C"/><g s:x="1" s:y="22" s:pid="D"/><g s:x="36" s:y="12.5" s:pid="Y"/></g><g s:type="NOR4" transform="translate(174,368.34)" s:width="30" s:height="25" id="cell_$abc$142$auto$blifparse.cc:386:parse_blif$148"><s:alias val="NOR4"/><s:alias val="$NOR4"/><path d="M0,0 A30 25 0 0 1 0,25 A30 25 0 0 0 30,12.5 A30 25 0 0 0 0,0" class="cell_$abc$142$auto$blifparse.cc:386:parse_blif$148"/><circle cx="33" cy="12.5" r="3" class="cell_$abc$142$auto$blifparse.cc:386:parse_blif$148"/><g s:x="1" s:y="3" s:pid="A"/><g s:x="3" s:y="9.33" s:pid="B"/><g s:x="3" s:y="15.66" s:pid="C"/><g s:x="1" s:y="22" s:pid="D"/><g s:x="36" s:y="12.5" s:pid="Y"/></g><g s:type="NAND2" transform="translate(245,270)" s:width="30" s:height="25" id="cell_$abc$142$auto$blifparse.cc:386:parse_blif$149"><s:alias val="NAND2"/><s:alias val="$NAND2"/><path d="M0,0 L0,25 L15,25 A15 12.5 0 0 0 15,0 Z" class="cell_$abc$142$auto$blifparse.cc:386:parse_blif$149"/><circle cx="34" cy="12.5" r="3" class="cell_$abc$142$auto$blifparse.cc:386:parse_blif$149"/><g s:x="0" s:y="5" s:pid="A"/><g s:x="0" s:y="20" s:pid="B"/><g s:x="36" s:y="12.5" s:pid="Y"/></g><g s:type="NOR2" transform="translate(316,99.51)" s:width="33" s:height="25" id="cell_$abc$142$auto$blifparse.cc:386:parse_blif$150"><s:alias val="NOR2"/><s:alias val="$NOR2"/><path d="M0,0 A30 25 0 0 1 0,25 A30 25 0 0 0 30,12.5 A30 25 0 0 0 0,0" class="cell_$abc$142$auto$blifparse.cc:386:parse_blif$150"/><circle cx="33" cy="12.5" r="3" class="cell_$abc$142$auto$blifparse.cc:386:parse_blif$150"/><g s:x="2" s:y="5" s:pid="A"/><g s:x="2" s:y="20" s:pid="B"/><g s:x="36" s:y="12.5" s:pid="Y"/></g><g s:type="inputExt" transform="translate(12,32)" s:width="30" s:height="20" id="cell_input0"><text x="15" y="-4" class="nodelabel cell_input0" s:attribute="ref">input0</text><s:alias val="$_inputExt_"/><path d="M0,0 L0,20 L15,20 L30,10 L15,0 Z" class="cell_input0"/><g s:x="30" s:y="10" s:pid="Y"/></g><g s:type="outputExt" transform="translate(387,102.01)" s:width="30" s:height="20" id="cell_boolean"><text x="15" y="-4" class="nodelabel cell_boolean" s:attribute="ref">boolean</text><s:alias val="$_outputExt_"/><path d="M30,0 L30,20 L15,20 L0,10 L15,0 Z" class="cell_boolean"/><g s:x="0" s:y="10" s:pid="A"/></g><g s:type="split" transform="translate(122,54)" s:width="5" s:height="40" id="cell_$split$,2,3,4,5,6,7,8,9,10,11,12,13,14,15,16,17,"><rect width="5" height="320" class="splitjoinBody" s:generic="body"/><s:alias val="$_split_"/><g s:x="0" s:y="20" s:pid="in"/><g transform="translate(4,10)" s:x="4" s:y="10" s:pid="out0"><text x="5" y="-4">1</text></g><g transform="translate(4,30)" s:x="4" s:y="10" s:pid="out0"><text x="5" y="-4">5</text></g><g transform="translate(4,50)" s:x="4" s:y="10" s:pid="out0"><text x="5" y="-4">4</text></g><g transform="translate(4,70)" s:x="4" s:y="10" s:pid="out0"><text x="5" y="-4">7</text></g><g transform="translate(4,90)" s:x="4" s:y="10" s:pid="out0"><text x="5" y="-4">6</text></g><g transform="translate(4,110)" s:x="4" s:y="10" s:pid="out0"><text x="5" y="-4">3</text></g><g transform="translate(4,130)" s:x="4" s:y="10" s:pid="out0"><text x="5" y="-4">2</text></g><g transform="translate(4,150)" s:x="4" s:y="10" s:pid="out0"><text x="5" y="-4">0</text></g><g transform="translate(4,170)" s:x="4" s:y="10" s:pid="out0"><text x="5" y="-4">13</text></g><g transform="translate(4,190)" s:x="4" s:y="10" s:pid="out0"><text x="5" y="-4">12</text></g><g transform="translate(4,210)" s:x="4" s:y="10" s:pid="out0"><text x="5" y="-4">15</text></g><g transform="translate(4,230)" s:x="4" s:y="10" s:pid="out0"><text x="5" y="-4">14</text></g><g transform="translate(4,250)" s:x="4" s:y="10" s:pid="out0"><text x="5" y="-4">9</text></g><g transform="translate(4,270)" s:x="4" s:y="10" s:pid="out0"><text x="5" y="-4">8</text></g><g transform="translate(4,290)" s:x="4" s:y="10" s:pid="out0"><text x="5" y="-4">11</text></g><g transform="translate(4,310)" s:x="4" s:y="10" s:pid="out0"><text x="5" y="-4">10</text></g></g><line x1="126.5" x2="126.5" y1="64" y2="22" class="net_3 width_1" style="stroke-width: 1"/><line x1="126.5" x2="176" y1="22" y2="22" class="net_3 width_1" style="stroke-width: 1"/><line x1="126.5" x2="126.5" y1="84" y2="32" class="net_7 width_1" style="stroke-width: 1"/><line x1="126.5" x2="144" y1="32" y2="32" class="net_7 width_1" style="stroke-width: 1"/><line x1="144" x2="144" y1="32" y2="98.17" class="net_7 width_1" style="stroke-width: 1"/><line x1="144" x2="175" y1="98.17" y2="98.17" class="net_7 width_1" style="stroke-width: 1"/><line x1="127" x2="177" y1="104.5" y2="104.5" class="net_6 width_1" style="stroke-width: 1"/><line x1="127" x2="144" y1="124.5" y2="124.5" class="net_9 width_1" style="stroke-width: 1"/><line x1="144" x2="144" y1="124.5" y2="110.83" class="net_9 width_1" style="stroke-width: 1"/><line x1="144" x2="177" y1="110.83" y2="110.83" class="net_9 width_1" style="stroke-width: 1"/><line x1="127" x2="154" y1="144.5" y2="144.5" class="net_8 width_1" style="stroke-width: 1"/><line x1="154" x2="154" y1="144.5" y2="117.17" class="net_8 width_1" style="stroke-width: 1"/><line x1="154" x2="175" y1="117.17" y2="117.17" class="net_8 width_1" style="stroke-width: 1"/><line x1="127" x2="144" y1="164.5" y2="164.5" class="net_5 width_1" style="stroke-width: 1"/><line x1="144" x2="144" y1="164.5" y2="169.5" class="net_5 width_1" style="stroke-width: 1"/><line x1="144" x2="176" y1="169.5" y2="169.5" class="net_5 width_1" style="stroke-width: 1"/><line x1="127" x2="176" y1="184.5" y2="184.5" class="net_4 width_1" style="stroke-width: 1"/><line x1="127" x2="220" y1="204.5" y2="204.5" class="net_2 width_1" style="stroke-width: 1"/><line x1="220" x2="220" y1="204.5" y2="95.01" class="net_2 width_1" style="stroke-width: 1"/><line x1="220" x2="245" y1="95.01" y2="95.01" class="net_2 width_1" style="stroke-width: 1"/><line x1="204" x2="230" y1="22" y2="22" class="net_19 width_1" style="stroke-width: 1"/><line x1="230" x2="230" y1="22" y2="101.34" class="net_19 width_1" style="stroke-width: 1"/><line x1="230" x2="245" y1="101.34" y2="101.34" class="net_19 width_1" style="stroke-width: 1"/><line x1="210" x2="245" y1="107.67" y2="107.67" class="net_20 width_1" style="stroke-width: 1"/><line x1="210" x2="230" y1="177" y2="177" class="net_21 width_1" style="stroke-width: 1"/><line x1="230" x2="230" y1="177" y2="114.01" class="net_21 width_1" style="stroke-width: 1"/><line x1="230" x2="245" y1="114.01" y2="114.01" class="net_21 width_1" style="stroke-width: 1"/><line x1="127" x2="164" y1="224.5" y2="224.5" class="net_15 width_1" style="stroke-width: 1"/><line x1="164" x2="164" y1="224.5" y2="265.5" class="net_15 width_1" style="stroke-width: 1"/><line x1="164" x2="175" y1="265.5" y2="265.5" class="net_15 width_1" style="stroke-width: 1"/><line x1="127" x2="154" y1="244.5" y2="244.5" class="net_14 width_1" style="stroke-width: 1"/><line x1="154" x2="154" y1="244.5" y2="271.83" class="net_14 width_1" style="stroke-width: 1"/><line x1="154" x2="177" y1="271.83" y2="271.83" class="net_14 width_1" style="stroke-width: 1"/><line x1="127" x2="144" y1="264.5" y2="264.5" class="net_17 width_1" style="stroke-width: 1"/><line x1="144" x2="144" y1="264.5" y2="278.16" class="net_17 width_1" style="stroke-width: 1"/><line x1="144" x2="177" y1="278.16" y2="278.16" class="net_17 width_1" style="stroke-width: 1"/><line x1="127" x2="175" y1="284.5" y2="284.5" class="net_16 width_1" style="stroke-width: 1"/><line x1="127" x2="154" y1="304.5" y2="304.5" class="net_11 width_1" style="stroke-width: 1"/><line x1="154" x2="154" y1="304.5" y2="371.34" class="net_11 width_1" style="stroke-width: 1"/><line x1="154" x2="175" y1="371.34" y2="371.34" class="net_11 width_1" style="stroke-width: 1"/><line x1="127" x2="144" y1="324.5" y2="324.5" class="net_10 width_1" style="stroke-width: 1"/><line x1="144" x2="144" y1="324.5" y2="377.66999999999996" class="net_10 width_1" style="stroke-width: 1"/><line x1="144" x2="177" y1="377.66999999999996" y2="377.66999999999996" class="net_10 width_1" style="stroke-width: 1"/><line x1="126.5" x2="126.5" y1="345" y2="384" class="net_13 width_1" style="stroke-width: 1"/><line x1="126.5" x2="177" y1="384" y2="384" class="net_13 width_1" style="stroke-width: 1"/><line x1="126.5" x2="126.5" y1="365" y2="394" class="net_12 width_1" style="stroke-width: 1"/><line x1="126.5" x2="144" y1="394" y2="394" class="net_12 width_1" style="stroke-width: 1"/><line x1="144" x2="144" y1="394" y2="390.34" class="net_12 width_1" style="stroke-width: 1"/><line x1="144" x2="175" y1="390.34" y2="390.34" class="net_12 width_1" style="stroke-width: 1"/><line x1="210" x2="245" y1="275" y2="275" class="net_23 width_1" style="stroke-width: 1"/><line x1="210" x2="220" y1="380.84" y2="380.84" class="net_24 width_1" style="stroke-width: 1"/><line x1="220" x2="220" y1="380.84" y2="290" class="net_24 width_1" style="stroke-width: 1"/><line x1="220" x2="245" y1="290" y2="290" class="net_24 width_1" style="stroke-width: 1"/><line x1="281" x2="318" y1="104.51" y2="104.51" class="net_22 width_1" style="stroke-width: 1"/><line x1="281" x2="291" y1="282.5" y2="282.5" class="net_25 width_1" style="stroke-width: 1"/><line x1="291" x2="291" y1="282.5" y2="119.51" class="net_25 width_1" style="stroke-width: 1"/><line x1="291" x2="318" y1="119.51" y2="119.51" class="net_25 width_1" style="stroke-width: 1"/><line x1="352" x2="387" y1="112.01" y2="112.01" class="net_18 width_1" style="stroke-width: 1"/><line x1="42" x2="122.5" y1="42" y2="42" class="net_2,3,4,5,6,7,8,9,10,11,12,13,14,15,16,17 width_16" style="stroke-width: 2"/><line x1="122.5" x2="122.5" y1="42" y2="74" class="net_2,3,4,5,6,7,8,9,10,11,12,13,14,15,16,17 width_16" style="stroke-width: 2"/><rect x="84" y="37" width="22" height="9" class="net_2,3,4,5,6,7,8,9,10,11,12,13,14,15,16,17 width_16 busLabel_16" style="fill: white; stroke: none"/><text x="83" y="45" class="net_2,3,4,5,6,7,8,9,10,11,12,13,14,15,16,17 width_16 busLabel_16">/16/</text></svg>