<svg xmlns="http://www.w3.org/2000/svg" xmlns:xlink="http://www.w3.org/1999/xlink" xmlns:s="https://github.com/nturley/netlistsvg" width="734" height="1717"><style>svg {
  stroke:#000;
  fill:none;
}
text {
  fill:#000;
  stroke:none;
  font-size:10px;
  font-weight: bold;
  font-family: "Courier New", monospace;
}
line {
    stroke-linecap: round;
}
.nodelabel {
  text-anchor: middle;
}
.inputPortLabel {
  text-anchor: end;
}
.splitjoinBody {
  fill:#000;
}</style><g s:type="generic" transform="translate(341,22)" s:width="30" s:height="40" id="cell_$auto$ff.cc:266:slice$83"><text x="15" y="-4" class="nodelabel cell_$auto$ff.cc:266:slice$83" s:attribute="ref">$_DFFE_PP_</text><rect width="30" height="60" s:generic="body" class="cell_$auto$ff.cc:266:slice$83"/><g transform="translate(0,10)" s:x="0" s:y="10" s:pid="in0" id="port_$auto$ff.cc:266:slice$83~C"><text x="-3" y="-4" class="inputPortLabel cell_$auto$ff.cc:266:slice$83">C</text></g><g transform="translate(0,30)" s:x="0" s:y="10" s:pid="in0" id="port_$auto$ff.cc:266:slice$83~D"><text x="-3" y="-4" class="inputPortLabel cell_$auto$ff.cc:266:slice$83">D</text></g><g transform="translate(0,50)" s:x="0" s:y="10" s:pid="in0" id="port_$auto$ff.cc:266:slice$83~E"><text x="-3" y="-4" class="inputPortLabel cell_$auto$ff.cc:266:slice$83">E</text></g><g transform="translate(30,10)" s:x="30" s:y="10" s:pid="out0" id="port_$auto$ff.cc:266:slice$83~Q"><text x="5" y="-4" style="fill:#000; stroke:none" class="cell_$auto$ff.cc:266:slice$83">Q</text></g></g><g s:type="generic" transform="translate(341,130)" s:width="30" s:height="40" id="cell_$auto$ff.cc:266:slice$84"><text x="15" y="-4" class="nodelabel cell_$auto$ff.cc:266:slice$84" s:attribute="ref">$_DFFE_PP_</text><rect width="30" height="60" s:generic="body" class="cell_$auto$ff.cc:266:slice$84"/><g transform="translate(0,10)" s:x="0" s:y="10" s:pid="in0" id="port_$auto$ff.cc:266:slice$84~C"><text x="-3" y="-4" class="inputPortLabel cell_$auto$ff.cc:266:slice$84">C</text></g><g transform="translate(0,30)" s:x="0" s:y="10" s:pid="in0" id="port_$auto$ff.cc:266:slice$84~D"><text x="-3" y="-4" class="inputPortLabel cell_$auto$ff.cc:266:slice$84">D</text></g><g transform="translate(0,50)" s:x="0" s:y="10" s:pid="in0" id="port_$auto$ff.cc:266:slice$84~E"><text x="-3" y="-4" class="inputPortLabel cell_$auto$ff.cc:266:slice$84">E</text></g><g transform="translate(30,10)" s:x="30" s:y="10" s:pid="out0" id="port_$auto$ff.cc:266:slice$84~Q"><text x="5" y="-4" style="fill:#000; stroke:none" class="cell_$auto$ff.cc:266:slice$84">Q</text></g></g><g s:type="generic" transform="translate(341,238)" s:width="30" s:height="40" id="cell_$auto$ff.cc:266:slice$85"><text x="15" y="-4" class="nodelabel cell_$auto$ff.cc:266:slice$85" s:attribute="ref">$_DFFE_PP_</text><rect width="30" height="60" s:generic="body" class="cell_$auto$ff.cc:266:slice$85"/><g transform="translate(0,10)" s:x="0" s:y="10" s:pid="in0" id="port_$auto$ff.cc:266:slice$85~C"><text x="-3" y="-4" class="inputPortLabel cell_$auto$ff.cc:266:slice$85">C</text></g><g transform="translate(0,30)" s:x="0" s:y="10" s:pid="in0" id="port_$auto$ff.cc:266:slice$85~D"><text x="-3" y="-4" class="inputPortLabel cell_$auto$ff.cc:266:slice$85">D</text></g><g transform="translate(0,50)" s:x="0" s:y="10" s:pid="in0" id="port_$auto$ff.cc:266:slice$85~E"><text x="-3" y="-4" class="inputPortLabel cell_$auto$ff.cc:266:slice$85">E</text></g><g transform="translate(30,10)" s:x="30" s:y="10" s:pid="out0" id="port_$auto$ff.cc:266:slice$85~Q"><text x="5" y="-4" style="fill:#000; stroke:none" class="cell_$auto$ff.cc:266:slice$85">Q</text></g></g><g s:type="generic" transform="translate(341,346)" s:width="30" s:height="40" id="cell_$auto$ff.cc:266:slice$86"><text x="15" y="-4" class="nodelabel cell_$auto$ff.cc:266:slice$86" s:attribute="ref">$_DFFE_PP_</text><rect width="30" height="60" s:generic="body" class="cell_$auto$ff.cc:266:slice$86"/><g transform="translate(0,10)" s:x="0" s:y="10" s:pid="in0" id="port_$auto$ff.cc:266:slice$86~C"><text x="-3" y="-4" class="inputPortLabel cell_$auto$ff.cc:266:slice$86">C</text></g><g transform="translate(0,30)" s:x="0" s:y="10" s:pid="in0" id="port_$auto$ff.cc:266:slice$86~D"><text x="-3" y="-4" class="inputPortLabel cell_$auto$ff.cc:266:slice$86">D</text></g><g transform="translate(0,50)" s:x="0" s:y="10" s:pid="in0" id="port_$auto$ff.cc:266:slice$86~E"><text x="-3" y="-4" class="inputPortLabel cell_$auto$ff.cc:266:slice$86">E</text></g><g transform="translate(30,10)" s:x="30" s:y="10" s:pid="out0" id="port_$auto$ff.cc:266:slice$86~Q"><text x="5" y="-4" style="fill:#000; stroke:none" class="cell_$auto$ff.cc:266:slice$86">Q</text></g></g><g s:type="generic" transform="translate(341,454)" s:width="30" s:height="40" id="cell_$auto$ff.cc:266:slice$87"><text x="15" y="-4" class="nodelabel cell_$auto$ff.cc:266:slice$87" s:attribute="ref">$_DFFE_PP_</text><rect width="30" height="60" s:generic="body" class="cell_$auto$ff.cc:266:slice$87"/><g transform="translate(0,10)" s:x="0" s:y="10" s:pid="in0" id="port_$auto$ff.cc:266:slice$87~C"><text x="-3" y="-4" class="inputPortLabel cell_$auto$ff.cc:266:slice$87">C</text></g><g transform="translate(0,30)" s:x="0" s:y="10" s:pid="in0" id="port_$auto$ff.cc:266:slice$87~D"><text x="-3" y="-4" class="inputPortLabel cell_$auto$ff.cc:266:slice$87">D</text></g><g transform="translate(0,50)" s:x="0" s:y="10" s:pid="in0" id="port_$auto$ff.cc:266:slice$87~E"><text x="-3" y="-4" class="inputPortLabel cell_$auto$ff.cc:266:slice$87">E</text></g><g transform="translate(30,10)" s:x="30" s:y="10" s:pid="out0" id="port_$auto$ff.cc:266:slice$87~Q"><text x="5" y="-4" style="fill:#000; stroke:none" class="cell_$auto$ff.cc:266:slice$87">Q</text></g></g><g s:type="generic" transform="translate(341,562)" s:width="30" s:height="40" id="cell_$auto$ff.cc:266:slice$88"><text x="15" y="-4" class="nodelabel cell_$auto$ff.cc:266:slice$88" s:attribute="ref">$_DFFE_PP_</text><rect width="30" height="60" s:generic="body" class="cell_$auto$ff.cc:266:slice$88"/><g transform="translate(0,10)" s:x="0" s:y="10" s:pid="in0" id="port_$auto$ff.cc:266:slice$88~C"><text x="-3" y="-4" class="inputPortLabel cell_$auto$ff.cc:266:slice$88">C</text></g><g transform="translate(0,30)" s:x="0" s:y="10" s:pid="in0" id="port_$auto$ff.cc:266:slice$88~D"><text x="-3" y="-4" class="inputPortLabel cell_$auto$ff.cc:266:slice$88">D</text></g><g transform="translate(0,50)" s:x="0" s:y="10" s:pid="in0" id="port_$auto$ff.cc:266:slice$88~E"><text x="-3" y="-4" class="inputPortLabel cell_$auto$ff.cc:266:slice$88">E</text></g><g transform="translate(30,10)" s:x="30" s:y="10" s:pid="out0" id="port_$auto$ff.cc:266:slice$88~Q"><text x="5" y="-4" style="fill:#000; stroke:none" class="cell_$auto$ff.cc:266:slice$88">Q</text></g></g><g s:type="generic" transform="translate(341,670)" s:width="30" s:height="40" id="cell_$auto$ff.cc:266:slice$89"><text x="15" y="-4" class="nodelabel cell_$auto$ff.cc:266:slice$89" s:attribute="ref">$_DFFE_PP_</text><rect width="30" height="60" s:generic="body" class="cell_$auto$ff.cc:266:slice$89"/><g transform="translate(0,10)" s:x="0" s:y="10" s:pid="in0" id="port_$auto$ff.cc:266:slice$89~C"><text x="-3" y="-4" class="inputPortLabel cell_$auto$ff.cc:266:slice$89">C</text></g><g transform="translate(0,30)" s:x="0" s:y="10" s:pid="in0" id="port_$auto$ff.cc:266:slice$89~D"><text x="-3" y="-4" class="inputPortLabel cell_$auto$ff.cc:266:slice$89">D</text></g><g transform="translate(0,50)" s:x="0" s:y="10" s:pid="in0" id="port_$auto$ff.cc:266:slice$89~E"><text x="-3" y="-4" class="inputPortLabel cell_$auto$ff.cc:266:slice$89">E</text></g><g transform="translate(30,10)" s:x="30" s:y="10" s:pid="out0" id="port_$auto$ff.cc:266:slice$89~Q"><text x="5" y="-4" style="fill:#000; stroke:none" class="cell_$auto$ff.cc:266:slice$89">Q</text></g></g><g s:type="generic" transform="translate(341,778)" s:width="30" s:height="40" id="cell_$auto$ff.cc:266:slice$90"><text x="15" y="-4" class="nodelabel cell_$auto$ff.cc:266:slice$90" s:attribute="ref">$_DFFE_PP_</text><rect width="30" height="60" s:generic="body" class="cell_$auto$ff.cc:266:slice$90"/><g transform="translate(0,10)" s:x="0" s:y="10" s:pid="in0" id="port_$auto$ff.cc:266:slice$90~C"><text x="-3" y="-4" class="inputPortLabel cell_$auto$ff.cc:266:slice$90">C</text></g><g transform="translate(0,30)" s:x="0" s:y="10" s:pid="in0" id="port_$auto$ff.cc:266:slice$90~D"><text x="-3" y="-4" class="inputPortLabel cell_$auto$ff.cc:266:slice$90">D</text></g><g transform="translate(0,50)" s:x="0" s:y="10" s:pid="in0" id="port_$auto$ff.cc:266:slice$90~E"><text x="-3" y="-4" class="inputPortLabel cell_$auto$ff.cc:266:slice$90">E</text></g><g transform="translate(30,10)" s:x="30" s:y="10" s:pid="out0" id="port_$auto$ff.cc:266:slice$90~Q"><text x="5" y="-4" style="fill:#000; stroke:none" class="cell_$auto$ff.cc:266:slice$90">Q</text></g></g><g s:type="generic" transform="translate(341,886)" s:width="30" s:height="40" id="cell_$auto$ff.cc:266:slice$91"><text x="15" y="-4" class="nodelabel cell_$auto$ff.cc:266:slice$91" s:attribute="ref">$_DFFE_PP_</text><rect width="30" height="60" s:generic="body" class="cell_$auto$ff.cc:266:slice$91"/><g transform="translate(0,10)" s:x="0" s:y="10" s:pid="in0" id="port_$auto$ff.cc:266:slice$91~C"><text x="-3" y="-4" class="inputPortLabel cell_$auto$ff.cc:266:slice$91">C</text></g><g transform="translate(0,30)" s:x="0" s:y="10" s:pid="in0" id="port_$auto$ff.cc:266:slice$91~D"><text x="-3" y="-4" class="inputPortLabel cell_$auto$ff.cc:266:slice$91">D</text></g><g transform="translate(0,50)" s:x="0" s:y="10" s:pid="in0" id="port_$auto$ff.cc:266:slice$91~E"><text x="-3" y="-4" class="inputPortLabel cell_$auto$ff.cc:266:slice$91">E</text></g><g transform="translate(30,10)" s:x="30" s:y="10" s:pid="out0" id="port_$auto$ff.cc:266:slice$91~Q"><text x="5" y="-4" style="fill:#000; stroke:none" class="cell_$auto$ff.cc:266:slice$91">Q</text></g></g><g s:type="generic" transform="translate(341,994)" s:width="30" s:height="40" id="cell_$auto$ff.cc:266:slice$92"><text x="15" y="-4" class="nodelabel cell_$auto$ff.cc:266:slice$92" s:attribute="ref">$_DFFE_PP_</text><rect width="30" height="60" s:generic="body" class="cell_$auto$ff.cc:266:slice$92"/><g transform="translate(0,10)" s:x="0" s:y="10" s:pid="in0" id="port_$auto$ff.cc:266:slice$92~C"><text x="-3" y="-4" class="inputPortLabel cell_$auto$ff.cc:266:slice$92">C</text></g><g transform="translate(0,30)" s:x="0" s:y="10" s:pid="in0" id="port_$auto$ff.cc:266:slice$92~D"><text x="-3" y="-4" class="inputPortLabel cell_$auto$ff.cc:266:slice$92">D</text></g><g transform="translate(0,50)" s:x="0" s:y="10" s:pid="in0" id="port_$auto$ff.cc:266:slice$92~E"><text x="-3" y="-4" class="inputPortLabel cell_$auto$ff.cc:266:slice$92">E</text></g><g transform="translate(30,10)" s:x="30" s:y="10" s:pid="out0" id="port_$auto$ff.cc:266:slice$92~Q"><text x="5" y="-4" style="fill:#000; stroke:none" class="cell_$auto$ff.cc:266:slice$92">Q</text></g></g><g s:type="generic" transform="translate(341,1102)" s:width="30" s:height="40" id="cell_$auto$ff.cc:266:slice$93"><text x="15" y="-4" class="nodelabel cell_$auto$ff.cc:266:slice$93" s:attribute="ref">$_DFFE_PP_</text><rect width="30" height="60" s:generic="body" class="cell_$auto$ff.cc:266:slice$93"/><g transform="translate(0,10)" s:x="0" s:y="10" s:pid="in0" id="port_$auto$ff.cc:266:slice$93~C"><text x="-3" y="-4" class="inputPortLabel cell_$auto$ff.cc:266:slice$93">C</text></g><g transform="translate(0,30)" s:x="0" s:y="10" s:pid="in0" id="port_$auto$ff.cc:266:slice$93~D"><text x="-3" y="-4" class="inputPortLabel cell_$auto$ff.cc:266:slice$93">D</text></g><g transform="translate(0,50)" s:x="0" s:y="10" s:pid="in0" id="port_$auto$ff.cc:266:slice$93~E"><text x="-3" y="-4" class="inputPortLabel cell_$auto$ff.cc:266:slice$93">E</text></g><g transform="translate(30,10)" s:x="30" s:y="10" s:pid="out0" id="port_$auto$ff.cc:266:slice$93~Q"><text x="5" y="-4" style="fill:#000; stroke:none" class="cell_$auto$ff.cc:266:slice$93">Q</text></g></g><g s:type="generic" transform="translate(341,1210)" s:width="30" s:height="40" id="cell_$auto$ff.cc:266:slice$94"><text x="15" y="-4" class="nodelabel cell_$auto$ff.cc:266:slice$94" s:attribute="ref">$_DFFE_PP_</text><rect width="30" height="60" s:generic="body" class="cell_$auto$ff.cc:266:slice$94"/><g transform="translate(0,10)" s:x="0" s:y="10" s:pid="in0" id="port_$auto$ff.cc:266:slice$94~C"><text x="-3" y="-4" class="inputPortLabel cell_$auto$ff.cc:266:slice$94">C</text></g><g transform="translate(0,30)" s:x="0" s:y="10" s:pid="in0" id="port_$auto$ff.cc:266:slice$94~D"><text x="-3" y="-4" class="inputPortLabel cell_$auto$ff.cc:266:slice$94">D</text></g><g transform="translate(0,50)" s:x="0" s:y="10" s:pid="in0" id="port_$auto$ff.cc:266:slice$94~E"><text x="-3" y="-4" class="inputPortLabel cell_$auto$ff.cc:266:slice$94">E</text></g><g transform="translate(30,10)" s:x="30" s:y="10" s:pid="out0" id="port_$auto$ff.cc:266:slice$94~Q"><text x="5" y="-4" style="fill:#000; stroke:none" class="cell_$auto$ff.cc:266:slice$94">Q</text></g></g><g s:type="generic" transform="translate(341,1318)" s:width="30" s:height="40" id="cell_$auto$ff.cc:266:slice$95"><text x="15" y="-4" class="nodelabel cell_$auto$ff.cc:266:slice$95" s:attribute="ref">$_DFFE_PP_</text><rect width="30" height="60" s:generic="body" class="cell_$auto$ff.cc:266:slice$95"/><g transform="translate(0,10)" s:x="0" s:y="10" s:pid="in0" id="port_$auto$ff.cc:266:slice$95~C"><text x="-3" y="-4" class="inputPortLabel cell_$auto$ff.cc:266:slice$95">C</text></g><g transform="translate(0,30)" s:x="0" s:y="10" s:pid="in0" id="port_$auto$ff.cc:266:slice$95~D"><text x="-3" y="-4" class="inputPortLabel cell_$auto$ff.cc:266:slice$95">D</text></g><g transform="translate(0,50)" s:x="0" s:y="10" s:pid="in0" id="port_$auto$ff.cc:266:slice$95~E"><text x="-3" y="-4" class="inputPortLabel cell_$auto$ff.cc:266:slice$95">E</text></g><g transform="translate(30,10)" s:x="30" s:y="10" s:pid="out0" id="port_$auto$ff.cc:266:slice$95~Q"><text x="5" y="-4" style="fill:#000; stroke:none" class="cell_$auto$ff.cc:266:slice$95">Q</text></g></g><g s:type="generic" transform="translate(341,1426)" s:width="30" s:height="40" id="cell_$auto$ff.cc:266:slice$96"><text x="15" y="-4" class="nodelabel cell_$auto$ff.cc:266:slice$96" s:attribute="ref">$_DFFE_PP_</text><rect width="30" height="60" s:generic="body" class="cell_$auto$ff.cc:266:slice$96"/><g transform="translate(0,10)" s:x="0" s:y="10" s:pid="in0" id="port_$auto$ff.cc:266:slice$96~C"><text x="-3" y="-4" class="inputPortLabel cell_$auto$ff.cc:266:slice$96">C</text></g><g transform="translate(0,30)" s:x="0" s:y="10" s:pid="in0" id="port_$auto$ff.cc:266:slice$96~D"><text x="-3" y="-4" class="inputPortLabel cell_$auto$ff.cc:266:slice$96">D</text></g><g transform="translate(0,50)" s:x="0" s:y="10" s:pid="in0" id="port_$auto$ff.cc:266:slice$96~E"><text x="-3" y="-4" class="inputPortLabel cell_$auto$ff.cc:266:slice$96">E</text></g><g transform="translate(30,10)" s:x="30" s:y="10" s:pid="out0" id="port_$auto$ff.cc:266:slice$96~Q"><text x="5" y="-4" style="fill:#000; stroke:none" class="cell_$auto$ff.cc:266:slice$96">Q</text></g></g><g s:type="generic" transform="translate(341,1642)" s:width="30" s:height="40" id="cell_$auto$ff.cc:266:slice$97"><text x="15" y="-4" class="nodelabel cell_$auto$ff.cc:266:slice$97" s:attribute="ref">$_DFFE_PP_</text><rect width="30" height="60" s:generic="body" class="cell_$auto$ff.cc:266:slice$97"/><g transform="translate(0,10)" s:x="0" s:y="10" s:pid="in0" id="port_$auto$ff.cc:266:slice$97~C"><text x="-3" y="-4" class="inputPortLabel cell_$auto$ff.cc:266:slice$97">C</text></g><g transform="translate(0,30)" s:x="0" s:y="10" s:pid="in0" id="port_$auto$ff.cc:266:slice$97~D"><text x="-3" y="-4" class="inputPortLabel cell_$auto$ff.cc:266:slice$97">D</text></g><g transform="translate(0,50)" s:x="0" s:y="10" s:pid="in0" id="port_$auto$ff.cc:266:slice$97~E"><text x="-3" y="-4" class="inputPortLabel cell_$auto$ff.cc:266:slice$97">E</text></g><g transform="translate(30,10)" s:x="30" s:y="10" s:pid="out0" id="port_$auto$ff.cc:266:slice$97~Q"><text x="5" y="-4" style="fill:#000; stroke:none" class="cell_$auto$ff.cc:266:slice$97">Q</text></g></g><g s:type="generic" transform="translate(341,1534)" s:width="30" s:height="40" id="cell_$auto$ff.cc:266:slice$98"><text x="15" y="-4" class="nodelabel cell_$auto$ff.cc:266:slice$98" s:attribute="ref">$_DFFE_PP_</text><rect width="30" height="60" s:generic="body" class="cell_$auto$ff.cc:266:slice$98"/><g transform="translate(0,10)" s:x="0" s:y="10" s:pid="in0" id="port_$auto$ff.cc:266:slice$98~C"><text x="-3" y="-4" class="inputPortLabel cell_$auto$ff.cc:266:slice$98">C</text></g><g transform="translate(0,30)" s:x="0" s:y="10" s:pid="in0" id="port_$auto$ff.cc:266:slice$98~D"><text x="-3" y="-4" class="inputPortLabel cell_$auto$ff.cc:266:slice$98">D</text></g><g transform="translate(0,50)" s:x="0" s:y="10" s:pid="in0" id="port_$auto$ff.cc:266:slice$98~E"><text x="-3" y="-4" class="inputPortLabel cell_$auto$ff.cc:266:slice$98">E</text></g><g transform="translate(30,10)" s:x="30" s:y="10" s:pid="out0" id="port_$auto$ff.cc:266:slice$98~Q"><text x="5" y="-4" style="fill:#000; stroke:none" class="cell_$auto$ff.cc:266:slice$98">Q</text></g></g><g s:type="inputExt" transform="translate(12,966.5)" s:width="30" s:height="20" id="cell_in"><text x="15" y="-4" class="nodelabel cell_in" s:attribute="ref">in</text><s:alias val="$_inputExt_"/><path d="M0,0 L0,20 L15,20 L30,10 L15,0 Z" class="cell_in"/><g s:x="30" s:y="10" s:pid="Y"/></g><g s:type="inputExt" transform="translate(116,778.5)" s:width="30" s:height="20" id="cell_CLK"><text x="15" y="-4" class="nodelabel cell_CLK" s:attribute="ref">CLK</text><s:alias val="$_inputExt_"/><path d="M0,0 L0,20 L15,20 L30,10 L15,0 Z" class="cell_CLK"/><g s:x="30" s:y="10" s:pid="Y"/></g><g s:type="inputExt" transform="translate(116,926.5)" s:width="30" s:height="20" id="cell_write_enabled"><text x="15" y="-4" class="nodelabel cell_write_enabled" s:attribute="ref">write_enabled</text><s:alias val="$_inputExt_"/><path d="M0,0 L0,20 L15,20 L30,10 L15,0 Z" class="cell_write_enabled"/><g s:x="30" s:y="10" s:pid="Y"/></g><g s:type="outputExt" transform="translate(692,208.5)" s:width="30" s:height="20" id="cell_out"><text x="15" y="-4" class="nodelabel cell_out" s:attribute="ref">out</text><s:alias val="$_outputExt_"/><path d="M30,0 L30,20 L15,20 L0,10 L15,0 Z" class="cell_out"/><g s:x="0" s:y="10" s:pid="A"/></g><g s:type="join" transform="translate(612,198)" s:width="4" s:height="40" id="cell_$join$,20,21,22,23,24,25,26,27,28,29,30,31,32,33,34,35,"><rect width="5" height="320" class="splitjoinBody" s:generic="body"/><s:alias val="$_join_"/><g s:x="5" s:y="20" s:pid="out"/><g transform="translate(0,10)" s:x="0" s:y="10" s:pid="in0"><text x="-3" y="-4" class="inputPortLabel">0</text></g><g transform="translate(0,30)" s:x="0" s:y="10" s:pid="in0"><text x="-3" y="-4" class="inputPortLabel">1</text></g><g transform="translate(0,50)" s:x="0" s:y="10" s:pid="in0"><text x="-3" y="-4" class="inputPortLabel">2</text></g><g transform="translate(0,70)" s:x="0" s:y="10" s:pid="in0"><text x="-3" y="-4" class="inputPortLabel">3</text></g><g transform="translate(0,90)" s:x="0" s:y="10" s:pid="in0"><text x="-3" y="-4" class="inputPortLabel">4</text></g><g transform="translate(0,110)" s:x="0" s:y="10" s:pid="in0"><text x="-3" y="-4" class="inputPortLabel">5</text></g><g transform="translate(0,130)" s:x="0" s:y="10" s:pid="in0"><text x="-3" y="-4" class="inputPortLabel">6</text></g><g transform="translate(0,150)" s:x="0" s:y="10" s:pid="in0"><text x="-3" y="-4" class="inputPortLabel">7</text></g><g transform="translate(0,170)" s:x="0" s:y="10" s:pid="in0"><text x="-3" y="-4" class="inputPortLabel">8</text></g><g transform="translate(0,190)" s:x="0" s:y="10" s:pid="in0"><text x="-3" y="-4" class="inputPortLabel">9</text></g><g transform="translate(0,210)" s:x="0" s:y="10" s:pid="in0"><text x="-3" y="-4" class="inputPortLabel">10</text></g><g transform="translate(0,230)" s:x="0" s:y="10" s:pid="in0"><text x="-3" y="-4" class="inputPortLabel">11</text></g><g transform="translate(0,250)" s:x="0" s:y="10" s:pid="in0"><text x="-3" y="-4" class="inputPortLabel">12</text></g><g transform="translate(0,270)" s:x="0" s:y="10" s:pid="in0"><text x="-3" y="-4" class="inputPortLabel">13</text></g><g transform="translate(0,290)" s:x="0" s:y="10" s:pid="in0"><text x="-3" y="-4" class="inputPortLabel">14</text></g><g transform="translate(0,310)" s:x="0" s:y="10" s:pid="in0"><text x="-3" y="-4" class="inputPortLabel">15</text></g></g><g s:type="split" transform="translate(141,988.5)" s:width="5" s:height="40" id="cell_$split$,2,3,4,5,6,7,8,9,10,11,12,13,14,15,16,17,"><rect width="5" height="320" class="splitjoinBody" s:generic="body"/><s:alias val="$_split_"/><g s:x="0" s:y="20" s:pid="in"/><g transform="translate(4,10)" s:x="4" s:y="10" s:pid="out0"><text x="5" y="-4">0</text></g><g transform="translate(4,30)" s:x="4" s:y="10" s:pid="out0"><text x="5" y="-4">1</text></g><g transform="translate(4,50)" s:x="4" s:y="10" s:pid="out0"><text x="5" y="-4">2</text></g><g transform="translate(4,70)" s:x="4" s:y="10" s:pid="out0"><text x="5" y="-4">3</text></g><g transform="translate(4,90)" s:x="4" s:y="10" s:pid="out0"><text x="5" y="-4">4</text></g><g transform="translate(4,110)" s:x="4" s:y="10" s:pid="out0"><text x="5" y="-4">5</text></g><g transform="translate(4,130)" s:x="4" s:y="10" s:pid="out0"><text x="5" y="-4">6</text></g><g transform="translate(4,150)" s:x="4" s:y="10" s:pid="out0"><text x="5" y="-4">7</text></g><g transform="translate(4,170)" s:x="4" s:y="10" s:pid="out0"><text x="5" y="-4">8</text></g><g transform="translate(4,190)" s:x="4" s:y="10" s:pid="out0"><text x="5" y="-4">9</text></g><g transform="translate(4,210)" s:x="4" s:y="10" s:pid="out0"><text x="5" y="-4">10</text></g><g transform="translate(4,230)" s:x="4" s:y="10" s:pid="out0"><text x="5" y="-4">11</text></g><g transform="translate(4,250)" s:x="4" s:y="10" s:pid="out0"><text x="5" y="-4">12</text></g><g transform="translate(4,270)" s:x="4" s:y="10" s:pid="out0"><text x="5" y="-4">13</text></g><g transform="translate(4,290)" s:x="4" s:y="10" s:pid="out0"><text x="5" y="-4">14</text></g><g transform="translate(4,310)" s:x="4" s:y="10" s:pid="out0"><text x="5" y="-4">15</text></g></g><line x1="146" x2="324" y1="788.5" y2="788.5" class="net_18 width_1" style="stroke-width: 1"/><line x1="324" x2="324" y1="788.5" y2="32.5" class="net_18 width_1" style="stroke-width: 1"/><circle cx="324" cy="788.5" r="2" style="fill:#000" class="net_18 width_1"/><line x1="324" x2="341" y1="32.5" y2="32.5" class="net_18 width_1" style="stroke-width: 1"/><line x1="146" x2="324" y1="788.5" y2="788.5" class="net_18 width_1" style="stroke-width: 1"/><line x1="324" x2="324" y1="788.5" y2="140.5" class="net_18 width_1" style="stroke-width: 1"/><circle cx="324" cy="140.5" r="2" style="fill:#000" class="net_18 width_1"/><line x1="324" x2="341" y1="140.5" y2="140.5" class="net_18 width_1" style="stroke-width: 1"/><line x1="146" x2="324" y1="788.5" y2="788.5" class="net_18 width_1" style="stroke-width: 1"/><line x1="324" x2="324" y1="788.5" y2="248.5" class="net_18 width_1" style="stroke-width: 1"/><circle cx="324" cy="248.5" r="2" style="fill:#000" class="net_18 width_1"/><line x1="324" x2="341" y1="248.5" y2="248.5" class="net_18 width_1" style="stroke-width: 1"/><line x1="146" x2="324" y1="788.5" y2="788.5" class="net_18 width_1" style="stroke-width: 1"/><line x1="324" x2="324" y1="788.5" y2="356.5" class="net_18 width_1" style="stroke-width: 1"/><circle cx="324" cy="356.5" r="2" style="fill:#000" class="net_18 width_1"/><line x1="324" x2="341" y1="356.5" y2="356.5" class="net_18 width_1" style="stroke-width: 1"/><line x1="146" x2="324" y1="788.5" y2="788.5" class="net_18 width_1" style="stroke-width: 1"/><line x1="324" x2="324" y1="788.5" y2="464.5" class="net_18 width_1" style="stroke-width: 1"/><circle cx="324" cy="464.5" r="2" style="fill:#000" class="net_18 width_1"/><line x1="324" x2="341" y1="464.5" y2="464.5" class="net_18 width_1" style="stroke-width: 1"/><line x1="146" x2="324" y1="788.5" y2="788.5" class="net_18 width_1" style="stroke-width: 1"/><line x1="324" x2="324" y1="788.5" y2="572.5" class="net_18 width_1" style="stroke-width: 1"/><circle cx="324" cy="572.5" r="2" style="fill:#000" class="net_18 width_1"/><line x1="324" x2="341" y1="572.5" y2="572.5" class="net_18 width_1" style="stroke-width: 1"/><line x1="146" x2="324" y1="788.5" y2="788.5" class="net_18 width_1" style="stroke-width: 1"/><line x1="324" x2="324" y1="788.5" y2="680.5" class="net_18 width_1" style="stroke-width: 1"/><circle cx="324" cy="680.5" r="2" style="fill:#000" class="net_18 width_1"/><line x1="324" x2="341" y1="680.5" y2="680.5" class="net_18 width_1" style="stroke-width: 1"/><line x1="146" x2="341" y1="788.5" y2="788.5" class="net_18 width_1" style="stroke-width: 1"/><line x1="146" x2="324" y1="788.5" y2="788.5" class="net_18 width_1" style="stroke-width: 1"/><line x1="324" x2="324" y1="788.5" y2="896.5" class="net_18 width_1" style="stroke-width: 1"/><circle cx="324" cy="896.5" r="2" style="fill:#000" class="net_18 width_1"/><line x1="324" x2="341" y1="896.5" y2="896.5" class="net_18 width_1" style="stroke-width: 1"/><line x1="146" x2="324" y1="788.5" y2="788.5" class="net_18 width_1" style="stroke-width: 1"/><line x1="324" x2="324" y1="788.5" y2="1004.5" class="net_18 width_1" style="stroke-width: 1"/><circle cx="324" cy="1004.5" r="2" style="fill:#000" class="net_18 width_1"/><line x1="324" x2="341" y1="1004.5" y2="1004.5" class="net_18 width_1" style="stroke-width: 1"/><line x1="146" x2="324" y1="788.5" y2="788.5" class="net_18 width_1" style="stroke-width: 1"/><line x1="324" x2="324" y1="788.5" y2="1112.5" class="net_18 width_1" style="stroke-width: 1"/><circle cx="324" cy="1112.5" r="2" style="fill:#000" class="net_18 width_1"/><line x1="324" x2="341" y1="1112.5" y2="1112.5" class="net_18 width_1" style="stroke-width: 1"/><line x1="146" x2="324" y1="788.5" y2="788.5" class="net_18 width_1" style="stroke-width: 1"/><line x1="324" x2="324" y1="788.5" y2="1220.5" class="net_18 width_1" style="stroke-width: 1"/><circle cx="324" cy="1220.5" r="2" style="fill:#000" class="net_18 width_1"/><line x1="324" x2="341" y1="1220.5" y2="1220.5" class="net_18 width_1" style="stroke-width: 1"/><line x1="146" x2="324" y1="788.5" y2="788.5" class="net_18 width_1" style="stroke-width: 1"/><line x1="324" x2="324" y1="788.5" y2="1328.5" class="net_18 width_1" style="stroke-width: 1"/><circle cx="324" cy="1328.5" r="2" style="fill:#000" class="net_18 width_1"/><line x1="324" x2="341" y1="1328.5" y2="1328.5" class="net_18 width_1" style="stroke-width: 1"/><line x1="146" x2="324" y1="788.5" y2="788.5" class="net_18 width_1" style="stroke-width: 1"/><line x1="324" x2="324" y1="788.5" y2="1436.5" class="net_18 width_1" style="stroke-width: 1"/><circle cx="324" cy="1436.5" r="2" style="fill:#000" class="net_18 width_1"/><line x1="324" x2="341" y1="1436.5" y2="1436.5" class="net_18 width_1" style="stroke-width: 1"/><line x1="146" x2="324" y1="788.5" y2="788.5" class="net_18 width_1" style="stroke-width: 1"/><line x1="324" x2="324" y1="788.5" y2="1652.5" class="net_18 width_1" style="stroke-width: 1"/><line x1="324" x2="341" y1="1652.5" y2="1652.5" class="net_18 width_1" style="stroke-width: 1"/><line x1="146" x2="324" y1="788.5" y2="788.5" class="net_18 width_1" style="stroke-width: 1"/><line x1="324" x2="324" y1="788.5" y2="1544.5" class="net_18 width_1" style="stroke-width: 1"/><circle cx="324" cy="1544.5" r="2" style="fill:#000" class="net_18 width_1"/><line x1="324" x2="341" y1="1544.5" y2="1544.5" class="net_18 width_1" style="stroke-width: 1"/><line x1="145.5" x2="145.5" y1="998.5" y2="956.5" class="net_2 width_1" style="stroke-width: 1"/><line x1="145.5" x2="204" y1="956.5" y2="956.5" class="net_2 width_1" style="stroke-width: 1"/><line x1="204" x2="204" y1="956.5" y2="52.5" class="net_2 width_1" style="stroke-width: 1"/><line x1="204" x2="341" y1="52.5" y2="52.5" class="net_2 width_1" style="stroke-width: 1"/><line x1="146" x2="314" y1="936.5" y2="936.5" class="net_19 width_1" style="stroke-width: 1"/><line x1="314" x2="314" y1="936.5" y2="72.5" class="net_19 width_1" style="stroke-width: 1"/><circle cx="314" cy="936.5" r="2" style="fill:#000" class="net_19 width_1"/><line x1="314" x2="341" y1="72.5" y2="72.5" class="net_19 width_1" style="stroke-width: 1"/><line x1="146" x2="314" y1="936.5" y2="936.5" class="net_19 width_1" style="stroke-width: 1"/><line x1="314" x2="314" y1="936.5" y2="180.5" class="net_19 width_1" style="stroke-width: 1"/><circle cx="314" cy="180.5" r="2" style="fill:#000" class="net_19 width_1"/><line x1="314" x2="341" y1="180.5" y2="180.5" class="net_19 width_1" style="stroke-width: 1"/><line x1="146" x2="314" y1="936.5" y2="936.5" class="net_19 width_1" style="stroke-width: 1"/><line x1="314" x2="314" y1="936.5" y2="288.5" class="net_19 width_1" style="stroke-width: 1"/><circle cx="314" cy="288.5" r="2" style="fill:#000" class="net_19 width_1"/><line x1="314" x2="341" y1="288.5" y2="288.5" class="net_19 width_1" style="stroke-width: 1"/><line x1="146" x2="314" y1="936.5" y2="936.5" class="net_19 width_1" style="stroke-width: 1"/><line x1="314" x2="314" y1="936.5" y2="396.5" class="net_19 width_1" style="stroke-width: 1"/><circle cx="314" cy="396.5" r="2" style="fill:#000" class="net_19 width_1"/><line x1="314" x2="341" y1="396.5" y2="396.5" class="net_19 width_1" style="stroke-width: 1"/><line x1="146" x2="314" y1="936.5" y2="936.5" class="net_19 width_1" style="stroke-width: 1"/><line x1="314" x2="314" y1="936.5" y2="504.5" class="net_19 width_1" style="stroke-width: 1"/><circle cx="314" cy="504.5" r="2" style="fill:#000" class="net_19 width_1"/><line x1="314" x2="341" y1="504.5" y2="504.5" class="net_19 width_1" style="stroke-width: 1"/><line x1="146" x2="314" y1="936.5" y2="936.5" class="net_19 width_1" style="stroke-width: 1"/><line x1="314" x2="314" y1="936.5" y2="612.5" class="net_19 width_1" style="stroke-width: 1"/><circle cx="314" cy="612.5" r="2" style="fill:#000" class="net_19 width_1"/><line x1="314" x2="341" y1="612.5" y2="612.5" class="net_19 width_1" style="stroke-width: 1"/><line x1="146" x2="314" y1="936.5" y2="936.5" class="net_19 width_1" style="stroke-width: 1"/><line x1="314" x2="314" y1="936.5" y2="720.5" class="net_19 width_1" style="stroke-width: 1"/><circle cx="314" cy="720.5" r="2" style="fill:#000" class="net_19 width_1"/><line x1="314" x2="341" y1="720.5" y2="720.5" class="net_19 width_1" style="stroke-width: 1"/><line x1="146" x2="314" y1="936.5" y2="936.5" class="net_19 width_1" style="stroke-width: 1"/><line x1="314" x2="314" y1="936.5" y2="828.5" class="net_19 width_1" style="stroke-width: 1"/><circle cx="314" cy="828.5" r="2" style="fill:#000" class="net_19 width_1"/><line x1="314" x2="341" y1="828.5" y2="828.5" class="net_19 width_1" style="stroke-width: 1"/><line x1="146" x2="341" y1="936.5" y2="936.5" class="net_19 width_1" style="stroke-width: 1"/><line x1="146" x2="314" y1="936.5" y2="936.5" class="net_19 width_1" style="stroke-width: 1"/><line x1="314" x2="314" y1="936.5" y2="1044.5" class="net_19 width_1" style="stroke-width: 1"/><circle cx="314" cy="1044.5" r="2" style="fill:#000" class="net_19 width_1"/><line x1="314" x2="341" y1="1044.5" y2="1044.5" class="net_19 width_1" style="stroke-width: 1"/><line x1="146" x2="314" y1="936.5" y2="936.5" class="net_19 width_1" style="stroke-width: 1"/><line x1="314" x2="314" y1="936.5" y2="1152.5" class="net_19 width_1" style="stroke-width: 1"/><circle cx="314" cy="1152.5" r="2" style="fill:#000" class="net_19 width_1"/><line x1="314" x2="341" y1="1152.5" y2="1152.5" class="net_19 width_1" style="stroke-width: 1"/><line x1="146" x2="314" y1="936.5" y2="936.5" class="net_19 width_1" style="stroke-width: 1"/><line x1="314" x2="314" y1="936.5" y2="1260.5" class="net_19 width_1" style="stroke-width: 1"/><circle cx="314" cy="1260.5" r="2" style="fill:#000" class="net_19 width_1"/><line x1="314" x2="341" y1="1260.5" y2="1260.5" class="net_19 width_1" style="stroke-width: 1"/><line x1="146" x2="314" y1="936.5" y2="936.5" class="net_19 width_1" style="stroke-width: 1"/><line x1="314" x2="314" y1="936.5" y2="1368.5" class="net_19 width_1" style="stroke-width: 1"/><circle cx="314" cy="1368.5" r="2" style="fill:#000" class="net_19 width_1"/><line x1="314" x2="341" y1="1368.5" y2="1368.5" class="net_19 width_1" style="stroke-width: 1"/><line x1="146" x2="314" y1="936.5" y2="936.5" class="net_19 width_1" style="stroke-width: 1"/><line x1="314" x2="314" y1="936.5" y2="1476.5" class="net_19 width_1" style="stroke-width: 1"/><circle cx="314" cy="1476.5" r="2" style="fill:#000" class="net_19 width_1"/><line x1="314" x2="341" y1="1476.5" y2="1476.5" class="net_19 width_1" style="stroke-width: 1"/><line x1="146" x2="314" y1="936.5" y2="936.5" class="net_19 width_1" style="stroke-width: 1"/><line x1="314" x2="314" y1="936.5" y2="1692.5" class="net_19 width_1" style="stroke-width: 1"/><line x1="314" x2="341" y1="1692.5" y2="1692.5" class="net_19 width_1" style="stroke-width: 1"/><line x1="146" x2="314" y1="936.5" y2="936.5" class="net_19 width_1" style="stroke-width: 1"/><line x1="314" x2="314" y1="936.5" y2="1584.5" class="net_19 width_1" style="stroke-width: 1"/><circle cx="314" cy="1584.5" r="2" style="fill:#000" class="net_19 width_1"/><line x1="314" x2="341" y1="1584.5" y2="1584.5" class="net_19 width_1" style="stroke-width: 1"/><line x1="145.5" x2="145.5" y1="1018.5" y2="966.5" class="net_3 width_1" style="stroke-width: 1"/><line x1="145.5" x2="214" y1="966.5" y2="966.5" class="net_3 width_1" style="stroke-width: 1"/><line x1="214" x2="214" y1="966.5" y2="160.5" class="net_3 width_1" style="stroke-width: 1"/><line x1="214" x2="341" y1="160.5" y2="160.5" class="net_3 width_1" style="stroke-width: 1"/><line x1="146" x2="224" y1="1039" y2="1039" class="net_4 width_1" style="stroke-width: 1"/><line x1="224" x2="224" y1="1039" y2="268.5" class="net_4 width_1" style="stroke-width: 1"/><line x1="224" x2="341" y1="268.5" y2="268.5" class="net_4 width_1" style="stroke-width: 1"/><line x1="146" x2="234" y1="1059" y2="1059" class="net_5 width_1" style="stroke-width: 1"/><line x1="234" x2="234" y1="1059" y2="376.5" class="net_5 width_1" style="stroke-width: 1"/><line x1="234" x2="341" y1="376.5" y2="376.5" class="net_5 width_1" style="stroke-width: 1"/><line x1="146" x2="244" y1="1079" y2="1079" class="net_6 width_1" style="stroke-width: 1"/><line x1="244" x2="244" y1="1079" y2="484.5" class="net_6 width_1" style="stroke-width: 1"/><line x1="244" x2="341" y1="484.5" y2="484.5" class="net_6 width_1" style="stroke-width: 1"/><line x1="146" x2="254" y1="1099" y2="1099" class="net_7 width_1" style="stroke-width: 1"/><line x1="254" x2="254" y1="1099" y2="592.5" class="net_7 width_1" style="stroke-width: 1"/><line x1="254" x2="341" y1="592.5" y2="592.5" class="net_7 width_1" style="stroke-width: 1"/><line x1="146" x2="264" y1="1119" y2="1119" class="net_8 width_1" style="stroke-width: 1"/><line x1="264" x2="264" y1="1119" y2="700.5" class="net_8 width_1" style="stroke-width: 1"/><line x1="264" x2="341" y1="700.5" y2="700.5" class="net_8 width_1" style="stroke-width: 1"/><line x1="146" x2="274" y1="1139" y2="1139" class="net_9 width_1" style="stroke-width: 1"/><line x1="274" x2="274" y1="1139" y2="808.5" class="net_9 width_1" style="stroke-width: 1"/><line x1="274" x2="341" y1="808.5" y2="808.5" class="net_9 width_1" style="stroke-width: 1"/><line x1="146" x2="284" y1="1159" y2="1159" class="net_10 width_1" style="stroke-width: 1"/><line x1="284" x2="284" y1="1159" y2="916.5" class="net_10 width_1" style="stroke-width: 1"/><line x1="284" x2="341" y1="916.5" y2="916.5" class="net_10 width_1" style="stroke-width: 1"/><line x1="146" x2="294" y1="1179" y2="1179" class="net_11 width_1" style="stroke-width: 1"/><line x1="294" x2="294" y1="1179" y2="1024.5" class="net_11 width_1" style="stroke-width: 1"/><line x1="294" x2="341" y1="1024.5" y2="1024.5" class="net_11 width_1" style="stroke-width: 1"/><line x1="146" x2="304" y1="1199" y2="1199" class="net_12 width_1" style="stroke-width: 1"/><line x1="304" x2="304" y1="1199" y2="1132.5" class="net_12 width_1" style="stroke-width: 1"/><line x1="304" x2="341" y1="1132.5" y2="1132.5" class="net_12 width_1" style="stroke-width: 1"/><line x1="146" x2="224" y1="1219" y2="1219" class="net_13 width_1" style="stroke-width: 1"/><line x1="224" x2="224" y1="1219" y2="1240.5" class="net_13 width_1" style="stroke-width: 1"/><line x1="224" x2="341" y1="1240.5" y2="1240.5" class="net_13 width_1" style="stroke-width: 1"/><line x1="146" x2="214" y1="1239" y2="1239" class="net_14 width_1" style="stroke-width: 1"/><line x1="214" x2="214" y1="1239" y2="1348.5" class="net_14 width_1" style="stroke-width: 1"/><line x1="214" x2="341" y1="1348.5" y2="1348.5" class="net_14 width_1" style="stroke-width: 1"/><line x1="146" x2="204" y1="1259" y2="1259" class="net_15 width_1" style="stroke-width: 1"/><line x1="204" x2="204" y1="1259" y2="1456.5" class="net_15 width_1" style="stroke-width: 1"/><line x1="204" x2="341" y1="1456.5" y2="1456.5" class="net_15 width_1" style="stroke-width: 1"/><line x1="145.5" x2="145.5" y1="1279.5" y2="1672.5" class="net_16 width_1" style="stroke-width: 1"/><line x1="145.5" x2="341" y1="1672.5" y2="1672.5" class="net_16 width_1" style="stroke-width: 1"/><line x1="145.5" x2="145.5" y1="1299.5" y2="1564.5" class="net_17 width_1" style="stroke-width: 1"/><line x1="145.5" x2="341" y1="1564.5" y2="1564.5" class="net_17 width_1" style="stroke-width: 1"/><line x1="618" x2="692" y1="218.5" y2="218.5" class="net_20,21,22,23,24,25,26,27,28,29,30,31,32,33,34,35 width_16" style="stroke-width: 2"/><line x1="372" x2="612.5" y1="32.5" y2="32.5" class="net_20 width_1" style="stroke-width: 1"/><line x1="612.5" x2="612.5" y1="32.5" y2="208" class="net_20 width_1" style="stroke-width: 1"/><line x1="372" x2="612.5" y1="140.5" y2="140.5" class="net_21 width_1" style="stroke-width: 1"/><line x1="612.5" x2="612.5" y1="140.5" y2="228" class="net_21 width_1" style="stroke-width: 1"/><line x1="372" x2="612" y1="248.5" y2="248.5" class="net_22 width_1" style="stroke-width: 1"/><line x1="372" x2="495" y1="356.5" y2="356.5" class="net_23 width_1" style="stroke-width: 1"/><line x1="495" x2="495" y1="356.5" y2="268.5" class="net_23 width_1" style="stroke-width: 1"/><line x1="495" x2="612" y1="268.5" y2="268.5" class="net_23 width_1" style="stroke-width: 1"/><line x1="372" x2="505" y1="464.5" y2="464.5" class="net_24 width_1" style="stroke-width: 1"/><line x1="505" x2="505" y1="464.5" y2="288.5" class="net_24 width_1" style="stroke-width: 1"/><line x1="505" x2="612" y1="288.5" y2="288.5" class="net_24 width_1" style="stroke-width: 1"/><line x1="372" x2="515" y1="572.5" y2="572.5" class="net_25 width_1" style="stroke-width: 1"/><line x1="515" x2="515" y1="572.5" y2="308.5" class="net_25 width_1" style="stroke-width: 1"/><line x1="515" x2="612" y1="308.5" y2="308.5" class="net_25 width_1" style="stroke-width: 1"/><line x1="372" x2="525" y1="680.5" y2="680.5" class="net_26 width_1" style="stroke-width: 1"/><line x1="525" x2="525" y1="680.5" y2="328.5" class="net_26 width_1" style="stroke-width: 1"/><line x1="525" x2="612" y1="328.5" y2="328.5" class="net_26 width_1" style="stroke-width: 1"/><line x1="372" x2="535" y1="788.5" y2="788.5" class="net_27 width_1" style="stroke-width: 1"/><line x1="535" x2="535" y1="788.5" y2="348.5" class="net_27 width_1" style="stroke-width: 1"/><line x1="535" x2="612" y1="348.5" y2="348.5" class="net_27 width_1" style="stroke-width: 1"/><line x1="372" x2="545" y1="896.5" y2="896.5" class="net_28 width_1" style="stroke-width: 1"/><line x1="545" x2="545" y1="896.5" y2="368.5" class="net_28 width_1" style="stroke-width: 1"/><line x1="545" x2="612" y1="368.5" y2="368.5" class="net_28 width_1" style="stroke-width: 1"/><line x1="372" x2="555" y1="1004.5" y2="1004.5" class="net_29 width_1" style="stroke-width: 1"/><line x1="555" x2="555" y1="1004.5" y2="388.5" class="net_29 width_1" style="stroke-width: 1"/><line x1="555" x2="612" y1="388.5" y2="388.5" class="net_29 width_1" style="stroke-width: 1"/><line x1="372" x2="565" y1="1112.5" y2="1112.5" class="net_30 width_1" style="stroke-width: 1"/><line x1="565" x2="565" y1="1112.5" y2="408.5" class="net_30 width_1" style="stroke-width: 1"/><line x1="565" x2="612" y1="408.5" y2="408.5" class="net_30 width_1" style="stroke-width: 1"/><line x1="372" x2="575" y1="1220.5" y2="1220.5" class="net_31 width_1" style="stroke-width: 1"/><line x1="575" x2="575" y1="1220.5" y2="428.5" class="net_31 width_1" style="stroke-width: 1"/><line x1="575" x2="612" y1="428.5" y2="428.5" class="net_31 width_1" style="stroke-width: 1"/><line x1="372" x2="585" y1="1328.5" y2="1328.5" class="net_32 width_1" style="stroke-width: 1"/><line x1="585" x2="585" y1="1328.5" y2="448.5" class="net_32 width_1" style="stroke-width: 1"/><line x1="585" x2="612" y1="448.5" y2="448.5" class="net_32 width_1" style="stroke-width: 1"/><line x1="372" x2="595" y1="1436.5" y2="1436.5" class="net_33 width_1" style="stroke-width: 1"/><line x1="595" x2="595" y1="1436.5" y2="468.5" class="net_33 width_1" style="stroke-width: 1"/><line x1="595" x2="612" y1="468.5" y2="468.5" class="net_33 width_1" style="stroke-width: 1"/><line x1="372" x2="612.5" y1="1652.5" y2="1652.5" class="net_34 width_1" style="stroke-width: 1"/><line x1="612.5" x2="612.5" y1="1652.5" y2="489" class="net_34 width_1" style="stroke-width: 1"/><line x1="372" x2="612.5" y1="1544.5" y2="1544.5" class="net_35 width_1" style="stroke-width: 1"/><line x1="612.5" x2="612.5" y1="1544.5" y2="509" class="net_35 width_1" style="stroke-width: 1"/><line x1="42" x2="141.5" y1="976.5" y2="976.5" class="net_2,3,4,5,6,7,8,9,10,11,12,13,14,15,16,17 width_16" style="stroke-width: 2"/><line x1="141.5" x2="141.5" y1="976.5" y2="1008.5" class="net_2,3,4,5,6,7,8,9,10,11,12,13,14,15,16,17 width_16" style="stroke-width: 2"/><rect x="654" y="213.5" width="22" height="9" class="net_20,21,22,23,24,25,26,27,28,29,30,31,32,33,34,35 width_16 busLabel_16" style="fill: white; stroke: none"/><text x="653" y="221.5" class="net_20,21,22,23,24,25,26,27,28,29,30,31,32,33,34,35 width_16 busLabel_16">/16/</text><rect x="78" y="971.5" width="22" height="9" class="net_2,3,4,5,6,7,8,9,10,11,12,13,14,15,16,17 width_16 busLabel_16" style="fill: white; stroke: none"/><text x="77" y="979.5" class="net_2,3,4,5,6,7,8,9,10,11,12,13,14,15,16,17 width_16 busLabel_16">/16/</text></svg>