<svg xmlns="http://www.w3.org/2000/svg" xmlns:xlink="http://www.w3.org/1999/xlink" xmlns:s="https://github.com/nturley/netlistsvg" width="609" height="984.5"><style>svg {
  stroke:#000;
  fill:none;
}
text {
  fill:#000;
  stroke:none;
  font-size:10px;
  font-weight: bold;
  font-family: "Courier New", monospace;
}
line {
    stroke-linecap: round;
}
.nodelabel {
  text-anchor: middle;
}
.inputPortLabel {
  text-anchor: end;
}
.splitjoinBody {
  fill:#000;
}</style><g s:type="NOT" transform="translate(143,297.5)" s:width="30" s:height="20" id="cell_$abc$99$auto$blifparse.cc:386:parse_blif$100"><s:alias val="NOT"/><s:alias val="$NOT"/><path d="M0,0 L0,20 L20,10 Z" class="cell_$abc$99$auto$blifparse.cc:386:parse_blif$100"/><circle cx="24" cy="10" r="3" class="cell_$abc$99$auto$blifparse.cc:386:parse_blif$100"/><g s:x="-1" s:y="10" s:pid="A"/><g s:x="27" s:y="10" s:pid="Y"/></g><g s:type="NAND2" transform="translate(313,28)" s:width="30" s:height="25" id="cell_$abc$99$auto$blifparse.cc:386:parse_blif$101"><s:alias val="NAND2"/><s:alias val="$NAND2"/><path d="M0,0 L0,25 L15,25 A15 12.5 0 0 0 15,0 Z" class="cell_$abc$99$auto$blifparse.cc:386:parse_blif$101"/><circle cx="34" cy="12.5" r="3" class="cell_$abc$99$auto$blifparse.cc:386:parse_blif$101"/><g s:x="0" s:y="5" s:pid="A"/><g s:x="0" s:y="20" s:pid="B"/><g s:x="36" s:y="12.5" s:pid="Y"/></g><g s:type="NAND2" transform="translate(313,287.5)" s:width="30" s:height="25" id="cell_$abc$99$auto$blifparse.cc:386:parse_blif$102"><s:alias val="NAND2"/><s:alias val="$NAND2"/><path d="M0,0 L0,25 L15,25 A15 12.5 0 0 0 15,0 Z" class="cell_$abc$99$auto$blifparse.cc:386:parse_blif$102"/><circle cx="34" cy="12.5" r="3" class="cell_$abc$99$auto$blifparse.cc:386:parse_blif$102"/><g s:x="0" s:y="5" s:pid="A"/><g s:x="0" s:y="20" s:pid="B"/><g s:x="36" s:y="12.5" s:pid="Y"/></g><g s:type="NAND2" transform="translate(409,35.5)" s:width="30" s:height="25" id="cell_$abc$99$auto$blifparse.cc:386:parse_blif$103"><s:alias val="NAND2"/><s:alias val="$NAND2"/><path d="M0,0 L0,25 L15,25 A15 12.5 0 0 0 15,0 Z" class="cell_$abc$99$auto$blifparse.cc:386:parse_blif$103"/><circle cx="34" cy="12.5" r="3" class="cell_$abc$99$auto$blifparse.cc:386:parse_blif$103"/><g s:x="0" s:y="5" s:pid="A"/><g s:x="0" s:y="20" s:pid="B"/><g s:x="36" s:y="12.5" s:pid="Y"/></g><g s:type="NAND2" transform="translate(313,88)" s:width="30" s:height="25" id="cell_$abc$99$auto$blifparse.cc:386:parse_blif$104"><s:alias val="NAND2"/><s:alias val="$NAND2"/><path d="M0,0 L0,25 L15,25 A15 12.5 0 0 0 15,0 Z" class="cell_$abc$99$auto$blifparse.cc:386:parse_blif$104"/><circle cx="34" cy="12.5" r="3" class="cell_$abc$99$auto$blifparse.cc:386:parse_blif$104"/><g s:x="0" s:y="5" s:pid="A"/><g s:x="0" s:y="20" s:pid="B"/><g s:x="36" s:y="12.5" s:pid="Y"/></g><g s:type="NAND2" transform="translate(313,407.5)" s:width="30" s:height="25" id="cell_$abc$99$auto$blifparse.cc:386:parse_blif$105"><s:alias val="NAND2"/><s:alias val="$NAND2"/><path d="M0,0 L0,25 L15,25 A15 12.5 0 0 0 15,0 Z" class="cell_$abc$99$auto$blifparse.cc:386:parse_blif$105"/><circle cx="34" cy="12.5" r="3" class="cell_$abc$99$auto$blifparse.cc:386:parse_blif$105"/><g s:x="0" s:y="5" s:pid="A"/><g s:x="0" s:y="20" s:pid="B"/><g s:x="36" s:y="12.5" s:pid="Y"/></g><g s:type="NAND2" transform="translate(409,95.5)" s:width="30" s:height="25" id="cell_$abc$99$auto$blifparse.cc:386:parse_blif$106"><s:alias val="NAND2"/><s:alias val="$NAND2"/><path d="M0,0 L0,25 L15,25 A15 12.5 0 0 0 15,0 Z" class="cell_$abc$99$auto$blifparse.cc:386:parse_blif$106"/><circle cx="34" cy="12.5" r="3" class="cell_$abc$99$auto$blifparse.cc:386:parse_blif$106"/><g s:x="0" s:y="5" s:pid="A"/><g s:x="0" s:y="20" s:pid="B"/><g s:x="36" s:y="12.5" s:pid="Y"/></g><g s:type="NAND2" transform="translate(313,148)" s:width="30" s:height="25" id="cell_$abc$99$auto$blifparse.cc:386:parse_blif$107"><s:alias val="NAND2"/><s:alias val="$NAND2"/><path d="M0,0 L0,25 L15,25 A15 12.5 0 0 0 15,0 Z" class="cell_$abc$99$auto$blifparse.cc:386:parse_blif$107"/><circle cx="34" cy="12.5" r="3" class="cell_$abc$99$auto$blifparse.cc:386:parse_blif$107"/><g s:x="0" s:y="5" s:pid="A"/><g s:x="0" s:y="20" s:pid="B"/><g s:x="36" s:y="12.5" s:pid="Y"/></g><g s:type="NAND2" transform="translate(313,467.5)" s:width="30" s:height="25" id="cell_$abc$99$auto$blifparse.cc:386:parse_blif$108"><s:alias val="NAND2"/><s:alias val="$NAND2"/><path d="M0,0 L0,25 L15,25 A15 12.5 0 0 0 15,0 Z" class="cell_$abc$99$auto$blifparse.cc:386:parse_blif$108"/><circle cx="34" cy="12.5" r="3" class="cell_$abc$99$auto$blifparse.cc:386:parse_blif$108"/><g s:x="0" s:y="5" s:pid="A"/><g s:x="0" s:y="20" s:pid="B"/><g s:x="36" s:y="12.5" s:pid="Y"/></g><g s:type="NAND2" transform="translate(409,155.5)" s:width="30" s:height="25" id="cell_$abc$99$auto$blifparse.cc:386:parse_blif$109"><s:alias val="NAND2"/><s:alias val="$NAND2"/><path d="M0,0 L0,25 L15,25 A15 12.5 0 0 0 15,0 Z" class="cell_$abc$99$auto$blifparse.cc:386:parse_blif$109"/><circle cx="34" cy="12.5" r="3" class="cell_$abc$99$auto$blifparse.cc:386:parse_blif$109"/><g s:x="0" s:y="5" s:pid="A"/><g s:x="0" s:y="20" s:pid="B"/><g s:x="36" s:y="12.5" s:pid="Y"/></g><g s:type="NAND2" transform="translate(313,208)" s:width="30" s:height="25" id="cell_$abc$99$auto$blifparse.cc:386:parse_blif$110"><s:alias val="NAND2"/><s:alias val="$NAND2"/><path d="M0,0 L0,25 L15,25 A15 12.5 0 0 0 15,0 Z" class="cell_$abc$99$auto$blifparse.cc:386:parse_blif$110"/><circle cx="34" cy="12.5" r="3" class="cell_$abc$99$auto$blifparse.cc:386:parse_blif$110"/><g s:x="0" s:y="5" s:pid="A"/><g s:x="0" s:y="20" s:pid="B"/><g s:x="36" s:y="12.5" s:pid="Y"/></g><g s:type="NAND2" transform="translate(313,527.5)" s:width="30" s:height="25" id="cell_$abc$99$auto$blifparse.cc:386:parse_blif$111"><s:alias val="NAND2"/><s:alias val="$NAND2"/><path d="M0,0 L0,25 L15,25 A15 12.5 0 0 0 15,0 Z" class="cell_$abc$99$auto$blifparse.cc:386:parse_blif$111"/><circle cx="34" cy="12.5" r="3" class="cell_$abc$99$auto$blifparse.cc:386:parse_blif$111"/><g s:x="0" s:y="5" s:pid="A"/><g s:x="0" s:y="20" s:pid="B"/><g s:x="36" s:y="12.5" s:pid="Y"/></g><g s:type="NAND2" transform="translate(409,215.5)" s:width="30" s:height="25" id="cell_$abc$99$auto$blifparse.cc:386:parse_blif$112"><s:alias val="NAND2"/><s:alias val="$NAND2"/><path d="M0,0 L0,25 L15,25 A15 12.5 0 0 0 15,0 Z" class="cell_$abc$99$auto$blifparse.cc:386:parse_blif$112"/><circle cx="34" cy="12.5" r="3" class="cell_$abc$99$auto$blifparse.cc:386:parse_blif$112"/><g s:x="0" s:y="5" s:pid="A"/><g s:x="0" s:y="20" s:pid="B"/><g s:x="36" s:y="12.5" s:pid="Y"/></g><g s:type="NAND2" transform="translate(313,347.5)" s:width="30" s:height="25" id="cell_$abc$99$auto$blifparse.cc:386:parse_blif$113"><s:alias val="NAND2"/><s:alias val="$NAND2"/><path d="M0,0 L0,25 L15,25 A15 12.5 0 0 0 15,0 Z" class="cell_$abc$99$auto$blifparse.cc:386:parse_blif$113"/><circle cx="34" cy="12.5" r="3" class="cell_$abc$99$auto$blifparse.cc:386:parse_blif$113"/><g s:x="0" s:y="5" s:pid="A"/><g s:x="0" s:y="20" s:pid="B"/><g s:x="36" s:y="12.5" s:pid="Y"/></g><g s:type="NAND2" transform="translate(313,587.5)" s:width="30" s:height="25" id="cell_$abc$99$auto$blifparse.cc:386:parse_blif$114"><s:alias val="NAND2"/><s:alias val="$NAND2"/><path d="M0,0 L0,25 L15,25 A15 12.5 0 0 0 15,0 Z" class="cell_$abc$99$auto$blifparse.cc:386:parse_blif$114"/><circle cx="34" cy="12.5" r="3" class="cell_$abc$99$auto$blifparse.cc:386:parse_blif$114"/><g s:x="0" s:y="5" s:pid="A"/><g s:x="0" s:y="20" s:pid="B"/><g s:x="36" s:y="12.5" s:pid="Y"/></g><g s:type="NAND2" transform="translate(409,355)" s:width="30" s:height="25" id="cell_$abc$99$auto$blifparse.cc:386:parse_blif$115"><s:alias val="NAND2"/><s:alias val="$NAND2"/><path d="M0,0 L0,25 L15,25 A15 12.5 0 0 0 15,0 Z" class="cell_$abc$99$auto$blifparse.cc:386:parse_blif$115"/><circle cx="34" cy="12.5" r="3" class="cell_$abc$99$auto$blifparse.cc:386:parse_blif$115"/><g s:x="0" s:y="5" s:pid="A"/><g s:x="0" s:y="20" s:pid="B"/><g s:x="36" s:y="12.5" s:pid="Y"/></g><g s:type="NAND2" transform="translate(313,647.5)" s:width="30" s:height="25" id="cell_$abc$99$auto$blifparse.cc:386:parse_blif$116"><s:alias val="NAND2"/><s:alias val="$NAND2"/><path d="M0,0 L0,25 L15,25 A15 12.5 0 0 0 15,0 Z" class="cell_$abc$99$auto$blifparse.cc:386:parse_blif$116"/><circle cx="34" cy="12.5" r="3" class="cell_$abc$99$auto$blifparse.cc:386:parse_blif$116"/><g s:x="0" s:y="5" s:pid="A"/><g s:x="0" s:y="20" s:pid="B"/><g s:x="36" s:y="12.5" s:pid="Y"/></g><g s:type="NAND2" transform="translate(313,707.5)" s:width="30" s:height="25" id="cell_$abc$99$auto$blifparse.cc:386:parse_blif$117"><s:alias val="NAND2"/><s:alias val="$NAND2"/><path d="M0,0 L0,25 L15,25 A15 12.5 0 0 0 15,0 Z" class="cell_$abc$99$auto$blifparse.cc:386:parse_blif$117"/><circle cx="34" cy="12.5" r="3" class="cell_$abc$99$auto$blifparse.cc:386:parse_blif$117"/><g s:x="0" s:y="5" s:pid="A"/><g s:x="0" s:y="20" s:pid="B"/><g s:x="36" s:y="12.5" s:pid="Y"/></g><g s:type="NAND2" transform="translate(409,655)" s:width="30" s:height="25" id="cell_$abc$99$auto$blifparse.cc:386:parse_blif$118"><s:alias val="NAND2"/><s:alias val="$NAND2"/><path d="M0,0 L0,25 L15,25 A15 12.5 0 0 0 15,0 Z" class="cell_$abc$99$auto$blifparse.cc:386:parse_blif$118"/><circle cx="34" cy="12.5" r="3" class="cell_$abc$99$auto$blifparse.cc:386:parse_blif$118"/><g s:x="0" s:y="5" s:pid="A"/><g s:x="0" s:y="20" s:pid="B"/><g s:x="36" s:y="12.5" s:pid="Y"/></g><g s:type="NAND2" transform="translate(313,767.5)" s:width="30" s:height="25" id="cell_$abc$99$auto$blifparse.cc:386:parse_blif$119"><s:alias val="NAND2"/><s:alias val="$NAND2"/><path d="M0,0 L0,25 L15,25 A15 12.5 0 0 0 15,0 Z" class="cell_$abc$99$auto$blifparse.cc:386:parse_blif$119"/><circle cx="34" cy="12.5" r="3" class="cell_$abc$99$auto$blifparse.cc:386:parse_blif$119"/><g s:x="0" s:y="5" s:pid="A"/><g s:x="0" s:y="20" s:pid="B"/><g s:x="36" s:y="12.5" s:pid="Y"/></g><g s:type="NAND2" transform="translate(313,827.5)" s:width="30" s:height="25" id="cell_$abc$99$auto$blifparse.cc:386:parse_blif$120"><s:alias val="NAND2"/><s:alias val="$NAND2"/><path d="M0,0 L0,25 L15,25 A15 12.5 0 0 0 15,0 Z" class="cell_$abc$99$auto$blifparse.cc:386:parse_blif$120"/><circle cx="34" cy="12.5" r="3" class="cell_$abc$99$auto$blifparse.cc:386:parse_blif$120"/><g s:x="0" s:y="5" s:pid="A"/><g s:x="0" s:y="20" s:pid="B"/><g s:x="36" s:y="12.5" s:pid="Y"/></g><g s:type="NAND2" transform="translate(409,775)" s:width="30" s:height="25" id="cell_$abc$99$auto$blifparse.cc:386:parse_blif$121"><s:alias val="NAND2"/><s:alias val="$NAND2"/><path d="M0,0 L0,25 L15,25 A15 12.5 0 0 0 15,0 Z" class="cell_$abc$99$auto$blifparse.cc:386:parse_blif$121"/><circle cx="34" cy="12.5" r="3" class="cell_$abc$99$auto$blifparse.cc:386:parse_blif$121"/><g s:x="0" s:y="5" s:pid="A"/><g s:x="0" s:y="20" s:pid="B"/><g s:x="36" s:y="12.5" s:pid="Y"/></g><g s:type="NAND2" transform="translate(313,887.5)" s:width="30" s:height="25" id="cell_$abc$99$auto$blifparse.cc:386:parse_blif$122"><s:alias val="NAND2"/><s:alias val="$NAND2"/><path d="M0,0 L0,25 L15,25 A15 12.5 0 0 0 15,0 Z" class="cell_$abc$99$auto$blifparse.cc:386:parse_blif$122"/><circle cx="34" cy="12.5" r="3" class="cell_$abc$99$auto$blifparse.cc:386:parse_blif$122"/><g s:x="0" s:y="5" s:pid="A"/><g s:x="0" s:y="20" s:pid="B"/><g s:x="36" s:y="12.5" s:pid="Y"/></g><g s:type="NAND2" transform="translate(313,947.5)" s:width="30" s:height="25" id="cell_$abc$99$auto$blifparse.cc:386:parse_blif$123"><s:alias val="NAND2"/><s:alias val="$NAND2"/><path d="M0,0 L0,25 L15,25 A15 12.5 0 0 0 15,0 Z" class="cell_$abc$99$auto$blifparse.cc:386:parse_blif$123"/><circle cx="34" cy="12.5" r="3" class="cell_$abc$99$auto$blifparse.cc:386:parse_blif$123"/><g s:x="0" s:y="5" s:pid="A"/><g s:x="0" s:y="20" s:pid="B"/><g s:x="36" s:y="12.5" s:pid="Y"/></g><g s:type="NAND2" transform="translate(409,895)" s:width="30" s:height="25" id="cell_$abc$99$auto$blifparse.cc:386:parse_blif$124"><s:alias val="NAND2"/><s:alias val="$NAND2"/><path d="M0,0 L0,25 L15,25 A15 12.5 0 0 0 15,0 Z" class="cell_$abc$99$auto$blifparse.cc:386:parse_blif$124"/><circle cx="34" cy="12.5" r="3" class="cell_$abc$99$auto$blifparse.cc:386:parse_blif$124"/><g s:x="0" s:y="5" s:pid="A"/><g s:x="0" s:y="20" s:pid="B"/><g s:x="36" s:y="12.5" s:pid="Y"/></g><g s:type="inputExt" transform="translate(12,407.5)" s:width="30" s:height="20" id="cell_A"><text x="15" y="-4" class="nodelabel cell_A" s:attribute="ref">A</text><s:alias val="$_inputExt_"/><path d="M0,0 L0,20 L15,20 L30,10 L15,0 Z" class="cell_A"/><g s:x="30" s:y="10" s:pid="Y"/></g><g s:type="inputExt" transform="translate(12,22)" s:width="30" s:height="20" id="cell_B"><text x="15" y="-4" class="nodelabel cell_B" s:attribute="ref">B</text><s:alias val="$_inputExt_"/><path d="M0,0 L0,20 L15,20 L30,10 L15,0 Z" class="cell_B"/><g s:x="30" s:y="10" s:pid="Y"/></g><g s:type="inputExt" transform="translate(77,83)" s:width="30" s:height="20" id="cell_S"><text x="15" y="-4" class="nodelabel cell_S" s:attribute="ref">S</text><s:alias val="$_inputExt_"/><path d="M0,0 L0,20 L15,20 L30,10 L15,0 Z" class="cell_S"/><g s:x="30" s:y="10" s:pid="Y"/></g><g s:type="outputExt" transform="translate(567,168)" s:width="30" s:height="20" id="cell_Y"><text x="15" y="-4" class="nodelabel cell_Y" s:attribute="ref">Y</text><s:alias val="$_outputExt_"/><path d="M30,0 L30,20 L15,20 L0,10 L15,0 Z" class="cell_Y"/><g s:x="0" s:y="10" s:pid="A"/></g><g s:type="join" transform="translate(485,157.5)" s:width="4" s:height="40" id="cell_$join$,19,20,21,22,23,24,25,26,"><rect width="5" height="160" class="splitjoinBody" s:generic="body"/><s:alias val="$_join_"/><g s:x="5" s:y="20" s:pid="out"/><g transform="translate(0,10)" s:x="0" s:y="10" s:pid="in0"><text x="-3" y="-4" class="inputPortLabel">0</text></g><g transform="translate(0,30)" s:x="0" s:y="10" s:pid="in0"><text x="-3" y="-4" class="inputPortLabel">1</text></g><g transform="translate(0,50)" s:x="0" s:y="10" s:pid="in0"><text x="-3" y="-4" class="inputPortLabel">2</text></g><g transform="translate(0,70)" s:x="0" s:y="10" s:pid="in0"><text x="-3" y="-4" class="inputPortLabel">3</text></g><g transform="translate(0,90)" s:x="0" s:y="10" s:pid="in0"><text x="-3" y="-4" class="inputPortLabel">4</text></g><g transform="translate(0,110)" s:x="0" s:y="10" s:pid="in0"><text x="-3" y="-4" class="inputPortLabel">5</text></g><g transform="translate(0,130)" s:x="0" s:y="10" s:pid="in0"><text x="-3" y="-4" class="inputPortLabel">6</text></g><g transform="translate(0,150)" s:x="0" s:y="10" s:pid="in0"><text x="-3" y="-4" class="inputPortLabel">7</text></g></g><g s:type="split" transform="translate(159.28571428571428,117.5)" s:width="5" s:height="40" id="cell_$split$,10,11,12,13,14,15,16,17,"><rect width="5" height="160" class="splitjoinBody" s:generic="body"/><s:alias val="$_split_"/><g s:x="0" s:y="20" s:pid="in"/><g transform="translate(4,10)" s:x="4" s:y="10" s:pid="out0"><text x="5" y="-4">0</text></g><g transform="translate(4,30)" s:x="4" s:y="10" s:pid="out0"><text x="5" y="-4">1</text></g><g transform="translate(4,50)" s:x="4" s:y="10" s:pid="out0"><text x="5" y="-4">2</text></g><g transform="translate(4,70)" s:x="4" s:y="10" s:pid="out0"><text x="5" y="-4">3</text></g><g transform="translate(4,90)" s:x="4" s:y="10" s:pid="out0"><text x="5" y="-4">4</text></g><g transform="translate(4,110)" s:x="4" s:y="10" s:pid="out0"><text x="5" y="-4">5</text></g><g transform="translate(4,130)" s:x="4" s:y="10" s:pid="out0"><text x="5" y="-4">6</text></g><g transform="translate(4,150)" s:x="4" s:y="10" s:pid="out0"><text x="5" y="-4">7</text></g></g><g s:type="split" transform="translate(159.28571428571428,397)" s:width="5" s:height="40" id="cell_$split$,2,3,4,5,6,7,8,9,"><rect width="5" height="160" class="splitjoinBody" s:generic="body"/><s:alias val="$_split_"/><g s:x="0" s:y="20" s:pid="in"/><g transform="translate(4,10)" s:x="4" s:y="10" s:pid="out0"><text x="5" y="-4">0</text></g><g transform="translate(4,30)" s:x="4" s:y="10" s:pid="out0"><text x="5" y="-4">1</text></g><g transform="translate(4,50)" s:x="4" s:y="10" s:pid="out0"><text x="5" y="-4">2</text></g><g transform="translate(4,70)" s:x="4" s:y="10" s:pid="out0"><text x="5" y="-4">3</text></g><g transform="translate(4,90)" s:x="4" s:y="10" s:pid="out0"><text x="5" y="-4">4</text></g><g transform="translate(4,110)" s:x="4" s:y="10" s:pid="out0"><text x="5" y="-4">5</text></g><g transform="translate(4,130)" s:x="4" s:y="10" s:pid="out0"><text x="5" y="-4">6</text></g><g transform="translate(4,150)" s:x="4" s:y="10" s:pid="out0"><text x="5" y="-4">7</text></g></g><line x1="107" x2="117" y1="93" y2="93" class="net_18 width_1" style="stroke-width: 1"/><line x1="117" x2="117" y1="93" y2="307.5" class="net_18 width_1" style="stroke-width: 1"/><circle cx="117" cy="93" r="2" style="fill:#000" class="net_18 width_1"/><circle cx="117" cy="307.5" r="2" style="fill:#000" class="net_18 width_1"/><line x1="117" x2="142" y1="307.5" y2="307.5" class="net_18 width_1" style="stroke-width: 1"/><line x1="107" x2="303" y1="93" y2="93" class="net_18 width_1" style="stroke-width: 1"/><line x1="303" x2="303" y1="93" y2="48" class="net_18 width_1" style="stroke-width: 1"/><circle cx="303" cy="93" r="2" style="fill:#000" class="net_18 width_1"/><line x1="303" x2="313" y1="48" y2="48" class="net_18 width_1" style="stroke-width: 1"/><line x1="107" x2="313" y1="93" y2="93" class="net_18 width_1" style="stroke-width: 1"/><line x1="107" x2="303" y1="93" y2="93" class="net_18 width_1" style="stroke-width: 1"/><line x1="303" x2="303" y1="93" y2="153" class="net_18 width_1" style="stroke-width: 1"/><circle cx="303" cy="153" r="2" style="fill:#000" class="net_18 width_1"/><line x1="303" x2="313" y1="153" y2="153" class="net_18 width_1" style="stroke-width: 1"/><line x1="107" x2="303" y1="93" y2="93" class="net_18 width_1" style="stroke-width: 1"/><line x1="303" x2="303" y1="93" y2="213" class="net_18 width_1" style="stroke-width: 1"/><line x1="303" x2="313" y1="213" y2="213" class="net_18 width_1" style="stroke-width: 1"/><line x1="107" x2="117" y1="93" y2="93" class="net_18 width_1" style="stroke-width: 1"/><line x1="117" x2="117" y1="93" y2="352.5" class="net_18 width_1" style="stroke-width: 1"/><circle cx="117" cy="352.5" r="2" style="fill:#000" class="net_18 width_1"/><line x1="117" x2="313" y1="352.5" y2="352.5" class="net_18 width_1" style="stroke-width: 1"/><line x1="107" x2="117" y1="93" y2="93" class="net_18 width_1" style="stroke-width: 1"/><line x1="117" x2="117" y1="93" y2="652.5" class="net_18 width_1" style="stroke-width: 1"/><line x1="117" x2="313" y1="652.5" y2="652.5" class="net_18 width_1" style="stroke-width: 1"/><line x1="107" x2="117" y1="93" y2="93" class="net_18 width_1" style="stroke-width: 1"/><line x1="117" x2="117" y1="93" y2="652.5" class="net_18 width_1" style="stroke-width: 1"/><line x1="117" x2="203" y1="652.5" y2="652.5" class="net_18 width_1" style="stroke-width: 1"/><line x1="203" x2="203" y1="652.5" y2="772.5" class="net_18 width_1" style="stroke-width: 1"/><circle cx="203" cy="652.5" r="2" style="fill:#000" class="net_18 width_1"/><circle cx="203" cy="772.5" r="2" style="fill:#000" class="net_18 width_1"/><line x1="203" x2="313" y1="772.5" y2="772.5" class="net_18 width_1" style="stroke-width: 1"/><line x1="107" x2="117" y1="93" y2="93" class="net_18 width_1" style="stroke-width: 1"/><line x1="117" x2="117" y1="93" y2="652.5" class="net_18 width_1" style="stroke-width: 1"/><line x1="117" x2="203" y1="652.5" y2="652.5" class="net_18 width_1" style="stroke-width: 1"/><line x1="203" x2="203" y1="652.5" y2="892.5" class="net_18 width_1" style="stroke-width: 1"/><line x1="203" x2="313" y1="892.5" y2="892.5" class="net_18 width_1" style="stroke-width: 1"/><line x1="163.78571428571428" x2="163.78571428571428" y1="127.5" y2="33" class="net_10 width_1" style="stroke-width: 1"/><line x1="163.78571428571428" x2="313" y1="33" y2="33" class="net_10 width_1" style="stroke-width: 1"/><line x1="163.78571428571428" x2="163.78571428571428" y1="407" y2="327.5" class="net_2 width_1" style="stroke-width: 1"/><line x1="163.78571428571428" x2="193" y1="327.5" y2="327.5" class="net_2 width_1" style="stroke-width: 1"/><line x1="193" x2="193" y1="327.5" y2="292.5" class="net_2 width_1" style="stroke-width: 1"/><line x1="193" x2="313" y1="292.5" y2="292.5" class="net_2 width_1" style="stroke-width: 1"/><line x1="170" x2="313" y1="307.5" y2="307.5" class="net_27 width_1" style="stroke-width: 1"/><line x1="170" x2="273" y1="307.5" y2="307.5" class="net_27 width_1" style="stroke-width: 1"/><line x1="273" x2="273" y1="307.5" y2="412.5" class="net_27 width_1" style="stroke-width: 1"/><circle cx="273" cy="307.5" r="2" style="fill:#000" class="net_27 width_1"/><circle cx="273" cy="412.5" r="2" style="fill:#000" class="net_27 width_1"/><line x1="273" x2="313" y1="412.5" y2="412.5" class="net_27 width_1" style="stroke-width: 1"/><line x1="170" x2="273" y1="307.5" y2="307.5" class="net_27 width_1" style="stroke-width: 1"/><line x1="273" x2="273" y1="307.5" y2="472.5" class="net_27 width_1" style="stroke-width: 1"/><circle cx="273" cy="472.5" r="2" style="fill:#000" class="net_27 width_1"/><line x1="273" x2="313" y1="472.5" y2="472.5" class="net_27 width_1" style="stroke-width: 1"/><line x1="170" x2="273" y1="307.5" y2="307.5" class="net_27 width_1" style="stroke-width: 1"/><line x1="273" x2="273" y1="307.5" y2="532.5" class="net_27 width_1" style="stroke-width: 1"/><circle cx="273" cy="532.5" r="2" style="fill:#000" class="net_27 width_1"/><line x1="273" x2="313" y1="532.5" y2="532.5" class="net_27 width_1" style="stroke-width: 1"/><line x1="170" x2="273" y1="307.5" y2="307.5" class="net_27 width_1" style="stroke-width: 1"/><line x1="273" x2="273" y1="307.5" y2="592.5" class="net_27 width_1" style="stroke-width: 1"/><circle cx="273" cy="592.5" r="2" style="fill:#000" class="net_27 width_1"/><line x1="273" x2="313" y1="592.5" y2="592.5" class="net_27 width_1" style="stroke-width: 1"/><line x1="170" x2="273" y1="307.5" y2="307.5" class="net_27 width_1" style="stroke-width: 1"/><line x1="273" x2="273" y1="307.5" y2="712.5" class="net_27 width_1" style="stroke-width: 1"/><circle cx="273" cy="712.5" r="2" style="fill:#000" class="net_27 width_1"/><line x1="273" x2="313" y1="712.5" y2="712.5" class="net_27 width_1" style="stroke-width: 1"/><line x1="170" x2="273" y1="307.5" y2="307.5" class="net_27 width_1" style="stroke-width: 1"/><line x1="273" x2="273" y1="307.5" y2="832.5" class="net_27 width_1" style="stroke-width: 1"/><circle cx="273" cy="832.5" r="2" style="fill:#000" class="net_27 width_1"/><line x1="273" x2="313" y1="832.5" y2="832.5" class="net_27 width_1" style="stroke-width: 1"/><line x1="170" x2="273" y1="307.5" y2="307.5" class="net_27 width_1" style="stroke-width: 1"/><line x1="273" x2="273" y1="307.5" y2="952.5" class="net_27 width_1" style="stroke-width: 1"/><line x1="273" x2="313" y1="952.5" y2="952.5" class="net_27 width_1" style="stroke-width: 1"/><line x1="349" x2="409" y1="40.5" y2="40.5" class="net_28 width_1" style="stroke-width: 1"/><line x1="349" x2="359" y1="300" y2="300" class="net_29 width_1" style="stroke-width: 1"/><line x1="359" x2="359" y1="300" y2="55.5" class="net_29 width_1" style="stroke-width: 1"/><line x1="359" x2="409" y1="55.5" y2="55.5" class="net_29 width_1" style="stroke-width: 1"/><line x1="164.28571428571428" x2="183" y1="148" y2="148" class="net_11 width_1" style="stroke-width: 1"/><line x1="183" x2="183" y1="148" y2="108" class="net_11 width_1" style="stroke-width: 1"/><line x1="183" x2="313" y1="108" y2="108" class="net_11 width_1" style="stroke-width: 1"/><line x1="164.28571428571428" x2="313" y1="427.5" y2="427.5" class="net_3 width_1" style="stroke-width: 1"/><line x1="349" x2="409" y1="100.5" y2="100.5" class="net_30 width_1" style="stroke-width: 1"/><line x1="349" x2="369" y1="420" y2="420" class="net_31 width_1" style="stroke-width: 1"/><line x1="369" x2="369" y1="420" y2="115.5" class="net_31 width_1" style="stroke-width: 1"/><line x1="369" x2="409" y1="115.5" y2="115.5" class="net_31 width_1" style="stroke-width: 1"/><line x1="164.28571428571428" x2="313" y1="168" y2="168" class="net_12 width_1" style="stroke-width: 1"/><line x1="164.28571428571428" x2="253" y1="447.5" y2="447.5" class="net_4 width_1" style="stroke-width: 1"/><line x1="253" x2="253" y1="447.5" y2="487.5" class="net_4 width_1" style="stroke-width: 1"/><line x1="253" x2="313" y1="487.5" y2="487.5" class="net_4 width_1" style="stroke-width: 1"/><line x1="349" x2="409" y1="160.5" y2="160.5" class="net_32 width_1" style="stroke-width: 1"/><line x1="349" x2="379" y1="480" y2="480" class="net_33 width_1" style="stroke-width: 1"/><line x1="379" x2="379" y1="480" y2="175.5" class="net_33 width_1" style="stroke-width: 1"/><line x1="379" x2="409" y1="175.5" y2="175.5" class="net_33 width_1" style="stroke-width: 1"/><line x1="164.28571428571428" x2="293" y1="188" y2="188" class="net_13 width_1" style="stroke-width: 1"/><line x1="293" x2="293" y1="188" y2="228" class="net_13 width_1" style="stroke-width: 1"/><line x1="293" x2="313" y1="228" y2="228" class="net_13 width_1" style="stroke-width: 1"/><line x1="164.28571428571428" x2="233" y1="467.5" y2="467.5" class="net_5 width_1" style="stroke-width: 1"/><line x1="233" x2="233" y1="467.5" y2="547.5" class="net_5 width_1" style="stroke-width: 1"/><line x1="233" x2="313" y1="547.5" y2="547.5" class="net_5 width_1" style="stroke-width: 1"/><line x1="349" x2="409" y1="220.5" y2="220.5" class="net_34 width_1" style="stroke-width: 1"/><line x1="349" x2="389" y1="540" y2="540" class="net_35 width_1" style="stroke-width: 1"/><line x1="389" x2="389" y1="540" y2="235.5" class="net_35 width_1" style="stroke-width: 1"/><line x1="389" x2="409" y1="235.5" y2="235.5" class="net_35 width_1" style="stroke-width: 1"/><line x1="164.28571428571428" x2="283" y1="208" y2="208" class="net_14 width_1" style="stroke-width: 1"/><line x1="283" x2="283" y1="208" y2="367.5" class="net_14 width_1" style="stroke-width: 1"/><line x1="283" x2="313" y1="367.5" y2="367.5" class="net_14 width_1" style="stroke-width: 1"/><line x1="164.28571428571428" x2="223" y1="487.5" y2="487.5" class="net_6 width_1" style="stroke-width: 1"/><line x1="223" x2="223" y1="487.5" y2="607.5" class="net_6 width_1" style="stroke-width: 1"/><line x1="223" x2="313" y1="607.5" y2="607.5" class="net_6 width_1" style="stroke-width: 1"/><line x1="349" x2="409" y1="360" y2="360" class="net_36 width_1" style="stroke-width: 1"/><line x1="349" x2="399" y1="600" y2="600" class="net_37 width_1" style="stroke-width: 1"/><line x1="399" x2="399" y1="600" y2="375" class="net_37 width_1" style="stroke-width: 1"/><line x1="399" x2="409" y1="375" y2="375" class="net_37 width_1" style="stroke-width: 1"/><line x1="164.28571428571428" x2="263" y1="228" y2="228" class="net_15 width_1" style="stroke-width: 1"/><line x1="263" x2="263" y1="228" y2="667.5" class="net_15 width_1" style="stroke-width: 1"/><line x1="263" x2="313" y1="667.5" y2="667.5" class="net_15 width_1" style="stroke-width: 1"/><line x1="164.28571428571428" x2="213" y1="507.5" y2="507.5" class="net_7 width_1" style="stroke-width: 1"/><line x1="213" x2="213" y1="507.5" y2="727.5" class="net_7 width_1" style="stroke-width: 1"/><line x1="213" x2="313" y1="727.5" y2="727.5" class="net_7 width_1" style="stroke-width: 1"/><line x1="349" x2="409" y1="660" y2="660" class="net_38 width_1" style="stroke-width: 1"/><line x1="349" x2="359" y1="720" y2="720" class="net_39 width_1" style="stroke-width: 1"/><line x1="359" x2="359" y1="720" y2="675" class="net_39 width_1" style="stroke-width: 1"/><line x1="359" x2="409" y1="675" y2="675" class="net_39 width_1" style="stroke-width: 1"/><line x1="164.28571428571428" x2="243" y1="248" y2="248" class="net_16 width_1" style="stroke-width: 1"/><line x1="243" x2="243" y1="248" y2="787.5" class="net_16 width_1" style="stroke-width: 1"/><line x1="243" x2="313" y1="787.5" y2="787.5" class="net_16 width_1" style="stroke-width: 1"/><line x1="164.28571428571428" x2="193" y1="527.5" y2="527.5" class="net_8 width_1" style="stroke-width: 1"/><line x1="193" x2="193" y1="527.5" y2="847.5" class="net_8 width_1" style="stroke-width: 1"/><line x1="193" x2="313" y1="847.5" y2="847.5" class="net_8 width_1" style="stroke-width: 1"/><line x1="349" x2="409" y1="780" y2="780" class="net_40 width_1" style="stroke-width: 1"/><line x1="349" x2="359" y1="840" y2="840" class="net_41 width_1" style="stroke-width: 1"/><line x1="359" x2="359" y1="840" y2="795" class="net_41 width_1" style="stroke-width: 1"/><line x1="359" x2="409" y1="795" y2="795" class="net_41 width_1" style="stroke-width: 1"/><line x1="163.78571428571428" x2="163.78571428571428" y1="268.5" y2="287.5" class="net_17 width_1" style="stroke-width: 1"/><line x1="163.78571428571428" x2="183" y1="287.5" y2="287.5" class="net_17 width_1" style="stroke-width: 1"/><line x1="183" x2="183" y1="287.5" y2="907.5" class="net_17 width_1" style="stroke-width: 1"/><line x1="183" x2="313" y1="907.5" y2="907.5" class="net_17 width_1" style="stroke-width: 1"/><line x1="163.78571428571428" x2="163.78571428571428" y1="548" y2="967.5" class="net_9 width_1" style="stroke-width: 1"/><line x1="163.78571428571428" x2="313" y1="967.5" y2="967.5" class="net_9 width_1" style="stroke-width: 1"/><line x1="349" x2="409" y1="900" y2="900" class="net_42 width_1" style="stroke-width: 1"/><line x1="349" x2="359" y1="960" y2="960" class="net_43 width_1" style="stroke-width: 1"/><line x1="359" x2="359" y1="960" y2="915" class="net_43 width_1" style="stroke-width: 1"/><line x1="359" x2="409" y1="915" y2="915" class="net_43 width_1" style="stroke-width: 1"/><line x1="491" x2="567" y1="178" y2="178" class="net_19,20,21,22,23,24,25,26 width_8" style="stroke-width: 2"/><line x1="445" x2="485.5" y1="48" y2="48" class="net_19 width_1" style="stroke-width: 1"/><line x1="485.5" x2="485.5" y1="48" y2="167.5" class="net_19 width_1" style="stroke-width: 1"/><line x1="445" x2="465" y1="108" y2="108" class="net_20 width_1" style="stroke-width: 1"/><line x1="465" x2="465" y1="108" y2="188" class="net_20 width_1" style="stroke-width: 1"/><line x1="465" x2="485" y1="188" y2="188" class="net_20 width_1" style="stroke-width: 1"/><line x1="445" x2="455" y1="168" y2="168" class="net_21 width_1" style="stroke-width: 1"/><line x1="455" x2="455" y1="168" y2="208" class="net_21 width_1" style="stroke-width: 1"/><line x1="455" x2="485" y1="208" y2="208" class="net_21 width_1" style="stroke-width: 1"/><line x1="445" x2="485" y1="228" y2="228" class="net_22 width_1" style="stroke-width: 1"/><line x1="445" x2="455" y1="367.5" y2="367.5" class="net_23 width_1" style="stroke-width: 1"/><line x1="455" x2="455" y1="367.5" y2="248" class="net_23 width_1" style="stroke-width: 1"/><line x1="455" x2="485" y1="248" y2="248" class="net_23 width_1" style="stroke-width: 1"/><line x1="445" x2="465" y1="667.5" y2="667.5" class="net_24 width_1" style="stroke-width: 1"/><line x1="465" x2="465" y1="667.5" y2="268" class="net_24 width_1" style="stroke-width: 1"/><line x1="465" x2="485" y1="268" y2="268" class="net_24 width_1" style="stroke-width: 1"/><line x1="445" x2="475" y1="787.5" y2="787.5" class="net_25 width_1" style="stroke-width: 1"/><line x1="475" x2="475" y1="787.5" y2="288" class="net_25 width_1" style="stroke-width: 1"/><line x1="475" x2="485" y1="288" y2="288" class="net_25 width_1" style="stroke-width: 1"/><line x1="445" x2="485.5" y1="907.5" y2="907.5" class="net_26 width_1" style="stroke-width: 1"/><line x1="485.5" x2="485.5" y1="907.5" y2="308.5" class="net_26 width_1" style="stroke-width: 1"/><line x1="42" x2="127" y1="32" y2="32" class="net_10,11,12,13,14,15,16,17 width_8" style="stroke-width: 2"/><line x1="127" x2="127" y1="32" y2="138" class="net_10,11,12,13,14,15,16,17 width_8" style="stroke-width: 2"/><line x1="127" x2="159.28571428571428" y1="138" y2="138" class="net_10,11,12,13,14,15,16,17 width_8" style="stroke-width: 2"/><line x1="42" x2="159.28571428571428" y1="417.5" y2="417.5" class="net_2,3,4,5,6,7,8,9 width_8" style="stroke-width: 2"/><rect x="529" y="173" width="16" height="9" class="net_19,20,21,22,23,24,25,26 width_8 busLabel_8" style="fill: white; stroke: none"/><text x="528" y="181" class="net_19,20,21,22,23,24,25,26 width_8 busLabel_8">/8/</text><rect x="91" y="27" width="16" height="9" class="net_10,11,12,13,14,15,16,17 width_8 busLabel_8" style="fill: white; stroke: none"/><text x="90" y="35" class="net_10,11,12,13,14,15,16,17 width_8 busLabel_8">/8/</text><rect x="91" y="412.5" width="16" height="9" class="net_2,3,4,5,6,7,8,9 width_8 busLabel_8" style="fill: white; stroke: none"/><text x="90" y="420.5" class="net_2,3,4,5,6,7,8,9 width_8 busLabel_8">/8/</text></svg>