<svg xmlns="http://www.w3.org/2000/svg" xmlns:xlink="http://www.w3.org/1999/xlink" xmlns:s="https://github.com/nturley/netlistsvg" width="1319" height="1397"><style>svg {
  stroke:#000;
  fill:none;
}
text {
  fill:#000;
  stroke:none;
  font-size:10px;
  font-weight: bold;
  font-family: "Courier New", monospace;
}
line {
    stroke-linecap: round;
}
.nodelabel {
  text-anchor: middle;
}
.inputPortLabel {
  text-anchor: end;
}
.splitjoinBody {
  fill:#000;
}</style><g s:type="generic" transform="translate(149,394)" s:width="30" s:height="40" id="cell_$abc$99$auto$blifparse.cc:386:parse_blif$100"><text x="15" y="-4" class="nodelabel cell_$abc$99$auto$blifparse.cc:386:parse_blif$100" s:attribute="ref">$_NOT_</text><rect width="30" height="20" s:generic="body" class="cell_$abc$99$auto$blifparse.cc:386:parse_blif$100"/><g transform="translate(0,10)" s:x="0" s:y="10" s:pid="in0" id="port_$abc$99$auto$blifparse.cc:386:parse_blif$100~A"><text x="-3" y="-4" class="inputPortLabel cell_$abc$99$auto$blifparse.cc:386:parse_blif$100">A</text></g><g transform="translate(30,10)" s:x="30" s:y="10" s:pid="out0" id="port_$abc$99$auto$blifparse.cc:386:parse_blif$100~Y"><text x="5" y="-4" style="fill:#000; stroke:none" class="cell_$abc$99$auto$blifparse.cc:386:parse_blif$100">Y</text></g></g><g s:type="generic" transform="translate(560,22)" s:width="30" s:height="40" id="cell_$abc$99$auto$blifparse.cc:386:parse_blif$101"><text x="15" y="-4" class="nodelabel cell_$abc$99$auto$blifparse.cc:386:parse_blif$101" s:attribute="ref">$_NAND_</text><rect width="30" height="40" s:generic="body" class="cell_$abc$99$auto$blifparse.cc:386:parse_blif$101"/><g transform="translate(0,10)" s:x="0" s:y="10" s:pid="in0" id="port_$abc$99$auto$blifparse.cc:386:parse_blif$101~A"><text x="-3" y="-4" class="inputPortLabel cell_$abc$99$auto$blifparse.cc:386:parse_blif$101">A</text></g><g transform="translate(0,30)" s:x="0" s:y="10" s:pid="in0" id="port_$abc$99$auto$blifparse.cc:386:parse_blif$101~B"><text x="-3" y="-4" class="inputPortLabel cell_$abc$99$auto$blifparse.cc:386:parse_blif$101">B</text></g><g transform="translate(30,10)" s:x="30" s:y="10" s:pid="out0" id="port_$abc$99$auto$blifparse.cc:386:parse_blif$101~Y"><text x="5" y="-4" style="fill:#000; stroke:none" class="cell_$abc$99$auto$blifparse.cc:386:parse_blif$101">Y</text></g></g><g s:type="generic" transform="translate(560,374)" s:width="30" s:height="40" id="cell_$abc$99$auto$blifparse.cc:386:parse_blif$102"><text x="15" y="-4" class="nodelabel cell_$abc$99$auto$blifparse.cc:386:parse_blif$102" s:attribute="ref">$_NAND_</text><rect width="30" height="40" s:generic="body" class="cell_$abc$99$auto$blifparse.cc:386:parse_blif$102"/><g transform="translate(0,10)" s:x="0" s:y="10" s:pid="in0" id="port_$abc$99$auto$blifparse.cc:386:parse_blif$102~A"><text x="-3" y="-4" class="inputPortLabel cell_$abc$99$auto$blifparse.cc:386:parse_blif$102">A</text></g><g transform="translate(0,30)" s:x="0" s:y="10" s:pid="in0" id="port_$abc$99$auto$blifparse.cc:386:parse_blif$102~B"><text x="-3" y="-4" class="inputPortLabel cell_$abc$99$auto$blifparse.cc:386:parse_blif$102">B</text></g><g transform="translate(30,10)" s:x="30" s:y="10" s:pid="out0" id="port_$abc$99$auto$blifparse.cc:386:parse_blif$102~Y"><text x="5" y="-4" style="fill:#000; stroke:none" class="cell_$abc$99$auto$blifparse.cc:386:parse_blif$102">Y</text></g></g><g s:type="generic" transform="translate(891,22)" s:width="30" s:height="40" id="cell_$abc$99$auto$blifparse.cc:386:parse_blif$103"><text x="15" y="-4" class="nodelabel cell_$abc$99$auto$blifparse.cc:386:parse_blif$103" s:attribute="ref">$_NAND_</text><rect width="30" height="40" s:generic="body" class="cell_$abc$99$auto$blifparse.cc:386:parse_blif$103"/><g transform="translate(0,10)" s:x="0" s:y="10" s:pid="in0" id="port_$abc$99$auto$blifparse.cc:386:parse_blif$103~A"><text x="-3" y="-4" class="inputPortLabel cell_$abc$99$auto$blifparse.cc:386:parse_blif$103">A</text></g><g transform="translate(0,30)" s:x="0" s:y="10" s:pid="in0" id="port_$abc$99$auto$blifparse.cc:386:parse_blif$103~B"><text x="-3" y="-4" class="inputPortLabel cell_$abc$99$auto$blifparse.cc:386:parse_blif$103">B</text></g><g transform="translate(30,10)" s:x="30" s:y="10" s:pid="out0" id="port_$abc$99$auto$blifparse.cc:386:parse_blif$103~Y"><text x="5" y="-4" style="fill:#000; stroke:none" class="cell_$abc$99$auto$blifparse.cc:386:parse_blif$103">Y</text></g></g><g s:type="generic" transform="translate(560,110)" s:width="30" s:height="40" id="cell_$abc$99$auto$blifparse.cc:386:parse_blif$104"><text x="15" y="-4" class="nodelabel cell_$abc$99$auto$blifparse.cc:386:parse_blif$104" s:attribute="ref">$_NAND_</text><rect width="30" height="40" s:generic="body" class="cell_$abc$99$auto$blifparse.cc:386:parse_blif$104"/><g transform="translate(0,10)" s:x="0" s:y="10" s:pid="in0" id="port_$abc$99$auto$blifparse.cc:386:parse_blif$104~A"><text x="-3" y="-4" class="inputPortLabel cell_$abc$99$auto$blifparse.cc:386:parse_blif$104">A</text></g><g transform="translate(0,30)" s:x="0" s:y="10" s:pid="in0" id="port_$abc$99$auto$blifparse.cc:386:parse_blif$104~B"><text x="-3" y="-4" class="inputPortLabel cell_$abc$99$auto$blifparse.cc:386:parse_blif$104">B</text></g><g transform="translate(30,10)" s:x="30" s:y="10" s:pid="out0" id="port_$abc$99$auto$blifparse.cc:386:parse_blif$104~Y"><text x="5" y="-4" style="fill:#000; stroke:none" class="cell_$abc$99$auto$blifparse.cc:386:parse_blif$104">Y</text></g></g><g s:type="generic" transform="translate(560,550)" s:width="30" s:height="40" id="cell_$abc$99$auto$blifparse.cc:386:parse_blif$105"><text x="15" y="-4" class="nodelabel cell_$abc$99$auto$blifparse.cc:386:parse_blif$105" s:attribute="ref">$_NAND_</text><rect width="30" height="40" s:generic="body" class="cell_$abc$99$auto$blifparse.cc:386:parse_blif$105"/><g transform="translate(0,10)" s:x="0" s:y="10" s:pid="in0" id="port_$abc$99$auto$blifparse.cc:386:parse_blif$105~A"><text x="-3" y="-4" class="inputPortLabel cell_$abc$99$auto$blifparse.cc:386:parse_blif$105">A</text></g><g transform="translate(0,30)" s:x="0" s:y="10" s:pid="in0" id="port_$abc$99$auto$blifparse.cc:386:parse_blif$105~B"><text x="-3" y="-4" class="inputPortLabel cell_$abc$99$auto$blifparse.cc:386:parse_blif$105">B</text></g><g transform="translate(30,10)" s:x="30" s:y="10" s:pid="out0" id="port_$abc$99$auto$blifparse.cc:386:parse_blif$105~Y"><text x="5" y="-4" style="fill:#000; stroke:none" class="cell_$abc$99$auto$blifparse.cc:386:parse_blif$105">Y</text></g></g><g s:type="generic" transform="translate(891,110)" s:width="30" s:height="40" id="cell_$abc$99$auto$blifparse.cc:386:parse_blif$106"><text x="15" y="-4" class="nodelabel cell_$abc$99$auto$blifparse.cc:386:parse_blif$106" s:attribute="ref">$_NAND_</text><rect width="30" height="40" s:generic="body" class="cell_$abc$99$auto$blifparse.cc:386:parse_blif$106"/><g transform="translate(0,10)" s:x="0" s:y="10" s:pid="in0" id="port_$abc$99$auto$blifparse.cc:386:parse_blif$106~A"><text x="-3" y="-4" class="inputPortLabel cell_$abc$99$auto$blifparse.cc:386:parse_blif$106">A</text></g><g transform="translate(0,30)" s:x="0" s:y="10" s:pid="in0" id="port_$abc$99$auto$blifparse.cc:386:parse_blif$106~B"><text x="-3" y="-4" class="inputPortLabel cell_$abc$99$auto$blifparse.cc:386:parse_blif$106">B</text></g><g transform="translate(30,10)" s:x="30" s:y="10" s:pid="out0" id="port_$abc$99$auto$blifparse.cc:386:parse_blif$106~Y"><text x="5" y="-4" style="fill:#000; stroke:none" class="cell_$abc$99$auto$blifparse.cc:386:parse_blif$106">Y</text></g></g><g s:type="generic" transform="translate(560,198)" s:width="30" s:height="40" id="cell_$abc$99$auto$blifparse.cc:386:parse_blif$107"><text x="15" y="-4" class="nodelabel cell_$abc$99$auto$blifparse.cc:386:parse_blif$107" s:attribute="ref">$_NAND_</text><rect width="30" height="40" s:generic="body" class="cell_$abc$99$auto$blifparse.cc:386:parse_blif$107"/><g transform="translate(0,10)" s:x="0" s:y="10" s:pid="in0" id="port_$abc$99$auto$blifparse.cc:386:parse_blif$107~A"><text x="-3" y="-4" class="inputPortLabel cell_$abc$99$auto$blifparse.cc:386:parse_blif$107">A</text></g><g transform="translate(0,30)" s:x="0" s:y="10" s:pid="in0" id="port_$abc$99$auto$blifparse.cc:386:parse_blif$107~B"><text x="-3" y="-4" class="inputPortLabel cell_$abc$99$auto$blifparse.cc:386:parse_blif$107">B</text></g><g transform="translate(30,10)" s:x="30" s:y="10" s:pid="out0" id="port_$abc$99$auto$blifparse.cc:386:parse_blif$107~Y"><text x="5" y="-4" style="fill:#000; stroke:none" class="cell_$abc$99$auto$blifparse.cc:386:parse_blif$107">Y</text></g></g><g s:type="generic" transform="translate(560,638)" s:width="30" s:height="40" id="cell_$abc$99$auto$blifparse.cc:386:parse_blif$108"><text x="15" y="-4" class="nodelabel cell_$abc$99$auto$blifparse.cc:386:parse_blif$108" s:attribute="ref">$_NAND_</text><rect width="30" height="40" s:generic="body" class="cell_$abc$99$auto$blifparse.cc:386:parse_blif$108"/><g transform="translate(0,10)" s:x="0" s:y="10" s:pid="in0" id="port_$abc$99$auto$blifparse.cc:386:parse_blif$108~A"><text x="-3" y="-4" class="inputPortLabel cell_$abc$99$auto$blifparse.cc:386:parse_blif$108">A</text></g><g transform="translate(0,30)" s:x="0" s:y="10" s:pid="in0" id="port_$abc$99$auto$blifparse.cc:386:parse_blif$108~B"><text x="-3" y="-4" class="inputPortLabel cell_$abc$99$auto$blifparse.cc:386:parse_blif$108">B</text></g><g transform="translate(30,10)" s:x="30" s:y="10" s:pid="out0" id="port_$abc$99$auto$blifparse.cc:386:parse_blif$108~Y"><text x="5" y="-4" style="fill:#000; stroke:none" class="cell_$abc$99$auto$blifparse.cc:386:parse_blif$108">Y</text></g></g><g s:type="generic" transform="translate(891,198)" s:width="30" s:height="40" id="cell_$abc$99$auto$blifparse.cc:386:parse_blif$109"><text x="15" y="-4" class="nodelabel cell_$abc$99$auto$blifparse.cc:386:parse_blif$109" s:attribute="ref">$_NAND_</text><rect width="30" height="40" s:generic="body" class="cell_$abc$99$auto$blifparse.cc:386:parse_blif$109"/><g transform="translate(0,10)" s:x="0" s:y="10" s:pid="in0" id="port_$abc$99$auto$blifparse.cc:386:parse_blif$109~A"><text x="-3" y="-4" class="inputPortLabel cell_$abc$99$auto$blifparse.cc:386:parse_blif$109">A</text></g><g transform="translate(0,30)" s:x="0" s:y="10" s:pid="in0" id="port_$abc$99$auto$blifparse.cc:386:parse_blif$109~B"><text x="-3" y="-4" class="inputPortLabel cell_$abc$99$auto$blifparse.cc:386:parse_blif$109">B</text></g><g transform="translate(30,10)" s:x="30" s:y="10" s:pid="out0" id="port_$abc$99$auto$blifparse.cc:386:parse_blif$109~Y"><text x="5" y="-4" style="fill:#000; stroke:none" class="cell_$abc$99$auto$blifparse.cc:386:parse_blif$109">Y</text></g></g><g s:type="generic" transform="translate(560,286)" s:width="30" s:height="40" id="cell_$abc$99$auto$blifparse.cc:386:parse_blif$110"><text x="15" y="-4" class="nodelabel cell_$abc$99$auto$blifparse.cc:386:parse_blif$110" s:attribute="ref">$_NAND_</text><rect width="30" height="40" s:generic="body" class="cell_$abc$99$auto$blifparse.cc:386:parse_blif$110"/><g transform="translate(0,10)" s:x="0" s:y="10" s:pid="in0" id="port_$abc$99$auto$blifparse.cc:386:parse_blif$110~A"><text x="-3" y="-4" class="inputPortLabel cell_$abc$99$auto$blifparse.cc:386:parse_blif$110">A</text></g><g transform="translate(0,30)" s:x="0" s:y="10" s:pid="in0" id="port_$abc$99$auto$blifparse.cc:386:parse_blif$110~B"><text x="-3" y="-4" class="inputPortLabel cell_$abc$99$auto$blifparse.cc:386:parse_blif$110">B</text></g><g transform="translate(30,10)" s:x="30" s:y="10" s:pid="out0" id="port_$abc$99$auto$blifparse.cc:386:parse_blif$110~Y"><text x="5" y="-4" style="fill:#000; stroke:none" class="cell_$abc$99$auto$blifparse.cc:386:parse_blif$110">Y</text></g></g><g s:type="generic" transform="translate(560,726)" s:width="30" s:height="40" id="cell_$abc$99$auto$blifparse.cc:386:parse_blif$111"><text x="15" y="-4" class="nodelabel cell_$abc$99$auto$blifparse.cc:386:parse_blif$111" s:attribute="ref">$_NAND_</text><rect width="30" height="40" s:generic="body" class="cell_$abc$99$auto$blifparse.cc:386:parse_blif$111"/><g transform="translate(0,10)" s:x="0" s:y="10" s:pid="in0" id="port_$abc$99$auto$blifparse.cc:386:parse_blif$111~A"><text x="-3" y="-4" class="inputPortLabel cell_$abc$99$auto$blifparse.cc:386:parse_blif$111">A</text></g><g transform="translate(0,30)" s:x="0" s:y="10" s:pid="in0" id="port_$abc$99$auto$blifparse.cc:386:parse_blif$111~B"><text x="-3" y="-4" class="inputPortLabel cell_$abc$99$auto$blifparse.cc:386:parse_blif$111">B</text></g><g transform="translate(30,10)" s:x="30" s:y="10" s:pid="out0" id="port_$abc$99$auto$blifparse.cc:386:parse_blif$111~Y"><text x="5" y="-4" style="fill:#000; stroke:none" class="cell_$abc$99$auto$blifparse.cc:386:parse_blif$111">Y</text></g></g><g s:type="generic" transform="translate(891,286)" s:width="30" s:height="40" id="cell_$abc$99$auto$blifparse.cc:386:parse_blif$112"><text x="15" y="-4" class="nodelabel cell_$abc$99$auto$blifparse.cc:386:parse_blif$112" s:attribute="ref">$_NAND_</text><rect width="30" height="40" s:generic="body" class="cell_$abc$99$auto$blifparse.cc:386:parse_blif$112"/><g transform="translate(0,10)" s:x="0" s:y="10" s:pid="in0" id="port_$abc$99$auto$blifparse.cc:386:parse_blif$112~A"><text x="-3" y="-4" class="inputPortLabel cell_$abc$99$auto$blifparse.cc:386:parse_blif$112">A</text></g><g transform="translate(0,30)" s:x="0" s:y="10" s:pid="in0" id="port_$abc$99$auto$blifparse.cc:386:parse_blif$112~B"><text x="-3" y="-4" class="inputPortLabel cell_$abc$99$auto$blifparse.cc:386:parse_blif$112">B</text></g><g transform="translate(30,10)" s:x="30" s:y="10" s:pid="out0" id="port_$abc$99$auto$blifparse.cc:386:parse_blif$112~Y"><text x="5" y="-4" style="fill:#000; stroke:none" class="cell_$abc$99$auto$blifparse.cc:386:parse_blif$112">Y</text></g></g><g s:type="generic" transform="translate(560,462)" s:width="30" s:height="40" id="cell_$abc$99$auto$blifparse.cc:386:parse_blif$113"><text x="15" y="-4" class="nodelabel cell_$abc$99$auto$blifparse.cc:386:parse_blif$113" s:attribute="ref">$_NAND_</text><rect width="30" height="40" s:generic="body" class="cell_$abc$99$auto$blifparse.cc:386:parse_blif$113"/><g transform="translate(0,10)" s:x="0" s:y="10" s:pid="in0" id="port_$abc$99$auto$blifparse.cc:386:parse_blif$113~A"><text x="-3" y="-4" class="inputPortLabel cell_$abc$99$auto$blifparse.cc:386:parse_blif$113">A</text></g><g transform="translate(0,30)" s:x="0" s:y="10" s:pid="in0" id="port_$abc$99$auto$blifparse.cc:386:parse_blif$113~B"><text x="-3" y="-4" class="inputPortLabel cell_$abc$99$auto$blifparse.cc:386:parse_blif$113">B</text></g><g transform="translate(30,10)" s:x="30" s:y="10" s:pid="out0" id="port_$abc$99$auto$blifparse.cc:386:parse_blif$113~Y"><text x="5" y="-4" style="fill:#000; stroke:none" class="cell_$abc$99$auto$blifparse.cc:386:parse_blif$113">Y</text></g></g><g s:type="generic" transform="translate(560,814)" s:width="30" s:height="40" id="cell_$abc$99$auto$blifparse.cc:386:parse_blif$114"><text x="15" y="-4" class="nodelabel cell_$abc$99$auto$blifparse.cc:386:parse_blif$114" s:attribute="ref">$_NAND_</text><rect width="30" height="40" s:generic="body" class="cell_$abc$99$auto$blifparse.cc:386:parse_blif$114"/><g transform="translate(0,10)" s:x="0" s:y="10" s:pid="in0" id="port_$abc$99$auto$blifparse.cc:386:parse_blif$114~A"><text x="-3" y="-4" class="inputPortLabel cell_$abc$99$auto$blifparse.cc:386:parse_blif$114">A</text></g><g transform="translate(0,30)" s:x="0" s:y="10" s:pid="in0" id="port_$abc$99$auto$blifparse.cc:386:parse_blif$114~B"><text x="-3" y="-4" class="inputPortLabel cell_$abc$99$auto$blifparse.cc:386:parse_blif$114">B</text></g><g transform="translate(30,10)" s:x="30" s:y="10" s:pid="out0" id="port_$abc$99$auto$blifparse.cc:386:parse_blif$114~Y"><text x="5" y="-4" style="fill:#000; stroke:none" class="cell_$abc$99$auto$blifparse.cc:386:parse_blif$114">Y</text></g></g><g s:type="generic" transform="translate(891,462)" s:width="30" s:height="40" id="cell_$abc$99$auto$blifparse.cc:386:parse_blif$115"><text x="15" y="-4" class="nodelabel cell_$abc$99$auto$blifparse.cc:386:parse_blif$115" s:attribute="ref">$_NAND_</text><rect width="30" height="40" s:generic="body" class="cell_$abc$99$auto$blifparse.cc:386:parse_blif$115"/><g transform="translate(0,10)" s:x="0" s:y="10" s:pid="in0" id="port_$abc$99$auto$blifparse.cc:386:parse_blif$115~A"><text x="-3" y="-4" class="inputPortLabel cell_$abc$99$auto$blifparse.cc:386:parse_blif$115">A</text></g><g transform="translate(0,30)" s:x="0" s:y="10" s:pid="in0" id="port_$abc$99$auto$blifparse.cc:386:parse_blif$115~B"><text x="-3" y="-4" class="inputPortLabel cell_$abc$99$auto$blifparse.cc:386:parse_blif$115">B</text></g><g transform="translate(30,10)" s:x="30" s:y="10" s:pid="out0" id="port_$abc$99$auto$blifparse.cc:386:parse_blif$115~Y"><text x="5" y="-4" style="fill:#000; stroke:none" class="cell_$abc$99$auto$blifparse.cc:386:parse_blif$115">Y</text></g></g><g s:type="generic" transform="translate(560,902)" s:width="30" s:height="40" id="cell_$abc$99$auto$blifparse.cc:386:parse_blif$116"><text x="15" y="-4" class="nodelabel cell_$abc$99$auto$blifparse.cc:386:parse_blif$116" s:attribute="ref">$_NAND_</text><rect width="30" height="40" s:generic="body" class="cell_$abc$99$auto$blifparse.cc:386:parse_blif$116"/><g transform="translate(0,10)" s:x="0" s:y="10" s:pid="in0" id="port_$abc$99$auto$blifparse.cc:386:parse_blif$116~A"><text x="-3" y="-4" class="inputPortLabel cell_$abc$99$auto$blifparse.cc:386:parse_blif$116">A</text></g><g transform="translate(0,30)" s:x="0" s:y="10" s:pid="in0" id="port_$abc$99$auto$blifparse.cc:386:parse_blif$116~B"><text x="-3" y="-4" class="inputPortLabel cell_$abc$99$auto$blifparse.cc:386:parse_blif$116">B</text></g><g transform="translate(30,10)" s:x="30" s:y="10" s:pid="out0" id="port_$abc$99$auto$blifparse.cc:386:parse_blif$116~Y"><text x="5" y="-4" style="fill:#000; stroke:none" class="cell_$abc$99$auto$blifparse.cc:386:parse_blif$116">Y</text></g></g><g s:type="generic" transform="translate(560,990)" s:width="30" s:height="40" id="cell_$abc$99$auto$blifparse.cc:386:parse_blif$117"><text x="15" y="-4" class="nodelabel cell_$abc$99$auto$blifparse.cc:386:parse_blif$117" s:attribute="ref">$_NAND_</text><rect width="30" height="40" s:generic="body" class="cell_$abc$99$auto$blifparse.cc:386:parse_blif$117"/><g transform="translate(0,10)" s:x="0" s:y="10" s:pid="in0" id="port_$abc$99$auto$blifparse.cc:386:parse_blif$117~A"><text x="-3" y="-4" class="inputPortLabel cell_$abc$99$auto$blifparse.cc:386:parse_blif$117">A</text></g><g transform="translate(0,30)" s:x="0" s:y="10" s:pid="in0" id="port_$abc$99$auto$blifparse.cc:386:parse_blif$117~B"><text x="-3" y="-4" class="inputPortLabel cell_$abc$99$auto$blifparse.cc:386:parse_blif$117">B</text></g><g transform="translate(30,10)" s:x="30" s:y="10" s:pid="out0" id="port_$abc$99$auto$blifparse.cc:386:parse_blif$117~Y"><text x="5" y="-4" style="fill:#000; stroke:none" class="cell_$abc$99$auto$blifparse.cc:386:parse_blif$117">Y</text></g></g><g s:type="generic" transform="translate(891,902)" s:width="30" s:height="40" id="cell_$abc$99$auto$blifparse.cc:386:parse_blif$118"><text x="15" y="-4" class="nodelabel cell_$abc$99$auto$blifparse.cc:386:parse_blif$118" s:attribute="ref">$_NAND_</text><rect width="30" height="40" s:generic="body" class="cell_$abc$99$auto$blifparse.cc:386:parse_blif$118"/><g transform="translate(0,10)" s:x="0" s:y="10" s:pid="in0" id="port_$abc$99$auto$blifparse.cc:386:parse_blif$118~A"><text x="-3" y="-4" class="inputPortLabel cell_$abc$99$auto$blifparse.cc:386:parse_blif$118">A</text></g><g transform="translate(0,30)" s:x="0" s:y="10" s:pid="in0" id="port_$abc$99$auto$blifparse.cc:386:parse_blif$118~B"><text x="-3" y="-4" class="inputPortLabel cell_$abc$99$auto$blifparse.cc:386:parse_blif$118">B</text></g><g transform="translate(30,10)" s:x="30" s:y="10" s:pid="out0" id="port_$abc$99$auto$blifparse.cc:386:parse_blif$118~Y"><text x="5" y="-4" style="fill:#000; stroke:none" class="cell_$abc$99$auto$blifparse.cc:386:parse_blif$118">Y</text></g></g><g s:type="generic" transform="translate(560,1078)" s:width="30" s:height="40" id="cell_$abc$99$auto$blifparse.cc:386:parse_blif$119"><text x="15" y="-4" class="nodelabel cell_$abc$99$auto$blifparse.cc:386:parse_blif$119" s:attribute="ref">$_NAND_</text><rect width="30" height="40" s:generic="body" class="cell_$abc$99$auto$blifparse.cc:386:parse_blif$119"/><g transform="translate(0,10)" s:x="0" s:y="10" s:pid="in0" id="port_$abc$99$auto$blifparse.cc:386:parse_blif$119~A"><text x="-3" y="-4" class="inputPortLabel cell_$abc$99$auto$blifparse.cc:386:parse_blif$119">A</text></g><g transform="translate(0,30)" s:x="0" s:y="10" s:pid="in0" id="port_$abc$99$auto$blifparse.cc:386:parse_blif$119~B"><text x="-3" y="-4" class="inputPortLabel cell_$abc$99$auto$blifparse.cc:386:parse_blif$119">B</text></g><g transform="translate(30,10)" s:x="30" s:y="10" s:pid="out0" id="port_$abc$99$auto$blifparse.cc:386:parse_blif$119~Y"><text x="5" y="-4" style="fill:#000; stroke:none" class="cell_$abc$99$auto$blifparse.cc:386:parse_blif$119">Y</text></g></g><g s:type="generic" transform="translate(560,1166)" s:width="30" s:height="40" id="cell_$abc$99$auto$blifparse.cc:386:parse_blif$120"><text x="15" y="-4" class="nodelabel cell_$abc$99$auto$blifparse.cc:386:parse_blif$120" s:attribute="ref">$_NAND_</text><rect width="30" height="40" s:generic="body" class="cell_$abc$99$auto$blifparse.cc:386:parse_blif$120"/><g transform="translate(0,10)" s:x="0" s:y="10" s:pid="in0" id="port_$abc$99$auto$blifparse.cc:386:parse_blif$120~A"><text x="-3" y="-4" class="inputPortLabel cell_$abc$99$auto$blifparse.cc:386:parse_blif$120">A</text></g><g transform="translate(0,30)" s:x="0" s:y="10" s:pid="in0" id="port_$abc$99$auto$blifparse.cc:386:parse_blif$120~B"><text x="-3" y="-4" class="inputPortLabel cell_$abc$99$auto$blifparse.cc:386:parse_blif$120">B</text></g><g transform="translate(30,10)" s:x="30" s:y="10" s:pid="out0" id="port_$abc$99$auto$blifparse.cc:386:parse_blif$120~Y"><text x="5" y="-4" style="fill:#000; stroke:none" class="cell_$abc$99$auto$blifparse.cc:386:parse_blif$120">Y</text></g></g><g s:type="generic" transform="translate(891,1078)" s:width="30" s:height="40" id="cell_$abc$99$auto$blifparse.cc:386:parse_blif$121"><text x="15" y="-4" class="nodelabel cell_$abc$99$auto$blifparse.cc:386:parse_blif$121" s:attribute="ref">$_NAND_</text><rect width="30" height="40" s:generic="body" class="cell_$abc$99$auto$blifparse.cc:386:parse_blif$121"/><g transform="translate(0,10)" s:x="0" s:y="10" s:pid="in0" id="port_$abc$99$auto$blifparse.cc:386:parse_blif$121~A"><text x="-3" y="-4" class="inputPortLabel cell_$abc$99$auto$blifparse.cc:386:parse_blif$121">A</text></g><g transform="translate(0,30)" s:x="0" s:y="10" s:pid="in0" id="port_$abc$99$auto$blifparse.cc:386:parse_blif$121~B"><text x="-3" y="-4" class="inputPortLabel cell_$abc$99$auto$blifparse.cc:386:parse_blif$121">B</text></g><g transform="translate(30,10)" s:x="30" s:y="10" s:pid="out0" id="port_$abc$99$auto$blifparse.cc:386:parse_blif$121~Y"><text x="5" y="-4" style="fill:#000; stroke:none" class="cell_$abc$99$auto$blifparse.cc:386:parse_blif$121">Y</text></g></g><g s:type="generic" transform="translate(560,1254)" s:width="30" s:height="40" id="cell_$abc$99$auto$blifparse.cc:386:parse_blif$122"><text x="15" y="-4" class="nodelabel cell_$abc$99$auto$blifparse.cc:386:parse_blif$122" s:attribute="ref">$_NAND_</text><rect width="30" height="40" s:generic="body" class="cell_$abc$99$auto$blifparse.cc:386:parse_blif$122"/><g transform="translate(0,10)" s:x="0" s:y="10" s:pid="in0" id="port_$abc$99$auto$blifparse.cc:386:parse_blif$122~A"><text x="-3" y="-4" class="inputPortLabel cell_$abc$99$auto$blifparse.cc:386:parse_blif$122">A</text></g><g transform="translate(0,30)" s:x="0" s:y="10" s:pid="in0" id="port_$abc$99$auto$blifparse.cc:386:parse_blif$122~B"><text x="-3" y="-4" class="inputPortLabel cell_$abc$99$auto$blifparse.cc:386:parse_blif$122">B</text></g><g transform="translate(30,10)" s:x="30" s:y="10" s:pid="out0" id="port_$abc$99$auto$blifparse.cc:386:parse_blif$122~Y"><text x="5" y="-4" style="fill:#000; stroke:none" class="cell_$abc$99$auto$blifparse.cc:386:parse_blif$122">Y</text></g></g><g s:type="generic" transform="translate(560,1342)" s:width="30" s:height="40" id="cell_$abc$99$auto$blifparse.cc:386:parse_blif$123"><text x="15" y="-4" class="nodelabel cell_$abc$99$auto$blifparse.cc:386:parse_blif$123" s:attribute="ref">$_NAND_</text><rect width="30" height="40" s:generic="body" class="cell_$abc$99$auto$blifparse.cc:386:parse_blif$123"/><g transform="translate(0,10)" s:x="0" s:y="10" s:pid="in0" id="port_$abc$99$auto$blifparse.cc:386:parse_blif$123~A"><text x="-3" y="-4" class="inputPortLabel cell_$abc$99$auto$blifparse.cc:386:parse_blif$123">A</text></g><g transform="translate(0,30)" s:x="0" s:y="10" s:pid="in0" id="port_$abc$99$auto$blifparse.cc:386:parse_blif$123~B"><text x="-3" y="-4" class="inputPortLabel cell_$abc$99$auto$blifparse.cc:386:parse_blif$123">B</text></g><g transform="translate(30,10)" s:x="30" s:y="10" s:pid="out0" id="port_$abc$99$auto$blifparse.cc:386:parse_blif$123~Y"><text x="5" y="-4" style="fill:#000; stroke:none" class="cell_$abc$99$auto$blifparse.cc:386:parse_blif$123">Y</text></g></g><g s:type="generic" transform="translate(891,1254)" s:width="30" s:height="40" id="cell_$abc$99$auto$blifparse.cc:386:parse_blif$124"><text x="15" y="-4" class="nodelabel cell_$abc$99$auto$blifparse.cc:386:parse_blif$124" s:attribute="ref">$_NAND_</text><rect width="30" height="40" s:generic="body" class="cell_$abc$99$auto$blifparse.cc:386:parse_blif$124"/><g transform="translate(0,10)" s:x="0" s:y="10" s:pid="in0" id="port_$abc$99$auto$blifparse.cc:386:parse_blif$124~A"><text x="-3" y="-4" class="inputPortLabel cell_$abc$99$auto$blifparse.cc:386:parse_blif$124">A</text></g><g transform="translate(0,30)" s:x="0" s:y="10" s:pid="in0" id="port_$abc$99$auto$blifparse.cc:386:parse_blif$124~B"><text x="-3" y="-4" class="inputPortLabel cell_$abc$99$auto$blifparse.cc:386:parse_blif$124">B</text></g><g transform="translate(30,10)" s:x="30" s:y="10" s:pid="out0" id="port_$abc$99$auto$blifparse.cc:386:parse_blif$124~Y"><text x="5" y="-4" style="fill:#000; stroke:none" class="cell_$abc$99$auto$blifparse.cc:386:parse_blif$124">Y</text></g></g><g s:type="inputExt" transform="translate(12,560.5)" s:width="30" s:height="20" id="cell_A"><text x="15" y="-4" class="nodelabel cell_A" s:attribute="ref">A</text><s:alias val="$_inputExt_"/><path d="M0,0 L0,20 L15,20 L30,10 L15,0 Z" class="cell_A"/><g s:x="30" s:y="10" s:pid="Y"/></g><g s:type="inputExt" transform="translate(12,49.5)" s:width="30" s:height="20" id="cell_B"><text x="15" y="-4" class="nodelabel cell_B" s:attribute="ref">B</text><s:alias val="$_inputExt_"/><path d="M0,0 L0,20 L15,20 L30,10 L15,0 Z" class="cell_B"/><g s:x="30" s:y="10" s:pid="Y"/></g><g s:type="inputExt" transform="translate(77,110.5)" s:width="30" s:height="20" id="cell_S"><text x="15" y="-4" class="nodelabel cell_S" s:attribute="ref">S</text><s:alias val="$_inputExt_"/><path d="M0,0 L0,20 L15,20 L30,10 L15,0 Z" class="cell_S"/><g s:x="30" s:y="10" s:pid="Y"/></g><g s:type="outputExt" transform="translate(1277,236.5)" s:width="30" s:height="20" id="cell_Y"><text x="15" y="-4" class="nodelabel cell_Y" s:attribute="ref">Y</text><s:alias val="$_outputExt_"/><path d="M30,0 L30,20 L15,20 L0,10 L15,0 Z" class="cell_Y"/><g s:x="0" s:y="10" s:pid="A"/></g><g s:type="join" transform="translate(1195,226)" s:width="4" s:height="40" id="cell_$join$,19,20,21,22,23,24,25,26,"><rect width="5" height="160" class="splitjoinBody" s:generic="body"/><s:alias val="$_join_"/><g s:x="5" s:y="20" s:pid="out"/><g transform="translate(0,10)" s:x="0" s:y="10" s:pid="in0"><text x="-3" y="-4" class="inputPortLabel">0</text></g><g transform="translate(0,30)" s:x="0" s:y="10" s:pid="in0"><text x="-3" y="-4" class="inputPortLabel">1</text></g><g transform="translate(0,50)" s:x="0" s:y="10" s:pid="in0"><text x="-3" y="-4" class="inputPortLabel">2</text></g><g transform="translate(0,70)" s:x="0" s:y="10" s:pid="in0"><text x="-3" y="-4" class="inputPortLabel">3</text></g><g transform="translate(0,90)" s:x="0" s:y="10" s:pid="in0"><text x="-3" y="-4" class="inputPortLabel">4</text></g><g transform="translate(0,110)" s:x="0" s:y="10" s:pid="in0"><text x="-3" y="-4" class="inputPortLabel">5</text></g><g transform="translate(0,130)" s:x="0" s:y="10" s:pid="in0"><text x="-3" y="-4" class="inputPortLabel">6</text></g><g transform="translate(0,150)" s:x="0" s:y="10" s:pid="in0"><text x="-3" y="-4" class="inputPortLabel">7</text></g></g><g s:type="split" transform="translate(202.8571428571429,178)" s:width="5" s:height="40" id="cell_$split$,10,11,12,13,14,15,16,17,"><rect width="5" height="160" class="splitjoinBody" s:generic="body"/><s:alias val="$_split_"/><g s:x="0" s:y="20" s:pid="in"/><g transform="translate(4,10)" s:x="4" s:y="10" s:pid="out0"><text x="5" y="-4">0</text></g><g transform="translate(4,30)" s:x="4" s:y="10" s:pid="out0"><text x="5" y="-4">1</text></g><g transform="translate(4,50)" s:x="4" s:y="10" s:pid="out0"><text x="5" y="-4">2</text></g><g transform="translate(4,70)" s:x="4" s:y="10" s:pid="out0"><text x="5" y="-4">3</text></g><g transform="translate(4,90)" s:x="4" s:y="10" s:pid="out0"><text x="5" y="-4">4</text></g><g transform="translate(4,110)" s:x="4" s:y="10" s:pid="out0"><text x="5" y="-4">5</text></g><g transform="translate(4,130)" s:x="4" s:y="10" s:pid="out0"><text x="5" y="-4">6</text></g><g transform="translate(4,150)" s:x="4" s:y="10" s:pid="out0"><text x="5" y="-4">7</text></g></g><g s:type="split" transform="translate(202.8571428571429,550)" s:width="5" s:height="40" id="cell_$split$,2,3,4,5,6,7,8,9,"><rect width="5" height="160" class="splitjoinBody" s:generic="body"/><s:alias val="$_split_"/><g s:x="0" s:y="20" s:pid="in"/><g transform="translate(4,10)" s:x="4" s:y="10" s:pid="out0"><text x="5" y="-4">0</text></g><g transform="translate(4,30)" s:x="4" s:y="10" s:pid="out0"><text x="5" y="-4">1</text></g><g transform="translate(4,50)" s:x="4" s:y="10" s:pid="out0"><text x="5" y="-4">2</text></g><g transform="translate(4,70)" s:x="4" s:y="10" s:pid="out0"><text x="5" y="-4">3</text></g><g transform="translate(4,90)" s:x="4" s:y="10" s:pid="out0"><text x="5" y="-4">4</text></g><g transform="translate(4,110)" s:x="4" s:y="10" s:pid="out0"><text x="5" y="-4">5</text></g><g transform="translate(4,130)" s:x="4" s:y="10" s:pid="out0"><text x="5" y="-4">6</text></g><g transform="translate(4,150)" s:x="4" s:y="10" s:pid="out0"><text x="5" y="-4">7</text></g></g><line x1="107" x2="117" y1="120.5" y2="120.5" class="net_18 width_1" style="stroke-width: 1"/><line x1="117" x2="117" y1="120.5" y2="404.5" class="net_18 width_1" style="stroke-width: 1"/><circle cx="117" cy="120.5" r="2" style="fill:#000" class="net_18 width_1"/><circle cx="117" cy="404.5" r="2" style="fill:#000" class="net_18 width_1"/><line x1="117" x2="149" y1="404.5" y2="404.5" class="net_18 width_1" style="stroke-width: 1"/><line x1="107" x2="543" y1="120.5" y2="120.5" class="net_18 width_1" style="stroke-width: 1"/><line x1="543" x2="543" y1="120.5" y2="52.5" class="net_18 width_1" style="stroke-width: 1"/><circle cx="543" cy="120.5" r="2" style="fill:#000" class="net_18 width_1"/><line x1="543" x2="560" y1="52.5" y2="52.5" class="net_18 width_1" style="stroke-width: 1"/><line x1="107" x2="560" y1="120.5" y2="120.5" class="net_18 width_1" style="stroke-width: 1"/><line x1="107" x2="543" y1="120.5" y2="120.5" class="net_18 width_1" style="stroke-width: 1"/><line x1="543" x2="543" y1="120.5" y2="208.5" class="net_18 width_1" style="stroke-width: 1"/><circle cx="543" cy="208.5" r="2" style="fill:#000" class="net_18 width_1"/><line x1="543" x2="560" y1="208.5" y2="208.5" class="net_18 width_1" style="stroke-width: 1"/><line x1="107" x2="543" y1="120.5" y2="120.5" class="net_18 width_1" style="stroke-width: 1"/><line x1="543" x2="543" y1="120.5" y2="296.5" class="net_18 width_1" style="stroke-width: 1"/><line x1="543" x2="560" y1="296.5" y2="296.5" class="net_18 width_1" style="stroke-width: 1"/><line x1="107" x2="117" y1="120.5" y2="120.5" class="net_18 width_1" style="stroke-width: 1"/><line x1="117" x2="117" y1="120.5" y2="472.5" class="net_18 width_1" style="stroke-width: 1"/><circle cx="117" cy="472.5" r="2" style="fill:#000" class="net_18 width_1"/><line x1="117" x2="560" y1="472.5" y2="472.5" class="net_18 width_1" style="stroke-width: 1"/><line x1="107" x2="117" y1="120.5" y2="120.5" class="net_18 width_1" style="stroke-width: 1"/><line x1="117" x2="117" y1="120.5" y2="912.5" class="net_18 width_1" style="stroke-width: 1"/><line x1="117" x2="560" y1="912.5" y2="912.5" class="net_18 width_1" style="stroke-width: 1"/><line x1="107" x2="117" y1="120.5" y2="120.5" class="net_18 width_1" style="stroke-width: 1"/><line x1="117" x2="117" y1="120.5" y2="912.5" class="net_18 width_1" style="stroke-width: 1"/><line x1="117" x2="443" y1="912.5" y2="912.5" class="net_18 width_1" style="stroke-width: 1"/><line x1="443" x2="443" y1="912.5" y2="1088.5" class="net_18 width_1" style="stroke-width: 1"/><circle cx="443" cy="912.5" r="2" style="fill:#000" class="net_18 width_1"/><circle cx="443" cy="1088.5" r="2" style="fill:#000" class="net_18 width_1"/><line x1="443" x2="560" y1="1088.5" y2="1088.5" class="net_18 width_1" style="stroke-width: 1"/><line x1="107" x2="117" y1="120.5" y2="120.5" class="net_18 width_1" style="stroke-width: 1"/><line x1="117" x2="117" y1="120.5" y2="912.5" class="net_18 width_1" style="stroke-width: 1"/><line x1="117" x2="443" y1="912.5" y2="912.5" class="net_18 width_1" style="stroke-width: 1"/><line x1="443" x2="443" y1="912.5" y2="1264.5" class="net_18 width_1" style="stroke-width: 1"/><line x1="443" x2="560" y1="1264.5" y2="1264.5" class="net_18 width_1" style="stroke-width: 1"/><line x1="207.3571428571429" x2="207.3571428571429" y1="188" y2="32.5" class="net_10 width_1" style="stroke-width: 1"/><line x1="207.3571428571429" x2="560" y1="32.5" y2="32.5" class="net_10 width_1" style="stroke-width: 1"/><line x1="207.3571428571429" x2="207.3571428571429" y1="560" y2="427" class="net_2 width_1" style="stroke-width: 1"/><line x1="207.3571428571429" x2="433" y1="427" y2="427" class="net_2 width_1" style="stroke-width: 1"/><line x1="433" x2="433" y1="427" y2="384.5" class="net_2 width_1" style="stroke-width: 1"/><line x1="433" x2="560" y1="384.5" y2="384.5" class="net_2 width_1" style="stroke-width: 1"/><line x1="180" x2="560" y1="404.5" y2="404.5" class="net_27 width_1" style="stroke-width: 1"/><line x1="180" x2="513" y1="404.5" y2="404.5" class="net_27 width_1" style="stroke-width: 1"/><line x1="513" x2="513" y1="404.5" y2="560.5" class="net_27 width_1" style="stroke-width: 1"/><circle cx="513" cy="404.5" r="2" style="fill:#000" class="net_27 width_1"/><circle cx="513" cy="560.5" r="2" style="fill:#000" class="net_27 width_1"/><line x1="513" x2="560" y1="560.5" y2="560.5" class="net_27 width_1" style="stroke-width: 1"/><line x1="180" x2="513" y1="404.5" y2="404.5" class="net_27 width_1" style="stroke-width: 1"/><line x1="513" x2="513" y1="404.5" y2="648.5" class="net_27 width_1" style="stroke-width: 1"/><circle cx="513" cy="648.5" r="2" style="fill:#000" class="net_27 width_1"/><line x1="513" x2="560" y1="648.5" y2="648.5" class="net_27 width_1" style="stroke-width: 1"/><line x1="180" x2="513" y1="404.5" y2="404.5" class="net_27 width_1" style="stroke-width: 1"/><line x1="513" x2="513" y1="404.5" y2="736.5" class="net_27 width_1" style="stroke-width: 1"/><circle cx="513" cy="736.5" r="2" style="fill:#000" class="net_27 width_1"/><line x1="513" x2="560" y1="736.5" y2="736.5" class="net_27 width_1" style="stroke-width: 1"/><line x1="180" x2="513" y1="404.5" y2="404.5" class="net_27 width_1" style="stroke-width: 1"/><line x1="513" x2="513" y1="404.5" y2="824.5" class="net_27 width_1" style="stroke-width: 1"/><circle cx="513" cy="824.5" r="2" style="fill:#000" class="net_27 width_1"/><line x1="513" x2="560" y1="824.5" y2="824.5" class="net_27 width_1" style="stroke-width: 1"/><line x1="180" x2="513" y1="404.5" y2="404.5" class="net_27 width_1" style="stroke-width: 1"/><line x1="513" x2="513" y1="404.5" y2="1000.5" class="net_27 width_1" style="stroke-width: 1"/><circle cx="513" cy="1000.5" r="2" style="fill:#000" class="net_27 width_1"/><line x1="513" x2="560" y1="1000.5" y2="1000.5" class="net_27 width_1" style="stroke-width: 1"/><line x1="180" x2="513" y1="404.5" y2="404.5" class="net_27 width_1" style="stroke-width: 1"/><line x1="513" x2="513" y1="404.5" y2="1176.5" class="net_27 width_1" style="stroke-width: 1"/><circle cx="513" cy="1176.5" r="2" style="fill:#000" class="net_27 width_1"/><line x1="513" x2="560" y1="1176.5" y2="1176.5" class="net_27 width_1" style="stroke-width: 1"/><line x1="180" x2="513" y1="404.5" y2="404.5" class="net_27 width_1" style="stroke-width: 1"/><line x1="513" x2="513" y1="404.5" y2="1352.5" class="net_27 width_1" style="stroke-width: 1"/><line x1="513" x2="560" y1="1352.5" y2="1352.5" class="net_27 width_1" style="stroke-width: 1"/><line x1="591" x2="891" y1="32.5" y2="32.5" class="net_28 width_1" style="stroke-width: 1"/><line x1="591" x2="834" y1="384.5" y2="384.5" class="net_29 width_1" style="stroke-width: 1"/><line x1="834" x2="834" y1="384.5" y2="52.5" class="net_29 width_1" style="stroke-width: 1"/><line x1="834" x2="891" y1="52.5" y2="52.5" class="net_29 width_1" style="stroke-width: 1"/><line x1="207.8571428571429" x2="423" y1="208.5" y2="208.5" class="net_11 width_1" style="stroke-width: 1"/><line x1="423" x2="423" y1="208.5" y2="140.5" class="net_11 width_1" style="stroke-width: 1"/><line x1="423" x2="560" y1="140.5" y2="140.5" class="net_11 width_1" style="stroke-width: 1"/><line x1="207.8571428571429" x2="560" y1="580.5" y2="580.5" class="net_3 width_1" style="stroke-width: 1"/><line x1="591" x2="891" y1="120.5" y2="120.5" class="net_30 width_1" style="stroke-width: 1"/><line x1="591" x2="844" y1="560.5" y2="560.5" class="net_31 width_1" style="stroke-width: 1"/><line x1="844" x2="844" y1="560.5" y2="140.5" class="net_31 width_1" style="stroke-width: 1"/><line x1="844" x2="891" y1="140.5" y2="140.5" class="net_31 width_1" style="stroke-width: 1"/><line x1="207.8571428571429" x2="560" y1="228.5" y2="228.5" class="net_12 width_1" style="stroke-width: 1"/><line x1="207.8571428571429" x2="493" y1="600.5" y2="600.5" class="net_4 width_1" style="stroke-width: 1"/><line x1="493" x2="493" y1="600.5" y2="668.5" class="net_4 width_1" style="stroke-width: 1"/><line x1="493" x2="560" y1="668.5" y2="668.5" class="net_4 width_1" style="stroke-width: 1"/><line x1="591" x2="891" y1="208.5" y2="208.5" class="net_32 width_1" style="stroke-width: 1"/><line x1="591" x2="854" y1="648.5" y2="648.5" class="net_33 width_1" style="stroke-width: 1"/><line x1="854" x2="854" y1="648.5" y2="228.5" class="net_33 width_1" style="stroke-width: 1"/><line x1="854" x2="891" y1="228.5" y2="228.5" class="net_33 width_1" style="stroke-width: 1"/><line x1="207.8571428571429" x2="533" y1="248.5" y2="248.5" class="net_13 width_1" style="stroke-width: 1"/><line x1="533" x2="533" y1="248.5" y2="316.5" class="net_13 width_1" style="stroke-width: 1"/><line x1="533" x2="560" y1="316.5" y2="316.5" class="net_13 width_1" style="stroke-width: 1"/><line x1="207.8571428571429" x2="473" y1="620.5" y2="620.5" class="net_5 width_1" style="stroke-width: 1"/><line x1="473" x2="473" y1="620.5" y2="756.5" class="net_5 width_1" style="stroke-width: 1"/><line x1="473" x2="560" y1="756.5" y2="756.5" class="net_5 width_1" style="stroke-width: 1"/><line x1="591" x2="891" y1="296.5" y2="296.5" class="net_34 width_1" style="stroke-width: 1"/><line x1="591" x2="864" y1="736.5" y2="736.5" class="net_35 width_1" style="stroke-width: 1"/><line x1="864" x2="864" y1="736.5" y2="316.5" class="net_35 width_1" style="stroke-width: 1"/><line x1="864" x2="891" y1="316.5" y2="316.5" class="net_35 width_1" style="stroke-width: 1"/><line x1="207.8571428571429" x2="523" y1="268.5" y2="268.5" class="net_14 width_1" style="stroke-width: 1"/><line x1="523" x2="523" y1="268.5" y2="492.5" class="net_14 width_1" style="stroke-width: 1"/><line x1="523" x2="560" y1="492.5" y2="492.5" class="net_14 width_1" style="stroke-width: 1"/><line x1="207.8571428571429" x2="463" y1="640.5" y2="640.5" class="net_6 width_1" style="stroke-width: 1"/><line x1="463" x2="463" y1="640.5" y2="844.5" class="net_6 width_1" style="stroke-width: 1"/><line x1="463" x2="560" y1="844.5" y2="844.5" class="net_6 width_1" style="stroke-width: 1"/><line x1="591" x2="891" y1="472.5" y2="472.5" class="net_36 width_1" style="stroke-width: 1"/><line x1="591" x2="874" y1="824.5" y2="824.5" class="net_37 width_1" style="stroke-width: 1"/><line x1="874" x2="874" y1="824.5" y2="492.5" class="net_37 width_1" style="stroke-width: 1"/><line x1="874" x2="891" y1="492.5" y2="492.5" class="net_37 width_1" style="stroke-width: 1"/><line x1="207.8571428571429" x2="503" y1="288.5" y2="288.5" class="net_15 width_1" style="stroke-width: 1"/><line x1="503" x2="503" y1="288.5" y2="932.5" class="net_15 width_1" style="stroke-width: 1"/><line x1="503" x2="560" y1="932.5" y2="932.5" class="net_15 width_1" style="stroke-width: 1"/><line x1="207.8571428571429" x2="453" y1="660.5" y2="660.5" class="net_7 width_1" style="stroke-width: 1"/><line x1="453" x2="453" y1="660.5" y2="1020.5" class="net_7 width_1" style="stroke-width: 1"/><line x1="453" x2="560" y1="1020.5" y2="1020.5" class="net_7 width_1" style="stroke-width: 1"/><line x1="591" x2="891" y1="912.5" y2="912.5" class="net_38 width_1" style="stroke-width: 1"/><line x1="591" x2="834" y1="1000.5" y2="1000.5" class="net_39 width_1" style="stroke-width: 1"/><line x1="834" x2="834" y1="1000.5" y2="932.5" class="net_39 width_1" style="stroke-width: 1"/><line x1="834" x2="891" y1="932.5" y2="932.5" class="net_39 width_1" style="stroke-width: 1"/><line x1="207.8571428571429" x2="483" y1="308.5" y2="308.5" class="net_16 width_1" style="stroke-width: 1"/><line x1="483" x2="483" y1="308.5" y2="1108.5" class="net_16 width_1" style="stroke-width: 1"/><line x1="483" x2="560" y1="1108.5" y2="1108.5" class="net_16 width_1" style="stroke-width: 1"/><line x1="207.8571428571429" x2="433" y1="680.5" y2="680.5" class="net_8 width_1" style="stroke-width: 1"/><line x1="433" x2="433" y1="680.5" y2="1196.5" class="net_8 width_1" style="stroke-width: 1"/><line x1="433" x2="560" y1="1196.5" y2="1196.5" class="net_8 width_1" style="stroke-width: 1"/><line x1="591" x2="891" y1="1088.5" y2="1088.5" class="net_40 width_1" style="stroke-width: 1"/><line x1="591" x2="834" y1="1176.5" y2="1176.5" class="net_41 width_1" style="stroke-width: 1"/><line x1="834" x2="834" y1="1176.5" y2="1108.5" class="net_41 width_1" style="stroke-width: 1"/><line x1="834" x2="891" y1="1108.5" y2="1108.5" class="net_41 width_1" style="stroke-width: 1"/><line x1="207.3571428571429" x2="207.3571428571429" y1="329" y2="348" class="net_17 width_1" style="stroke-width: 1"/><line x1="207.3571428571429" x2="423" y1="348" y2="348" class="net_17 width_1" style="stroke-width: 1"/><line x1="423" x2="423" y1="348" y2="1284.5" class="net_17 width_1" style="stroke-width: 1"/><line x1="423" x2="560" y1="1284.5" y2="1284.5" class="net_17 width_1" style="stroke-width: 1"/><line x1="207.3571428571429" x2="207.3571428571429" y1="701" y2="1372.5" class="net_9 width_1" style="stroke-width: 1"/><line x1="207.3571428571429" x2="560" y1="1372.5" y2="1372.5" class="net_9 width_1" style="stroke-width: 1"/><line x1="591" x2="891" y1="1264.5" y2="1264.5" class="net_42 width_1" style="stroke-width: 1"/><line x1="591" x2="834" y1="1352.5" y2="1352.5" class="net_43 width_1" style="stroke-width: 1"/><line x1="834" x2="834" y1="1352.5" y2="1284.5" class="net_43 width_1" style="stroke-width: 1"/><line x1="834" x2="891" y1="1284.5" y2="1284.5" class="net_43 width_1" style="stroke-width: 1"/><line x1="1201" x2="1277" y1="246.5" y2="246.5" class="net_19,20,21,22,23,24,25,26 width_8" style="stroke-width: 2"/><line x1="922" x2="1195.5" y1="32.5" y2="32.5" class="net_19 width_1" style="stroke-width: 1"/><line x1="1195.5" x2="1195.5" y1="32.5" y2="236" class="net_19 width_1" style="stroke-width: 1"/><line x1="922" x2="1175" y1="120.5" y2="120.5" class="net_20 width_1" style="stroke-width: 1"/><line x1="1175" x2="1175" y1="120.5" y2="256.5" class="net_20 width_1" style="stroke-width: 1"/><line x1="1175" x2="1195" y1="256.5" y2="256.5" class="net_20 width_1" style="stroke-width: 1"/><line x1="922" x2="1165" y1="208.5" y2="208.5" class="net_21 width_1" style="stroke-width: 1"/><line x1="1165" x2="1165" y1="208.5" y2="276.5" class="net_21 width_1" style="stroke-width: 1"/><line x1="1165" x2="1195" y1="276.5" y2="276.5" class="net_21 width_1" style="stroke-width: 1"/><line x1="922" x2="1195" y1="296.5" y2="296.5" class="net_22 width_1" style="stroke-width: 1"/><line x1="922" x2="1165" y1="472.5" y2="472.5" class="net_23 width_1" style="stroke-width: 1"/><line x1="1165" x2="1165" y1="472.5" y2="316.5" class="net_23 width_1" style="stroke-width: 1"/><line x1="1165" x2="1195" y1="316.5" y2="316.5" class="net_23 width_1" style="stroke-width: 1"/><line x1="922" x2="1175" y1="912.5" y2="912.5" class="net_24 width_1" style="stroke-width: 1"/><line x1="1175" x2="1175" y1="912.5" y2="336.5" class="net_24 width_1" style="stroke-width: 1"/><line x1="1175" x2="1195" y1="336.5" y2="336.5" class="net_24 width_1" style="stroke-width: 1"/><line x1="922" x2="1185" y1="1088.5" y2="1088.5" class="net_25 width_1" style="stroke-width: 1"/><line x1="1185" x2="1185" y1="1088.5" y2="356.5" class="net_25 width_1" style="stroke-width: 1"/><line x1="1185" x2="1195" y1="356.5" y2="356.5" class="net_25 width_1" style="stroke-width: 1"/><line x1="922" x2="1195.5" y1="1264.5" y2="1264.5" class="net_26 width_1" style="stroke-width: 1"/><line x1="1195.5" x2="1195.5" y1="1264.5" y2="377" class="net_26 width_1" style="stroke-width: 1"/><line x1="42" x2="127" y1="59.5" y2="59.5" class="net_10,11,12,13,14,15,16,17 width_8" style="stroke-width: 2"/><line x1="127" x2="127" y1="59.5" y2="198.5" class="net_10,11,12,13,14,15,16,17 width_8" style="stroke-width: 2"/><line x1="127" x2="202.8571428571429" y1="198.5" y2="198.5" class="net_10,11,12,13,14,15,16,17 width_8" style="stroke-width: 2"/><line x1="42" x2="202.8571428571429" y1="570.5" y2="570.5" class="net_2,3,4,5,6,7,8,9 width_8" style="stroke-width: 2"/><rect x="1239" y="241.5" width="16" height="9" class="net_19,20,21,22,23,24,25,26 width_8 busLabel_8" style="fill: white; stroke: none"/><text x="1238" y="249.5" class="net_19,20,21,22,23,24,25,26 width_8 busLabel_8">/8/</text><rect x="91" y="54.5" width="16" height="9" class="net_10,11,12,13,14,15,16,17 width_8 busLabel_8" style="fill: white; stroke: none"/><text x="90" y="62.5" class="net_10,11,12,13,14,15,16,17 width_8 busLabel_8">/8/</text><rect x="91" y="565.5" width="16" height="9" class="net_2,3,4,5,6,7,8,9 width_8 busLabel_8" style="fill: white; stroke: none"/><text x="90" y="573.5" class="net_2,3,4,5,6,7,8,9 width_8 busLabel_8">/8/</text></svg>