<svg xmlns="http://www.w3.org/2000/svg" xmlns:xlink="http://www.w3.org/1999/xlink" xmlns:s="https://github.com/nturley/netlistsvg" width="441" height="398.5"><style>svg {
  stroke:#000;
  fill:none;
}
text {
  fill:#000;
  stroke:none;
  font-size:10px;
  font-weight: bold;
  font-family: "Courier New", monospace;
}
line {
    stroke-linecap: round;
}
.nodelabel {
  text-anchor: middle;
}
.inputPortLabel {
  text-anchor: end;
}
.splitjoinBody {
  fill:#000;
}</style><g s:type="NOR6" transform="translate(174,82)" s:width="30" s:height="25" id="cell_$abc$119$auto$blifparse.cc:386:parse_blif$120"><s:alias val="NOR6"/><s:alias val="$NOR6"/><path d="M0,0 A30 25 0 0 1 0,25 A30 25 0 0 0 30,12.5 A30 25 0 0 0 0,0" class="cell_$abc$119$auto$blifparse.cc:386:parse_blif$120"/><circle cx="33" cy="12.5" r="3" class="cell_$abc$119$auto$blifparse.cc:386:parse_blif$120"/><g s:x="1" s:y="3" s:pid="A"/><g s:x="3" s:y="7.75" s:pid="B"/><g s:x="3" s:y="12.5" s:pid="C"/><g s:x="1" s:y="17.25" s:pid="D"/><g s:x="1" s:y="22" s:pid="E"/><g s:x="1" s:y="22" s:pid="F"/><g s:x="36" s:y="12.5" s:pid="Y"/></g><g s:type="NOR4" transform="translate(174,212.5)" s:width="30" s:height="25" id="cell_$abc$119$auto$blifparse.cc:386:parse_blif$121"><s:alias val="NOR4"/><s:alias val="$NOR4"/><path d="M0,0 A30 25 0 0 1 0,25 A30 25 0 0 0 30,12.5 A30 25 0 0 0 0,0" class="cell_$abc$119$auto$blifparse.cc:386:parse_blif$121"/><circle cx="33" cy="12.5" r="3" class="cell_$abc$119$auto$blifparse.cc:386:parse_blif$121"/><g s:x="1" s:y="3" s:pid="A"/><g s:x="3" s:y="9.33" s:pid="B"/><g s:x="3" s:y="15.66" s:pid="C"/><g s:x="1" s:y="22" s:pid="D"/><g s:x="36" s:y="12.5" s:pid="Y"/></g><g s:type="NOR4" transform="translate(174,292.5)" s:width="30" s:height="25" id="cell_$abc$119$auto$blifparse.cc:386:parse_blif$122"><s:alias val="NOR4"/><s:alias val="$NOR4"/><path d="M0,0 A30 25 0 0 1 0,25 A30 25 0 0 0 30,12.5 A30 25 0 0 0 0,0" class="cell_$abc$119$auto$blifparse.cc:386:parse_blif$122"/><circle cx="33" cy="12.5" r="3" class="cell_$abc$119$auto$blifparse.cc:386:parse_blif$122"/><g s:x="1" s:y="3" s:pid="A"/><g s:x="3" s:y="9.33" s:pid="B"/><g s:x="3" s:y="15.66" s:pid="C"/><g s:x="1" s:y="22" s:pid="D"/><g s:x="36" s:y="12.5" s:pid="Y"/></g><g s:type="NAND3" transform="translate(245,212.5)" s:width="30" s:height="25" id="cell_$abc$119$auto$blifparse.cc:386:parse_blif$123"><s:alias val="NAND3"/><s:alias val="$NAND3"/><path d="M0,0 L0,25 L15,25 A15 12.5 0 0 0 15,0 Z" class="cell_$abc$119$auto$blifparse.cc:386:parse_blif$123"/><circle cx="34" cy="12.5" r="3" class="cell_$abc$119$auto$blifparse.cc:386:parse_blif$123"/><g s:x="0" s:y="3" s:pid="A"/><g s:x="0" s:y="12.5" s:pid="B"/><g s:x="0" s:y="22" s:pid="C"/><g s:x="36" s:y="12.5" s:pid="Y"/></g><g s:type="NOR3" transform="translate(316,361.5)" s:width="30" s:height="25" id="cell_$abc$119$auto$blifparse.cc:386:parse_blif$124"><s:alias val="NOR3"/><s:alias val="$NOR3"/><path d="M0,0 A30 25 0 0 1 0,25 A30 25 0 0 0 30,12.5 A30 25 0 0 0 0,0" class="cell_$abc$119$auto$blifparse.cc:386:parse_blif$124"/><circle cx="33" cy="12.5" r="3" class="cell_$abc$119$auto$blifparse.cc:386:parse_blif$124"/><g s:x="2" s:y="6" s:pid="A"/><g s:x="3" s:y="12.5" s:pid="B"/><g s:x="2" s:y="19" s:pid="C"/><g s:x="36" s:y="12.5" s:pid="Y"/></g><g s:type="inputExt" transform="translate(12,22)" s:width="30" s:height="20" id="cell_input0"><text x="15" y="-4" class="nodelabel cell_input0" s:attribute="ref">input0</text><s:alias val="$_inputExt_"/><path d="M0,0 L0,20 L15,20 L30,10 L15,0 Z" class="cell_input0"/><g s:x="30" s:y="10" s:pid="Y"/></g><g s:type="outputExt" transform="translate(387,364)" s:width="30" s:height="20" id="cell_boolean"><text x="15" y="-4" class="nodelabel cell_boolean" s:attribute="ref">boolean</text><s:alias val="$_outputExt_"/><path d="M30,0 L30,20 L15,20 L0,10 L15,0 Z" class="cell_boolean"/><g s:x="0" s:y="10" s:pid="A"/></g><g s:type="split" transform="translate(122,44)" s:width="5" s:height="40" id="cell_$split$,2,3,4,5,6,7,8,9,10,11,12,13,14,15,16,17,"><rect width="5" height="320" class="splitjoinBody" s:generic="body"/><s:alias val="$_split_"/><g s:x="0" s:y="20" s:pid="in"/><g transform="translate(4,10)" s:x="4" s:y="10" s:pid="out0"><text x="5" y="-4">1</text></g><g transform="translate(4,30)" s:x="4" s:y="10" s:pid="out0"><text x="5" y="-4">2</text></g><g transform="translate(4,50)" s:x="4" s:y="10" s:pid="out0"><text x="5" y="-4">8</text></g><g transform="translate(4,70)" s:x="4" s:y="10" s:pid="out0"><text x="5" y="-4">11</text></g><g transform="translate(4,90)" s:x="4" s:y="10" s:pid="out0"><text x="5" y="-4">13</text></g><g transform="translate(4,110)" s:x="4" s:y="10" s:pid="out0"><text x="5" y="-4">14</text></g><g transform="translate(4,130)" s:x="4" s:y="10" s:pid="out0"><text x="5" y="-4">4</text></g><g transform="translate(4,150)" s:x="4" s:y="10" s:pid="out0"><text x="5" y="-4">7</text></g><g transform="translate(4,170)" s:x="4" s:y="10" s:pid="out0"><text x="5" y="-4">9</text></g><g transform="translate(4,190)" s:x="4" s:y="10" s:pid="out0"><text x="5" y="-4">10</text></g><g transform="translate(4,210)" s:x="4" s:y="10" s:pid="out0"><text x="5" y="-4">0</text></g><g transform="translate(4,230)" s:x="4" s:y="10" s:pid="out0"><text x="5" y="-4">5</text></g><g transform="translate(4,250)" s:x="4" s:y="10" s:pid="out0"><text x="5" y="-4">6</text></g><g transform="translate(4,270)" s:x="4" s:y="10" s:pid="out0"><text x="5" y="-4">15</text></g><g transform="translate(4,290)" s:x="4" s:y="10" s:pid="out0"><text x="5" y="-4">3</text></g><g transform="translate(4,310)" s:x="4" s:y="10" s:pid="out0"><text x="5" y="-4">12</text></g></g><line x1="126.5" x2="126.5" y1="54" y2="12" class="net_3 width_1" style="stroke-width: 1"/><line x1="126.5" x2="154" y1="12" y2="12" class="net_3 width_1" style="stroke-width: 1"/><line x1="154" x2="154" y1="12" y2="85" class="net_3 width_1" style="stroke-width: 1"/><line x1="154" x2="175" y1="85" y2="85" class="net_3 width_1" style="stroke-width: 1"/><line x1="126.5" x2="126.5" y1="74" y2="22" class="net_4 width_1" style="stroke-width: 1"/><line x1="126.5" x2="144" y1="22" y2="22" class="net_4 width_1" style="stroke-width: 1"/><line x1="144" x2="144" y1="22" y2="89.75" class="net_4 width_1" style="stroke-width: 1"/><line x1="144" x2="177" y1="89.75" y2="89.75" class="net_4 width_1" style="stroke-width: 1"/><line x1="127" x2="177" y1="94.5" y2="94.5" class="net_10 width_1" style="stroke-width: 1"/><line x1="127" x2="144" y1="114.5" y2="114.5" class="net_13 width_1" style="stroke-width: 1"/><line x1="144" x2="144" y1="114.5" y2="99.25" class="net_13 width_1" style="stroke-width: 1"/><line x1="144" x2="175" y1="99.25" y2="99.25" class="net_13 width_1" style="stroke-width: 1"/><line x1="127" x2="154" y1="134.5" y2="134.5" class="net_15 width_1" style="stroke-width: 1"/><line x1="154" x2="154" y1="134.5" y2="104" class="net_15 width_1" style="stroke-width: 1"/><line x1="154" x2="175" y1="104" y2="104" class="net_15 width_1" style="stroke-width: 1"/><line x1="127" x2="164" y1="154.5" y2="154.5" class="net_16 width_1" style="stroke-width: 1"/><line x1="164" x2="164" y1="154.5" y2="104" class="net_16 width_1" style="stroke-width: 1"/><line x1="164" x2="175" y1="104" y2="104" class="net_16 width_1" style="stroke-width: 1"/><line x1="127" x2="164" y1="174.5" y2="174.5" class="net_6 width_1" style="stroke-width: 1"/><line x1="164" x2="164" y1="174.5" y2="215.5" class="net_6 width_1" style="stroke-width: 1"/><line x1="164" x2="175" y1="215.5" y2="215.5" class="net_6 width_1" style="stroke-width: 1"/><line x1="127" x2="154" y1="194.5" y2="194.5" class="net_9 width_1" style="stroke-width: 1"/><line x1="154" x2="154" y1="194.5" y2="221.83" class="net_9 width_1" style="stroke-width: 1"/><line x1="154" x2="177" y1="221.83" y2="221.83" class="net_9 width_1" style="stroke-width: 1"/><line x1="127" x2="144" y1="214.5" y2="214.5" class="net_11 width_1" style="stroke-width: 1"/><line x1="144" x2="144" y1="214.5" y2="228.16" class="net_11 width_1" style="stroke-width: 1"/><line x1="144" x2="177" y1="228.16" y2="228.16" class="net_11 width_1" style="stroke-width: 1"/><line x1="127" x2="175" y1="234.5" y2="234.5" class="net_12 width_1" style="stroke-width: 1"/><line x1="127" x2="164" y1="254.5" y2="254.5" class="net_2 width_1" style="stroke-width: 1"/><line x1="164" x2="164" y1="254.5" y2="295.5" class="net_2 width_1" style="stroke-width: 1"/><line x1="164" x2="175" y1="295.5" y2="295.5" class="net_2 width_1" style="stroke-width: 1"/><line x1="127" x2="154" y1="274.5" y2="274.5" class="net_7 width_1" style="stroke-width: 1"/><line x1="154" x2="154" y1="274.5" y2="301.83" class="net_7 width_1" style="stroke-width: 1"/><line x1="154" x2="177" y1="301.83" y2="301.83" class="net_7 width_1" style="stroke-width: 1"/><line x1="127" x2="144" y1="294.5" y2="294.5" class="net_8 width_1" style="stroke-width: 1"/><line x1="144" x2="144" y1="294.5" y2="308.16" class="net_8 width_1" style="stroke-width: 1"/><line x1="144" x2="177" y1="308.16" y2="308.16" class="net_8 width_1" style="stroke-width: 1"/><line x1="127" x2="175" y1="314.5" y2="314.5" class="net_17 width_1" style="stroke-width: 1"/><line x1="210" x2="220" y1="94.5" y2="94.5" class="net_19 width_1" style="stroke-width: 1"/><line x1="220" x2="220" y1="94.5" y2="215.5" class="net_19 width_1" style="stroke-width: 1"/><line x1="220" x2="245" y1="215.5" y2="215.5" class="net_19 width_1" style="stroke-width: 1"/><line x1="210" x2="245" y1="225" y2="225" class="net_20 width_1" style="stroke-width: 1"/><line x1="210" x2="220" y1="305" y2="305" class="net_21 width_1" style="stroke-width: 1"/><line x1="220" x2="220" y1="305" y2="234.5" class="net_21 width_1" style="stroke-width: 1"/><line x1="220" x2="245" y1="234.5" y2="234.5" class="net_21 width_1" style="stroke-width: 1"/><line x1="126.5" x2="126.5" y1="335" y2="385" class="net_5 width_1" style="stroke-width: 1"/><line x1="126.5" x2="291" y1="385" y2="385" class="net_5 width_1" style="stroke-width: 1"/><line x1="291" x2="291" y1="385" y2="367.5" class="net_5 width_1" style="stroke-width: 1"/><line x1="291" x2="318" y1="367.5" y2="367.5" class="net_5 width_1" style="stroke-width: 1"/><line x1="126.5" x2="126.5" y1="355" y2="374" class="net_14 width_1" style="stroke-width: 1"/><line x1="126.5" x2="319" y1="374" y2="374" class="net_14 width_1" style="stroke-width: 1"/><line x1="281" x2="301" y1="225" y2="225" class="net_22 width_1" style="stroke-width: 1"/><line x1="301" x2="301" y1="225" y2="380.5" class="net_22 width_1" style="stroke-width: 1"/><line x1="301" x2="318" y1="380.5" y2="380.5" class="net_22 width_1" style="stroke-width: 1"/><line x1="352" x2="387" y1="374" y2="374" class="net_18 width_1" style="stroke-width: 1"/><line x1="42" x2="122.5" y1="32" y2="32" class="net_2,3,4,5,6,7,8,9,10,11,12,13,14,15,16,17 width_16" style="stroke-width: 2"/><line x1="122.5" x2="122.5" y1="32" y2="64" class="net_2,3,4,5,6,7,8,9,10,11,12,13,14,15,16,17 width_16" style="stroke-width: 2"/><rect x="84" y="27" width="22" height="9" class="net_2,3,4,5,6,7,8,9,10,11,12,13,14,15,16,17 width_16 busLabel_16" style="fill: white; stroke: none"/><text x="83" y="35" class="net_2,3,4,5,6,7,8,9,10,11,12,13,14,15,16,17 width_16 busLabel_16">/16/</text></svg>