<svg xmlns="http://www.w3.org/2000/svg" xmlns:xlink="http://www.w3.org/1999/xlink" xmlns:s="https://github.com/nturley/netlistsvg" width="931" height="384.5"><style>svg {
  stroke:#000;
  fill:none;
}
text {
  fill:#000;
  stroke:none;
  font-size:10px;
  font-weight: bold;
  font-family: "Courier New", monospace;
}
line {
    stroke-linecap: round;
}
.nodelabel {
  text-anchor: middle;
}
.inputPortLabel {
  text-anchor: end;
}
.splitjoinBody {
  fill:#000;
}</style><g s:type="not" transform="translate(331,12)" s:width="30" s:height="20" id="cell_$abc$127$auto$blifparse.cc:386:parse_blif$128"><s:alias val="$_NOT_"/><s:alias val="$not"/><s:alias val="$logic_not"/><path d="M0,0 L0,20 L20,10 Z" class="cell_$abc$127$auto$blifparse.cc:386:parse_blif$128"/><circle cx="24" cy="10" r="3" class="cell_$abc$127$auto$blifparse.cc:386:parse_blif$128"/><g s:x="-1" s:y="10" s:pid="A"/><g s:x="27" s:y="10" s:pid="Y"/></g><g s:type="not" transform="translate(331,67)" s:width="30" s:height="20" id="cell_$abc$127$auto$blifparse.cc:386:parse_blif$129"><s:alias val="$_NOT_"/><s:alias val="$not"/><s:alias val="$logic_not"/><path d="M0,0 L0,20 L20,10 Z" class="cell_$abc$127$auto$blifparse.cc:386:parse_blif$129"/><circle cx="24" cy="10" r="3" class="cell_$abc$127$auto$blifparse.cc:386:parse_blif$129"/><g s:x="-1" s:y="10" s:pid="A"/><g s:x="27" s:y="10" s:pid="Y"/></g><g s:type="not" transform="translate(189,88)" s:width="30" s:height="20" id="cell_$abc$127$auto$blifparse.cc:386:parse_blif$130"><s:alias val="$_NOT_"/><s:alias val="$not"/><s:alias val="$logic_not"/><path d="M0,0 L0,20 L20,10 Z" class="cell_$abc$127$auto$blifparse.cc:386:parse_blif$130"/><circle cx="24" cy="10" r="3" class="cell_$abc$127$auto$blifparse.cc:386:parse_blif$130"/><g s:x="-1" s:y="10" s:pid="A"/><g s:x="27" s:y="10" s:pid="Y"/></g><g s:type="not" transform="translate(189,143)" s:width="30" s:height="20" id="cell_$abc$127$auto$blifparse.cc:386:parse_blif$131"><s:alias val="$_NOT_"/><s:alias val="$not"/><s:alias val="$logic_not"/><path d="M0,0 L0,20 L20,10 Z" class="cell_$abc$127$auto$blifparse.cc:386:parse_blif$131"/><circle cx="24" cy="10" r="3" class="cell_$abc$127$auto$blifparse.cc:386:parse_blif$131"/><g s:x="-1" s:y="10" s:pid="A"/><g s:x="27" s:y="10" s:pid="Y"/></g><g s:type="not" transform="translate(468,163)" s:width="30" s:height="20" id="cell_$abc$127$auto$blifparse.cc:386:parse_blif$132"><s:alias val="$_NOT_"/><s:alias val="$not"/><s:alias val="$logic_not"/><path d="M0,0 L0,20 L20,10 Z" class="cell_$abc$127$auto$blifparse.cc:386:parse_blif$132"/><circle cx="24" cy="10" r="3" class="cell_$abc$127$auto$blifparse.cc:386:parse_blif$132"/><g s:x="-1" s:y="10" s:pid="A"/><g s:x="27" s:y="10" s:pid="Y"/></g><g s:type="nand" transform="translate(396,282.5)" s:width="30" s:height="25" id="cell_$abc$127$auto$blifparse.cc:386:parse_blif$133"><s:alias val="$nand"/><s:alias val="$logic_nand"/><s:alias val="$_NAND_"/><path d="M0,0 L0,25 L15,25 A15 12.5 0 0 0 15,0 Z" class="cell_$abc$127$auto$blifparse.cc:386:parse_blif$133"/><circle cx="34" cy="12.5" r="3" class="cell_$abc$127$auto$blifparse.cc:386:parse_blif$133"/><g s:x="0" s:y="5" s:pid="A"/><g s:x="0" s:y="20" s:pid="B"/><g s:x="36" s:y="12.5" s:pid="Y"/></g><g s:type="not" transform="translate(468,285)" s:width="30" s:height="20" id="cell_$abc$127$auto$blifparse.cc:386:parse_blif$134"><s:alias val="$_NOT_"/><s:alias val="$not"/><s:alias val="$logic_not"/><path d="M0,0 L0,20 L20,10 Z" class="cell_$abc$127$auto$blifparse.cc:386:parse_blif$134"/><circle cx="24" cy="10" r="3" class="cell_$abc$127$auto$blifparse.cc:386:parse_blif$134"/><g s:x="-1" s:y="10" s:pid="A"/><g s:x="27" s:y="10" s:pid="Y"/></g><g s:type="nand" transform="translate(533,275)" s:width="30" s:height="25" id="cell_$abc$127$auto$blifparse.cc:386:parse_blif$135"><s:alias val="$nand"/><s:alias val="$logic_nand"/><s:alias val="$_NAND_"/><path d="M0,0 L0,25 L15,25 A15 12.5 0 0 0 15,0 Z" class="cell_$abc$127$auto$blifparse.cc:386:parse_blif$135"/><circle cx="34" cy="12.5" r="3" class="cell_$abc$127$auto$blifparse.cc:386:parse_blif$135"/><g s:x="0" s:y="5" s:pid="A"/><g s:x="0" s:y="20" s:pid="B"/><g s:x="36" s:y="12.5" s:pid="Y"/></g><g s:type="not" transform="translate(605,277.5)" s:width="30" s:height="20" id="cell_$abc$127$auto$blifparse.cc:386:parse_blif$136"><s:alias val="$_NOT_"/><s:alias val="$not"/><s:alias val="$logic_not"/><path d="M0,0 L0,20 L20,10 Z" class="cell_$abc$127$auto$blifparse.cc:386:parse_blif$136"/><circle cx="24" cy="10" r="3" class="cell_$abc$127$auto$blifparse.cc:386:parse_blif$136"/><g s:x="-1" s:y="10" s:pid="A"/><g s:x="27" s:y="10" s:pid="Y"/></g><g s:type="nand" transform="translate(396,57)" s:width="30" s:height="25" id="cell_$abc$127$auto$blifparse.cc:386:parse_blif$137"><s:alias val="$nand"/><s:alias val="$logic_nand"/><s:alias val="$_NAND_"/><path d="M0,0 L0,25 L15,25 A15 12.5 0 0 0 15,0 Z" class="cell_$abc$127$auto$blifparse.cc:386:parse_blif$137"/><circle cx="34" cy="12.5" r="3" class="cell_$abc$127$auto$blifparse.cc:386:parse_blif$137"/><g s:x="0" s:y="5" s:pid="A"/><g s:x="0" s:y="20" s:pid="B"/><g s:x="36" s:y="12.5" s:pid="Y"/></g><g s:type="not" transform="translate(468,59.5)" s:width="30" s:height="20" id="cell_$abc$127$auto$blifparse.cc:386:parse_blif$138"><s:alias val="$_NOT_"/><s:alias val="$not"/><s:alias val="$logic_not"/><path d="M0,0 L0,20 L20,10 Z" class="cell_$abc$127$auto$blifparse.cc:386:parse_blif$138"/><circle cx="24" cy="10" r="3" class="cell_$abc$127$auto$blifparse.cc:386:parse_blif$138"/><g s:x="-1" s:y="10" s:pid="A"/><g s:x="27" s:y="10" s:pid="Y"/></g><g s:type="nand" transform="translate(259,184)" s:width="30" s:height="25" id="cell_$abc$127$auto$blifparse.cc:386:parse_blif$139"><s:alias val="$nand"/><s:alias val="$logic_nand"/><s:alias val="$_NAND_"/><path d="M0,0 L0,25 L15,25 A15 12.5 0 0 0 15,0 Z" class="cell_$abc$127$auto$blifparse.cc:386:parse_blif$139"/><circle cx="34" cy="12.5" r="3" class="cell_$abc$127$auto$blifparse.cc:386:parse_blif$139"/><g s:x="0" s:y="5" s:pid="A"/><g s:x="0" s:y="20" s:pid="B"/><g s:x="36" s:y="12.5" s:pid="Y"/></g><g s:type="not" transform="translate(331,186.5)" s:width="30" s:height="20" id="cell_$abc$127$auto$blifparse.cc:386:parse_blif$140"><s:alias val="$_NOT_"/><s:alias val="$not"/><s:alias val="$logic_not"/><path d="M0,0 L0,20 L20,10 Z" class="cell_$abc$127$auto$blifparse.cc:386:parse_blif$140"/><circle cx="24" cy="10" r="3" class="cell_$abc$127$auto$blifparse.cc:386:parse_blif$140"/><g s:x="-1" s:y="10" s:pid="A"/><g s:x="27" s:y="10" s:pid="Y"/></g><g s:type="nand" transform="translate(259,230)" s:width="30" s:height="25" id="cell_$abc$127$auto$blifparse.cc:386:parse_blif$141"><s:alias val="$nand"/><s:alias val="$logic_nand"/><s:alias val="$_NAND_"/><path d="M0,0 L0,25 L15,25 A15 12.5 0 0 0 15,0 Z" class="cell_$abc$127$auto$blifparse.cc:386:parse_blif$141"/><circle cx="34" cy="12.5" r="3" class="cell_$abc$127$auto$blifparse.cc:386:parse_blif$141"/><g s:x="0" s:y="5" s:pid="A"/><g s:x="0" s:y="20" s:pid="B"/><g s:x="36" s:y="12.5" s:pid="Y"/></g><g s:type="not" transform="translate(331,232.5)" s:width="30" s:height="20" id="cell_$abc$127$auto$blifparse.cc:386:parse_blif$142"><s:alias val="$_NOT_"/><s:alias val="$not"/><s:alias val="$logic_not"/><path d="M0,0 L0,20 L20,10 Z" class="cell_$abc$127$auto$blifparse.cc:386:parse_blif$142"/><circle cx="24" cy="10" r="3" class="cell_$abc$127$auto$blifparse.cc:386:parse_blif$142"/><g s:x="-1" s:y="10" s:pid="A"/><g s:x="27" s:y="10" s:pid="Y"/></g><g s:type="nand" transform="translate(396,222.5)" s:width="30" s:height="25" id="cell_$abc$127$auto$blifparse.cc:386:parse_blif$143"><s:alias val="$nand"/><s:alias val="$logic_nand"/><s:alias val="$_NAND_"/><path d="M0,0 L0,25 L15,25 A15 12.5 0 0 0 15,0 Z" class="cell_$abc$127$auto$blifparse.cc:386:parse_blif$143"/><circle cx="34" cy="12.5" r="3" class="cell_$abc$127$auto$blifparse.cc:386:parse_blif$143"/><g s:x="0" s:y="5" s:pid="A"/><g s:x="0" s:y="20" s:pid="B"/><g s:x="36" s:y="12.5" s:pid="Y"/></g><g s:type="not" transform="translate(468,225)" s:width="30" s:height="20" id="cell_$abc$127$auto$blifparse.cc:386:parse_blif$144"><s:alias val="$_NOT_"/><s:alias val="$not"/><s:alias val="$logic_not"/><path d="M0,0 L0,20 L20,10 Z" class="cell_$abc$127$auto$blifparse.cc:386:parse_blif$144"/><circle cx="24" cy="10" r="3" class="cell_$abc$127$auto$blifparse.cc:386:parse_blif$144"/><g s:x="-1" s:y="10" s:pid="A"/><g s:x="27" s:y="10" s:pid="Y"/></g><g s:type="nand" transform="translate(533,215)" s:width="30" s:height="25" id="cell_$abc$127$auto$blifparse.cc:386:parse_blif$145"><s:alias val="$nand"/><s:alias val="$logic_nand"/><s:alias val="$_NAND_"/><path d="M0,0 L0,25 L15,25 A15 12.5 0 0 0 15,0 Z" class="cell_$abc$127$auto$blifparse.cc:386:parse_blif$145"/><circle cx="34" cy="12.5" r="3" class="cell_$abc$127$auto$blifparse.cc:386:parse_blif$145"/><g s:x="0" s:y="5" s:pid="A"/><g s:x="0" s:y="20" s:pid="B"/><g s:x="36" s:y="12.5" s:pid="Y"/></g><g s:type="not" transform="translate(605,217.5)" s:width="30" s:height="20" id="cell_$abc$127$auto$blifparse.cc:386:parse_blif$146"><s:alias val="$_NOT_"/><s:alias val="$not"/><s:alias val="$logic_not"/><path d="M0,0 L0,20 L20,10 Z" class="cell_$abc$127$auto$blifparse.cc:386:parse_blif$146"/><circle cx="24" cy="10" r="3" class="cell_$abc$127$auto$blifparse.cc:386:parse_blif$146"/><g s:x="-1" s:y="10" s:pid="A"/><g s:x="27" s:y="10" s:pid="Y"/></g><g s:type="nand" transform="translate(670,282.5)" s:width="30" s:height="25" id="cell_$abc$127$auto$blifparse.cc:386:parse_blif$147"><s:alias val="$nand"/><s:alias val="$logic_nand"/><s:alias val="$_NAND_"/><path d="M0,0 L0,25 L15,25 A15 12.5 0 0 0 15,0 Z" class="cell_$abc$127$auto$blifparse.cc:386:parse_blif$147"/><circle cx="34" cy="12.5" r="3" class="cell_$abc$127$auto$blifparse.cc:386:parse_blif$147"/><g s:x="0" s:y="5" s:pid="A"/><g s:x="0" s:y="20" s:pid="B"/><g s:x="36" s:y="12.5" s:pid="Y"/></g><g s:type="not" transform="translate(742,285)" s:width="30" s:height="20" id="cell_$abc$127$auto$blifparse.cc:386:parse_blif$148"><s:alias val="$_NOT_"/><s:alias val="$not"/><s:alias val="$logic_not"/><path d="M0,0 L0,20 L20,10 Z" class="cell_$abc$127$auto$blifparse.cc:386:parse_blif$148"/><circle cx="24" cy="10" r="3" class="cell_$abc$127$auto$blifparse.cc:386:parse_blif$148"/><g s:x="-1" s:y="10" s:pid="A"/><g s:x="27" s:y="10" s:pid="Y"/></g><g s:type="inputExt" transform="translate(12,182.5)" s:width="30" s:height="20" id="cell_A"><text x="15" y="-4" class="nodelabel cell_A" s:attribute="ref">A</text><s:alias val="$_inputExt_"/><path d="M0,0 L0,20 L15,20 L30,10 L15,0 Z" class="cell_A"/><g s:x="30" s:y="10" s:pid="Y"/></g><g s:type="outputExt" transform="translate(889,195.5)" s:width="30" s:height="20" id="cell_Y"><text x="15" y="-4" class="nodelabel cell_Y" s:attribute="ref">Y</text><s:alias val="$_outputExt_"/><path d="M30,0 L30,20 L15,20 L0,10 L15,0 Z" class="cell_Y"/><g s:x="0" s:y="10" s:pid="A"/></g><g s:type="constant" transform="translate(741,205.5)" s:width="30" s:height="20" id="cell_0"><text x="15" y="-4" class="nodelabel cell_0" s:attribute="ref">0</text><s:alias val="$_constant_"/><rect width="30" height="20" class="cell_0"/><g s:x="31" s:y="10" s:pid="Y"/></g><g s:type="constant" transform="translate(670,352.5)" s:width="30" s:height="20" id="cell_000"><text x="15" y="-4" class="nodelabel cell_000" s:attribute="ref">000</text><s:alias val="$_constant_"/><rect width="30" height="20" class="cell_000"/><g s:x="31" s:y="10" s:pid="Y"/></g><g s:type="join" transform="translate(807,185)" s:width="4" s:height="40" id="cell_$join$,11,32,11,33,34,35,11,"><rect width="5" height="100" class="splitjoinBody" s:generic="body"/><s:alias val="$_join_"/><g s:x="5" s:y="20" s:pid="out"/><g transform="translate(0,10)" s:x="0" s:y="10" s:pid="in0"><text x="-3" y="-4" class="inputPortLabel">0</text></g><g transform="translate(0,30)" s:x="0" s:y="10" s:pid="in0"><text x="-3" y="-4" class="inputPortLabel">1</text></g><g transform="translate(0,50)" s:x="0" s:y="10" s:pid="in0"><text x="-3" y="-4" class="inputPortLabel">2</text></g><g transform="translate(0,70)" s:x="0" s:y="10" s:pid="in0"><text x="-3" y="-4" class="inputPortLabel">3:5</text></g><g transform="translate(0,90)" s:x="0" s:y="10" s:pid="in0"><text x="-3" y="-4" class="inputPortLabel">6</text></g></g><g s:type="split" transform="translate(116,172)" s:width="5" s:height="40" id="cell_$split$,2,3,4,5,6,7,8,9,10,"><rect width="5" height="180" class="splitjoinBody" s:generic="body"/><s:alias val="$_split_"/><g s:x="0" s:y="20" s:pid="in"/><g transform="translate(4,10)" s:x="4" s:y="10" s:pid="out0"><text x="5" y="-4">1</text></g><g transform="translate(4,30)" s:x="4" s:y="10" s:pid="out0"><text x="5" y="-4">0</text></g><g transform="translate(4,50)" s:x="4" s:y="10" s:pid="out0"><text x="5" y="-4">3</text></g><g transform="translate(4,70)" s:x="4" s:y="10" s:pid="out0"><text x="5" y="-4">4</text></g><g transform="translate(4,90)" s:x="4" s:y="10" s:pid="out0"><text x="5" y="-4">6</text></g><g transform="translate(4,110)" s:x="4" s:y="10" s:pid="out0"><text x="5" y="-4">7</text></g><g transform="translate(4,130)" s:x="4" s:y="10" s:pid="out0"><text x="5" y="-4">8</text></g><g transform="translate(4,150)" s:x="4" s:y="10" s:pid="out0"><text x="5" y="-4">2</text></g><g transform="translate(4,170)" s:x="4" s:y="10" s:pid="out0"><text x="5" y="-4">5</text></g></g><line x1="120.5" x2="120.5" y1="182" y2="22" class="net_3 width_1" style="stroke-width: 1"/><line x1="120.5" x2="330" y1="22" y2="22" class="net_3 width_1" style="stroke-width: 1"/><line x1="121" x2="138" y1="202.5" y2="202.5" class="net_2 width_1" style="stroke-width: 1"/><line x1="138" x2="138" y1="202.5" y2="77" class="net_2 width_1" style="stroke-width: 1"/><line x1="138" x2="330" y1="77" y2="77" class="net_2 width_1" style="stroke-width: 1"/><line x1="121" x2="148" y1="222.5" y2="222.5" class="net_5 width_1" style="stroke-width: 1"/><line x1="148" x2="148" y1="222.5" y2="98" class="net_5 width_1" style="stroke-width: 1"/><line x1="148" x2="188" y1="98" y2="98" class="net_5 width_1" style="stroke-width: 1"/><line x1="121" x2="158" y1="242.5" y2="242.5" class="net_6 width_1" style="stroke-width: 1"/><line x1="158" x2="158" y1="242.5" y2="153" class="net_6 width_1" style="stroke-width: 1"/><line x1="158" x2="188" y1="153" y2="153" class="net_6 width_1" style="stroke-width: 1"/><line x1="121" x2="168" y1="262.5" y2="262.5" class="net_8 width_1" style="stroke-width: 1"/><line x1="168" x2="168" y1="262.5" y2="173" class="net_8 width_1" style="stroke-width: 1"/><line x1="168" x2="467" y1="173" y2="173" class="net_8 width_1" style="stroke-width: 1"/><line x1="121" x2="178" y1="282.5" y2="282.5" class="net_9 width_1" style="stroke-width: 1"/><line x1="178" x2="178" y1="282.5" y2="219" class="net_9 width_1" style="stroke-width: 1"/><line x1="178" x2="371" y1="219" y2="219" class="net_9 width_1" style="stroke-width: 1"/><line x1="371" x2="371" y1="219" y2="287.5" class="net_9 width_1" style="stroke-width: 1"/><line x1="371" x2="396" y1="287.5" y2="287.5" class="net_9 width_1" style="stroke-width: 1"/><line x1="121" x2="396" y1="302.5" y2="302.5" class="net_10 width_1" style="stroke-width: 1"/><line x1="432" x2="467" y1="295" y2="295" class="net_17 width_1" style="stroke-width: 1"/><line x1="495" x2="508" y1="173" y2="173" class="net_16 width_1" style="stroke-width: 1"/><line x1="508" x2="508" y1="173" y2="280" class="net_16 width_1" style="stroke-width: 1"/><line x1="508" x2="533" y1="280" y2="280" class="net_16 width_1" style="stroke-width: 1"/><line x1="495" x2="533" y1="295" y2="295" class="net_18 width_1" style="stroke-width: 1"/><line x1="569" x2="604" y1="287.5" y2="287.5" class="net_19 width_1" style="stroke-width: 1"/><line x1="358" x2="371" y1="22" y2="22" class="net_12 width_1" style="stroke-width: 1"/><line x1="371" x2="371" y1="22" y2="62" class="net_12 width_1" style="stroke-width: 1"/><line x1="371" x2="396" y1="62" y2="62" class="net_12 width_1" style="stroke-width: 1"/><line x1="358" x2="396" y1="77" y2="77" class="net_13 width_1" style="stroke-width: 1"/><line x1="432" x2="467" y1="69.5" y2="69.5" class="net_21 width_1" style="stroke-width: 1"/><line x1="216" x2="239" y1="98" y2="98" class="net_14 width_1" style="stroke-width: 1"/><line x1="239" x2="239" y1="98" y2="189" class="net_14 width_1" style="stroke-width: 1"/><line x1="239" x2="259" y1="189" y2="189" class="net_14 width_1" style="stroke-width: 1"/><line x1="121" x2="239" y1="322.5" y2="322.5" class="net_4 width_1" style="stroke-width: 1"/><line x1="239" x2="239" y1="322.5" y2="204" class="net_4 width_1" style="stroke-width: 1"/><line x1="239" x2="259" y1="204" y2="204" class="net_4 width_1" style="stroke-width: 1"/><line x1="295" x2="330" y1="196.5" y2="196.5" class="net_23 width_1" style="stroke-width: 1"/><line x1="216" x2="229" y1="153" y2="153" class="net_15 width_1" style="stroke-width: 1"/><line x1="229" x2="229" y1="153" y2="235" class="net_15 width_1" style="stroke-width: 1"/><line x1="229" x2="259" y1="235" y2="235" class="net_15 width_1" style="stroke-width: 1"/><line x1="120.5" x2="120.5" y1="343" y2="362" class="net_7 width_1" style="stroke-width: 1"/><line x1="120.5" x2="249" y1="362" y2="362" class="net_7 width_1" style="stroke-width: 1"/><line x1="249" x2="249" y1="362" y2="250" class="net_7 width_1" style="stroke-width: 1"/><line x1="249" x2="259" y1="250" y2="250" class="net_7 width_1" style="stroke-width: 1"/><line x1="295" x2="330" y1="242.5" y2="242.5" class="net_25 width_1" style="stroke-width: 1"/><line x1="358" x2="381" y1="196.5" y2="196.5" class="net_24 width_1" style="stroke-width: 1"/><line x1="381" x2="381" y1="196.5" y2="227.5" class="net_24 width_1" style="stroke-width: 1"/><line x1="381" x2="396" y1="227.5" y2="227.5" class="net_24 width_1" style="stroke-width: 1"/><line x1="358" x2="396" y1="242.5" y2="242.5" class="net_26 width_1" style="stroke-width: 1"/><line x1="432" x2="467" y1="235" y2="235" class="net_27 width_1" style="stroke-width: 1"/><line x1="495" x2="518" y1="69.5" y2="69.5" class="net_22 width_1" style="stroke-width: 1"/><line x1="518" x2="518" y1="69.5" y2="220" class="net_22 width_1" style="stroke-width: 1"/><line x1="518" x2="533" y1="220" y2="220" class="net_22 width_1" style="stroke-width: 1"/><line x1="495" x2="533" y1="235" y2="235" class="net_28 width_1" style="stroke-width: 1"/><line x1="569" x2="604" y1="227.5" y2="227.5" class="net_29 width_1" style="stroke-width: 1"/><line x1="632" x2="670" y1="287.5" y2="287.5" class="net_20 width_1" style="stroke-width: 1"/><line x1="632" x2="645" y1="227.5" y2="227.5" class="net_30 width_1" style="stroke-width: 1"/><line x1="645" x2="645" y1="227.5" y2="302.5" class="net_30 width_1" style="stroke-width: 1"/><line x1="645" x2="670" y1="302.5" y2="302.5" class="net_30 width_1" style="stroke-width: 1"/><line x1="706" x2="741" y1="295" y2="295" class="net_31 width_1" style="stroke-width: 1"/><line x1="813" x2="889" y1="205.5" y2="205.5" class="net_11,32,11,33,34,35,11 width_7" style="stroke-width: 2"/><line x1="769" x2="782" y1="295" y2="295" class="net_11 width_1" style="stroke-width: 1"/><line x1="782" x2="782" y1="295" y2="173" class="net_11 width_1" style="stroke-width: 1"/><line x1="782" x2="807.5" y1="173" y2="173" class="net_11 width_1" style="stroke-width: 1"/><circle cx="782" cy="295" r="2" style="fill:#000" class="net_11 width_1"/><line x1="807.5" x2="807.5" y1="173" y2="195" class="net_11 width_1" style="stroke-width: 1"/><line x1="769" x2="782" y1="295" y2="295" class="net_11 width_1" style="stroke-width: 1"/><line x1="782" x2="782" y1="295" y2="235.5" class="net_11 width_1" style="stroke-width: 1"/><circle cx="782" cy="235.5" r="2" style="fill:#000" class="net_11 width_1"/><line x1="782" x2="807" y1="235.5" y2="235.5" class="net_11 width_1" style="stroke-width: 1"/><line x1="769" x2="807.5" y1="295" y2="295" class="net_11 width_1" style="stroke-width: 1"/><line x1="807.5" x2="807.5" y1="295" y2="276" class="net_11 width_1" style="stroke-width: 1"/><line x1="772" x2="807" y1="215.5" y2="215.5" class="net_32 width_1" style="stroke-width: 1"/><line x1="701" x2="792" y1="362.5" y2="362.5" class="net_33,34,35 width_3" style="stroke-width: 2"/><line x1="792" x2="792" y1="362.5" y2="255.5" class="net_33,34,35 width_3" style="stroke-width: 2"/><line x1="792" x2="807" y1="255.5" y2="255.5" class="net_33,34,35 width_3" style="stroke-width: 2"/><line x1="42" x2="116" y1="192.5" y2="192.5" class="net_2,3,4,5,6,7,8,9,10 width_9" style="stroke-width: 2"/><rect x="851" y="200.5" width="16" height="9" class="net_11,32,11,33,34,35,11 width_7 busLabel_7" style="fill: white; stroke: none"/><text x="850" y="208.5" class="net_11,32,11,33,34,35,11 width_7 busLabel_7">/7/</text><rect x="755.5" y="357.5" width="16" height="9" class="net_33,34,35 width_3 busLabel_3" style="fill: white; stroke: none"/><text x="754.5" y="365.5" class="net_33,34,35 width_3 busLabel_3">/3/</text><rect x="78" y="187.5" width="16" height="9" class="net_2,3,4,5,6,7,8,9,10 width_9 busLabel_9" style="fill: white; stroke: none"/><text x="77" y="195.5" class="net_2,3,4,5,6,7,8,9,10 width_9 busLabel_9">/9/</text></svg>