<svg xmlns="http://www.w3.org/2000/svg" xmlns:xlink="http://www.w3.org/1999/xlink" xmlns:s="https://github.com/nturley/netlistsvg" width="438" height="248.5"><style>svg {
  stroke:#000;
  fill:none;
}
text {
  fill:#000;
  stroke:none;
  font-size:10px;
  font-weight: bold;
  font-family: "Courier New", monospace;
}
line {
    stroke-linecap: round;
}
.nodelabel {
  text-anchor: middle;
}
.inputPortLabel {
  text-anchor: end;
}
.splitjoinBody {
  fill:#000;
}</style><g s:type="NOT" transform="translate(169,12)" s:width="30" s:height="20" id="cell_$abc$127$auto$blifparse.cc:386:parse_blif$128"><s:alias val="NOT"/><s:alias val="$NOT"/><path d="M0,0 L0,20 L20,10 Z" class="cell_$abc$127$auto$blifparse.cc:386:parse_blif$128"/><circle cx="24" cy="10" r="3" class="cell_$abc$127$auto$blifparse.cc:386:parse_blif$128"/><g s:x="-1" s:y="10" s:pid="A"/><g s:x="27" s:y="10" s:pid="Y"/></g><g s:type="NOT" transform="translate(169,68.5)" s:width="30" s:height="20" id="cell_$abc$127$auto$blifparse.cc:386:parse_blif$129"><s:alias val="NOT"/><s:alias val="$NOT"/><path d="M0,0 L0,20 L20,10 Z" class="cell_$abc$127$auto$blifparse.cc:386:parse_blif$129"/><circle cx="24" cy="10" r="3" class="cell_$abc$127$auto$blifparse.cc:386:parse_blif$129"/><g s:x="-1" s:y="10" s:pid="A"/><g s:x="27" s:y="10" s:pid="Y"/></g><g s:type="NAND2" transform="translate(239,93.5)" s:width="30" s:height="25" id="cell_$abc$127$auto$blifparse.cc:386:parse_blif$130"><s:alias val="NAND2"/><s:alias val="$NAND2"/><path d="M0,0 L0,25 L15,25 A15 12.5 0 0 0 15,0 Z" class="cell_$abc$127$auto$blifparse.cc:386:parse_blif$130"/><circle cx="34" cy="12.5" r="3" class="cell_$abc$127$auto$blifparse.cc:386:parse_blif$130"/><g s:x="0" s:y="5" s:pid="A"/><g s:x="0" s:y="20" s:pid="B"/><g s:x="36" s:y="12.5" s:pid="Y"/></g><g s:type="NAND4" transform="translate(239,167)" s:width="30" s:height="25" id="cell_$abc$127$auto$blifparse.cc:386:parse_blif$131"><s:alias val="NAND4"/><s:alias val="$NAND4"/><path d="M0,0 L0,25 L15,25 A15 12.5 0 0 0 15,0 Z" class="cell_$abc$127$auto$blifparse.cc:386:parse_blif$131"/><circle cx="34" cy="12.5" r="3" class="cell_$abc$127$auto$blifparse.cc:386:parse_blif$131"/><g s:x="0" s:y="3" s:pid="A"/><g s:x="0" s:y="9.33" s:pid="B"/><g s:x="0" s:y="15.66" s:pid="C"/><g s:x="0" s:y="22" s:pid="D"/><g s:x="36" s:y="12.5" s:pid="Y"/></g><g s:type="NOR5" transform="translate(325,211.5)" s:width="30" s:height="25" id="cell_$abc$127$auto$blifparse.cc:386:parse_blif$132"><s:alias val="NOR5"/><s:alias val="$NOR5"/><path d="M0,0 A30 25 0 0 1 0,25 A30 25 0 0 0 30,12.5 A30 25 0 0 0 0,0" class="cell_$abc$127$auto$blifparse.cc:386:parse_blif$132"/><circle cx="33" cy="12.5" r="3" class="cell_$abc$127$auto$blifparse.cc:386:parse_blif$132"/><g s:x="1" s:y="3" s:pid="A"/><g s:x="3" s:y="7.75" s:pid="B"/><g s:x="3" s:y="12.5" s:pid="C"/><g s:x="3" s:y="17.25" s:pid="D"/><g s:x="1" s:y="22" s:pid="E"/><g s:x="36" s:y="12.5" s:pid="Y"/></g><g s:type="inputExt" transform="translate(12,44.5)" s:width="30" s:height="20" id="cell_A"><text x="15" y="-4" class="nodelabel cell_A" s:attribute="ref">A</text><s:alias val="$_inputExt_"/><path d="M0,0 L0,20 L15,20 L30,10 L15,0 Z" class="cell_A"/><g s:x="30" s:y="10" s:pid="Y"/></g><g s:type="outputExt" transform="translate(396,214)" s:width="30" s:height="20" id="cell_Y"><text x="15" y="-4" class="nodelabel cell_Y" s:attribute="ref">Y</text><s:alias val="$_outputExt_"/><path d="M30,0 L30,20 L15,20 L0,10 L15,0 Z" class="cell_Y"/><g s:x="0" s:y="10" s:pid="A"/></g><g s:type="split" transform="translate(116,34)" s:width="5" s:height="40" id="cell_$split$,2,3,4,5,6,7,8,9,10,"><rect width="5" height="180" class="splitjoinBody" s:generic="body"/><s:alias val="$_split_"/><g s:x="0" s:y="20" s:pid="in"/><g transform="translate(4,10)" s:x="4" s:y="10" s:pid="out0"><text x="5" y="-4">3</text></g><g transform="translate(4,30)" s:x="4" s:y="10" s:pid="out0"><text x="5" y="-4">4</text></g><g transform="translate(4,50)" s:x="4" s:y="10" s:pid="out0"><text x="5" y="-4">7</text></g><g transform="translate(4,70)" s:x="4" s:y="10" s:pid="out0"><text x="5" y="-4">8</text></g><g transform="translate(4,90)" s:x="4" s:y="10" s:pid="out0"><text x="5" y="-4">2</text></g><g transform="translate(4,110)" s:x="4" s:y="10" s:pid="out0"><text x="5" y="-4">5</text></g><g transform="translate(4,130)" s:x="4" s:y="10" s:pid="out0"><text x="5" y="-4">1</text></g><g transform="translate(4,150)" s:x="4" s:y="10" s:pid="out0"><text x="5" y="-4">0</text></g><g transform="translate(4,170)" s:x="4" s:y="10" s:pid="out0"><text x="5" y="-4">6</text></g></g><line x1="120.5" x2="120.5" y1="44" y2="22" class="net_5 width_1" style="stroke-width: 1"/><line x1="120.5" x2="168" y1="22" y2="22" class="net_5 width_1" style="stroke-width: 1"/><line x1="121" x2="138" y1="64.5" y2="64.5" class="net_6 width_1" style="stroke-width: 1"/><line x1="138" x2="138" y1="64.5" y2="78.5" class="net_6 width_1" style="stroke-width: 1"/><line x1="138" x2="168" y1="78.5" y2="78.5" class="net_6 width_1" style="stroke-width: 1"/><line x1="121" x2="138" y1="84.5" y2="84.5" class="net_9 width_1" style="stroke-width: 1"/><line x1="138" x2="138" y1="84.5" y2="98.5" class="net_9 width_1" style="stroke-width: 1"/><line x1="138" x2="239" y1="98.5" y2="98.5" class="net_9 width_1" style="stroke-width: 1"/><line x1="121" x2="138" y1="104.5" y2="104.5" class="net_10 width_1" style="stroke-width: 1"/><line x1="138" x2="138" y1="104.5" y2="113.5" class="net_10 width_1" style="stroke-width: 1"/><line x1="138" x2="239" y1="113.5" y2="113.5" class="net_10 width_1" style="stroke-width: 1"/><line x1="196" x2="229" y1="22" y2="22" class="net_12 width_1" style="stroke-width: 1"/><line x1="229" x2="229" y1="22" y2="170" class="net_12 width_1" style="stroke-width: 1"/><line x1="229" x2="239" y1="170" y2="170" class="net_12 width_1" style="stroke-width: 1"/><line x1="121" x2="219" y1="124.5" y2="124.5" class="net_4 width_1" style="stroke-width: 1"/><line x1="219" x2="219" y1="124.5" y2="176.32999999999998" class="net_4 width_1" style="stroke-width: 1"/><line x1="219" x2="239" y1="176.32999999999998" y2="176.33" class="net_4 width_1" style="stroke-width: 1"/><line x1="196" x2="209" y1="78.5" y2="78.5" class="net_13 width_1" style="stroke-width: 1"/><line x1="209" x2="209" y1="78.5" y2="182.66" class="net_13 width_1" style="stroke-width: 1"/><line x1="209" x2="239" y1="182.66" y2="182.66" class="net_13 width_1" style="stroke-width: 1"/><line x1="121" x2="158" y1="144.5" y2="144.5" class="net_7 width_1" style="stroke-width: 1"/><line x1="158" x2="158" y1="144.5" y2="189" class="net_7 width_1" style="stroke-width: 1"/><line x1="158" x2="239" y1="189" y2="189" class="net_7 width_1" style="stroke-width: 1"/><line x1="121" x2="148" y1="164.5" y2="164.5" class="net_3 width_1" style="stroke-width: 1"/><line x1="148" x2="148" y1="164.5" y2="202" class="net_3 width_1" style="stroke-width: 1"/><line x1="148" x2="305" y1="202" y2="202" class="net_3 width_1" style="stroke-width: 1"/><line x1="305" x2="305" y1="202" y2="214.5" class="net_3 width_1" style="stroke-width: 1"/><line x1="305" x2="326" y1="214.5" y2="214.5" class="net_3 width_1" style="stroke-width: 1"/><line x1="121" x2="138" y1="184.5" y2="184.5" class="net_2 width_1" style="stroke-width: 1"/><line x1="138" x2="138" y1="184.5" y2="213" class="net_2 width_1" style="stroke-width: 1"/><line x1="138" x2="295" y1="213" y2="213" class="net_2 width_1" style="stroke-width: 1"/><line x1="295" x2="295" y1="213" y2="219.25" class="net_2 width_1" style="stroke-width: 1"/><line x1="295" x2="328" y1="219.25" y2="219.25" class="net_2 width_1" style="stroke-width: 1"/><line x1="120.5" x2="120.5" y1="205" y2="224" class="net_8 width_1" style="stroke-width: 1"/><line x1="120.5" x2="328" y1="224" y2="224" class="net_8 width_1" style="stroke-width: 1"/><line x1="275" x2="315" y1="106" y2="106" class="net_14 width_1" style="stroke-width: 1"/><line x1="315" x2="315" y1="106" y2="228.75" class="net_14 width_1" style="stroke-width: 1"/><line x1="315" x2="328" y1="228.75" y2="228.75" class="net_14 width_1" style="stroke-width: 1"/><line x1="275" x2="285" y1="179.5" y2="179.5" class="net_15 width_1" style="stroke-width: 1"/><line x1="285" x2="285" y1="179.5" y2="233.5" class="net_15 width_1" style="stroke-width: 1"/><line x1="285" x2="326" y1="233.5" y2="233.5" class="net_15 width_1" style="stroke-width: 1"/><line x1="361" x2="396" y1="224" y2="224" class="net_11 width_1" style="stroke-width: 1"/><line x1="42" x2="116" y1="54.5" y2="54.5" class="net_2,3,4,5,6,7,8,9,10 width_9" style="stroke-width: 2"/><rect x="78" y="49.5" width="16" height="9" class="net_2,3,4,5,6,7,8,9,10 width_9 busLabel_9" style="fill: white; stroke: none"/><text x="77" y="57.5" class="net_2,3,4,5,6,7,8,9,10 width_9 busLabel_9">/9/</text></svg>