<svg xmlns="http://www.w3.org/2000/svg" xmlns:xlink="http://www.w3.org/1999/xlink" xmlns:s="https://github.com/nturley/netlistsvg" width="520" height="309.83"><style>svg {
  stroke:#000;
  fill:none;
}
text {
  fill:#000;
  stroke:none;
  font-size:10px;
  font-weight: bold;
  font-family: "Courier New", monospace;
}
line {
    stroke-linecap: round;
}
.nodelabel {
  text-anchor: middle;
}
.inputPortLabel {
  text-anchor: end;
}
.splitjoinBody {
  fill:#000;
}</style><g s:type="NOT" transform="translate(169,12)" s:width="30" s:height="20" id="cell_$abc$127$auto$blifparse.cc:386:parse_blif$128"><s:alias val="NOT"/><s:alias val="$NOT"/><path d="M0,0 L0,20 L20,10 Z" class="cell_$abc$127$auto$blifparse.cc:386:parse_blif$128"/><circle cx="24" cy="10" r="3" class="cell_$abc$127$auto$blifparse.cc:386:parse_blif$128"/><g s:x="-1" s:y="10" s:pid="A"/><g s:x="27" s:y="10" s:pid="Y"/></g><g s:type="NOT" transform="translate(169,67)" s:width="30" s:height="20" id="cell_$abc$127$auto$blifparse.cc:386:parse_blif$129"><s:alias val="NOT"/><s:alias val="$NOT"/><path d="M0,0 L0,20 L20,10 Z" class="cell_$abc$127$auto$blifparse.cc:386:parse_blif$129"/><circle cx="24" cy="10" r="3" class="cell_$abc$127$auto$blifparse.cc:386:parse_blif$129"/><g s:x="-1" s:y="10" s:pid="A"/><g s:x="27" s:y="10" s:pid="Y"/></g><g s:type="NAND2" transform="translate(239,88)" s:width="30" s:height="25" id="cell_$abc$127$auto$blifparse.cc:386:parse_blif$130"><s:alias val="NAND2"/><s:alias val="$NAND2"/><path d="M0,0 L0,25 L15,25 A15 12.5 0 0 0 15,0 Z" class="cell_$abc$127$auto$blifparse.cc:386:parse_blif$130"/><circle cx="34" cy="12.5" r="3" class="cell_$abc$127$auto$blifparse.cc:386:parse_blif$130"/><g s:x="0" s:y="5" s:pid="A"/><g s:x="0" s:y="20" s:pid="B"/><g s:x="36" s:y="12.5" s:pid="Y"/></g><g s:type="NAND4" transform="translate(239,148)" s:width="30" s:height="25" id="cell_$abc$127$auto$blifparse.cc:386:parse_blif$131"><s:alias val="NAND4"/><s:alias val="$NAND4"/><path d="M0,0 L0,25 L15,25 A15 12.5 0 0 0 15,0 Z" class="cell_$abc$127$auto$blifparse.cc:386:parse_blif$131"/><circle cx="34" cy="12.5" r="3" class="cell_$abc$127$auto$blifparse.cc:386:parse_blif$131"/><g s:x="0" s:y="3" s:pid="A"/><g s:x="0" s:y="9.33" s:pid="B"/><g s:x="0" s:y="15.66" s:pid="C"/><g s:x="0" s:y="22" s:pid="D"/><g s:x="36" s:y="12.5" s:pid="Y"/></g><g s:type="NOR5" transform="translate(325,194.32999999999998)" s:width="30" s:height="25" id="cell_$abc$127$auto$blifparse.cc:386:parse_blif$132"><s:alias val="NOR5"/><s:alias val="$NOR5"/><path d="M0,0 A30 25 0 0 1 0,25 A30 25 0 0 0 30,12.5 A30 25 0 0 0 0,0" class="cell_$abc$127$auto$blifparse.cc:386:parse_blif$132"/><circle cx="33" cy="12.5" r="3" class="cell_$abc$127$auto$blifparse.cc:386:parse_blif$132"/><g s:x="1" s:y="3" s:pid="A"/><g s:x="3" s:y="7.75" s:pid="B"/><g s:x="3" s:y="12.5" s:pid="C"/><g s:x="3" s:y="17.25" s:pid="D"/><g s:x="1" s:y="22" s:pid="E"/><g s:x="36" s:y="12.5" s:pid="Y"/></g><g s:type="inputExt" transform="translate(12,77.32999999999998)" s:width="30" s:height="20" id="cell_A"><text x="15" y="-4" class="nodelabel cell_A" s:attribute="ref">A</text><s:alias val="$_inputExt_"/><path d="M0,0 L0,20 L15,20 L30,10 L15,0 Z" class="cell_A"/><g s:x="30" s:y="10" s:pid="Y"/></g><g s:type="outputExt" transform="translate(478,107.32999999999998)" s:width="30" s:height="20" id="cell_Y"><text x="15" y="-4" class="nodelabel cell_Y" s:attribute="ref">Y</text><s:alias val="$_outputExt_"/><path d="M30,0 L30,20 L15,20 L0,10 L15,0 Z" class="cell_Y"/><g s:x="0" s:y="10" s:pid="A"/></g><g s:type="constant" transform="translate(325,117.32999999999998)" s:width="30" s:height="20" id="cell_0"><text x="15" y="-4" class="nodelabel cell_0" s:attribute="ref">0</text><s:alias val="$_constant_"/><rect width="30" height="20" class="cell_0"/><g s:x="31" s:y="10" s:pid="Y"/></g><g s:type="constant" transform="translate(239,277.83)" s:width="30" s:height="20" id="cell_000"><text x="15" y="-4" class="nodelabel cell_000" s:attribute="ref">000</text><s:alias val="$_constant_"/><rect width="30" height="20" class="cell_000"/><g s:x="31" s:y="10" s:pid="Y"/></g><g s:type="join" transform="translate(396,96.82999999999998)" s:width="4" s:height="40" id="cell_$join$,11,16,11,17,18,19,11,"><rect width="5" height="100" class="splitjoinBody" s:generic="body"/><s:alias val="$_join_"/><g s:x="5" s:y="20" s:pid="out"/><g transform="translate(0,10)" s:x="0" s:y="10" s:pid="in0"><text x="-3" y="-4" class="inputPortLabel">0</text></g><g transform="translate(0,30)" s:x="0" s:y="10" s:pid="in0"><text x="-3" y="-4" class="inputPortLabel">1</text></g><g transform="translate(0,50)" s:x="0" s:y="10" s:pid="in0"><text x="-3" y="-4" class="inputPortLabel">2</text></g><g transform="translate(0,70)" s:x="0" s:y="10" s:pid="in0"><text x="-3" y="-4" class="inputPortLabel">3:5</text></g><g transform="translate(0,90)" s:x="0" s:y="10" s:pid="in0"><text x="-3" y="-4" class="inputPortLabel">6</text></g></g><g s:type="split" transform="translate(116,66.82999999999998)" s:width="5" s:height="40" id="cell_$split$,2,3,4,5,6,7,8,9,10,"><rect width="5" height="180" class="splitjoinBody" s:generic="body"/><s:alias val="$_split_"/><g s:x="0" s:y="20" s:pid="in"/><g transform="translate(4,10)" s:x="4" s:y="10" s:pid="out0"><text x="5" y="-4">3</text></g><g transform="translate(4,30)" s:x="4" s:y="10" s:pid="out0"><text x="5" y="-4">4</text></g><g transform="translate(4,50)" s:x="4" s:y="10" s:pid="out0"><text x="5" y="-4">7</text></g><g transform="translate(4,70)" s:x="4" s:y="10" s:pid="out0"><text x="5" y="-4">8</text></g><g transform="translate(4,90)" s:x="4" s:y="10" s:pid="out0"><text x="5" y="-4">2</text></g><g transform="translate(4,110)" s:x="4" s:y="10" s:pid="out0"><text x="5" y="-4">5</text></g><g transform="translate(4,130)" s:x="4" s:y="10" s:pid="out0"><text x="5" y="-4">1</text></g><g transform="translate(4,150)" s:x="4" s:y="10" s:pid="out0"><text x="5" y="-4">0</text></g><g transform="translate(4,170)" s:x="4" s:y="10" s:pid="out0"><text x="5" y="-4">6</text></g></g><line x1="120.5" x2="120.5" y1="76.82999999999998" y2="22" class="net_5 width_1" style="stroke-width: 1"/><line x1="120.5" x2="168" y1="22" y2="22" class="net_5 width_1" style="stroke-width: 1"/><line x1="121" x2="138" y1="97.32999999999998" y2="97.32999999999998" class="net_6 width_1" style="stroke-width: 1"/><line x1="138" x2="138" y1="97.32999999999998" y2="77" class="net_6 width_1" style="stroke-width: 1"/><line x1="138" x2="168" y1="77" y2="77" class="net_6 width_1" style="stroke-width: 1"/><line x1="121" x2="148" y1="117.32999999999998" y2="117.32999999999998" class="net_9 width_1" style="stroke-width: 1"/><line x1="148" x2="148" y1="117.32999999999998" y2="97" class="net_9 width_1" style="stroke-width: 1"/><line x1="148" x2="219" y1="97" y2="97" class="net_9 width_1" style="stroke-width: 1"/><line x1="219" x2="219" y1="97" y2="93" class="net_9 width_1" style="stroke-width: 1"/><line x1="219" x2="239" y1="93" y2="93" class="net_9 width_1" style="stroke-width: 1"/><line x1="121" x2="158" y1="137.32999999999998" y2="137.32999999999998" class="net_10 width_1" style="stroke-width: 1"/><line x1="158" x2="158" y1="137.32999999999998" y2="108" class="net_10 width_1" style="stroke-width: 1"/><line x1="158" x2="239" y1="108" y2="108" class="net_10 width_1" style="stroke-width: 1"/><line x1="196" x2="229" y1="22" y2="22" class="net_12 width_1" style="stroke-width: 1"/><line x1="229" x2="229" y1="22" y2="151" class="net_12 width_1" style="stroke-width: 1"/><line x1="229" x2="239" y1="151" y2="151" class="net_12 width_1" style="stroke-width: 1"/><line x1="121" x2="239" y1="157.32999999999998" y2="157.33" class="net_4 width_1" style="stroke-width: 1"/><line x1="196" x2="209" y1="77" y2="77" class="net_13 width_1" style="stroke-width: 1"/><line x1="209" x2="209" y1="77" y2="163.65999999999997" class="net_13 width_1" style="stroke-width: 1"/><line x1="209" x2="239" y1="163.65999999999997" y2="163.66" class="net_13 width_1" style="stroke-width: 1"/><line x1="121" x2="209" y1="177.32999999999998" y2="177.32999999999998" class="net_7 width_1" style="stroke-width: 1"/><line x1="209" x2="209" y1="177.32999999999998" y2="170" class="net_7 width_1" style="stroke-width: 1"/><line x1="209" x2="239" y1="170" y2="170" class="net_7 width_1" style="stroke-width: 1"/><line x1="121" x2="326" y1="197.32999999999998" y2="197.32999999999998" class="net_3 width_1" style="stroke-width: 1"/><line x1="121" x2="285" y1="217.32999999999998" y2="217.32999999999998" class="net_2 width_1" style="stroke-width: 1"/><line x1="285" x2="285" y1="217.32999999999998" y2="202.07999999999998" class="net_2 width_1" style="stroke-width: 1"/><line x1="285" x2="328" y1="202.07999999999998" y2="202.07999999999998" class="net_2 width_1" style="stroke-width: 1"/><line x1="120.5" x2="120.5" y1="237.82999999999998" y2="256.83" class="net_8 width_1" style="stroke-width: 1"/><line x1="120.5" x2="305" y1="256.83" y2="256.83" class="net_8 width_1" style="stroke-width: 1"/><line x1="305" x2="305" y1="256.83" y2="206.82999999999998" class="net_8 width_1" style="stroke-width: 1"/><line x1="305" x2="328" y1="206.82999999999998" y2="206.82999999999998" class="net_8 width_1" style="stroke-width: 1"/><line x1="275" x2="315" y1="100.5" y2="100.5" class="net_14 width_1" style="stroke-width: 1"/><line x1="315" x2="315" y1="100.5" y2="211.57999999999998" class="net_14 width_1" style="stroke-width: 1"/><line x1="315" x2="328" y1="211.57999999999998" y2="211.57999999999998" class="net_14 width_1" style="stroke-width: 1"/><line x1="275" x2="295" y1="160.5" y2="160.5" class="net_15 width_1" style="stroke-width: 1"/><line x1="295" x2="295" y1="160.5" y2="216.32999999999998" class="net_15 width_1" style="stroke-width: 1"/><line x1="295" x2="326" y1="216.32999999999998" y2="216.32999999999998" class="net_15 width_1" style="stroke-width: 1"/><line x1="402" x2="478" y1="117.32999999999998" y2="117.32999999999998" class="net_11,16,11,17,18,19,11 width_7" style="stroke-width: 2"/><line x1="361" x2="371" y1="206.82999999999998" y2="206.82999999999998" class="net_11 width_1" style="stroke-width: 1"/><line x1="371" x2="371" y1="206.82999999999998" y2="84.82999999999998" class="net_11 width_1" style="stroke-width: 1"/><line x1="371" x2="396.5" y1="84.82999999999998" y2="84.82999999999998" class="net_11 width_1" style="stroke-width: 1"/><circle cx="371" cy="206.82999999999998" r="2" style="fill:#000" class="net_11 width_1"/><line x1="396.5" x2="396.5" y1="84.82999999999998" y2="106.82999999999998" class="net_11 width_1" style="stroke-width: 1"/><line x1="361" x2="371" y1="206.82999999999998" y2="206.82999999999998" class="net_11 width_1" style="stroke-width: 1"/><line x1="371" x2="371" y1="206.82999999999998" y2="147.32999999999998" class="net_11 width_1" style="stroke-width: 1"/><circle cx="371" cy="147.32999999999998" r="2" style="fill:#000" class="net_11 width_1"/><line x1="371" x2="396" y1="147.32999999999998" y2="147.32999999999998" class="net_11 width_1" style="stroke-width: 1"/><line x1="361" x2="396.5" y1="206.82999999999998" y2="206.82999999999998" class="net_11 width_1" style="stroke-width: 1"/><line x1="396.5" x2="396.5" y1="206.82999999999998" y2="187.82999999999998" class="net_11 width_1" style="stroke-width: 1"/><line x1="356" x2="396" y1="127.32999999999998" y2="127.32999999999998" class="net_16 width_1" style="stroke-width: 1"/><line x1="270" x2="381" y1="287.83" y2="287.83" class="net_17,18,19 width_3" style="stroke-width: 2"/><line x1="381" x2="381" y1="287.83" y2="167.32999999999998" class="net_17,18,19 width_3" style="stroke-width: 2"/><line x1="381" x2="396" y1="167.32999999999998" y2="167.32999999999998" class="net_17,18,19 width_3" style="stroke-width: 2"/><line x1="42" x2="116" y1="87.32999999999998" y2="87.32999999999998" class="net_2,3,4,5,6,7,8,9,10 width_9" style="stroke-width: 2"/><rect x="440" y="112.32999999999998" width="16" height="9" class="net_11,16,11,17,18,19,11 width_7 busLabel_7" style="fill: white; stroke: none"/><text x="439" y="120.32999999999998" class="net_11,16,11,17,18,19,11 width_7 busLabel_7">/7/</text><rect x="342" y="282.83" width="16" height="9" class="net_17,18,19 width_3 busLabel_3" style="fill: white; stroke: none"/><text x="341" y="290.83" class="net_17,18,19 width_3 busLabel_3">/3/</text><rect x="78" y="82.32999999999998" width="16" height="9" class="net_2,3,4,5,6,7,8,9,10 width_9 busLabel_9" style="fill: white; stroke: none"/><text x="77" y="90.32999999999998" class="net_2,3,4,5,6,7,8,9,10 width_9 busLabel_9">/9/</text></svg>