<svg xmlns="http://www.w3.org/2000/svg" xmlns:xlink="http://www.w3.org/1999/xlink" xmlns:s="https://github.com/nturley/netlistsvg" width="722" height="474.5"><style>svg {
  stroke:#000;
  fill:none;
}
text {
  fill:#000;
  stroke:none;
  font-size:10px;
  font-weight: bold;
  font-family: "Courier New", monospace;
}
line {
    stroke-linecap: round;
}
.nodelabel {
  text-anchor: middle;
}
.inputPortLabel {
  text-anchor: end;
}
.splitjoinBody {
  fill:#000;
}</style><g s:type="not" transform="translate(189,82)" s:width="30" s:height="20" id="cell_$abc$117$auto$blifparse.cc:386:parse_blif$118"><s:alias val="$_NOT_"/><s:alias val="$not"/><s:alias val="$logic_not"/><path d="M0,0 L0,20 L20,10 Z" class="cell_$abc$117$auto$blifparse.cc:386:parse_blif$118"/><circle cx="24" cy="10" r="3" class="cell_$abc$117$auto$blifparse.cc:386:parse_blif$118"/><g s:x="-1" s:y="10" s:pid="A"/><g s:x="27" s:y="10" s:pid="Y"/></g><g s:type="not" transform="translate(189,137)" s:width="30" s:height="20" id="cell_$abc$117$auto$blifparse.cc:386:parse_blif$119"><s:alias val="$_NOT_"/><s:alias val="$not"/><s:alias val="$logic_not"/><path d="M0,0 L0,20 L20,10 Z" class="cell_$abc$117$auto$blifparse.cc:386:parse_blif$119"/><circle cx="24" cy="10" r="3" class="cell_$abc$117$auto$blifparse.cc:386:parse_blif$119"/><g s:x="-1" s:y="10" s:pid="A"/><g s:x="27" s:y="10" s:pid="Y"/></g><g s:type="not" transform="translate(189,192)" s:width="30" s:height="20" id="cell_$abc$117$auto$blifparse.cc:386:parse_blif$120"><s:alias val="$_NOT_"/><s:alias val="$not"/><s:alias val="$logic_not"/><path d="M0,0 L0,20 L20,10 Z" class="cell_$abc$117$auto$blifparse.cc:386:parse_blif$120"/><circle cx="24" cy="10" r="3" class="cell_$abc$117$auto$blifparse.cc:386:parse_blif$120"/><g s:x="-1" s:y="10" s:pid="A"/><g s:x="27" s:y="10" s:pid="Y"/></g><g s:type="not" transform="translate(189,247)" s:width="30" s:height="20" id="cell_$abc$117$auto$blifparse.cc:386:parse_blif$121"><s:alias val="$_NOT_"/><s:alias val="$not"/><s:alias val="$logic_not"/><path d="M0,0 L0,20 L20,10 Z" class="cell_$abc$117$auto$blifparse.cc:386:parse_blif$121"/><circle cx="24" cy="10" r="3" class="cell_$abc$117$auto$blifparse.cc:386:parse_blif$121"/><g s:x="-1" s:y="10" s:pid="A"/><g s:x="27" s:y="10" s:pid="Y"/></g><g s:type="not" transform="translate(189,302)" s:width="30" s:height="20" id="cell_$abc$117$auto$blifparse.cc:386:parse_blif$122"><s:alias val="$_NOT_"/><s:alias val="$not"/><s:alias val="$logic_not"/><path d="M0,0 L0,20 L20,10 Z" class="cell_$abc$117$auto$blifparse.cc:386:parse_blif$122"/><circle cx="24" cy="10" r="3" class="cell_$abc$117$auto$blifparse.cc:386:parse_blif$122"/><g s:x="-1" s:y="10" s:pid="A"/><g s:x="27" s:y="10" s:pid="Y"/></g><g s:type="not" transform="translate(189,357)" s:width="30" s:height="20" id="cell_$abc$117$auto$blifparse.cc:386:parse_blif$123"><s:alias val="$_NOT_"/><s:alias val="$not"/><s:alias val="$logic_not"/><path d="M0,0 L0,20 L20,10 Z" class="cell_$abc$117$auto$blifparse.cc:386:parse_blif$123"/><circle cx="24" cy="10" r="3" class="cell_$abc$117$auto$blifparse.cc:386:parse_blif$123"/><g s:x="-1" s:y="10" s:pid="A"/><g s:x="27" s:y="10" s:pid="Y"/></g><g s:type="not" transform="translate(189,412)" s:width="30" s:height="20" id="cell_$abc$117$auto$blifparse.cc:386:parse_blif$124"><s:alias val="$_NOT_"/><s:alias val="$not"/><s:alias val="$logic_not"/><path d="M0,0 L0,20 L20,10 Z" class="cell_$abc$117$auto$blifparse.cc:386:parse_blif$124"/><circle cx="24" cy="10" r="3" class="cell_$abc$117$auto$blifparse.cc:386:parse_blif$124"/><g s:x="-1" s:y="10" s:pid="A"/><g s:x="27" s:y="10" s:pid="Y"/></g><g s:type="nand" transform="translate(269,292)" s:width="30" s:height="25" id="cell_$abc$117$auto$blifparse.cc:386:parse_blif$125"><s:alias val="$nand"/><s:alias val="$logic_nand"/><s:alias val="$_NAND_"/><path d="M0,0 L0,25 L15,25 A15 12.5 0 0 0 15,0 Z" class="cell_$abc$117$auto$blifparse.cc:386:parse_blif$125"/><circle cx="34" cy="12.5" r="3" class="cell_$abc$117$auto$blifparse.cc:386:parse_blif$125"/><g s:x="0" s:y="5" s:pid="A"/><g s:x="0" s:y="20" s:pid="B"/><g s:x="36" s:y="12.5" s:pid="Y"/></g><g s:type="not" transform="translate(341,294.5)" s:width="30" s:height="20" id="cell_$abc$117$auto$blifparse.cc:386:parse_blif$126"><s:alias val="$_NOT_"/><s:alias val="$not"/><s:alias val="$logic_not"/><path d="M0,0 L0,20 L20,10 Z" class="cell_$abc$117$auto$blifparse.cc:386:parse_blif$126"/><circle cx="24" cy="10" r="3" class="cell_$abc$117$auto$blifparse.cc:386:parse_blif$126"/><g s:x="-1" s:y="10" s:pid="A"/><g s:x="27" s:y="10" s:pid="Y"/></g><g s:type="nand" transform="translate(269,402)" s:width="30" s:height="25" id="cell_$abc$117$auto$blifparse.cc:386:parse_blif$127"><s:alias val="$nand"/><s:alias val="$logic_nand"/><s:alias val="$_NAND_"/><path d="M0,0 L0,25 L15,25 A15 12.5 0 0 0 15,0 Z" class="cell_$abc$117$auto$blifparse.cc:386:parse_blif$127"/><circle cx="34" cy="12.5" r="3" class="cell_$abc$117$auto$blifparse.cc:386:parse_blif$127"/><g s:x="0" s:y="5" s:pid="A"/><g s:x="0" s:y="20" s:pid="B"/><g s:x="36" s:y="12.5" s:pid="Y"/></g><g s:type="not" transform="translate(341,404.5)" s:width="30" s:height="20" id="cell_$abc$117$auto$blifparse.cc:386:parse_blif$128"><s:alias val="$_NOT_"/><s:alias val="$not"/><s:alias val="$logic_not"/><path d="M0,0 L0,20 L20,10 Z" class="cell_$abc$117$auto$blifparse.cc:386:parse_blif$128"/><circle cx="24" cy="10" r="3" class="cell_$abc$117$auto$blifparse.cc:386:parse_blif$128"/><g s:x="-1" s:y="10" s:pid="A"/><g s:x="27" s:y="10" s:pid="Y"/></g><g s:type="nand" transform="translate(406,394.5)" s:width="30" s:height="25" id="cell_$abc$117$auto$blifparse.cc:386:parse_blif$129"><s:alias val="$nand"/><s:alias val="$logic_nand"/><s:alias val="$_NAND_"/><path d="M0,0 L0,25 L15,25 A15 12.5 0 0 0 15,0 Z" class="cell_$abc$117$auto$blifparse.cc:386:parse_blif$129"/><circle cx="34" cy="12.5" r="3" class="cell_$abc$117$auto$blifparse.cc:386:parse_blif$129"/><g s:x="0" s:y="5" s:pid="A"/><g s:x="0" s:y="20" s:pid="B"/><g s:x="36" s:y="12.5" s:pid="Y"/></g><g s:type="not" transform="translate(478,397)" s:width="30" s:height="20" id="cell_$abc$117$auto$blifparse.cc:386:parse_blif$130"><s:alias val="$_NOT_"/><s:alias val="$not"/><s:alias val="$logic_not"/><path d="M0,0 L0,20 L20,10 Z" class="cell_$abc$117$auto$blifparse.cc:386:parse_blif$130"/><circle cx="24" cy="10" r="3" class="cell_$abc$117$auto$blifparse.cc:386:parse_blif$130"/><g s:x="-1" s:y="10" s:pid="A"/><g s:x="27" s:y="10" s:pid="Y"/></g><g s:type="nand" transform="translate(269,72)" s:width="30" s:height="25" id="cell_$abc$117$auto$blifparse.cc:386:parse_blif$131"><s:alias val="$nand"/><s:alias val="$logic_nand"/><s:alias val="$_NAND_"/><path d="M0,0 L0,25 L15,25 A15 12.5 0 0 0 15,0 Z" class="cell_$abc$117$auto$blifparse.cc:386:parse_blif$131"/><circle cx="34" cy="12.5" r="3" class="cell_$abc$117$auto$blifparse.cc:386:parse_blif$131"/><g s:x="0" s:y="5" s:pid="A"/><g s:x="0" s:y="20" s:pid="B"/><g s:x="36" s:y="12.5" s:pid="Y"/></g><g s:type="not" transform="translate(341,74.5)" s:width="30" s:height="20" id="cell_$abc$117$auto$blifparse.cc:386:parse_blif$132"><s:alias val="$_NOT_"/><s:alias val="$not"/><s:alias val="$logic_not"/><path d="M0,0 L0,20 L20,10 Z" class="cell_$abc$117$auto$blifparse.cc:386:parse_blif$132"/><circle cx="24" cy="10" r="3" class="cell_$abc$117$auto$blifparse.cc:386:parse_blif$132"/><g s:x="-1" s:y="10" s:pid="A"/><g s:x="27" s:y="10" s:pid="Y"/></g><g s:type="nand" transform="translate(269,12)" s:width="30" s:height="25" id="cell_$abc$117$auto$blifparse.cc:386:parse_blif$133"><s:alias val="$nand"/><s:alias val="$logic_nand"/><s:alias val="$_NAND_"/><path d="M0,0 L0,25 L15,25 A15 12.5 0 0 0 15,0 Z" class="cell_$abc$117$auto$blifparse.cc:386:parse_blif$133"/><circle cx="34" cy="12.5" r="3" class="cell_$abc$117$auto$blifparse.cc:386:parse_blif$133"/><g s:x="0" s:y="5" s:pid="A"/><g s:x="0" s:y="20" s:pid="B"/><g s:x="36" s:y="12.5" s:pid="Y"/></g><g s:type="not" transform="translate(341,14.5)" s:width="30" s:height="20" id="cell_$abc$117$auto$blifparse.cc:386:parse_blif$134"><s:alias val="$_NOT_"/><s:alias val="$not"/><s:alias val="$logic_not"/><path d="M0,0 L0,20 L20,10 Z" class="cell_$abc$117$auto$blifparse.cc:386:parse_blif$134"/><circle cx="24" cy="10" r="3" class="cell_$abc$117$auto$blifparse.cc:386:parse_blif$134"/><g s:x="-1" s:y="10" s:pid="A"/><g s:x="27" s:y="10" s:pid="Y"/></g><g s:type="nand" transform="translate(406,79.5)" s:width="30" s:height="25" id="cell_$abc$117$auto$blifparse.cc:386:parse_blif$135"><s:alias val="$nand"/><s:alias val="$logic_nand"/><s:alias val="$_NAND_"/><path d="M0,0 L0,25 L15,25 A15 12.5 0 0 0 15,0 Z" class="cell_$abc$117$auto$blifparse.cc:386:parse_blif$135"/><circle cx="34" cy="12.5" r="3" class="cell_$abc$117$auto$blifparse.cc:386:parse_blif$135"/><g s:x="0" s:y="5" s:pid="A"/><g s:x="0" s:y="20" s:pid="B"/><g s:x="36" s:y="12.5" s:pid="Y"/></g><g s:type="not" transform="translate(478,82)" s:width="30" s:height="20" id="cell_$abc$117$auto$blifparse.cc:386:parse_blif$136"><s:alias val="$_NOT_"/><s:alias val="$not"/><s:alias val="$logic_not"/><path d="M0,0 L0,20 L20,10 Z" class="cell_$abc$117$auto$blifparse.cc:386:parse_blif$136"/><circle cx="24" cy="10" r="3" class="cell_$abc$117$auto$blifparse.cc:386:parse_blif$136"/><g s:x="-1" s:y="10" s:pid="A"/><g s:x="27" s:y="10" s:pid="Y"/></g><g s:type="nand" transform="translate(543,402)" s:width="30" s:height="25" id="cell_$abc$117$auto$blifparse.cc:386:parse_blif$137"><s:alias val="$nand"/><s:alias val="$logic_nand"/><s:alias val="$_NAND_"/><path d="M0,0 L0,25 L15,25 A15 12.5 0 0 0 15,0 Z" class="cell_$abc$117$auto$blifparse.cc:386:parse_blif$137"/><circle cx="34" cy="12.5" r="3" class="cell_$abc$117$auto$blifparse.cc:386:parse_blif$137"/><g s:x="0" s:y="5" s:pid="A"/><g s:x="0" s:y="20" s:pid="B"/><g s:x="36" s:y="12.5" s:pid="Y"/></g><g s:type="not" transform="translate(615,404.5)" s:width="30" s:height="20" id="cell_$abc$117$auto$blifparse.cc:386:parse_blif$138"><s:alias val="$_NOT_"/><s:alias val="$not"/><s:alias val="$logic_not"/><path d="M0,0 L0,20 L20,10 Z" class="cell_$abc$117$auto$blifparse.cc:386:parse_blif$138"/><circle cx="24" cy="10" r="3" class="cell_$abc$117$auto$blifparse.cc:386:parse_blif$138"/><g s:x="-1" s:y="10" s:pid="A"/><g s:x="27" s:y="10" s:pid="Y"/></g><g s:type="inputExt" transform="translate(12,302)" s:width="30" s:height="20" id="cell_A"><text x="15" y="-4" class="nodelabel cell_A" s:attribute="ref">A</text><s:alias val="$_inputExt_"/><path d="M0,0 L0,20 L15,20 L30,10 L15,0 Z" class="cell_A"/><g s:x="30" s:y="10" s:pid="Y"/></g><g s:type="outputExt" transform="translate(680,404.5)" s:width="30" s:height="20" id="cell_Y"><text x="15" y="-4" class="nodelabel cell_Y" s:attribute="ref">Y</text><s:alias val="$_outputExt_"/><path d="M30,0 L30,20 L15,20 L0,10 L15,0 Z" class="cell_Y"/><g s:x="0" s:y="10" s:pid="A"/></g><g s:type="split" transform="translate(116,291.5)" s:width="5" s:height="40" id="cell_$split$,2,3,4,5,6,7,8,9,"><rect width="5" height="160" class="splitjoinBody" s:generic="body"/><s:alias val="$_split_"/><g s:x="0" s:y="20" s:pid="in"/><g transform="translate(4,10)" s:x="4" s:y="10" s:pid="out0"><text x="5" y="-4">1</text></g><g transform="translate(4,30)" s:x="4" s:y="10" s:pid="out0"><text x="5" y="-4">3</text></g><g transform="translate(4,50)" s:x="4" s:y="10" s:pid="out0"><text x="5" y="-4">2</text></g><g transform="translate(4,70)" s:x="4" s:y="10" s:pid="out0"><text x="5" y="-4">5</text></g><g transform="translate(4,90)" s:x="4" s:y="10" s:pid="out0"><text x="5" y="-4">4</text></g><g transform="translate(4,110)" s:x="4" s:y="10" s:pid="out0"><text x="5" y="-4">7</text></g><g transform="translate(4,130)" s:x="4" s:y="10" s:pid="out0"><text x="5" y="-4">6</text></g><g transform="translate(4,150)" s:x="4" s:y="10" s:pid="out0"><text x="5" y="-4">0</text></g></g><line x1="120.5" x2="120.5" y1="301.5" y2="92" class="net_3 width_1" style="stroke-width: 1"/><line x1="120.5" x2="188" y1="92" y2="92" class="net_3 width_1" style="stroke-width: 1"/><line x1="121" x2="138" y1="322" y2="322" class="net_5 width_1" style="stroke-width: 1"/><line x1="138" x2="138" y1="322" y2="147" class="net_5 width_1" style="stroke-width: 1"/><line x1="138" x2="188" y1="147" y2="147" class="net_5 width_1" style="stroke-width: 1"/><line x1="121" x2="148" y1="342" y2="342" class="net_4 width_1" style="stroke-width: 1"/><line x1="148" x2="148" y1="342" y2="202" class="net_4 width_1" style="stroke-width: 1"/><line x1="148" x2="188" y1="202" y2="202" class="net_4 width_1" style="stroke-width: 1"/><line x1="121" x2="158" y1="362" y2="362" class="net_7 width_1" style="stroke-width: 1"/><line x1="158" x2="158" y1="362" y2="257" class="net_7 width_1" style="stroke-width: 1"/><line x1="158" x2="188" y1="257" y2="257" class="net_7 width_1" style="stroke-width: 1"/><line x1="121" x2="168" y1="382" y2="382" class="net_6 width_1" style="stroke-width: 1"/><line x1="168" x2="168" y1="382" y2="312" class="net_6 width_1" style="stroke-width: 1"/><line x1="168" x2="188" y1="312" y2="312" class="net_6 width_1" style="stroke-width: 1"/><line x1="121" x2="178" y1="402" y2="402" class="net_9 width_1" style="stroke-width: 1"/><line x1="178" x2="178" y1="402" y2="367" class="net_9 width_1" style="stroke-width: 1"/><line x1="178" x2="188" y1="367" y2="367" class="net_9 width_1" style="stroke-width: 1"/><line x1="121" x2="188" y1="422" y2="422" class="net_8 width_1" style="stroke-width: 1"/><line x1="216" x2="259" y1="257" y2="257" class="net_14 width_1" style="stroke-width: 1"/><line x1="259" x2="259" y1="257" y2="297" class="net_14 width_1" style="stroke-width: 1"/><line x1="259" x2="269" y1="297" y2="297" class="net_14 width_1" style="stroke-width: 1"/><line x1="216" x2="269" y1="312" y2="312" class="net_15 width_1" style="stroke-width: 1"/><line x1="305" x2="340" y1="304.5" y2="304.5" class="net_18 width_1" style="stroke-width: 1"/><line x1="216" x2="259" y1="367" y2="367" class="net_16 width_1" style="stroke-width: 1"/><line x1="259" x2="259" y1="367" y2="407" class="net_16 width_1" style="stroke-width: 1"/><line x1="259" x2="269" y1="407" y2="407" class="net_16 width_1" style="stroke-width: 1"/><line x1="216" x2="269" y1="422" y2="422" class="net_17 width_1" style="stroke-width: 1"/><line x1="305" x2="340" y1="414.5" y2="414.5" class="net_20 width_1" style="stroke-width: 1"/><line x1="368" x2="381" y1="304.5" y2="304.5" class="net_19 width_1" style="stroke-width: 1"/><line x1="381" x2="381" y1="304.5" y2="399.5" class="net_19 width_1" style="stroke-width: 1"/><line x1="381" x2="406" y1="399.5" y2="399.5" class="net_19 width_1" style="stroke-width: 1"/><line x1="368" x2="406" y1="414.5" y2="414.5" class="net_21 width_1" style="stroke-width: 1"/><line x1="442" x2="477" y1="407" y2="407" class="net_22 width_1" style="stroke-width: 1"/><line x1="120.5" x2="120.5" y1="442.5" y2="461.5" class="net_2 width_1" style="stroke-width: 1"/><line x1="120.5" x2="249" y1="461.5" y2="461.5" class="net_2 width_1" style="stroke-width: 1"/><line x1="249" x2="249" y1="461.5" y2="77" class="net_2 width_1" style="stroke-width: 1"/><line x1="249" x2="269" y1="77" y2="77" class="net_2 width_1" style="stroke-width: 1"/><line x1="216" x2="269" y1="92" y2="92" class="net_11 width_1" style="stroke-width: 1"/><line x1="305" x2="340" y1="84.5" y2="84.5" class="net_24 width_1" style="stroke-width: 1"/><line x1="216" x2="229" y1="147" y2="147" class="net_12 width_1" style="stroke-width: 1"/><line x1="229" x2="229" y1="147" y2="17" class="net_12 width_1" style="stroke-width: 1"/><line x1="229" x2="269" y1="17" y2="17" class="net_12 width_1" style="stroke-width: 1"/><line x1="216" x2="239" y1="202" y2="202" class="net_13 width_1" style="stroke-width: 1"/><line x1="239" x2="239" y1="202" y2="32" class="net_13 width_1" style="stroke-width: 1"/><line x1="239" x2="269" y1="32" y2="32" class="net_13 width_1" style="stroke-width: 1"/><line x1="305" x2="340" y1="24.5" y2="24.5" class="net_26 width_1" style="stroke-width: 1"/><line x1="368" x2="406" y1="84.5" y2="84.5" class="net_25 width_1" style="stroke-width: 1"/><line x1="368" x2="381" y1="24.5" y2="24.5" class="net_27 width_1" style="stroke-width: 1"/><line x1="381" x2="381" y1="24.5" y2="99.5" class="net_27 width_1" style="stroke-width: 1"/><line x1="381" x2="406" y1="99.5" y2="99.5" class="net_27 width_1" style="stroke-width: 1"/><line x1="442" x2="477" y1="92" y2="92" class="net_28 width_1" style="stroke-width: 1"/><line x1="505" x2="543" y1="407" y2="407" class="net_23 width_1" style="stroke-width: 1"/><line x1="505" x2="518" y1="92" y2="92" class="net_29 width_1" style="stroke-width: 1"/><line x1="518" x2="518" y1="92" y2="422" class="net_29 width_1" style="stroke-width: 1"/><line x1="518" x2="543" y1="422" y2="422" class="net_29 width_1" style="stroke-width: 1"/><line x1="579" x2="614" y1="414.5" y2="414.5" class="net_30 width_1" style="stroke-width: 1"/><line x1="642" x2="680" y1="414.5" y2="414.5" class="net_10 width_1" style="stroke-width: 1"/><line x1="42" x2="116" y1="312" y2="312" class="net_2,3,4,5,6,7,8,9 width_8" style="stroke-width: 2"/><rect x="78" y="307" width="16" height="9" class="net_2,3,4,5,6,7,8,9 width_8 busLabel_8" style="fill: white; stroke: none"/><text x="77" y="315" class="net_2,3,4,5,6,7,8,9 width_8 busLabel_8">/8/</text></svg>