<svg xmlns="http://www.w3.org/2000/svg" xmlns:xlink="http://www.w3.org/1999/xlink" xmlns:s="https://github.com/nturley/netlistsvg" width="423" height="217"><style>svg {
  stroke:#000;
  fill:none;
}
text {
  fill:#000;
  stroke:none;
  font-size:10px;
  font-weight: bold;
  font-family: "Courier New", monospace;
}
line {
    stroke-linecap: round;
}
.nodelabel {
  text-anchor: middle;
}
.inputPortLabel {
  text-anchor: end;
}
.splitjoinBody {
  fill:#000;
}</style><g s:type="NOT" transform="translate(240,12)" s:width="30" s:height="20" id="cell_$abc$117$auto$blifparse.cc:386:parse_blif$118"><s:alias val="NOT"/><s:alias val="$NOT"/><path d="M0,0 L0,20 L20,10 Z" class="cell_$abc$117$auto$blifparse.cc:386:parse_blif$118"/><circle cx="24" cy="10" r="3" class="cell_$abc$117$auto$blifparse.cc:386:parse_blif$118"/><g s:x="-1" s:y="10" s:pid="A"/><g s:x="27" s:y="10" s:pid="Y"/></g><g s:type="NOR4" transform="translate(168,102.5)" s:width="30" s:height="25" id="cell_$abc$117$auto$blifparse.cc:386:parse_blif$119"><s:alias val="NOR4"/><s:alias val="$NOR4"/><path d="M0,0 A30 25 0 0 1 0,25 A30 25 0 0 0 30,12.5 A30 25 0 0 0 0,0" class="cell_$abc$117$auto$blifparse.cc:386:parse_blif$119"/><circle cx="33" cy="12.5" r="3" class="cell_$abc$117$auto$blifparse.cc:386:parse_blif$119"/><g s:x="1" s:y="3" s:pid="A"/><g s:x="3" s:y="9.33" s:pid="B"/><g s:x="3" s:y="15.66" s:pid="C"/><g s:x="1" s:y="22" s:pid="D"/><g s:x="36" s:y="12.5" s:pid="Y"/></g><g s:type="NOT" transform="translate(240,105)" s:width="30" s:height="20" id="cell_$abc$117$auto$blifparse.cc:386:parse_blif$120"><s:alias val="NOT"/><s:alias val="$NOT"/><path d="M0,0 L0,20 L20,10 Z" class="cell_$abc$117$auto$blifparse.cc:386:parse_blif$120"/><circle cx="24" cy="10" r="3" class="cell_$abc$117$auto$blifparse.cc:386:parse_blif$120"/><g s:x="-1" s:y="10" s:pid="A"/><g s:x="27" s:y="10" s:pid="Y"/></g><g s:type="NOR5" transform="translate(310,136.75)" s:width="30" s:height="25" id="cell_$abc$117$auto$blifparse.cc:386:parse_blif$121"><s:alias val="NOR5"/><s:alias val="$NOR5"/><path d="M0,0 A30 25 0 0 1 0,25 A30 25 0 0 0 30,12.5 A30 25 0 0 0 0,0" class="cell_$abc$117$auto$blifparse.cc:386:parse_blif$121"/><circle cx="33" cy="12.5" r="3" class="cell_$abc$117$auto$blifparse.cc:386:parse_blif$121"/><g s:x="1" s:y="3" s:pid="A"/><g s:x="3" s:y="7.75" s:pid="B"/><g s:x="3" s:y="12.5" s:pid="C"/><g s:x="3" s:y="17.25" s:pid="D"/><g s:x="1" s:y="22" s:pid="E"/><g s:x="36" s:y="12.5" s:pid="Y"/></g><g s:type="inputExt" transform="translate(12,44.5)" s:width="30" s:height="20" id="cell_A"><text x="15" y="-4" class="nodelabel cell_A" s:attribute="ref">A</text><s:alias val="$_inputExt_"/><path d="M0,0 L0,20 L15,20 L30,10 L15,0 Z" class="cell_A"/><g s:x="30" s:y="10" s:pid="Y"/></g><g s:type="outputExt" transform="translate(381,139.25)" s:width="30" s:height="20" id="cell_Y"><text x="15" y="-4" class="nodelabel cell_Y" s:attribute="ref">Y</text><s:alias val="$_outputExt_"/><path d="M30,0 L30,20 L15,20 L0,10 L15,0 Z" class="cell_Y"/><g s:x="0" s:y="10" s:pid="A"/></g><g s:type="split" transform="translate(116,34)" s:width="5" s:height="40" id="cell_$split$,2,3,4,5,6,7,8,9,"><rect width="5" height="160" class="splitjoinBody" s:generic="body"/><s:alias val="$_split_"/><g s:x="0" s:y="20" s:pid="in"/><g transform="translate(4,10)" s:x="4" s:y="10" s:pid="out0"><text x="5" y="-4">0</text></g><g transform="translate(4,30)" s:x="4" s:y="10" s:pid="out0"><text x="5" y="-4">5</text></g><g transform="translate(4,50)" s:x="4" s:y="10" s:pid="out0"><text x="5" y="-4">4</text></g><g transform="translate(4,70)" s:x="4" s:y="10" s:pid="out0"><text x="5" y="-4">7</text></g><g transform="translate(4,90)" s:x="4" s:y="10" s:pid="out0"><text x="5" y="-4">6</text></g><g transform="translate(4,110)" s:x="4" s:y="10" s:pid="out0"><text x="5" y="-4">1</text></g><g transform="translate(4,130)" s:x="4" s:y="10" s:pid="out0"><text x="5" y="-4">3</text></g><g transform="translate(4,150)" s:x="4" s:y="10" s:pid="out0"><text x="5" y="-4">2</text></g></g><line x1="120.5" x2="120.5" y1="44" y2="22" class="net_2 width_1" style="stroke-width: 1"/><line x1="120.5" x2="239" y1="22" y2="22" class="net_2 width_1" style="stroke-width: 1"/><line x1="121" x2="158" y1="64.5" y2="64.5" class="net_7 width_1" style="stroke-width: 1"/><line x1="158" x2="158" y1="64.5" y2="105.5" class="net_7 width_1" style="stroke-width: 1"/><line x1="158" x2="169" y1="105.5" y2="105.5" class="net_7 width_1" style="stroke-width: 1"/><line x1="121" x2="148" y1="84.5" y2="84.5" class="net_6 width_1" style="stroke-width: 1"/><line x1="148" x2="148" y1="84.5" y2="111.83" class="net_6 width_1" style="stroke-width: 1"/><line x1="148" x2="171" y1="111.83" y2="111.83" class="net_6 width_1" style="stroke-width: 1"/><line x1="121" x2="138" y1="104.5" y2="104.5" class="net_9 width_1" style="stroke-width: 1"/><line x1="138" x2="138" y1="104.5" y2="118.16" class="net_9 width_1" style="stroke-width: 1"/><line x1="138" x2="171" y1="118.16" y2="118.16" class="net_9 width_1" style="stroke-width: 1"/><line x1="121" x2="169" y1="124.5" y2="124.5" class="net_8 width_1" style="stroke-width: 1"/><line x1="204" x2="239" y1="115" y2="115" class="net_12 width_1" style="stroke-width: 1"/><line x1="267" x2="290" y1="22" y2="22" class="net_11 width_1" style="stroke-width: 1"/><line x1="290" x2="290" y1="22" y2="139.75" class="net_11 width_1" style="stroke-width: 1"/><line x1="290" x2="311" y1="139.75" y2="139.75" class="net_11 width_1" style="stroke-width: 1"/><line x1="121" x2="313" y1="144.5" y2="144.5" class="net_3 width_1" style="stroke-width: 1"/><line x1="121" x2="290" y1="164.5" y2="164.5" class="net_5 width_1" style="stroke-width: 1"/><line x1="290" x2="290" y1="164.5" y2="149.25" class="net_5 width_1" style="stroke-width: 1"/><line x1="290" x2="313" y1="149.25" y2="149.25" class="net_5 width_1" style="stroke-width: 1"/><line x1="120.5" x2="120.5" y1="185" y2="204" class="net_4 width_1" style="stroke-width: 1"/><line x1="120.5" x2="300" y1="204" y2="204" class="net_4 width_1" style="stroke-width: 1"/><line x1="300" x2="300" y1="204" y2="154" class="net_4 width_1" style="stroke-width: 1"/><line x1="300" x2="313" y1="154" y2="154" class="net_4 width_1" style="stroke-width: 1"/><line x1="267" x2="280" y1="115" y2="115" class="net_13 width_1" style="stroke-width: 1"/><line x1="280" x2="280" y1="115" y2="158.75" class="net_13 width_1" style="stroke-width: 1"/><line x1="280" x2="311" y1="158.75" y2="158.75" class="net_13 width_1" style="stroke-width: 1"/><line x1="346" x2="381" y1="149.25" y2="149.25" class="net_10 width_1" style="stroke-width: 1"/><line x1="42" x2="116" y1="54.5" y2="54.5" class="net_2,3,4,5,6,7,8,9 width_8" style="stroke-width: 2"/><rect x="78" y="49.5" width="16" height="9" class="net_2,3,4,5,6,7,8,9 width_8 busLabel_8" style="fill: white; stroke: none"/><text x="77" y="57.5" class="net_2,3,4,5,6,7,8,9 width_8 busLabel_8">/8/</text></svg>