<svg xmlns="http://www.w3.org/2000/svg" xmlns:xlink="http://www.w3.org/1999/xlink" xmlns:s="https://github.com/nturley/netlistsvg" width="362" height="132">
  <style>svg {
    stroke:#000;
    fill:none;
  }
  text {
    fill:#000;
    stroke:none;
    font-size:10px;
    font-weight: bold;
    font-family: "Courier New", monospace;
  }
  .nodelabel {
    text-anchor: middle;
  }
  .inputPortLabel {
    text-anchor: end;
  }
  .splitjoinBody {
    fill:#000;
  }</style>
  <g s:type="nand" transform="translate(154,67.5)" s:width="30" s:height="25" id="cell_$abc$82$auto$blifparse.cc:386:parse_blif$83">
    <s:alias val="$nand"/>
    <s:alias val="$logic_nand"/>
    <s:alias val="$_NAND_"/>
    <s:alias val="$_ANDNOT_"/>
    <path d="M0,0 L0,25 L15,25 A15 12.5 0 0 0 15,0 Z" class="cell_$abc$82$auto$blifparse.cc:386:parse_blif$83"/>
    <circle cx="34" cy="12.5" r="3" class="cell_$abc$82$auto$blifparse.cc:386:parse_blif$83"/>
    <g s:x="0" s:y="5" s:pid="A"/>
    <g s:x="0" s:y="20" s:pid="B"/>
    <g s:x="36" s:y="12.5" s:pid="Y"/>
  </g>
  <g s:type="not" transform="translate(225,70)" s:width="30" s:height="20" id="cell_$abc$82$auto$blifparse.cc:386:parse_blif$84">
    <s:alias val="$_NOT_"/>
    <s:alias val="$not"/>
    <s:alias val="$logic_not"/>
    <path d="M0,0 L0,20 L20,10 Z" class="cell_$abc$82$auto$blifparse.cc:386:parse_blif$84"/>
    <circle cx="23" cy="10" r="3" class="cell_$abc$82$auto$blifparse.cc:386:parse_blif$84"/>
    <g s:x="0" s:y="10" s:pid="A"/>
    <g s:x="25" s:y="10" s:pid="Y"/>
  </g>
  <g s:type="inputExt" transform="translate(12,100)" s:width="30" s:height="20" id="cell_and_input0">
    <text x="15" y="-4" class="nodelabel cell_and_input0" s:attribute="ref">and_input0</text>
    <s:alias val="$_inputExt_"/>
    <path d="M0,0 L0,20 L15,20 L30,10 L15,0 Z" class="cell_and_input0"/>
    <g s:x="28" s:y="10" s:pid="Y"/>
  </g>
  <g s:type="inputExt" transform="translate(12,35)" s:width="30" s:height="20" id="cell_and_input1">
    <text x="15" y="-4" class="nodelabel cell_and_input1" s:attribute="ref">and_input1</text>
    <s:alias val="$_inputExt_"/>
    <path d="M0,0 L0,20 L15,20 L30,10 L15,0 Z" class="cell_and_input1"/>
    <g s:x="28" s:y="10" s:pid="Y"/>
  </g>
  <g s:type="outputExt" transform="translate(290,70)" s:width="30" s:height="20" id="cell_and_output">
    <text x="15" y="-4" class="nodelabel cell_and_output" s:attribute="ref">and_output</text>
    <s:alias val="$_outputExt_"/>
    <path d="M30,0 L30,20 L15,20 L0,10 L15,0 Z" class="cell_and_output"/>
    <g s:x="0" s:y="10" s:pid="A"/>
  </g>
  <g s:type="split" transform="translate(107,12)" s:width="5" s:height="40" id="cell_$split$,18,19,20,21,22,23,24,25,26,27,28,29,30,31,32,33,">
    <rect width="5" height="20" class="splitjoinBody" s:generic="body"/>
    <s:alias val="$_split_"/>
    <g s:x="0" s:y="20" s:pid="in"/>
    <g transform="translate(4,10)" s:x="4" s:y="10" s:pid="out0">
      <text x="5" y="-4">0</text>
    </g>
  </g>
  <g s:type="split" transform="translate(107,77)" s:width="5" s:height="40" id="cell_$split$,2,3,4,5,6,7,8,9,10,11,12,13,14,15,16,17,">
    <rect width="5" height="20" class="splitjoinBody" s:generic="body"/>
    <s:alias val="$_split_"/>
    <g s:x="0" s:y="20" s:pid="in"/>
    <g transform="translate(4,10)" s:x="4" s:y="10" s:pid="out0">
      <text x="5" y="-4">0</text>
    </g>
  </g>
  <line x1="112" x2="129" y1="22.5" y2="22.5" class="net_18"/>
  <line x1="129" x2="129" y1="22.5" y2="72.5" class="net_18"/>
  <line x1="129" x2="154" y1="72.5" y2="72.5" class="net_18"/>
  <line x1="112" x2="154" y1="87.5" y2="87.5" class="net_2"/>
  <line x1="190" x2="225" y1="80" y2="80" class="net_35"/>
  <line x1="250" x2="290" y1="80" y2="80" class="net_34"/>
  <line x1="40" x2="107.5" y1="45" y2="45" class="net_18,19,20,21,22,23,24,25,26,27,28,29,30,31,32,33"/>
  <line x1="107.5" x2="107.5" y1="45" y2="33" class="net_18,19,20,21,22,23,24,25,26,27,28,29,30,31,32,33"/>
  <line x1="40" x2="107.5" y1="110" y2="110" class="net_2,3,4,5,6,7,8,9,10,11,12,13,14,15,16,17"/>
  <line x1="107.5" x2="107.5" y1="110" y2="98" class="net_2,3,4,5,6,7,8,9,10,11,12,13,14,15,16,17"/>
</svg>
