<svg xmlns="http://www.w3.org/2000/svg" xmlns:xlink="http://www.w3.org/1999/xlink" xmlns:s="https://github.com/nturley/netlistsvg" width="581" height="509">
  <style>svg {
    stroke:#000;
    fill:none;
  }
  text {
    fill:#000;
    stroke:none;
    font-size:10px;
    font-weight: bold;
    font-family: "Courier New", monospace;
  }
  .nodelabel {
    text-anchor: middle;
  }
  .inputPortLabel {
    text-anchor: end;
  }
  .splitjoinBody {
    fill:#000;
  }</style>
  <g s:type="not" transform="translate(161,87)" s:width="30" s:height="20" id="cell_$abc$615$auto$blifparse.cc:386:parse_blif$616">
    <s:alias val="$_NOT_"/>
    <s:alias val="$not"/>
    <s:alias val="$logic_not"/>
    <path d="M0,0 L0,20 L20,10 Z" class="cell_$abc$615$auto$blifparse.cc:386:parse_blif$616"/>
    <circle cx="23" cy="10" r="3" class="cell_$abc$615$auto$blifparse.cc:386:parse_blif$616"/>
    <g s:x="0" s:y="10" s:pid="A"/>
    <g s:x="25" s:y="10" s:pid="Y"/>
  </g>
  <g s:type="not" transform="translate(161,207)" s:width="30" s:height="20" id="cell_$abc$615$auto$blifparse.cc:386:parse_blif$617">
    <s:alias val="$_NOT_"/>
    <s:alias val="$not"/>
    <s:alias val="$logic_not"/>
    <path d="M0,0 L0,20 L20,10 Z" class="cell_$abc$615$auto$blifparse.cc:386:parse_blif$617"/>
    <circle cx="23" cy="10" r="3" class="cell_$abc$615$auto$blifparse.cc:386:parse_blif$617"/>
    <g s:x="0" s:y="10" s:pid="A"/>
    <g s:x="25" s:y="10" s:pid="Y"/>
  </g>
  <g s:type="not" transform="translate(253,282)" s:width="30" s:height="20" id="cell_$abc$615$auto$blifparse.cc:386:parse_blif$618">
    <s:alias val="$_NOT_"/>
    <s:alias val="$not"/>
    <s:alias val="$logic_not"/>
    <path d="M0,0 L0,20 L20,10 Z" class="cell_$abc$615$auto$blifparse.cc:386:parse_blif$618"/>
    <circle cx="23" cy="10" r="3" class="cell_$abc$615$auto$blifparse.cc:386:parse_blif$618"/>
    <g s:x="0" s:y="10" s:pid="A"/>
    <g s:x="25" s:y="10" s:pid="Y"/>
  </g>
  <g s:type="not" transform="translate(253,337)" s:width="30" s:height="20" id="cell_$abc$615$auto$blifparse.cc:386:parse_blif$619">
    <s:alias val="$_NOT_"/>
    <s:alias val="$not"/>
    <s:alias val="$logic_not"/>
    <path d="M0,0 L0,20 L20,10 Z" class="cell_$abc$615$auto$blifparse.cc:386:parse_blif$619"/>
    <circle cx="23" cy="10" r="3" class="cell_$abc$615$auto$blifparse.cc:386:parse_blif$619"/>
    <g s:x="0" s:y="10" s:pid="A"/>
    <g s:x="25" s:y="10" s:pid="Y"/>
  </g>
  <g s:type="nand" transform="translate(250,197)" s:width="30" s:height="25" id="cell_$abc$615$auto$blifparse.cc:386:parse_blif$620">
    <s:alias val="$nand"/>
    <s:alias val="$logic_nand"/>
    <s:alias val="$_NAND_"/>
    <s:alias val="$_ANDNOT_"/>
    <path d="M0,0 L0,25 L15,25 A15 12.5 0 0 0 15,0 Z" class="cell_$abc$615$auto$blifparse.cc:386:parse_blif$620"/>
    <circle cx="34" cy="12.5" r="3" class="cell_$abc$615$auto$blifparse.cc:386:parse_blif$620"/>
    <g s:x="0" s:y="5" s:pid="A"/>
    <g s:x="0" s:y="20" s:pid="B"/>
    <g s:x="36" s:y="12.5" s:pid="Y"/>
  </g>
  <g s:type="not" transform="translate(400,404.5)" s:width="30" s:height="20" id="cell_$abc$615$auto$blifparse.cc:386:parse_blif$621">
    <s:alias val="$_NOT_"/>
    <s:alias val="$not"/>
    <s:alias val="$logic_not"/>
    <path d="M0,0 L0,20 L20,10 Z" class="cell_$abc$615$auto$blifparse.cc:386:parse_blif$621"/>
    <circle cx="23" cy="10" r="3" class="cell_$abc$615$auto$blifparse.cc:386:parse_blif$621"/>
    <g s:x="0" s:y="10" s:pid="A"/>
    <g s:x="25" s:y="10" s:pid="Y"/>
  </g>
  <g s:type="nand" transform="translate(250,92)" s:width="30" s:height="25" id="cell_$abc$615$auto$blifparse.cc:386:parse_blif$622">
    <s:alias val="$nand"/>
    <s:alias val="$logic_nand"/>
    <s:alias val="$_NAND_"/>
    <s:alias val="$_ANDNOT_"/>
    <path d="M0,0 L0,25 L15,25 A15 12.5 0 0 0 15,0 Z" class="cell_$abc$615$auto$blifparse.cc:386:parse_blif$622"/>
    <circle cx="34" cy="12.5" r="3" class="cell_$abc$615$auto$blifparse.cc:386:parse_blif$622"/>
    <g s:x="0" s:y="5" s:pid="A"/>
    <g s:x="0" s:y="20" s:pid="B"/>
    <g s:x="36" s:y="12.5" s:pid="Y"/>
  </g>
  <g s:type="nand" transform="translate(321,84.5)" s:width="30" s:height="25" id="cell_$abc$615$auto$blifparse.cc:386:parse_blif$623">
    <s:alias val="$nand"/>
    <s:alias val="$logic_nand"/>
    <s:alias val="$_NAND_"/>
    <s:alias val="$_ANDNOT_"/>
    <path d="M0,0 L0,25 L15,25 A15 12.5 0 0 0 15,0 Z" class="cell_$abc$615$auto$blifparse.cc:386:parse_blif$623"/>
    <circle cx="34" cy="12.5" r="3" class="cell_$abc$615$auto$blifparse.cc:386:parse_blif$623"/>
    <g s:x="0" s:y="5" s:pid="A"/>
    <g s:x="0" s:y="20" s:pid="B"/>
    <g s:x="36" s:y="12.5" s:pid="Y"/>
  </g>
  <g s:type="not" transform="translate(471,152)" s:width="30" s:height="20" id="cell_$abc$615$auto$blifparse.cc:386:parse_blif$624">
    <s:alias val="$_NOT_"/>
    <s:alias val="$not"/>
    <s:alias val="$logic_not"/>
    <path d="M0,0 L0,20 L20,10 Z" class="cell_$abc$615$auto$blifparse.cc:386:parse_blif$624"/>
    <circle cx="23" cy="10" r="3" class="cell_$abc$615$auto$blifparse.cc:386:parse_blif$624"/>
    <g s:x="0" s:y="10" s:pid="A"/>
    <g s:x="25" s:y="10" s:pid="Y"/>
  </g>
  <g s:type="nand" transform="translate(321,287)" s:width="30" s:height="25" id="cell_$abc$615$auto$blifparse.cc:386:parse_blif$625">
    <s:alias val="$nand"/>
    <s:alias val="$logic_nand"/>
    <s:alias val="$_NAND_"/>
    <s:alias val="$_ANDNOT_"/>
    <path d="M0,0 L0,25 L15,25 A15 12.5 0 0 0 15,0 Z" class="cell_$abc$615$auto$blifparse.cc:386:parse_blif$625"/>
    <circle cx="34" cy="12.5" r="3" class="cell_$abc$615$auto$blifparse.cc:386:parse_blif$625"/>
    <g s:x="0" s:y="5" s:pid="A"/>
    <g s:x="0" s:y="20" s:pid="B"/>
    <g s:x="36" s:y="12.5" s:pid="Y"/>
  </g>
  <g s:type="not" transform="translate(400,459.5)" s:width="30" s:height="20" id="cell_$abc$615$auto$blifparse.cc:386:parse_blif$626">
    <s:alias val="$_NOT_"/>
    <s:alias val="$not"/>
    <s:alias val="$logic_not"/>
    <path d="M0,0 L0,20 L20,10 Z" class="cell_$abc$615$auto$blifparse.cc:386:parse_blif$626"/>
    <circle cx="23" cy="10" r="3" class="cell_$abc$615$auto$blifparse.cc:386:parse_blif$626"/>
    <g s:x="0" s:y="10" s:pid="A"/>
    <g s:x="25" s:y="10" s:pid="Y"/>
  </g>
  <g s:type="nand" transform="translate(397,279.5)" s:width="30" s:height="25" id="cell_$abc$615$auto$blifparse.cc:386:parse_blif$627">
    <s:alias val="$nand"/>
    <s:alias val="$logic_nand"/>
    <s:alias val="$_NAND_"/>
    <s:alias val="$_ANDNOT_"/>
    <path d="M0,0 L0,25 L15,25 A15 12.5 0 0 0 15,0 Z" class="cell_$abc$615$auto$blifparse.cc:386:parse_blif$627"/>
    <circle cx="34" cy="12.5" r="3" class="cell_$abc$615$auto$blifparse.cc:386:parse_blif$627"/>
    <g s:x="0" s:y="5" s:pid="A"/>
    <g s:x="0" s:y="20" s:pid="B"/>
    <g s:x="36" s:y="12.5" s:pid="Y"/>
  </g>
  <g s:type="not" transform="translate(471,282)" s:width="30" s:height="20" id="cell_$abc$615$auto$blifparse.cc:386:parse_blif$628">
    <s:alias val="$_NOT_"/>
    <s:alias val="$not"/>
    <s:alias val="$logic_not"/>
    <path d="M0,0 L0,20 L20,10 Z" class="cell_$abc$615$auto$blifparse.cc:386:parse_blif$628"/>
    <circle cx="23" cy="10" r="3" class="cell_$abc$615$auto$blifparse.cc:386:parse_blif$628"/>
    <g s:x="0" s:y="10" s:pid="A"/>
    <g s:x="25" s:y="10" s:pid="Y"/>
  </g>
  <g s:type="nand" transform="translate(468,409.5)" s:width="30" s:height="25" id="cell_$abc$615$auto$blifparse.cc:386:parse_blif$629">
    <s:alias val="$nand"/>
    <s:alias val="$logic_nand"/>
    <s:alias val="$_NAND_"/>
    <s:alias val="$_ANDNOT_"/>
    <path d="M0,0 L0,25 L15,25 A15 12.5 0 0 0 15,0 Z" class="cell_$abc$615$auto$blifparse.cc:386:parse_blif$629"/>
    <circle cx="34" cy="12.5" r="3" class="cell_$abc$615$auto$blifparse.cc:386:parse_blif$629"/>
    <g s:x="0" s:y="5" s:pid="A"/>
    <g s:x="0" s:y="20" s:pid="B"/>
    <g s:x="36" s:y="12.5" s:pid="Y"/>
  </g>
  <g s:type="inputExt" transform="translate(54,207)" s:width="30" s:height="20" id="cell_gcd_done">
    <text x="15" y="-4" class="nodelabel cell_gcd_done" s:attribute="ref">gcd_done</text>
    <s:alias val="$_inputExt_"/>
    <path d="M0,0 L0,20 L15,20 L30,10 L15,0 Z" class="cell_gcd_done"/>
    <g s:x="28" s:y="10" s:pid="Y"/>
  </g>
  <g s:type="inputExt" transform="translate(54,22)" s:width="30" s:height="20" id="cell_start">
    <text x="15" y="-4" class="nodelabel cell_start" s:attribute="ref">start</text>
    <s:alias val="$_inputExt_"/>
    <path d="M0,0 L0,20 L15,20 L30,10 L15,0 Z" class="cell_start"/>
    <g s:x="28" s:y="10" s:pid="Y"/>
  </g>
  <g s:type="inputExt" transform="translate(137,337)" s:width="30" s:height="20" id="cell_compare">
    <text x="15" y="-4" class="nodelabel cell_compare" s:attribute="ref">compare</text>
    <s:alias val="$_inputExt_"/>
    <path d="M0,0 L0,20 L15,20 L30,10 L15,0 Z" class="cell_compare"/>
    <g s:x="28" s:y="10" s:pid="Y"/>
  </g>
  <g s:type="inputExt" transform="translate(12,22)" s:width="30" s:height="20" id="cell_CLK">
    <text x="15" y="-4" class="nodelabel cell_CLK" s:attribute="ref">CLK</text>
    <s:alias val="$_inputExt_"/>
    <path d="M0,0 L0,20 L15,20 L30,10 L15,0 Z" class="cell_CLK"/>
    <g s:x="28" s:y="10" s:pid="Y"/>
  </g>
  <g s:type="inputExt" transform="translate(137,152)" s:width="30" s:height="20" id="cell_relprime_done">
    <text x="15" y="-4" class="nodelabel cell_relprime_done" s:attribute="ref">relprime_done</text>
    <s:alias val="$_inputExt_"/>
    <path d="M0,0 L0,20 L15,20 L30,10 L15,0 Z" class="cell_relprime_done"/>
    <g s:x="28" s:y="10" s:pid="Y"/>
  </g>
  <g s:type="outputExt" transform="translate(539,217)" s:width="30" s:height="20" id="cell_CTRL1">
    <text x="15" y="-4" class="nodelabel cell_CTRL1" s:attribute="ref">CTRL1</text>
    <s:alias val="$_outputExt_"/>
    <path d="M30,0 L30,20 L15,20 L0,10 L15,0 Z" class="cell_CTRL1"/>
    <g s:x="0" s:y="10" s:pid="A"/>
  </g>
  <g s:type="outputExt" transform="translate(539,282)" s:width="30" s:height="20" id="cell_CTRL2">
    <text x="15" y="-4" class="nodelabel cell_CTRL2" s:attribute="ref">CTRL2</text>
    <s:alias val="$_outputExt_"/>
    <path d="M30,0 L30,20 L15,20 L0,10 L15,0 Z" class="cell_CTRL2"/>
    <g s:x="0" s:y="10" s:pid="A"/>
  </g>
  <g s:type="outputExt" transform="translate(539,22)" s:width="30" s:height="20" id="cell_CTRL3">
    <text x="15" y="-4" class="nodelabel cell_CTRL3" s:attribute="ref">CTRL3</text>
    <s:alias val="$_outputExt_"/>
    <path d="M30,0 L30,20 L15,20 L0,10 L15,0 Z" class="cell_CTRL3"/>
    <g s:x="0" s:y="10" s:pid="A"/>
  </g>
  <g s:type="outputExt" transform="translate(539,477)" s:width="30" s:height="20" id="cell_CTRL4">
    <text x="15" y="-4" class="nodelabel cell_CTRL4" s:attribute="ref">CTRL4</text>
    <s:alias val="$_outputExt_"/>
    <path d="M30,0 L30,20 L15,20 L0,10 L15,0 Z" class="cell_CTRL4"/>
    <g s:x="0" s:y="10" s:pid="A"/>
  </g>
  <g s:type="outputExt" transform="translate(539,87)" s:width="30" s:height="20" id="cell_CTRL5">
    <text x="15" y="-4" class="nodelabel cell_CTRL5" s:attribute="ref">CTRL5</text>
    <s:alias val="$_outputExt_"/>
    <path d="M30,0 L30,20 L15,20 L0,10 L15,0 Z" class="cell_CTRL5"/>
    <g s:x="0" s:y="10" s:pid="A"/>
  </g>
  <g s:type="outputExt" transform="translate(539,412)" s:width="30" s:height="20" id="cell_CTRL7">
    <text x="15" y="-4" class="nodelabel cell_CTRL7" s:attribute="ref">CTRL7</text>
    <s:alias val="$_outputExt_"/>
    <path d="M30,0 L30,20 L15,20 L0,10 L15,0 Z" class="cell_CTRL7"/>
    <g s:x="0" s:y="10" s:pid="A"/>
  </g>
  <g s:type="outputExt" transform="translate(539,347)" s:width="30" s:height="20" id="cell_CTRL8">
    <text x="15" y="-4" class="nodelabel cell_CTRL8" s:attribute="ref">CTRL8</text>
    <s:alias val="$_outputExt_"/>
    <path d="M30,0 L30,20 L15,20 L0,10 L15,0 Z" class="cell_CTRL8"/>
    <g s:x="0" s:y="10" s:pid="A"/>
  </g>
  <g s:type="outputExt" transform="translate(539,152)" s:width="30" s:height="20" id="cell_CTRL9">
    <text x="15" y="-4" class="nodelabel cell_CTRL9" s:attribute="ref">CTRL9</text>
    <s:alias val="$_outputExt_"/>
    <path d="M30,0 L30,20 L15,20 L0,10 L15,0 Z" class="cell_CTRL9"/>
    <g s:x="0" s:y="10" s:pid="A"/>
  </g>
  <line x1="82" x2="112" y1="32" y2="32" class="net_3"/>
  <line x1="112" x2="112" y1="32" y2="97" class="net_3"/>
  <circle cx="112" cy="32" r="2" style="fill:#000" class="net_3"/>
  <line x1="112" x2="161" y1="97" y2="97" class="net_3"/>
  <line x1="82" x2="539" y1="32" y2="32" class="net_3"/>
  <line x1="82" x2="161" y1="217" y2="217" class="net_2"/>
  <line x1="165" x2="225" y1="162" y2="162" class="net_6"/>
  <line x1="225" x2="225" y1="162" y2="292" class="net_6"/>
  <circle cx="225" cy="162" r="2" style="fill:#000" class="net_6"/>
  <line x1="225" x2="253" y1="292" y2="292" class="net_6"/>
  <line x1="165" x2="225" y1="162" y2="162" class="net_6"/>
  <line x1="225" x2="225" y1="162" y2="112" class="net_6"/>
  <line x1="225" x2="250" y1="112" y2="112" class="net_6"/>
  <line x1="165" x2="253" y1="347" y2="347" class="net_4"/>
  <line x1="186" x2="235" y1="97" y2="97" class="net_12"/>
  <line x1="235" x2="235" y1="97" y2="202" class="net_12"/>
  <circle cx="235" cy="97" r="2" style="fill:#000" class="net_12"/>
  <line x1="235" x2="250" y1="202" y2="202" class="net_12"/>
  <line x1="186" x2="250" y1="97" y2="97" class="net_12"/>
  <line x1="186" x2="250" y1="217" y2="217" class="net_13"/>
  <line x1="286" x2="377" y1="209.5" y2="209.5" class="net_16"/>
  <line x1="377" x2="377" y1="209.5" y2="414.5" class="net_16"/>
  <line x1="377" x2="400" y1="414.5" y2="414.5" class="net_16"/>
  <line x1="286" x2="296" y1="209.5" y2="209.5" class="net_16"/>
  <line x1="296" x2="296" y1="209.5" y2="89.5" class="net_16"/>
  <circle cx="296" cy="209.5" r="2" style="fill:#000" class="net_16"/>
  <line x1="296" x2="321" y1="89.5" y2="89.5" class="net_16"/>
  <line x1="286" x2="321" y1="104.5" y2="104.5" class="net_18"/>
  <line x1="357" x2="443" y1="97" y2="97" class="net_10"/>
  <line x1="443" x2="443" y1="97" y2="162" class="net_10"/>
  <circle cx="443" cy="97" r="2" style="fill:#000" class="net_10"/>
  <line x1="443" x2="471" y1="162" y2="162" class="net_10"/>
  <line x1="357" x2="387" y1="97" y2="97" class="net_10"/>
  <line x1="387" x2="387" y1="97" y2="284.5" class="net_10"/>
  <circle cx="387" cy="97" r="2" style="fill:#000" class="net_10"/>
  <line x1="387" x2="397" y1="284.5" y2="284.5" class="net_10"/>
  <line x1="357" x2="539" y1="97" y2="97" class="net_10"/>
  <line x1="278" x2="321" y1="292" y2="292" class="net_14"/>
  <line x1="278" x2="296" y1="347" y2="347" class="net_15"/>
  <line x1="296" x2="296" y1="347" y2="307" class="net_15"/>
  <line x1="296" x2="321" y1="307" y2="307" class="net_15"/>
  <line x1="357" x2="367" y1="299.5" y2="299.5" class="net_19"/>
  <line x1="367" x2="367" y1="299.5" y2="469.5" class="net_19"/>
  <circle cx="367" cy="299.5" r="2" style="fill:#000" class="net_19"/>
  <line x1="367" x2="400" y1="469.5" y2="469.5" class="net_19"/>
  <line x1="357" x2="397" y1="299.5" y2="299.5" class="net_19"/>
  <line x1="433" x2="471" y1="292" y2="292" class="net_11"/>
  <line x1="433" x2="443" y1="292" y2="292" class="net_11"/>
  <line x1="443" x2="443" y1="292" y2="357" class="net_11"/>
  <circle cx="443" cy="292" r="2" style="fill:#000" class="net_11"/>
  <line x1="443" x2="539" y1="357" y2="357" class="net_11"/>
  <line x1="425" x2="468" y1="414.5" y2="414.5" class="net_17"/>
  <line x1="425" x2="443" y1="469.5" y2="469.5" class="net_20"/>
  <line x1="443" x2="443" y1="469.5" y2="429.5" class="net_20"/>
  <line x1="443" x2="468" y1="429.5" y2="429.5" class="net_20"/>
  <line x1="496" x2="514" y1="162" y2="162" class="net_7"/>
  <line x1="514" x2="514" y1="162" y2="227" class="net_7"/>
  <circle cx="514" cy="162" r="2" style="fill:#000" class="net_7"/>
  <line x1="514" x2="539" y1="227" y2="227" class="net_7"/>
  <line x1="496" x2="539" y1="162" y2="162" class="net_7"/>
  <line x1="496" x2="539" y1="292" y2="292" class="net_8"/>
  <line x1="504" x2="514" y1="422" y2="422" class="net_9"/>
  <line x1="514" x2="514" y1="422" y2="487" class="net_9"/>
  <circle cx="514" cy="422" r="2" style="fill:#000" class="net_9"/>
  <line x1="514" x2="539" y1="487" y2="487" class="net_9"/>
  <line x1="504" x2="539" y1="422" y2="422" class="net_9"/>
</svg>
