<svg xmlns="http://www.w3.org/2000/svg" xmlns:xlink="http://www.w3.org/1999/xlink" xmlns:s="https://github.com/nturley/netlistsvg" width="480" height="587.5"><style>svg {
  stroke:#000;
  fill:none;
}
text {
  fill:#000;
  stroke:none;
  font-size:10px;
  font-weight: bold;
  font-family: "Courier New", monospace;
}
line {
    stroke-linecap: round;
}
.nodelabel {
  text-anchor: middle;
}
.inputPortLabel {
  text-anchor: end;
}
.splitjoinBody {
  fill:#000;
}</style><g s:type="NOT" transform="translate(254,43)" s:width="30" s:height="20" id="cell_$abc$615$auto$blifparse.cc:386:parse_blif$616"><s:alias val="NOT"/><s:alias val="$NOT"/><path d="M0,0 L0,20 L20,10 Z" class="cell_$abc$615$auto$blifparse.cc:386:parse_blif$616"/><circle cx="24" cy="10" r="3" class="cell_$abc$615$auto$blifparse.cc:386:parse_blif$616"/><g s:x="-1" s:y="10" s:pid="A"/><g s:x="27" s:y="10" s:pid="Y"/></g><g s:type="NOT" transform="translate(178,63)" s:width="30" s:height="20" id="cell_$abc$615$auto$blifparse.cc:386:parse_blif$617"><s:alias val="NOT"/><s:alias val="$NOT"/><path d="M0,0 L0,20 L20,10 Z" class="cell_$abc$615$auto$blifparse.cc:386:parse_blif$617"/><circle cx="24" cy="10" r="3" class="cell_$abc$615$auto$blifparse.cc:386:parse_blif$617"/><g s:x="-1" s:y="10" s:pid="A"/><g s:x="27" s:y="10" s:pid="Y"/></g><g s:type="NOT" transform="translate(178,118)" s:width="30" s:height="20" id="cell_$abc$615$auto$blifparse.cc:386:parse_blif$618"><s:alias val="NOT"/><s:alias val="$NOT"/><path d="M0,0 L0,20 L20,10 Z" class="cell_$abc$615$auto$blifparse.cc:386:parse_blif$618"/><circle cx="24" cy="10" r="3" class="cell_$abc$615$auto$blifparse.cc:386:parse_blif$618"/><g s:x="-1" s:y="10" s:pid="A"/><g s:x="27" s:y="10" s:pid="Y"/></g><g s:type="NOR2" transform="translate(251,168)" s:width="33" s:height="25" id="cell_$abc$615$auto$blifparse.cc:386:parse_blif$619"><s:alias val="NOR2"/><s:alias val="$NOR2"/><path d="M0,0 A30 25 0 0 1 0,25 A30 25 0 0 0 30,12.5 A30 25 0 0 0 0,0" class="cell_$abc$615$auto$blifparse.cc:386:parse_blif$619"/><circle cx="33" cy="12.5" r="3" class="cell_$abc$615$auto$blifparse.cc:386:parse_blif$619"/><g s:x="2" s:y="5" s:pid="A"/><g s:x="2" s:y="20" s:pid="B"/><g s:x="36" s:y="12.5" s:pid="Y"/></g><g s:type="NAND2" transform="translate(251,108)" s:width="30" s:height="25" id="cell_$abc$615$auto$blifparse.cc:386:parse_blif$620"><s:alias val="NAND2"/><s:alias val="$NAND2"/><path d="M0,0 L0,25 L15,25 A15 12.5 0 0 0 15,0 Z" class="cell_$abc$615$auto$blifparse.cc:386:parse_blif$620"/><circle cx="34" cy="12.5" r="3" class="cell_$abc$615$auto$blifparse.cc:386:parse_blif$620"/><g s:x="0" s:y="5" s:pid="A"/><g s:x="0" s:y="20" s:pid="B"/><g s:x="36" s:y="12.5" s:pid="Y"/></g><g s:type="NOR2" transform="translate(367,160.5)" s:width="33" s:height="25" id="cell_$abc$615$auto$blifparse.cc:386:parse_blif$621"><s:alias val="NOR2"/><s:alias val="$NOR2"/><path d="M0,0 A30 25 0 0 1 0,25 A30 25 0 0 0 30,12.5 A30 25 0 0 0 0,0" class="cell_$abc$615$auto$blifparse.cc:386:parse_blif$621"/><circle cx="33" cy="12.5" r="3" class="cell_$abc$615$auto$blifparse.cc:386:parse_blif$621"/><g s:x="2" s:y="5" s:pid="A"/><g s:x="2" s:y="20" s:pid="B"/><g s:x="36" s:y="12.5" s:pid="Y"/></g><g s:type="NAND2" transform="translate(367,225.5)" s:width="30" s:height="25" id="cell_$abc$615$auto$blifparse.cc:386:parse_blif$622"><s:alias val="NAND2"/><s:alias val="$NAND2"/><path d="M0,0 L0,25 L15,25 A15 12.5 0 0 0 15,0 Z" class="cell_$abc$615$auto$blifparse.cc:386:parse_blif$622"/><circle cx="34" cy="12.5" r="3" class="cell_$abc$615$auto$blifparse.cc:386:parse_blif$622"/><g s:x="0" s:y="5" s:pid="A"/><g s:x="0" s:y="20" s:pid="B"/><g s:x="36" s:y="12.5" s:pid="Y"/></g><g s:type="NOR2" transform="translate(175,199)" s:width="33" s:height="25" id="cell_$abc$615$auto$blifparse.cc:386:parse_blif$623"><s:alias val="NOR2"/><s:alias val="$NOR2"/><path d="M0,0 A30 25 0 0 1 0,25 A30 25 0 0 0 30,12.5 A30 25 0 0 0 0,0" class="cell_$abc$615$auto$blifparse.cc:386:parse_blif$623"/><circle cx="33" cy="12.5" r="3" class="cell_$abc$615$auto$blifparse.cc:386:parse_blif$623"/><g s:x="2" s:y="5" s:pid="A"/><g s:x="2" s:y="20" s:pid="B"/><g s:x="36" s:y="12.5" s:pid="Y"/></g><g s:type="NOT" transform="translate(254,222.5)" s:width="30" s:height="20" id="cell_$abc$615$auto$blifparse.cc:386:parse_blif$624"><s:alias val="NOT"/><s:alias val="$NOT"/><path d="M0,0 L0,20 L20,10 Z" class="cell_$abc$615$auto$blifparse.cc:386:parse_blif$624"/><circle cx="24" cy="10" r="3" class="cell_$abc$615$auto$blifparse.cc:386:parse_blif$624"/><g s:x="-1" s:y="10" s:pid="A"/><g s:x="27" s:y="10" s:pid="Y"/></g><g s:type="NOR3" transform="translate(367,550.5)" s:width="30" s:height="25" id="cell_$abc$615$auto$blifparse.cc:386:parse_blif$625"><s:alias val="NOR3"/><s:alias val="$NOR3"/><path d="M0,0 A30 25 0 0 1 0,25 A30 25 0 0 0 30,12.5 A30 25 0 0 0 0,0" class="cell_$abc$615$auto$blifparse.cc:386:parse_blif$625"/><circle cx="33" cy="12.5" r="3" class="cell_$abc$615$auto$blifparse.cc:386:parse_blif$625"/><g s:x="2" s:y="6" s:pid="A"/><g s:x="3" s:y="12.5" s:pid="B"/><g s:x="2" s:y="19" s:pid="C"/><g s:x="36" s:y="12.5" s:pid="Y"/></g><g s:type="NAND3" transform="translate(367,485.5)" s:width="30" s:height="25" id="cell_$abc$615$auto$blifparse.cc:386:parse_blif$626"><s:alias val="NAND3"/><s:alias val="$NAND3"/><path d="M0,0 L0,25 L15,25 A15 12.5 0 0 0 15,0 Z" class="cell_$abc$615$auto$blifparse.cc:386:parse_blif$626"/><circle cx="34" cy="12.5" r="3" class="cell_$abc$615$auto$blifparse.cc:386:parse_blif$626"/><g s:x="0" s:y="3" s:pid="A"/><g s:x="0" s:y="12.5" s:pid="B"/><g s:x="0" s:y="22" s:pid="C"/><g s:x="36" s:y="12.5" s:pid="Y"/></g><g s:type="NAND3" transform="translate(367,355.5)" s:width="30" s:height="25" id="cell_$abc$615$auto$blifparse.cc:386:parse_blif$627"><s:alias val="NAND3"/><s:alias val="$NAND3"/><path d="M0,0 L0,25 L15,25 A15 12.5 0 0 0 15,0 Z" class="cell_$abc$615$auto$blifparse.cc:386:parse_blif$627"/><circle cx="34" cy="12.5" r="3" class="cell_$abc$615$auto$blifparse.cc:386:parse_blif$627"/><g s:x="0" s:y="3" s:pid="A"/><g s:x="0" s:y="12.5" s:pid="B"/><g s:x="0" s:y="22" s:pid="C"/><g s:x="36" s:y="12.5" s:pid="Y"/></g><g s:type="inputExt" transform="translate(62,42)" s:width="30" s:height="20" id="cell_gcd_done"><text x="15" y="-4" class="nodelabel cell_gcd_done" s:attribute="ref">gcd_done</text><s:alias val="$_inputExt_"/><path d="M0,0 L0,20 L15,20 L30,10 L15,0 Z" class="cell_gcd_done"/><g s:x="30" s:y="10" s:pid="Y"/></g><g s:type="inputExt" transform="translate(178,22)" s:width="30" s:height="20" id="cell_start"><text x="15" y="-4" class="nodelabel cell_start" s:attribute="ref">start</text><s:alias val="$_inputExt_"/><path d="M0,0 L0,20 L15,20 L30,10 L15,0 Z" class="cell_start"/><g s:x="30" s:y="10" s:pid="Y"/></g><g s:type="inputExt" transform="translate(62,209)" s:width="30" s:height="20" id="cell_compare"><text x="15" y="-4" class="nodelabel cell_compare" s:attribute="ref">compare</text><s:alias val="$_inputExt_"/><path d="M0,0 L0,20 L15,20 L30,10 L15,0 Z" class="cell_compare"/><g s:x="30" s:y="10" s:pid="Y"/></g><g s:type="inputExt" transform="translate(12,22)" s:width="30" s:height="20" id="cell_CLK"><text x="15" y="-4" class="nodelabel cell_CLK" s:attribute="ref">CLK</text><s:alias val="$_inputExt_"/><path d="M0,0 L0,20 L15,20 L30,10 L15,0 Z" class="cell_CLK"/><g s:x="30" s:y="10" s:pid="Y"/></g><g s:type="inputExt" transform="translate(62,118)" s:width="30" s:height="20" id="cell_relprime_done"><text x="15" y="-4" class="nodelabel cell_relprime_done" s:attribute="ref">relprime_done</text><s:alias val="$_inputExt_"/><path d="M0,0 L0,20 L15,20 L30,10 L15,0 Z" class="cell_relprime_done"/><g s:x="30" s:y="10" s:pid="Y"/></g><g s:type="outputExt" transform="translate(438,228)" s:width="30" s:height="20" id="cell_CTRL1"><text x="15" y="-4" class="nodelabel cell_CTRL1" s:attribute="ref">CTRL1</text><s:alias val="$_outputExt_"/><path d="M30,0 L30,20 L15,20 L0,10 L15,0 Z" class="cell_CTRL1"/><g s:x="0" s:y="10" s:pid="A"/></g><g s:type="outputExt" transform="translate(438,553)" s:width="30" s:height="20" id="cell_CTRL2"><text x="15" y="-4" class="nodelabel cell_CTRL2" s:attribute="ref">CTRL2</text><s:alias val="$_outputExt_"/><path d="M30,0 L30,20 L15,20 L0,10 L15,0 Z" class="cell_CTRL2"/><g s:x="0" s:y="10" s:pid="A"/></g><g s:type="outputExt" transform="translate(438,22)" s:width="30" s:height="20" id="cell_CTRL3"><text x="15" y="-4" class="nodelabel cell_CTRL3" s:attribute="ref">CTRL3</text><s:alias val="$_outputExt_"/><path d="M30,0 L30,20 L15,20 L0,10 L15,0 Z" class="cell_CTRL3"/><g s:x="0" s:y="10" s:pid="A"/></g><g s:type="outputExt" transform="translate(438,358)" s:width="30" s:height="20" id="cell_CTRL4"><text x="15" y="-4" class="nodelabel cell_CTRL4" s:attribute="ref">CTRL4</text><s:alias val="$_outputExt_"/><path d="M30,0 L30,20 L15,20 L0,10 L15,0 Z" class="cell_CTRL4"/><g s:x="0" s:y="10" s:pid="A"/></g><g s:type="outputExt" transform="translate(438,163)" s:width="30" s:height="20" id="cell_CTRL5"><text x="15" y="-4" class="nodelabel cell_CTRL5" s:attribute="ref">CTRL5</text><s:alias val="$_outputExt_"/><path d="M30,0 L30,20 L15,20 L0,10 L15,0 Z" class="cell_CTRL5"/><g s:x="0" s:y="10" s:pid="A"/></g><g s:type="outputExt" transform="translate(438,423)" s:width="30" s:height="20" id="cell_CTRL7"><text x="15" y="-4" class="nodelabel cell_CTRL7" s:attribute="ref">CTRL7</text><s:alias val="$_outputExt_"/><path d="M30,0 L30,20 L15,20 L0,10 L15,0 Z" class="cell_CTRL7"/><g s:x="0" s:y="10" s:pid="A"/></g><g s:type="outputExt" transform="translate(438,488)" s:width="30" s:height="20" id="cell_CTRL8"><text x="15" y="-4" class="nodelabel cell_CTRL8" s:attribute="ref">CTRL8</text><s:alias val="$_outputExt_"/><path d="M30,0 L30,20 L15,20 L0,10 L15,0 Z" class="cell_CTRL8"/><g s:x="0" s:y="10" s:pid="A"/></g><g s:type="outputExt" transform="translate(438,293)" s:width="30" s:height="20" id="cell_CTRL9"><text x="15" y="-4" class="nodelabel cell_CTRL9" s:attribute="ref">CTRL9</text><s:alias val="$_outputExt_"/><path d="M30,0 L30,20 L15,20 L0,10 L15,0 Z" class="cell_CTRL9"/><g s:x="0" s:y="10" s:pid="A"/></g><line x1="208" x2="231" y1="32" y2="32" class="net_3 width_1" style="stroke-width: 1"/><line x1="231" x2="231" y1="32" y2="53" class="net_3 width_1" style="stroke-width: 1"/><circle cx="231" cy="32" r="2" style="fill:#000" class="net_3 width_1"/><circle cx="231" cy="53" r="2" style="fill:#000" class="net_3 width_1"/><line x1="231" x2="253" y1="53" y2="53" class="net_3 width_1" style="stroke-width: 1"/><line x1="208" x2="357" y1="32" y2="32" class="net_3 width_1" style="stroke-width: 1"/><line x1="357" x2="357" y1="32" y2="165.5" class="net_3 width_1" style="stroke-width: 1"/><circle cx="357" cy="32" r="2" style="fill:#000" class="net_3 width_1"/><line x1="357" x2="369" y1="165.5" y2="165.5" class="net_3 width_1" style="stroke-width: 1"/><line x1="208" x2="231" y1="32" y2="32" class="net_3 width_1" style="stroke-width: 1"/><line x1="231" x2="231" y1="32" y2="556.5" class="net_3 width_1" style="stroke-width: 1"/><line x1="231" x2="369" y1="556.5" y2="556.5" class="net_3 width_1" style="stroke-width: 1"/><line x1="208" x2="438" y1="32" y2="32" class="net_3 width_1" style="stroke-width: 1"/><line x1="92" x2="150" y1="52" y2="52" class="net_2 width_1" style="stroke-width: 1"/><line x1="150" x2="150" y1="52" y2="73" class="net_2 width_1" style="stroke-width: 1"/><circle cx="150" cy="52" r="2" style="fill:#000" class="net_2 width_1"/><line x1="150" x2="177" y1="73" y2="73" class="net_2 width_1" style="stroke-width: 1"/><line x1="92" x2="221" y1="52" y2="52" class="net_2 width_1" style="stroke-width: 1"/><line x1="221" x2="221" y1="52" y2="113" class="net_2 width_1" style="stroke-width: 1"/><line x1="221" x2="251" y1="113" y2="113" class="net_2 width_1" style="stroke-width: 1"/><line x1="92" x2="177" y1="128" y2="128" class="net_6 width_1" style="stroke-width: 1"/><line x1="92" x2="150" y1="128" y2="128" class="net_6 width_1" style="stroke-width: 1"/><line x1="150" x2="150" y1="128" y2="188" class="net_6 width_1" style="stroke-width: 1"/><circle cx="150" cy="128" r="2" style="fill:#000" class="net_6 width_1"/><circle cx="150" cy="188" r="2" style="fill:#000" class="net_6 width_1"/><line x1="150" x2="253" y1="188" y2="188" class="net_6 width_1" style="stroke-width: 1"/><line x1="92" x2="150" y1="128" y2="128" class="net_6 width_1" style="stroke-width: 1"/><line x1="150" x2="150" y1="128" y2="204" class="net_6 width_1" style="stroke-width: 1"/><line x1="150" x2="177" y1="204" y2="204" class="net_6 width_1" style="stroke-width: 1"/><line x1="205" x2="241" y1="73" y2="73" class="net_13 width_1" style="stroke-width: 1"/><line x1="241" x2="241" y1="73" y2="173" class="net_13 width_1" style="stroke-width: 1"/><circle cx="241" cy="73" r="2" style="fill:#000" class="net_13 width_1"/><line x1="241" x2="253" y1="173" y2="173" class="net_13 width_1" style="stroke-width: 1"/><line x1="205" x2="337" y1="73" y2="73" class="net_13 width_1" style="stroke-width: 1"/><line x1="337" x2="337" y1="73" y2="368" class="net_13 width_1" style="stroke-width: 1"/><line x1="337" x2="367" y1="368" y2="368" class="net_13 width_1" style="stroke-width: 1"/><line x1="205" x2="251" y1="128" y2="128" class="net_14 width_1" style="stroke-width: 1"/><line x1="287" x2="369" y1="180.5" y2="180.5" class="net_15 width_1" style="stroke-width: 1"/><line x1="287" x2="317" y1="180.5" y2="180.5" class="net_15 width_1" style="stroke-width: 1"/><line x1="317" x2="317" y1="180.5" y2="563" class="net_15 width_1" style="stroke-width: 1"/><circle cx="317" cy="180.5" r="2" style="fill:#000" class="net_15 width_1"/><line x1="317" x2="370" y1="563" y2="563" class="net_15 width_1" style="stroke-width: 1"/><line x1="281" x2="347" y1="53" y2="53" class="net_12 width_1" style="stroke-width: 1"/><line x1="347" x2="347" y1="53" y2="230.5" class="net_12 width_1" style="stroke-width: 1"/><circle cx="347" cy="230.5" r="2" style="fill:#000" class="net_12 width_1"/><line x1="347" x2="367" y1="230.5" y2="230.5" class="net_12 width_1" style="stroke-width: 1"/><line x1="281" x2="347" y1="53" y2="53" class="net_12 width_1" style="stroke-width: 1"/><line x1="347" x2="347" y1="53" y2="488.5" class="net_12 width_1" style="stroke-width: 1"/><line x1="347" x2="367" y1="488.5" y2="488.5" class="net_12 width_1" style="stroke-width: 1"/><line x1="281" x2="347" y1="53" y2="53" class="net_12 width_1" style="stroke-width: 1"/><line x1="347" x2="347" y1="53" y2="358.5" class="net_12 width_1" style="stroke-width: 1"/><circle cx="347" cy="358.5" r="2" style="fill:#000" class="net_12 width_1"/><line x1="347" x2="367" y1="358.5" y2="358.5" class="net_12 width_1" style="stroke-width: 1"/><line x1="287" x2="327" y1="120.5" y2="120.5" class="net_16 width_1" style="stroke-width: 1"/><line x1="327" x2="327" y1="120.5" y2="245.5" class="net_16 width_1" style="stroke-width: 1"/><circle cx="327" cy="245.5" r="2" style="fill:#000" class="net_16 width_1"/><line x1="327" x2="367" y1="245.5" y2="245.5" class="net_16 width_1" style="stroke-width: 1"/><line x1="287" x2="327" y1="120.5" y2="120.5" class="net_16 width_1" style="stroke-width: 1"/><line x1="327" x2="327" y1="120.5" y2="498" class="net_16 width_1" style="stroke-width: 1"/><line x1="327" x2="367" y1="498" y2="498" class="net_16 width_1" style="stroke-width: 1"/><line x1="92" x2="177" y1="219" y2="219" class="net_4 width_1" style="stroke-width: 1"/><line x1="211" x2="241" y1="211.5" y2="211.5" class="net_17 width_1" style="stroke-width: 1"/><line x1="241" x2="241" y1="211.5" y2="232.5" class="net_17 width_1" style="stroke-width: 1"/><circle cx="241" cy="211.5" r="2" style="fill:#000" class="net_17 width_1"/><circle cx="241" cy="232.5" r="2" style="fill:#000" class="net_17 width_1"/><line x1="241" x2="253" y1="232.5" y2="232.5" class="net_17 width_1" style="stroke-width: 1"/><line x1="211" x2="241" y1="211.5" y2="211.5" class="net_17 width_1" style="stroke-width: 1"/><line x1="241" x2="241" y1="211.5" y2="567.5" class="net_17 width_1" style="stroke-width: 1"/><line x1="241" x2="297" y1="567.5" y2="567.5" class="net_17 width_1" style="stroke-width: 1"/><line x1="297" x2="297" y1="567.5" y2="569.5" class="net_17 width_1" style="stroke-width: 1"/><line x1="297" x2="369" y1="569.5" y2="569.5" class="net_17 width_1" style="stroke-width: 1"/><line x1="211" x2="307" y1="211.5" y2="211.5" class="net_17 width_1" style="stroke-width: 1"/><line x1="307" x2="307" y1="211.5" y2="377.5" class="net_17 width_1" style="stroke-width: 1"/><line x1="307" x2="367" y1="377.5" y2="377.5" class="net_17 width_1" style="stroke-width: 1"/><line x1="281" x2="297" y1="232.5" y2="232.5" class="net_18 width_1" style="stroke-width: 1"/><line x1="297" x2="297" y1="232.5" y2="507.5" class="net_18 width_1" style="stroke-width: 1"/><line x1="297" x2="367" y1="507.5" y2="507.5" class="net_18 width_1" style="stroke-width: 1"/><line x1="403" x2="438" y1="238" y2="238" class="net_7 width_1" style="stroke-width: 1"/><line x1="403" x2="413" y1="238" y2="238" class="net_7 width_1" style="stroke-width: 1"/><line x1="413" x2="413" y1="238" y2="303" class="net_7 width_1" style="stroke-width: 1"/><circle cx="413" cy="238" r="2" style="fill:#000" class="net_7 width_1"/><line x1="413" x2="438" y1="303" y2="303" class="net_7 width_1" style="stroke-width: 1"/><line x1="403" x2="438" y1="563" y2="563" class="net_8 width_1" style="stroke-width: 1"/><line x1="403" x2="438" y1="368" y2="368" class="net_9 width_1" style="stroke-width: 1"/><line x1="403" x2="413" y1="368" y2="368" class="net_9 width_1" style="stroke-width: 1"/><line x1="413" x2="413" y1="368" y2="433" class="net_9 width_1" style="stroke-width: 1"/><circle cx="413" cy="368" r="2" style="fill:#000" class="net_9 width_1"/><line x1="413" x2="438" y1="433" y2="433" class="net_9 width_1" style="stroke-width: 1"/><line x1="403" x2="438" y1="173" y2="173" class="net_10 width_1" style="stroke-width: 1"/><line x1="403" x2="438" y1="498" y2="498" class="net_11 width_1" style="stroke-width: 1"/></svg>