<svg xmlns="http://www.w3.org/2000/svg" xmlns:xlink="http://www.w3.org/1999/xlink" xmlns:s="https://github.com/nturley/netlistsvg" width="589" height="509"><style>svg {
  stroke:#000;
  fill:none;
}
text {
  fill:#000;
  stroke:none;
  font-size:10px;
  font-weight: bold;
  font-family: "Courier New", monospace;
}
line {
    stroke-linecap: round;
}
.nodelabel {
  text-anchor: middle;
}
.inputPortLabel {
  text-anchor: end;
}
.splitjoinBody {
  fill:#000;
}</style><g s:type="not" transform="translate(169,87)" s:width="30" s:height="20" id="cell_$abc$615$auto$blifparse.cc:386:parse_blif$616"><s:alias val="$_NOT_"/><s:alias val="$not"/><s:alias val="$logic_not"/><path d="M0,0 L0,20 L20,10 Z" class="cell_$abc$615$auto$blifparse.cc:386:parse_blif$616"/><circle cx="24" cy="10" r="3" class="cell_$abc$615$auto$blifparse.cc:386:parse_blif$616"/><g s:x="-1" s:y="10" s:pid="A"/><g s:x="27" s:y="10" s:pid="Y"/></g><g s:type="not" transform="translate(169,207)" s:width="30" s:height="20" id="cell_$abc$615$auto$blifparse.cc:386:parse_blif$617"><s:alias val="$_NOT_"/><s:alias val="$not"/><s:alias val="$logic_not"/><path d="M0,0 L0,20 L20,10 Z" class="cell_$abc$615$auto$blifparse.cc:386:parse_blif$617"/><circle cx="24" cy="10" r="3" class="cell_$abc$615$auto$blifparse.cc:386:parse_blif$617"/><g s:x="-1" s:y="10" s:pid="A"/><g s:x="27" s:y="10" s:pid="Y"/></g><g s:type="not" transform="translate(261,282)" s:width="30" s:height="20" id="cell_$abc$615$auto$blifparse.cc:386:parse_blif$618"><s:alias val="$_NOT_"/><s:alias val="$not"/><s:alias val="$logic_not"/><path d="M0,0 L0,20 L20,10 Z" class="cell_$abc$615$auto$blifparse.cc:386:parse_blif$618"/><circle cx="24" cy="10" r="3" class="cell_$abc$615$auto$blifparse.cc:386:parse_blif$618"/><g s:x="-1" s:y="10" s:pid="A"/><g s:x="27" s:y="10" s:pid="Y"/></g><g s:type="not" transform="translate(261,337)" s:width="30" s:height="20" id="cell_$abc$615$auto$blifparse.cc:386:parse_blif$619"><s:alias val="$_NOT_"/><s:alias val="$not"/><s:alias val="$logic_not"/><path d="M0,0 L0,20 L20,10 Z" class="cell_$abc$615$auto$blifparse.cc:386:parse_blif$619"/><circle cx="24" cy="10" r="3" class="cell_$abc$615$auto$blifparse.cc:386:parse_blif$619"/><g s:x="-1" s:y="10" s:pid="A"/><g s:x="27" s:y="10" s:pid="Y"/></g><g s:type="nand" transform="translate(258,197)" s:width="30" s:height="25" id="cell_$abc$615$auto$blifparse.cc:386:parse_blif$620"><s:alias val="$nand"/><s:alias val="$logic_nand"/><s:alias val="$_NAND_"/><s:alias val="$_ANDNOT_"/><path d="M0,0 L0,25 L15,25 A15 12.5 0 0 0 15,0 Z" class="cell_$abc$615$auto$blifparse.cc:386:parse_blif$620"/><circle cx="34" cy="12.5" r="3" class="cell_$abc$615$auto$blifparse.cc:386:parse_blif$620"/><g s:x="0" s:y="5" s:pid="A"/><g s:x="0" s:y="20" s:pid="B"/><g s:x="36" s:y="12.5" s:pid="Y"/></g><g s:type="not" transform="translate(408,404.5)" s:width="30" s:height="20" id="cell_$abc$615$auto$blifparse.cc:386:parse_blif$621"><s:alias val="$_NOT_"/><s:alias val="$not"/><s:alias val="$logic_not"/><path d="M0,0 L0,20 L20,10 Z" class="cell_$abc$615$auto$blifparse.cc:386:parse_blif$621"/><circle cx="24" cy="10" r="3" class="cell_$abc$615$auto$blifparse.cc:386:parse_blif$621"/><g s:x="-1" s:y="10" s:pid="A"/><g s:x="27" s:y="10" s:pid="Y"/></g><g s:type="nand" transform="translate(258,92)" s:width="30" s:height="25" id="cell_$abc$615$auto$blifparse.cc:386:parse_blif$622"><s:alias val="$nand"/><s:alias val="$logic_nand"/><s:alias val="$_NAND_"/><s:alias val="$_ANDNOT_"/><path d="M0,0 L0,25 L15,25 A15 12.5 0 0 0 15,0 Z" class="cell_$abc$615$auto$blifparse.cc:386:parse_blif$622"/><circle cx="34" cy="12.5" r="3" class="cell_$abc$615$auto$blifparse.cc:386:parse_blif$622"/><g s:x="0" s:y="5" s:pid="A"/><g s:x="0" s:y="20" s:pid="B"/><g s:x="36" s:y="12.5" s:pid="Y"/></g><g s:type="nand" transform="translate(329,84.5)" s:width="30" s:height="25" id="cell_$abc$615$auto$blifparse.cc:386:parse_blif$623"><s:alias val="$nand"/><s:alias val="$logic_nand"/><s:alias val="$_NAND_"/><s:alias val="$_ANDNOT_"/><path d="M0,0 L0,25 L15,25 A15 12.5 0 0 0 15,0 Z" class="cell_$abc$615$auto$blifparse.cc:386:parse_blif$623"/><circle cx="34" cy="12.5" r="3" class="cell_$abc$615$auto$blifparse.cc:386:parse_blif$623"/><g s:x="0" s:y="5" s:pid="A"/><g s:x="0" s:y="20" s:pid="B"/><g s:x="36" s:y="12.5" s:pid="Y"/></g><g s:type="not" transform="translate(479,152)" s:width="30" s:height="20" id="cell_$abc$615$auto$blifparse.cc:386:parse_blif$624"><s:alias val="$_NOT_"/><s:alias val="$not"/><s:alias val="$logic_not"/><path d="M0,0 L0,20 L20,10 Z" class="cell_$abc$615$auto$blifparse.cc:386:parse_blif$624"/><circle cx="24" cy="10" r="3" class="cell_$abc$615$auto$blifparse.cc:386:parse_blif$624"/><g s:x="-1" s:y="10" s:pid="A"/><g s:x="27" s:y="10" s:pid="Y"/></g><g s:type="nand" transform="translate(329,287)" s:width="30" s:height="25" id="cell_$abc$615$auto$blifparse.cc:386:parse_blif$625"><s:alias val="$nand"/><s:alias val="$logic_nand"/><s:alias val="$_NAND_"/><s:alias val="$_ANDNOT_"/><path d="M0,0 L0,25 L15,25 A15 12.5 0 0 0 15,0 Z" class="cell_$abc$615$auto$blifparse.cc:386:parse_blif$625"/><circle cx="34" cy="12.5" r="3" class="cell_$abc$615$auto$blifparse.cc:386:parse_blif$625"/><g s:x="0" s:y="5" s:pid="A"/><g s:x="0" s:y="20" s:pid="B"/><g s:x="36" s:y="12.5" s:pid="Y"/></g><g s:type="not" transform="translate(408,459.5)" s:width="30" s:height="20" id="cell_$abc$615$auto$blifparse.cc:386:parse_blif$626"><s:alias val="$_NOT_"/><s:alias val="$not"/><s:alias val="$logic_not"/><path d="M0,0 L0,20 L20,10 Z" class="cell_$abc$615$auto$blifparse.cc:386:parse_blif$626"/><circle cx="24" cy="10" r="3" class="cell_$abc$615$auto$blifparse.cc:386:parse_blif$626"/><g s:x="-1" s:y="10" s:pid="A"/><g s:x="27" s:y="10" s:pid="Y"/></g><g s:type="nand" transform="translate(405,279.5)" s:width="30" s:height="25" id="cell_$abc$615$auto$blifparse.cc:386:parse_blif$627"><s:alias val="$nand"/><s:alias val="$logic_nand"/><s:alias val="$_NAND_"/><s:alias val="$_ANDNOT_"/><path d="M0,0 L0,25 L15,25 A15 12.5 0 0 0 15,0 Z" class="cell_$abc$615$auto$blifparse.cc:386:parse_blif$627"/><circle cx="34" cy="12.5" r="3" class="cell_$abc$615$auto$blifparse.cc:386:parse_blif$627"/><g s:x="0" s:y="5" s:pid="A"/><g s:x="0" s:y="20" s:pid="B"/><g s:x="36" s:y="12.5" s:pid="Y"/></g><g s:type="not" transform="translate(479,282)" s:width="30" s:height="20" id="cell_$abc$615$auto$blifparse.cc:386:parse_blif$628"><s:alias val="$_NOT_"/><s:alias val="$not"/><s:alias val="$logic_not"/><path d="M0,0 L0,20 L20,10 Z" class="cell_$abc$615$auto$blifparse.cc:386:parse_blif$628"/><circle cx="24" cy="10" r="3" class="cell_$abc$615$auto$blifparse.cc:386:parse_blif$628"/><g s:x="-1" s:y="10" s:pid="A"/><g s:x="27" s:y="10" s:pid="Y"/></g><g s:type="nand" transform="translate(476,409.5)" s:width="30" s:height="25" id="cell_$abc$615$auto$blifparse.cc:386:parse_blif$629"><s:alias val="$nand"/><s:alias val="$logic_nand"/><s:alias val="$_NAND_"/><s:alias val="$_ANDNOT_"/><path d="M0,0 L0,25 L15,25 A15 12.5 0 0 0 15,0 Z" class="cell_$abc$615$auto$blifparse.cc:386:parse_blif$629"/><circle cx="34" cy="12.5" r="3" class="cell_$abc$615$auto$blifparse.cc:386:parse_blif$629"/><g s:x="0" s:y="5" s:pid="A"/><g s:x="0" s:y="20" s:pid="B"/><g s:x="36" s:y="12.5" s:pid="Y"/></g><g s:type="inputExt" transform="translate(62,207)" s:width="30" s:height="20" id="cell_gcd_done"><text x="15" y="-4" class="nodelabel cell_gcd_done" s:attribute="ref">gcd_done</text><s:alias val="$_inputExt_"/><path d="M0,0 L0,20 L15,20 L30,10 L15,0 Z" class="cell_gcd_done"/><g s:x="30" s:y="10" s:pid="Y"/></g><g s:type="inputExt" transform="translate(62,22)" s:width="30" s:height="20" id="cell_start"><text x="15" y="-4" class="nodelabel cell_start" s:attribute="ref">start</text><s:alias val="$_inputExt_"/><path d="M0,0 L0,20 L15,20 L30,10 L15,0 Z" class="cell_start"/><g s:x="30" s:y="10" s:pid="Y"/></g><g s:type="inputExt" transform="translate(145,337)" s:width="30" s:height="20" id="cell_compare"><text x="15" y="-4" class="nodelabel cell_compare" s:attribute="ref">compare</text><s:alias val="$_inputExt_"/><path d="M0,0 L0,20 L15,20 L30,10 L15,0 Z" class="cell_compare"/><g s:x="30" s:y="10" s:pid="Y"/></g><g s:type="inputExt" transform="translate(12,22)" s:width="30" s:height="20" id="cell_CLK"><text x="15" y="-4" class="nodelabel cell_CLK" s:attribute="ref">CLK</text><s:alias val="$_inputExt_"/><path d="M0,0 L0,20 L15,20 L30,10 L15,0 Z" class="cell_CLK"/><g s:x="30" s:y="10" s:pid="Y"/></g><g s:type="inputExt" transform="translate(145,152)" s:width="30" s:height="20" id="cell_relprime_done"><text x="15" y="-4" class="nodelabel cell_relprime_done" s:attribute="ref">relprime_done</text><s:alias val="$_inputExt_"/><path d="M0,0 L0,20 L15,20 L30,10 L15,0 Z" class="cell_relprime_done"/><g s:x="30" s:y="10" s:pid="Y"/></g><g s:type="outputExt" transform="translate(547,217)" s:width="30" s:height="20" id="cell_CTRL1"><text x="15" y="-4" class="nodelabel cell_CTRL1" s:attribute="ref">CTRL1</text><s:alias val="$_outputExt_"/><path d="M30,0 L30,20 L15,20 L0,10 L15,0 Z" class="cell_CTRL1"/><g s:x="0" s:y="10" s:pid="A"/></g><g s:type="outputExt" transform="translate(547,282)" s:width="30" s:height="20" id="cell_CTRL2"><text x="15" y="-4" class="nodelabel cell_CTRL2" s:attribute="ref">CTRL2</text><s:alias val="$_outputExt_"/><path d="M30,0 L30,20 L15,20 L0,10 L15,0 Z" class="cell_CTRL2"/><g s:x="0" s:y="10" s:pid="A"/></g><g s:type="outputExt" transform="translate(547,22)" s:width="30" s:height="20" id="cell_CTRL3"><text x="15" y="-4" class="nodelabel cell_CTRL3" s:attribute="ref">CTRL3</text><s:alias val="$_outputExt_"/><path d="M30,0 L30,20 L15,20 L0,10 L15,0 Z" class="cell_CTRL3"/><g s:x="0" s:y="10" s:pid="A"/></g><g s:type="outputExt" transform="translate(547,477)" s:width="30" s:height="20" id="cell_CTRL4"><text x="15" y="-4" class="nodelabel cell_CTRL4" s:attribute="ref">CTRL4</text><s:alias val="$_outputExt_"/><path d="M30,0 L30,20 L15,20 L0,10 L15,0 Z" class="cell_CTRL4"/><g s:x="0" s:y="10" s:pid="A"/></g><g s:type="outputExt" transform="translate(547,87)" s:width="30" s:height="20" id="cell_CTRL5"><text x="15" y="-4" class="nodelabel cell_CTRL5" s:attribute="ref">CTRL5</text><s:alias val="$_outputExt_"/><path d="M30,0 L30,20 L15,20 L0,10 L15,0 Z" class="cell_CTRL5"/><g s:x="0" s:y="10" s:pid="A"/></g><g s:type="outputExt" transform="translate(547,412)" s:width="30" s:height="20" id="cell_CTRL7"><text x="15" y="-4" class="nodelabel cell_CTRL7" s:attribute="ref">CTRL7</text><s:alias val="$_outputExt_"/><path d="M30,0 L30,20 L15,20 L0,10 L15,0 Z" class="cell_CTRL7"/><g s:x="0" s:y="10" s:pid="A"/></g><g s:type="outputExt" transform="translate(547,347)" s:width="30" s:height="20" id="cell_CTRL8"><text x="15" y="-4" class="nodelabel cell_CTRL8" s:attribute="ref">CTRL8</text><s:alias val="$_outputExt_"/><path d="M30,0 L30,20 L15,20 L0,10 L15,0 Z" class="cell_CTRL8"/><g s:x="0" s:y="10" s:pid="A"/></g><g s:type="outputExt" transform="translate(547,152)" s:width="30" s:height="20" id="cell_CTRL9"><text x="15" y="-4" class="nodelabel cell_CTRL9" s:attribute="ref">CTRL9</text><s:alias val="$_outputExt_"/><path d="M30,0 L30,20 L15,20 L0,10 L15,0 Z" class="cell_CTRL9"/><g s:x="0" s:y="10" s:pid="A"/></g><line x1="92" x2="120" y1="32" y2="32" class="net_3 width_1" style="stroke-width: 1"/><line x1="120" x2="120" y1="32" y2="97" class="net_3 width_1" style="stroke-width: 1"/><circle cx="120" cy="32" r="2" style="fill:#000" class="net_3 width_1"/><line x1="120" x2="168" y1="97" y2="97" class="net_3 width_1" style="stroke-width: 1"/><line x1="92" x2="547" y1="32" y2="32" class="net_3 width_1" style="stroke-width: 1"/><line x1="92" x2="168" y1="217" y2="217" class="net_2 width_1" style="stroke-width: 1"/><line x1="175" x2="233" y1="162" y2="162" class="net_6 width_1" style="stroke-width: 1"/><line x1="233" x2="233" y1="162" y2="292" class="net_6 width_1" style="stroke-width: 1"/><circle cx="233" cy="162" r="2" style="fill:#000" class="net_6 width_1"/><line x1="233" x2="260" y1="292" y2="292" class="net_6 width_1" style="stroke-width: 1"/><line x1="175" x2="233" y1="162" y2="162" class="net_6 width_1" style="stroke-width: 1"/><line x1="233" x2="233" y1="162" y2="112" class="net_6 width_1" style="stroke-width: 1"/><line x1="233" x2="258" y1="112" y2="112" class="net_6 width_1" style="stroke-width: 1"/><line x1="175" x2="260" y1="347" y2="347" class="net_4 width_1" style="stroke-width: 1"/><line x1="196" x2="243" y1="97" y2="97" class="net_12 width_1" style="stroke-width: 1"/><line x1="243" x2="243" y1="97" y2="202" class="net_12 width_1" style="stroke-width: 1"/><circle cx="243" cy="97" r="2" style="fill:#000" class="net_12 width_1"/><line x1="243" x2="258" y1="202" y2="202" class="net_12 width_1" style="stroke-width: 1"/><line x1="196" x2="258" y1="97" y2="97" class="net_12 width_1" style="stroke-width: 1"/><line x1="196" x2="258" y1="217" y2="217" class="net_13 width_1" style="stroke-width: 1"/><line x1="294" x2="385" y1="209.5" y2="209.5" class="net_16 width_1" style="stroke-width: 1"/><line x1="385" x2="385" y1="209.5" y2="414.5" class="net_16 width_1" style="stroke-width: 1"/><line x1="385" x2="407" y1="414.5" y2="414.5" class="net_16 width_1" style="stroke-width: 1"/><line x1="294" x2="304" y1="209.5" y2="209.5" class="net_16 width_1" style="stroke-width: 1"/><line x1="304" x2="304" y1="209.5" y2="89.5" class="net_16 width_1" style="stroke-width: 1"/><circle cx="304" cy="209.5" r="2" style="fill:#000" class="net_16 width_1"/><line x1="304" x2="329" y1="89.5" y2="89.5" class="net_16 width_1" style="stroke-width: 1"/><line x1="294" x2="329" y1="104.5" y2="104.5" class="net_18 width_1" style="stroke-width: 1"/><line x1="365" x2="451" y1="97" y2="97" class="net_10 width_1" style="stroke-width: 1"/><line x1="451" x2="451" y1="97" y2="162" class="net_10 width_1" style="stroke-width: 1"/><circle cx="451" cy="97" r="2" style="fill:#000" class="net_10 width_1"/><line x1="451" x2="478" y1="162" y2="162" class="net_10 width_1" style="stroke-width: 1"/><line x1="365" x2="395" y1="97" y2="97" class="net_10 width_1" style="stroke-width: 1"/><line x1="395" x2="395" y1="97" y2="284.5" class="net_10 width_1" style="stroke-width: 1"/><circle cx="395" cy="97" r="2" style="fill:#000" class="net_10 width_1"/><line x1="395" x2="405" y1="284.5" y2="284.5" class="net_10 width_1" style="stroke-width: 1"/><line x1="365" x2="547" y1="97" y2="97" class="net_10 width_1" style="stroke-width: 1"/><line x1="288" x2="329" y1="292" y2="292" class="net_14 width_1" style="stroke-width: 1"/><line x1="288" x2="304" y1="347" y2="347" class="net_15 width_1" style="stroke-width: 1"/><line x1="304" x2="304" y1="347" y2="307" class="net_15 width_1" style="stroke-width: 1"/><line x1="304" x2="329" y1="307" y2="307" class="net_15 width_1" style="stroke-width: 1"/><line x1="365" x2="375" y1="299.5" y2="299.5" class="net_19 width_1" style="stroke-width: 1"/><line x1="375" x2="375" y1="299.5" y2="469.5" class="net_19 width_1" style="stroke-width: 1"/><circle cx="375" cy="299.5" r="2" style="fill:#000" class="net_19 width_1"/><line x1="375" x2="407" y1="469.5" y2="469.5" class="net_19 width_1" style="stroke-width: 1"/><line x1="365" x2="405" y1="299.5" y2="299.5" class="net_19 width_1" style="stroke-width: 1"/><line x1="441" x2="478" y1="292" y2="292" class="net_11 width_1" style="stroke-width: 1"/><line x1="441" x2="451" y1="292" y2="292" class="net_11 width_1" style="stroke-width: 1"/><line x1="451" x2="451" y1="292" y2="357" class="net_11 width_1" style="stroke-width: 1"/><circle cx="451" cy="292" r="2" style="fill:#000" class="net_11 width_1"/><line x1="451" x2="547" y1="357" y2="357" class="net_11 width_1" style="stroke-width: 1"/><line x1="435" x2="476" y1="414.5" y2="414.5" class="net_17 width_1" style="stroke-width: 1"/><line x1="435" x2="451" y1="469.5" y2="469.5" class="net_20 width_1" style="stroke-width: 1"/><line x1="451" x2="451" y1="469.5" y2="429.5" class="net_20 width_1" style="stroke-width: 1"/><line x1="451" x2="476" y1="429.5" y2="429.5" class="net_20 width_1" style="stroke-width: 1"/><line x1="506" x2="522" y1="162" y2="162" class="net_7 width_1" style="stroke-width: 1"/><line x1="522" x2="522" y1="162" y2="227" class="net_7 width_1" style="stroke-width: 1"/><circle cx="522" cy="162" r="2" style="fill:#000" class="net_7 width_1"/><line x1="522" x2="547" y1="227" y2="227" class="net_7 width_1" style="stroke-width: 1"/><line x1="506" x2="547" y1="162" y2="162" class="net_7 width_1" style="stroke-width: 1"/><line x1="506" x2="547" y1="292" y2="292" class="net_8 width_1" style="stroke-width: 1"/><line x1="512" x2="522" y1="422" y2="422" class="net_9 width_1" style="stroke-width: 1"/><line x1="522" x2="522" y1="422" y2="487" class="net_9 width_1" style="stroke-width: 1"/><circle cx="522" cy="422" r="2" style="fill:#000" class="net_9 width_1"/><line x1="522" x2="547" y1="487" y2="487" class="net_9 width_1" style="stroke-width: 1"/><line x1="512" x2="547" y1="422" y2="422" class="net_9 width_1" style="stroke-width: 1"/></svg>