<svg xmlns="http://www.w3.org/2000/svg" xmlns:xlink="http://www.w3.org/1999/xlink" xmlns:s="https://github.com/nturley/netlistsvg" width="712" height="691"><style>svg {
  stroke:#000;
  fill:none;
}
text {
  fill:#000;
  stroke:none;
  font-size:10px;
  font-weight: bold;
  font-family: "Courier New", monospace;
}
line {
    stroke-linecap: round;
}
.nodelabel {
  text-anchor: middle;
}
.inputPortLabel {
  text-anchor: end;
}
.splitjoinBody {
  fill:#000;
}</style><g s:type="NOT" transform="translate(181,132)" s:width="30" s:height="20" id="cell_$abc$191$auto$blifparse.cc:386:parse_blif$192"><s:alias val="NOT"/><s:alias val="$NOT"/><path d="M0,0 L0,20 L20,10 Z" class="cell_$abc$191$auto$blifparse.cc:386:parse_blif$192"/><circle cx="24" cy="10" r="3" class="cell_$abc$191$auto$blifparse.cc:386:parse_blif$192"/><g s:x="-1" s:y="10" s:pid="A"/><g s:x="27" s:y="10" s:pid="Y"/></g><g s:type="NOT" transform="translate(348,32.5)" s:width="30" s:height="20" id="cell_$abc$191$auto$blifparse.cc:386:parse_blif$193"><s:alias val="NOT"/><s:alias val="$NOT"/><path d="M0,0 L0,20 L20,10 Z" class="cell_$abc$191$auto$blifparse.cc:386:parse_blif$193"/><circle cx="24" cy="10" r="3" class="cell_$abc$191$auto$blifparse.cc:386:parse_blif$193"/><g s:x="-1" s:y="10" s:pid="A"/><g s:x="27" s:y="10" s:pid="Y"/></g><g s:type="NOR2" transform="translate(249,304)" s:width="33" s:height="25" id="cell_$abc$191$auto$blifparse.cc:386:parse_blif$194"><s:alias val="NOR2"/><s:alias val="$NOR2"/><path d="M0,0 A30 25 0 0 1 0,25 A30 25 0 0 0 30,12.5 A30 25 0 0 0 0,0" class="cell_$abc$191$auto$blifparse.cc:386:parse_blif$194"/><circle cx="33" cy="12.5" r="3" class="cell_$abc$191$auto$blifparse.cc:386:parse_blif$194"/><g s:x="2" s:y="5" s:pid="A"/><g s:x="2" s:y="20" s:pid="B"/><g s:x="36" s:y="12.5" s:pid="Y"/></g><g s:type="NOT" transform="translate(348,361.5)" s:width="30" s:height="20" id="cell_$abc$191$auto$blifparse.cc:386:parse_blif$195"><s:alias val="NOT"/><s:alias val="$NOT"/><path d="M0,0 L0,20 L20,10 Z" class="cell_$abc$191$auto$blifparse.cc:386:parse_blif$195"/><circle cx="24" cy="10" r="3" class="cell_$abc$191$auto$blifparse.cc:386:parse_blif$195"/><g s:x="-1" s:y="10" s:pid="A"/><g s:x="27" s:y="10" s:pid="Y"/></g><g s:type="NAND2" transform="translate(421,228)" s:width="30" s:height="25" id="cell_$abc$191$auto$blifparse.cc:386:parse_blif$196"><s:alias val="NAND2"/><s:alias val="$NAND2"/><path d="M0,0 L0,25 L15,25 A15 12.5 0 0 0 15,0 Z" class="cell_$abc$191$auto$blifparse.cc:386:parse_blif$196"/><circle cx="34" cy="12.5" r="3" class="cell_$abc$191$auto$blifparse.cc:386:parse_blif$196"/><g s:x="0" s:y="5" s:pid="A"/><g s:x="0" s:y="20" s:pid="B"/><g s:x="36" s:y="12.5" s:pid="Y"/></g><g s:type="NAND2" transform="translate(249,364)" s:width="30" s:height="25" id="cell_$abc$191$auto$blifparse.cc:386:parse_blif$197"><s:alias val="NAND2"/><s:alias val="$NAND2"/><path d="M0,0 L0,25 L15,25 A15 12.5 0 0 0 15,0 Z" class="cell_$abc$191$auto$blifparse.cc:386:parse_blif$197"/><circle cx="34" cy="12.5" r="3" class="cell_$abc$191$auto$blifparse.cc:386:parse_blif$197"/><g s:x="0" s:y="5" s:pid="A"/><g s:x="0" s:y="20" s:pid="B"/><g s:x="36" s:y="12.5" s:pid="Y"/></g><g s:type="NOR2" transform="translate(249,137)" s:width="33" s:height="25" id="cell_$abc$191$auto$blifparse.cc:386:parse_blif$198"><s:alias val="NOR2"/><s:alias val="$NOR2"/><path d="M0,0 A30 25 0 0 1 0,25 A30 25 0 0 0 30,12.5 A30 25 0 0 0 0,0" class="cell_$abc$191$auto$blifparse.cc:386:parse_blif$198"/><circle cx="33" cy="12.5" r="3" class="cell_$abc$191$auto$blifparse.cc:386:parse_blif$198"/><g s:x="2" s:y="5" s:pid="A"/><g s:x="2" s:y="20" s:pid="B"/><g s:x="36" s:y="12.5" s:pid="Y"/></g><g s:type="NAND3" transform="translate(421,97.5)" s:width="30" s:height="25" id="cell_$abc$191$auto$blifparse.cc:386:parse_blif$199"><s:alias val="NAND3"/><s:alias val="$NAND3"/><path d="M0,0 L0,25 L15,25 A15 12.5 0 0 0 15,0 Z" class="cell_$abc$191$auto$blifparse.cc:386:parse_blif$199"/><circle cx="34" cy="12.5" r="3" class="cell_$abc$191$auto$blifparse.cc:386:parse_blif$199"/><g s:x="0" s:y="3" s:pid="A"/><g s:x="0" s:y="12.5" s:pid="B"/><g s:x="0" s:y="22" s:pid="C"/><g s:x="36" s:y="12.5" s:pid="Y"/></g><g s:type="NAND2" transform="translate(421,37.5)" s:width="30" s:height="25" id="cell_$abc$191$auto$blifparse.cc:386:parse_blif$200"><s:alias val="NAND2"/><s:alias val="$NAND2"/><path d="M0,0 L0,25 L15,25 A15 12.5 0 0 0 15,0 Z" class="cell_$abc$191$auto$blifparse.cc:386:parse_blif$200"/><circle cx="34" cy="12.5" r="3" class="cell_$abc$191$auto$blifparse.cc:386:parse_blif$200"/><g s:x="0" s:y="5" s:pid="A"/><g s:x="0" s:y="20" s:pid="B"/><g s:x="36" s:y="12.5" s:pid="Y"/></g><g s:type="NAND3" transform="translate(517,97.5)" s:width="30" s:height="25" id="cell_$abc$191$auto$blifparse.cc:386:parse_blif$201"><s:alias val="NAND3"/><s:alias val="$NAND3"/><path d="M0,0 L0,25 L15,25 A15 12.5 0 0 0 15,0 Z" class="cell_$abc$191$auto$blifparse.cc:386:parse_blif$201"/><circle cx="34" cy="12.5" r="3" class="cell_$abc$191$auto$blifparse.cc:386:parse_blif$201"/><g s:x="0" s:y="3" s:pid="A"/><g s:x="0" s:y="12.5" s:pid="B"/><g s:x="0" s:y="22" s:pid="C"/><g s:x="36" s:y="12.5" s:pid="Y"/></g><g s:type="NAND2" transform="translate(345,160.5)" s:width="30" s:height="25" id="cell_$abc$191$auto$blifparse.cc:386:parse_blif$202"><s:alias val="NAND2"/><s:alias val="$NAND2"/><path d="M0,0 L0,25 L15,25 A15 12.5 0 0 0 15,0 Z" class="cell_$abc$191$auto$blifparse.cc:386:parse_blif$202"/><circle cx="34" cy="12.5" r="3" class="cell_$abc$191$auto$blifparse.cc:386:parse_blif$202"/><g s:x="0" s:y="5" s:pid="A"/><g s:x="0" s:y="20" s:pid="B"/><g s:x="36" s:y="12.5" s:pid="Y"/></g><g s:type="NOR2" transform="translate(178,557)" s:width="33" s:height="25" id="cell_$abc$191$auto$blifparse.cc:386:parse_blif$203"><s:alias val="NOR2"/><s:alias val="$NOR2"/><path d="M0,0 A30 25 0 0 1 0,25 A30 25 0 0 0 30,12.5 A30 25 0 0 0 0,0" class="cell_$abc$191$auto$blifparse.cc:386:parse_blif$203"/><circle cx="33" cy="12.5" r="3" class="cell_$abc$191$auto$blifparse.cc:386:parse_blif$203"/><g s:x="2" s:y="5" s:pid="A"/><g s:x="2" s:y="20" s:pid="B"/><g s:x="36" s:y="12.5" s:pid="Y"/></g><g s:type="NOT" transform="translate(348,625)" s:width="30" s:height="20" id="cell_$abc$191$auto$blifparse.cc:386:parse_blif$204"><s:alias val="NOT"/><s:alias val="$NOT"/><path d="M0,0 L0,20 L20,10 Z" class="cell_$abc$191$auto$blifparse.cc:386:parse_blif$204"/><circle cx="24" cy="10" r="3" class="cell_$abc$191$auto$blifparse.cc:386:parse_blif$204"/><g s:x="-1" s:y="10" s:pid="A"/><g s:x="27" s:y="10" s:pid="Y"/></g><g s:type="NOR2" transform="translate(249,461.5)" s:width="33" s:height="25" id="cell_$abc$191$auto$blifparse.cc:386:parse_blif$205"><s:alias val="NOR2"/><s:alias val="$NOR2"/><path d="M0,0 A30 25 0 0 1 0,25 A30 25 0 0 0 30,12.5 A30 25 0 0 0 0,0" class="cell_$abc$191$auto$blifparse.cc:386:parse_blif$205"/><circle cx="33" cy="12.5" r="3" class="cell_$abc$191$auto$blifparse.cc:386:parse_blif$205"/><g s:x="2" s:y="5" s:pid="A"/><g s:x="2" s:y="20" s:pid="B"/><g s:x="36" s:y="12.5" s:pid="Y"/></g><g s:type="NOT" transform="translate(348,464)" s:width="30" s:height="20" id="cell_$abc$191$auto$blifparse.cc:386:parse_blif$206"><s:alias val="NOT"/><s:alias val="$NOT"/><path d="M0,0 L0,20 L20,10 Z" class="cell_$abc$191$auto$blifparse.cc:386:parse_blif$206"/><circle cx="24" cy="10" r="3" class="cell_$abc$191$auto$blifparse.cc:386:parse_blif$206"/><g s:x="-1" s:y="10" s:pid="A"/><g s:x="27" s:y="10" s:pid="Y"/></g><g s:type="NAND2" transform="translate(421,168)" s:width="30" s:height="25" id="cell_$abc$191$auto$blifparse.cc:386:parse_blif$207"><s:alias val="NAND2"/><s:alias val="$NAND2"/><path d="M0,0 L0,25 L15,25 A15 12.5 0 0 0 15,0 Z" class="cell_$abc$191$auto$blifparse.cc:386:parse_blif$207"/><circle cx="34" cy="12.5" r="3" class="cell_$abc$191$auto$blifparse.cc:386:parse_blif$207"/><g s:x="0" s:y="5" s:pid="A"/><g s:x="0" s:y="20" s:pid="B"/><g s:x="36" s:y="12.5" s:pid="Y"/></g><g s:type="NAND2" transform="translate(517,160.5)" s:width="30" s:height="25" id="cell_$abc$191$auto$blifparse.cc:386:parse_blif$208"><s:alias val="NAND2"/><s:alias val="$NAND2"/><path d="M0,0 L0,25 L15,25 A15 12.5 0 0 0 15,0 Z" class="cell_$abc$191$auto$blifparse.cc:386:parse_blif$208"/><circle cx="34" cy="12.5" r="3" class="cell_$abc$191$auto$blifparse.cc:386:parse_blif$208"/><g s:x="0" s:y="5" s:pid="A"/><g s:x="0" s:y="20" s:pid="B"/><g s:x="36" s:y="12.5" s:pid="Y"/></g><g s:type="NOR2" transform="translate(345,311.5)" s:width="33" s:height="25" id="cell_$abc$191$auto$blifparse.cc:386:parse_blif$209"><s:alias val="NOR2"/><s:alias val="$NOR2"/><path d="M0,0 A30 25 0 0 1 0,25 A30 25 0 0 0 30,12.5 A30 25 0 0 0 0,0" class="cell_$abc$191$auto$blifparse.cc:386:parse_blif$209"/><circle cx="33" cy="12.5" r="3" class="cell_$abc$191$auto$blifparse.cc:386:parse_blif$209"/><g s:x="2" s:y="5" s:pid="A"/><g s:x="2" s:y="20" s:pid="B"/><g s:x="36" s:y="12.5" s:pid="Y"/></g><g s:type="NOR2" transform="translate(421,288)" s:width="33" s:height="25" id="cell_$abc$191$auto$blifparse.cc:386:parse_blif$210"><s:alias val="NOR2"/><s:alias val="$NOR2"/><path d="M0,0 A30 25 0 0 1 0,25 A30 25 0 0 0 30,12.5 A30 25 0 0 0 0,0" class="cell_$abc$191$auto$blifparse.cc:386:parse_blif$210"/><circle cx="33" cy="12.5" r="3" class="cell_$abc$191$auto$blifparse.cc:386:parse_blif$210"/><g s:x="2" s:y="5" s:pid="A"/><g s:x="2" s:y="20" s:pid="B"/><g s:x="36" s:y="12.5" s:pid="Y"/></g><g s:type="NOT" transform="translate(520,290.5)" s:width="30" s:height="20" id="cell_$abc$191$auto$blifparse.cc:386:parse_blif$211"><s:alias val="NOT"/><s:alias val="$NOT"/><path d="M0,0 L0,20 L20,10 Z" class="cell_$abc$191$auto$blifparse.cc:386:parse_blif$211"/><circle cx="24" cy="10" r="3" class="cell_$abc$191$auto$blifparse.cc:386:parse_blif$211"/><g s:x="-1" s:y="10" s:pid="A"/><g s:x="27" s:y="10" s:pid="Y"/></g><g s:type="NAND2" transform="translate(421,454)" s:width="30" s:height="25" id="cell_$abc$191$auto$blifparse.cc:386:parse_blif$212"><s:alias val="NAND2"/><s:alias val="$NAND2"/><path d="M0,0 L0,25 L15,25 A15 12.5 0 0 0 15,0 Z" class="cell_$abc$191$auto$blifparse.cc:386:parse_blif$212"/><circle cx="34" cy="12.5" r="3" class="cell_$abc$191$auto$blifparse.cc:386:parse_blif$212"/><g s:x="0" s:y="5" s:pid="A"/><g s:x="0" s:y="20" s:pid="B"/><g s:x="36" s:y="12.5" s:pid="Y"/></g><g s:type="NAND2" transform="translate(421,514)" s:width="30" s:height="25" id="cell_$abc$191$auto$blifparse.cc:386:parse_blif$213"><s:alias val="NAND2"/><s:alias val="$NAND2"/><path d="M0,0 L0,25 L15,25 A15 12.5 0 0 0 15,0 Z" class="cell_$abc$191$auto$blifparse.cc:386:parse_blif$213"/><circle cx="34" cy="12.5" r="3" class="cell_$abc$191$auto$blifparse.cc:386:parse_blif$213"/><g s:x="0" s:y="5" s:pid="A"/><g s:x="0" s:y="20" s:pid="B"/><g s:x="36" s:y="12.5" s:pid="Y"/></g><g s:type="NAND2" transform="translate(517,654)" s:width="30" s:height="25" id="cell_$abc$191$auto$blifparse.cc:386:parse_blif$214"><s:alias val="NAND2"/><s:alias val="$NAND2"/><path d="M0,0 L0,25 L15,25 A15 12.5 0 0 0 15,0 Z" class="cell_$abc$191$auto$blifparse.cc:386:parse_blif$214"/><circle cx="34" cy="12.5" r="3" class="cell_$abc$191$auto$blifparse.cc:386:parse_blif$214"/><g s:x="0" s:y="5" s:pid="A"/><g s:x="0" s:y="20" s:pid="B"/><g s:x="36" s:y="12.5" s:pid="Y"/></g><g s:type="NAND3" transform="translate(517,454)" s:width="30" s:height="25" id="cell_$abc$191$auto$blifparse.cc:386:parse_blif$215"><s:alias val="NAND3"/><s:alias val="$NAND3"/><path d="M0,0 L0,25 L15,25 A15 12.5 0 0 0 15,0 Z" class="cell_$abc$191$auto$blifparse.cc:386:parse_blif$215"/><circle cx="34" cy="12.5" r="3" class="cell_$abc$191$auto$blifparse.cc:386:parse_blif$215"/><g s:x="0" s:y="3" s:pid="A"/><g s:x="0" s:y="12.5" s:pid="B"/><g s:x="0" s:y="22" s:pid="C"/><g s:x="36" s:y="12.5" s:pid="Y"/></g><g s:type="NOR2" transform="translate(345,541)" s:width="33" s:height="25" id="cell_$abc$191$auto$blifparse.cc:386:parse_blif$216"><s:alias val="NOR2"/><s:alias val="$NOR2"/><path d="M0,0 A30 25 0 0 1 0,25 A30 25 0 0 0 30,12.5 A30 25 0 0 0 0,0" class="cell_$abc$191$auto$blifparse.cc:386:parse_blif$216"/><circle cx="33" cy="12.5" r="3" class="cell_$abc$191$auto$blifparse.cc:386:parse_blif$216"/><g s:x="2" s:y="5" s:pid="A"/><g s:x="2" s:y="20" s:pid="B"/><g s:x="36" s:y="12.5" s:pid="Y"/></g><g s:type="NOR2" transform="translate(421,394)" s:width="33" s:height="25" id="cell_$abc$191$auto$blifparse.cc:386:parse_blif$217"><s:alias val="NOR2"/><s:alias val="$NOR2"/><path d="M0,0 A30 25 0 0 1 0,25 A30 25 0 0 0 30,12.5 A30 25 0 0 0 0,0" class="cell_$abc$191$auto$blifparse.cc:386:parse_blif$217"/><circle cx="33" cy="12.5" r="3" class="cell_$abc$191$auto$blifparse.cc:386:parse_blif$217"/><g s:x="2" s:y="5" s:pid="A"/><g s:x="2" s:y="20" s:pid="B"/><g s:x="36" s:y="12.5" s:pid="Y"/></g><g s:type="NOR2" transform="translate(517,345.5)" s:width="33" s:height="25" id="cell_$abc$191$auto$blifparse.cc:386:parse_blif$218"><s:alias val="NOR2"/><s:alias val="$NOR2"/><path d="M0,0 A30 25 0 0 1 0,25 A30 25 0 0 0 30,12.5 A30 25 0 0 0 0,0" class="cell_$abc$191$auto$blifparse.cc:386:parse_blif$218"/><circle cx="33" cy="12.5" r="3" class="cell_$abc$191$auto$blifparse.cc:386:parse_blif$218"/><g s:x="2" s:y="5" s:pid="A"/><g s:x="2" s:y="20" s:pid="B"/><g s:x="36" s:y="12.5" s:pid="Y"/></g><g s:type="NAND3" transform="translate(421,601.5)" s:width="30" s:height="25" id="cell_$abc$191$auto$blifparse.cc:386:parse_blif$219"><s:alias val="NAND3"/><s:alias val="$NAND3"/><path d="M0,0 L0,25 L15,25 A15 12.5 0 0 0 15,0 Z" class="cell_$abc$191$auto$blifparse.cc:386:parse_blif$219"/><circle cx="34" cy="12.5" r="3" class="cell_$abc$191$auto$blifparse.cc:386:parse_blif$219"/><g s:x="0" s:y="3" s:pid="A"/><g s:x="0" s:y="12.5" s:pid="B"/><g s:x="0" s:y="22" s:pid="C"/><g s:x="36" s:y="12.5" s:pid="Y"/></g><g s:type="NAND2" transform="translate(517,594)" s:width="30" s:height="25" id="cell_$abc$191$auto$blifparse.cc:386:parse_blif$220"><s:alias val="NAND2"/><s:alias val="$NAND2"/><path d="M0,0 L0,25 L15,25 A15 12.5 0 0 0 15,0 Z" class="cell_$abc$191$auto$blifparse.cc:386:parse_blif$220"/><circle cx="34" cy="12.5" r="3" class="cell_$abc$191$auto$blifparse.cc:386:parse_blif$220"/><g s:x="0" s:y="5" s:pid="A"/><g s:x="0" s:y="20" s:pid="B"/><g s:x="36" s:y="12.5" s:pid="Y"/></g><g s:type="inputExt" transform="translate(12,22.5)" s:width="30" s:height="20" id="cell_bcd"><text x="15" y="-4" class="nodelabel cell_bcd" s:attribute="ref">bcd</text><s:alias val="$_inputExt_"/><path d="M0,0 L0,20 L15,20 L30,10 L15,0 Z" class="cell_bcd"/><g s:x="30" s:y="10" s:pid="Y"/></g><g s:type="outputExt" transform="translate(670,278)" s:width="30" s:height="20" id="cell_seg"><text x="15" y="-4" class="nodelabel cell_seg" s:attribute="ref">seg</text><s:alias val="$_outputExt_"/><path d="M30,0 L30,20 L15,20 L0,10 L15,0 Z" class="cell_seg"/><g s:x="0" s:y="10" s:pid="A"/></g><g s:type="join" transform="translate(588,267.5)" s:width="4" s:height="40" id="cell_$join$,6,7,8,9,10,11,12,"><rect width="5" height="140" class="splitjoinBody" s:generic="body"/><s:alias val="$_join_"/><g s:x="5" s:y="20" s:pid="out"/><g transform="translate(0,10)" s:x="0" s:y="10" s:pid="in0"><text x="-3" y="-4" class="inputPortLabel">0</text></g><g transform="translate(0,30)" s:x="0" s:y="10" s:pid="in0"><text x="-3" y="-4" class="inputPortLabel">1</text></g><g transform="translate(0,50)" s:x="0" s:y="10" s:pid="in0"><text x="-3" y="-4" class="inputPortLabel">2</text></g><g transform="translate(0,70)" s:x="0" s:y="10" s:pid="in0"><text x="-3" y="-4" class="inputPortLabel">3</text></g><g transform="translate(0,90)" s:x="0" s:y="10" s:pid="in0"><text x="-3" y="-4" class="inputPortLabel">4</text></g><g transform="translate(0,110)" s:x="0" s:y="10" s:pid="in0"><text x="-3" y="-4" class="inputPortLabel">5</text></g><g transform="translate(0,130)" s:x="0" s:y="10" s:pid="in0"><text x="-3" y="-4" class="inputPortLabel">6</text></g></g><g s:type="split" transform="translate(116,12)" s:width="5" s:height="40" id="cell_$split$,2,3,4,5,"><rect width="5" height="80" class="splitjoinBody" s:generic="body"/><s:alias val="$_split_"/><g s:x="0" s:y="20" s:pid="in"/><g transform="translate(4,10)" s:x="4" s:y="10" s:pid="out0"><text x="5" y="-4">1</text></g><g transform="translate(4,30)" s:x="4" s:y="10" s:pid="out0"><text x="5" y="-4">3</text></g><g transform="translate(4,50)" s:x="4" s:y="10" s:pid="out0"><text x="5" y="-4">2</text></g><g transform="translate(4,70)" s:x="4" s:y="10" s:pid="out0"><text x="5" y="-4">0</text></g></g><line x1="121" x2="168" y1="22.5" y2="22.5" class="net_3 width_1" style="stroke-width: 1"/><line x1="168" x2="168" y1="22.5" y2="142" class="net_3 width_1" style="stroke-width: 1"/><circle cx="168" cy="142" r="2" style="fill:#000" class="net_3 width_1"/><line x1="168" x2="180" y1="142" y2="142" class="net_3 width_1" style="stroke-width: 1"/><line x1="121" x2="168" y1="22.5" y2="22.5" class="net_3 width_1" style="stroke-width: 1"/><line x1="168" x2="168" y1="22.5" y2="369" class="net_3 width_1" style="stroke-width: 1"/><line x1="168" x2="224" y1="369" y2="369" class="net_3 width_1" style="stroke-width: 1"/><line x1="224" x2="224" y1="369" y2="324" class="net_3 width_1" style="stroke-width: 1"/><circle cx="168" cy="369" r="2" style="fill:#000" class="net_3 width_1"/><circle cx="224" cy="369" r="2" style="fill:#000" class="net_3 width_1"/><line x1="224" x2="251" y1="324" y2="324" class="net_3 width_1" style="stroke-width: 1"/><line x1="121" x2="168" y1="22.5" y2="22.5" class="net_3 width_1" style="stroke-width: 1"/><line x1="168" x2="168" y1="22.5" y2="369" class="net_3 width_1" style="stroke-width: 1"/><line x1="168" x2="249" y1="369" y2="369" class="net_3 width_1" style="stroke-width: 1"/><line x1="121" x2="168" y1="22.5" y2="22.5" class="net_3 width_1" style="stroke-width: 1"/><line x1="168" x2="168" y1="22.5" y2="562" class="net_3 width_1" style="stroke-width: 1"/><line x1="168" x2="180" y1="562" y2="562" class="net_3 width_1" style="stroke-width: 1"/><line x1="121" x2="347" y1="42.5" y2="42.5" class="net_5 width_1" style="stroke-width: 1"/><line x1="121" x2="158" y1="42.5" y2="42.5" class="net_5 width_1" style="stroke-width: 1"/><line x1="158" x2="158" y1="42.5" y2="233" class="net_5 width_1" style="stroke-width: 1"/><circle cx="158" cy="42.5" r="2" style="fill:#000" class="net_5 width_1"/><circle cx="158" cy="233" r="2" style="fill:#000" class="net_5 width_1"/><line x1="158" x2="421" y1="233" y2="233" class="net_5 width_1" style="stroke-width: 1"/><line x1="121" x2="158" y1="42.5" y2="42.5" class="net_5 width_1" style="stroke-width: 1"/><line x1="158" x2="158" y1="42.5" y2="233" class="net_5 width_1" style="stroke-width: 1"/><line x1="158" x2="224" y1="233" y2="233" class="net_5 width_1" style="stroke-width: 1"/><line x1="224" x2="224" y1="233" y2="157" class="net_5 width_1" style="stroke-width: 1"/><circle cx="224" cy="233" r="2" style="fill:#000" class="net_5 width_1"/><line x1="224" x2="251" y1="157" y2="157" class="net_5 width_1" style="stroke-width: 1"/><line x1="121" x2="158" y1="42.5" y2="42.5" class="net_5 width_1" style="stroke-width: 1"/><line x1="158" x2="158" y1="42.5" y2="399" class="net_5 width_1" style="stroke-width: 1"/><line x1="158" x2="224" y1="399" y2="399" class="net_5 width_1" style="stroke-width: 1"/><line x1="224" x2="224" y1="399" y2="466.5" class="net_5 width_1" style="stroke-width: 1"/><circle cx="224" cy="399" r="2" style="fill:#000" class="net_5 width_1"/><line x1="224" x2="251" y1="466.5" y2="466.5" class="net_5 width_1" style="stroke-width: 1"/><line x1="121" x2="158" y1="42.5" y2="42.5" class="net_5 width_1" style="stroke-width: 1"/><line x1="158" x2="158" y1="42.5" y2="399" class="net_5 width_1" style="stroke-width: 1"/><line x1="158" x2="423" y1="399" y2="399" class="net_5 width_1" style="stroke-width: 1"/><line x1="121" x2="138" y1="62.5" y2="62.5" class="net_4 width_1" style="stroke-width: 1"/><line x1="138" x2="138" y1="62.5" y2="309" class="net_4 width_1" style="stroke-width: 1"/><circle cx="138" cy="309" r="2" style="fill:#000" class="net_4 width_1"/><line x1="138" x2="251" y1="309" y2="309" class="net_4 width_1" style="stroke-width: 1"/><line x1="121" x2="138" y1="62.5" y2="62.5" class="net_4 width_1" style="stroke-width: 1"/><line x1="138" x2="138" y1="62.5" y2="73.5" class="net_4 width_1" style="stroke-width: 1"/><line x1="138" x2="391" y1="73.5" y2="73.5" class="net_4 width_1" style="stroke-width: 1"/><line x1="391" x2="391" y1="73.5" y2="100.5" class="net_4 width_1" style="stroke-width: 1"/><circle cx="138" cy="73.5" r="2" style="fill:#000" class="net_4 width_1"/><line x1="391" x2="421" y1="100.5" y2="100.5" class="net_4 width_1" style="stroke-width: 1"/><line x1="121" x2="138" y1="62.5" y2="62.5" class="net_4 width_1" style="stroke-width: 1"/><line x1="138" x2="138" y1="62.5" y2="121" class="net_4 width_1" style="stroke-width: 1"/><line x1="138" x2="335" y1="121" y2="121" class="net_4 width_1" style="stroke-width: 1"/><line x1="335" x2="335" y1="121" y2="165.5" class="net_4 width_1" style="stroke-width: 1"/><circle cx="138" cy="121" r="2" style="fill:#000" class="net_4 width_1"/><line x1="335" x2="345" y1="165.5" y2="165.5" class="net_4 width_1" style="stroke-width: 1"/><line x1="121" x2="138" y1="62.5" y2="62.5" class="net_4 width_1" style="stroke-width: 1"/><line x1="138" x2="138" y1="62.5" y2="546" class="net_4 width_1" style="stroke-width: 1"/><circle cx="138" cy="546" r="2" style="fill:#000" class="net_4 width_1"/><line x1="138" x2="347" y1="546" y2="546" class="net_4 width_1" style="stroke-width: 1"/><line x1="121" x2="138" y1="62.5" y2="62.5" class="net_4 width_1" style="stroke-width: 1"/><line x1="138" x2="138" y1="62.5" y2="603" class="net_4 width_1" style="stroke-width: 1"/><line x1="138" x2="391" y1="603" y2="603" class="net_4 width_1" style="stroke-width: 1"/><line x1="391" x2="391" y1="603" y2="604.5" class="net_4 width_1" style="stroke-width: 1"/><line x1="391" x2="421" y1="604.5" y2="604.5" class="net_4 width_1" style="stroke-width: 1"/><line x1="285" x2="315" y1="316.5" y2="316.5" class="net_15 width_1" style="stroke-width: 1"/><line x1="315" x2="315" y1="316.5" y2="371.5" class="net_15 width_1" style="stroke-width: 1"/><circle cx="315" cy="316.5" r="2" style="fill:#000" class="net_15 width_1"/><circle cx="315" cy="371.5" r="2" style="fill:#000" class="net_15 width_1"/><line x1="315" x2="347" y1="371.5" y2="371.5" class="net_15 width_1" style="stroke-width: 1"/><line x1="285" x2="315" y1="316.5" y2="316.5" class="net_15 width_1" style="stroke-width: 1"/><line x1="315" x2="315" y1="316.5" y2="62.5" class="net_15 width_1" style="stroke-width: 1"/><line x1="315" x2="391" y1="62.5" y2="62.5" class="net_15 width_1" style="stroke-width: 1"/><line x1="391" x2="391" y1="62.5" y2="57.5" class="net_15 width_1" style="stroke-width: 1"/><line x1="391" x2="421" y1="57.5" y2="57.5" class="net_15 width_1" style="stroke-width: 1"/><line x1="285" x2="347" y1="316.5" y2="316.5" class="net_15 width_1" style="stroke-width: 1"/><line x1="285" x2="315" y1="316.5" y2="316.5" class="net_15 width_1" style="stroke-width: 1"/><line x1="315" x2="315" y1="316.5" y2="519" class="net_15 width_1" style="stroke-width: 1"/><line x1="315" x2="421" y1="519" y2="519" class="net_15 width_1" style="stroke-width: 1"/><line x1="285" x2="315" y1="316.5" y2="316.5" class="net_15 width_1" style="stroke-width: 1"/><line x1="315" x2="315" y1="316.5" y2="350.5" class="net_15 width_1" style="stroke-width: 1"/><circle cx="315" cy="350.5" r="2" style="fill:#000" class="net_15 width_1"/><line x1="315" x2="519" y1="350.5" y2="350.5" class="net_15 width_1" style="stroke-width: 1"/><line x1="375" x2="401" y1="371.5" y2="371.5" class="net_16 width_1" style="stroke-width: 1"/><line x1="401" x2="401" y1="371.5" y2="248" class="net_16 width_1" style="stroke-width: 1"/><circle cx="401" cy="371.5" r="2" style="fill:#000" class="net_16 width_1"/><line x1="401" x2="421" y1="248" y2="248" class="net_16 width_1" style="stroke-width: 1"/><line x1="375" x2="401" y1="371.5" y2="371.5" class="net_16 width_1" style="stroke-width: 1"/><line x1="401" x2="401" y1="371.5" y2="459" class="net_16 width_1" style="stroke-width: 1"/><line x1="401" x2="421" y1="459" y2="459" class="net_16 width_1" style="stroke-width: 1"/><line x1="121" x2="148" y1="82.5" y2="82.5" class="net_2 width_1" style="stroke-width: 1"/><line x1="148" x2="148" y1="82.5" y2="380" class="net_2 width_1" style="stroke-width: 1"/><line x1="148" x2="224" y1="380" y2="380" class="net_2 width_1" style="stroke-width: 1"/><line x1="224" x2="224" y1="380" y2="384" class="net_2 width_1" style="stroke-width: 1"/><circle cx="148" cy="380" r="2" style="fill:#000" class="net_2 width_1"/><line x1="224" x2="249" y1="384" y2="384" class="net_2 width_1" style="stroke-width: 1"/><line x1="121" x2="148" y1="82.5" y2="82.5" class="net_2 width_1" style="stroke-width: 1"/><line x1="148" x2="148" y1="82.5" y2="110" class="net_2 width_1" style="stroke-width: 1"/><circle cx="148" cy="110" r="2" style="fill:#000" class="net_2 width_1"/><line x1="148" x2="421" y1="110" y2="110" class="net_2 width_1" style="stroke-width: 1"/><line x1="121" x2="148" y1="82.5" y2="82.5" class="net_2 width_1" style="stroke-width: 1"/><line x1="148" x2="148" y1="82.5" y2="577" class="net_2 width_1" style="stroke-width: 1"/><circle cx="148" cy="577" r="2" style="fill:#000" class="net_2 width_1"/><line x1="148" x2="180" y1="577" y2="577" class="net_2 width_1" style="stroke-width: 1"/><line x1="121" x2="148" y1="82.5" y2="82.5" class="net_2 width_1" style="stroke-width: 1"/><line x1="148" x2="148" y1="82.5" y2="293" class="net_2 width_1" style="stroke-width: 1"/><circle cx="148" cy="293" r="2" style="fill:#000" class="net_2 width_1"/><line x1="148" x2="423" y1="293" y2="293" class="net_2 width_1" style="stroke-width: 1"/><line x1="121" x2="148" y1="82.5" y2="82.5" class="net_2 width_1" style="stroke-width: 1"/><line x1="148" x2="148" y1="82.5" y2="592" class="net_2 width_1" style="stroke-width: 1"/><line x1="148" x2="305" y1="592" y2="592" class="net_2 width_1" style="stroke-width: 1"/><line x1="305" x2="305" y1="592" y2="561" class="net_2 width_1" style="stroke-width: 1"/><line x1="305" x2="347" y1="561" y2="561" class="net_2 width_1" style="stroke-width: 1"/><line x1="208" x2="251" y1="142" y2="142" class="net_13 width_1" style="stroke-width: 1"/><line x1="285" x2="391" y1="149.5" y2="149.5" class="net_19 width_1" style="stroke-width: 1"/><line x1="391" x2="391" y1="149.5" y2="119.5" class="net_19 width_1" style="stroke-width: 1"/><line x1="391" x2="421" y1="119.5" y2="119.5" class="net_19 width_1" style="stroke-width: 1"/><line x1="285" x2="325" y1="149.5" y2="149.5" class="net_19 width_1" style="stroke-width: 1"/><line x1="325" x2="325" y1="149.5" y2="331.5" class="net_19 width_1" style="stroke-width: 1"/><circle cx="325" cy="149.5" r="2" style="fill:#000" class="net_19 width_1"/><line x1="325" x2="347" y1="331.5" y2="331.5" class="net_19 width_1" style="stroke-width: 1"/><line x1="375" x2="421" y1="42.5" y2="42.5" class="net_14 width_1" style="stroke-width: 1"/><line x1="457" x2="487" y1="240.5" y2="240.5" class="net_17 width_1" style="stroke-width: 1"/><line x1="487" x2="487" y1="240.5" y2="100.5" class="net_17 width_1" style="stroke-width: 1"/><circle cx="487" cy="240.5" r="2" style="fill:#000" class="net_17 width_1"/><line x1="487" x2="517" y1="100.5" y2="100.5" class="net_17 width_1" style="stroke-width: 1"/><line x1="457" x2="487" y1="240.5" y2="240.5" class="net_17 width_1" style="stroke-width: 1"/><line x1="487" x2="487" y1="240.5" y2="165.5" class="net_17 width_1" style="stroke-width: 1"/><circle cx="487" cy="165.5" r="2" style="fill:#000" class="net_17 width_1"/><line x1="487" x2="517" y1="165.5" y2="165.5" class="net_17 width_1" style="stroke-width: 1"/><line x1="457" x2="487" y1="240.5" y2="240.5" class="net_17 width_1" style="stroke-width: 1"/><line x1="487" x2="487" y1="240.5" y2="599" class="net_17 width_1" style="stroke-width: 1"/><line x1="487" x2="517" y1="599" y2="599" class="net_17 width_1" style="stroke-width: 1"/><line x1="457" x2="517" y1="110" y2="110" class="net_20 width_1" style="stroke-width: 1"/><line x1="457" x2="497" y1="110" y2="110" class="net_20 width_1" style="stroke-width: 1"/><line x1="497" x2="497" y1="110" y2="457" class="net_20 width_1" style="stroke-width: 1"/><circle cx="497" cy="110" r="2" style="fill:#000" class="net_20 width_1"/><line x1="497" x2="517" y1="457" y2="457" class="net_20 width_1" style="stroke-width: 1"/><line x1="457" x2="507" y1="50" y2="50" class="net_21 width_1" style="stroke-width: 1"/><line x1="507" x2="507" y1="50" y2="119.5" class="net_21 width_1" style="stroke-width: 1"/><line x1="507" x2="517" y1="119.5" y2="119.5" class="net_21 width_1" style="stroke-width: 1"/><line x1="285" x2="295" y1="376.5" y2="376.5" class="net_18 width_1" style="stroke-width: 1"/><line x1="295" x2="295" y1="376.5" y2="180.5" class="net_18 width_1" style="stroke-width: 1"/><circle cx="295" cy="376.5" r="2" style="fill:#000" class="net_18 width_1"/><line x1="295" x2="345" y1="180.5" y2="180.5" class="net_18 width_1" style="stroke-width: 1"/><line x1="285" x2="295" y1="376.5" y2="376.5" class="net_18 width_1" style="stroke-width: 1"/><line x1="295" x2="295" y1="376.5" y2="614" class="net_18 width_1" style="stroke-width: 1"/><line x1="295" x2="421" y1="614" y2="614" class="net_18 width_1" style="stroke-width: 1"/><line x1="214" x2="224" y1="569.5" y2="569.5" class="net_23 width_1" style="stroke-width: 1"/><line x1="224" x2="224" y1="569.5" y2="635" class="net_23 width_1" style="stroke-width: 1"/><circle cx="224" cy="569.5" r="2" style="fill:#000" class="net_23 width_1"/><line x1="224" x2="347" y1="635" y2="635" class="net_23 width_1" style="stroke-width: 1"/><line x1="214" x2="224" y1="569.5" y2="569.5" class="net_23 width_1" style="stroke-width: 1"/><line x1="224" x2="224" y1="569.5" y2="481.5" class="net_23 width_1" style="stroke-width: 1"/><line x1="224" x2="251" y1="481.5" y2="481.5" class="net_23 width_1" style="stroke-width: 1"/><line x1="285" x2="347" y1="474" y2="474" class="net_25 width_1" style="stroke-width: 1"/><line x1="285" x2="305" y1="474" y2="474" class="net_25 width_1" style="stroke-width: 1"/><line x1="305" x2="305" y1="474" y2="195.5" class="net_25 width_1" style="stroke-width: 1"/><line x1="305" x2="391" y1="195.5" y2="195.5" class="net_25 width_1" style="stroke-width: 1"/><line x1="391" x2="391" y1="195.5" y2="188" class="net_25 width_1" style="stroke-width: 1"/><circle cx="305" cy="474" r="2" style="fill:#000" class="net_25 width_1"/><line x1="391" x2="421" y1="188" y2="188" class="net_25 width_1" style="stroke-width: 1"/><line x1="285" x2="305" y1="474" y2="474" class="net_25 width_1" style="stroke-width: 1"/><line x1="305" x2="305" y1="474" y2="530" class="net_25 width_1" style="stroke-width: 1"/><line x1="305" x2="401" y1="530" y2="530" class="net_25 width_1" style="stroke-width: 1"/><line x1="401" x2="401" y1="530" y2="534" class="net_25 width_1" style="stroke-width: 1"/><line x1="401" x2="421" y1="534" y2="534" class="net_25 width_1" style="stroke-width: 1"/><line x1="381" x2="421" y1="173" y2="173" class="net_22 width_1" style="stroke-width: 1"/><line x1="457" x2="517" y1="180.5" y2="180.5" class="net_27 width_1" style="stroke-width: 1"/><line x1="381" x2="411" y1="324" y2="324" class="net_28 width_1" style="stroke-width: 1"/><line x1="411" x2="411" y1="324" y2="308" class="net_28 width_1" style="stroke-width: 1"/><line x1="411" x2="423" y1="308" y2="308" class="net_28 width_1" style="stroke-width: 1"/><line x1="457" x2="519" y1="300.5" y2="300.5" class="net_29 width_1" style="stroke-width: 1"/><line x1="375" x2="421" y1="474" y2="474" class="net_26 width_1" style="stroke-width: 1"/><line x1="457" x2="477" y1="466.5" y2="466.5" class="net_30 width_1" style="stroke-width: 1"/><line x1="477" x2="477" y1="466.5" y2="659" class="net_30 width_1" style="stroke-width: 1"/><circle cx="477" cy="466.5" r="2" style="fill:#000" class="net_30 width_1"/><line x1="477" x2="517" y1="659" y2="659" class="net_30 width_1" style="stroke-width: 1"/><line x1="457" x2="517" y1="466.5" y2="466.5" class="net_30 width_1" style="stroke-width: 1"/><line x1="457" x2="467" y1="526.5" y2="526.5" class="net_31 width_1" style="stroke-width: 1"/><line x1="467" x2="467" y1="526.5" y2="674" class="net_31 width_1" style="stroke-width: 1"/><circle cx="467" cy="526.5" r="2" style="fill:#000" class="net_31 width_1"/><line x1="467" x2="517" y1="674" y2="674" class="net_31 width_1" style="stroke-width: 1"/><line x1="457" x2="467" y1="526.5" y2="526.5" class="net_31 width_1" style="stroke-width: 1"/><line x1="467" x2="467" y1="526.5" y2="476" class="net_31 width_1" style="stroke-width: 1"/><line x1="467" x2="517" y1="476" y2="476" class="net_31 width_1" style="stroke-width: 1"/><line x1="381" x2="391" y1="553.5" y2="553.5" class="net_32 width_1" style="stroke-width: 1"/><line x1="391" x2="391" y1="553.5" y2="414" class="net_32 width_1" style="stroke-width: 1"/><line x1="391" x2="423" y1="414" y2="414" class="net_32 width_1" style="stroke-width: 1"/><line x1="457" x2="507" y1="406.5" y2="406.5" class="net_33 width_1" style="stroke-width: 1"/><line x1="507" x2="507" y1="406.5" y2="365.5" class="net_33 width_1" style="stroke-width: 1"/><line x1="507" x2="519" y1="365.5" y2="365.5" class="net_33 width_1" style="stroke-width: 1"/><line x1="375" x2="391" y1="635" y2="635" class="net_24 width_1" style="stroke-width: 1"/><line x1="391" x2="391" y1="635" y2="623.5" class="net_24 width_1" style="stroke-width: 1"/><line x1="391" x2="421" y1="623.5" y2="623.5" class="net_24 width_1" style="stroke-width: 1"/><line x1="457" x2="517" y1="614" y2="614" class="net_34 width_1" style="stroke-width: 1"/><line x1="594" x2="670" y1="288" y2="288" class="net_6,7,8,9,10,11,12 width_7" style="stroke-width: 2"/><line x1="553" x2="588.5" y1="110" y2="110" class="net_6 width_1" style="stroke-width: 1"/><line x1="588.5" x2="588.5" y1="110" y2="277.5" class="net_6 width_1" style="stroke-width: 1"/><line x1="553" x2="573" y1="173" y2="173" class="net_7 width_1" style="stroke-width: 1"/><line x1="573" x2="573" y1="173" y2="298" class="net_7 width_1" style="stroke-width: 1"/><line x1="573" x2="588" y1="298" y2="298" class="net_7 width_1" style="stroke-width: 1"/><line x1="547" x2="563" y1="300.5" y2="300.5" class="net_8 width_1" style="stroke-width: 1"/><line x1="563" x2="563" y1="300.5" y2="318" class="net_8 width_1" style="stroke-width: 1"/><line x1="563" x2="588" y1="318" y2="318" class="net_8 width_1" style="stroke-width: 1"/><line x1="553" x2="563" y1="466.5" y2="466.5" class="net_9 width_1" style="stroke-width: 1"/><line x1="563" x2="563" y1="466.5" y2="338" class="net_9 width_1" style="stroke-width: 1"/><line x1="563" x2="588" y1="338" y2="338" class="net_9 width_1" style="stroke-width: 1"/><line x1="553" x2="588" y1="358" y2="358" class="net_10 width_1" style="stroke-width: 1"/><line x1="553" x2="573" y1="606.5" y2="606.5" class="net_11 width_1" style="stroke-width: 1"/><line x1="573" x2="573" y1="606.5" y2="378" class="net_11 width_1" style="stroke-width: 1"/><line x1="573" x2="588" y1="378" y2="378" class="net_11 width_1" style="stroke-width: 1"/><line x1="553" x2="588.5" y1="666.5" y2="666.5" class="net_12 width_1" style="stroke-width: 1"/><line x1="588.5" x2="588.5" y1="666.5" y2="398.5" class="net_12 width_1" style="stroke-width: 1"/><line x1="42" x2="116" y1="32.5" y2="32.5" class="net_2,3,4,5 width_4" style="stroke-width: 2"/><rect x="632" y="283" width="16" height="9" class="net_6,7,8,9,10,11,12 width_7 busLabel_7" style="fill: white; stroke: none"/><text x="631" y="291" class="net_6,7,8,9,10,11,12 width_7 busLabel_7">/7/</text><rect x="78" y="27.5" width="16" height="9" class="net_2,3,4,5 width_4 busLabel_4" style="fill: white; stroke: none"/><text x="77" y="35.5" class="net_2,3,4,5 width_4 busLabel_4">/4/</text></svg>