<svg xmlns="http://www.w3.org/2000/svg" xmlns:xlink="http://www.w3.org/1999/xlink" xmlns:s="https://github.com/nturley/netlistsvg" width="707" height="429"><style>svg {
  stroke:#000;
  fill:none;
}
text {
  fill:#000;
  stroke:none;
  font-size:10px;
  font-weight: bold;
  font-family: "Courier New", monospace;
}
line {
    stroke-linecap: round;
}
.nodelabel {
  text-anchor: middle;
}
.inputPortLabel {
  text-anchor: end;
}
.splitjoinBody {
  fill:#000;
}</style><g s:type="not" transform="translate(189,12)" s:width="30" s:height="20" id="cell_$abc$102$auto$blifparse.cc:386:parse_blif$103"><s:alias val="$_NOT_"/><s:alias val="$not"/><s:alias val="$logic_not"/><path d="M0,0 L0,20 L20,10 Z" class="cell_$abc$102$auto$blifparse.cc:386:parse_blif$103"/><circle cx="24" cy="10" r="3" class="cell_$abc$102$auto$blifparse.cc:386:parse_blif$103"/><g s:x="-1" s:y="10" s:pid="A"/><g s:x="27" s:y="10" s:pid="Y"/></g><g s:type="not" transform="translate(189,67)" s:width="30" s:height="20" id="cell_$abc$102$auto$blifparse.cc:386:parse_blif$104"><s:alias val="$_NOT_"/><s:alias val="$not"/><s:alias val="$logic_not"/><path d="M0,0 L0,20 L20,10 Z" class="cell_$abc$102$auto$blifparse.cc:386:parse_blif$104"/><circle cx="24" cy="10" r="3" class="cell_$abc$102$auto$blifparse.cc:386:parse_blif$104"/><g s:x="-1" s:y="10" s:pid="A"/><g s:x="27" s:y="10" s:pid="Y"/></g><g s:type="not" transform="translate(189,122)" s:width="30" s:height="20" id="cell_$abc$102$auto$blifparse.cc:386:parse_blif$105"><s:alias val="$_NOT_"/><s:alias val="$not"/><s:alias val="$logic_not"/><path d="M0,0 L0,20 L20,10 Z" class="cell_$abc$102$auto$blifparse.cc:386:parse_blif$105"/><circle cx="24" cy="10" r="3" class="cell_$abc$102$auto$blifparse.cc:386:parse_blif$105"/><g s:x="-1" s:y="10" s:pid="A"/><g s:x="27" s:y="10" s:pid="Y"/></g><g s:type="not" transform="translate(189,177)" s:width="30" s:height="20" id="cell_$abc$102$auto$blifparse.cc:386:parse_blif$106"><s:alias val="$_NOT_"/><s:alias val="$not"/><s:alias val="$logic_not"/><path d="M0,0 L0,20 L20,10 Z" class="cell_$abc$102$auto$blifparse.cc:386:parse_blif$106"/><circle cx="24" cy="10" r="3" class="cell_$abc$102$auto$blifparse.cc:386:parse_blif$106"/><g s:x="-1" s:y="10" s:pid="A"/><g s:x="27" s:y="10" s:pid="Y"/></g><g s:type="not" transform="translate(189,232)" s:width="30" s:height="20" id="cell_$abc$102$auto$blifparse.cc:386:parse_blif$107"><s:alias val="$_NOT_"/><s:alias val="$not"/><s:alias val="$logic_not"/><path d="M0,0 L0,20 L20,10 Z" class="cell_$abc$102$auto$blifparse.cc:386:parse_blif$107"/><circle cx="24" cy="10" r="3" class="cell_$abc$102$auto$blifparse.cc:386:parse_blif$107"/><g s:x="-1" s:y="10" s:pid="A"/><g s:x="27" s:y="10" s:pid="Y"/></g><g s:type="not" transform="translate(189,287)" s:width="30" s:height="20" id="cell_$abc$102$auto$blifparse.cc:386:parse_blif$108"><s:alias val="$_NOT_"/><s:alias val="$not"/><s:alias val="$logic_not"/><path d="M0,0 L0,20 L20,10 Z" class="cell_$abc$102$auto$blifparse.cc:386:parse_blif$108"/><circle cx="24" cy="10" r="3" class="cell_$abc$102$auto$blifparse.cc:386:parse_blif$108"/><g s:x="-1" s:y="10" s:pid="A"/><g s:x="27" s:y="10" s:pid="Y"/></g><g s:type="not" transform="translate(189,342)" s:width="30" s:height="20" id="cell_$abc$102$auto$blifparse.cc:386:parse_blif$109"><s:alias val="$_NOT_"/><s:alias val="$not"/><s:alias val="$logic_not"/><path d="M0,0 L0,20 L20,10 Z" class="cell_$abc$102$auto$blifparse.cc:386:parse_blif$109"/><circle cx="24" cy="10" r="3" class="cell_$abc$102$auto$blifparse.cc:386:parse_blif$109"/><g s:x="-1" s:y="10" s:pid="A"/><g s:x="27" s:y="10" s:pid="Y"/></g><g s:type="not" transform="translate(189,397)" s:width="30" s:height="20" id="cell_$abc$102$auto$blifparse.cc:386:parse_blif$110"><s:alias val="$_NOT_"/><s:alias val="$not"/><s:alias val="$logic_not"/><path d="M0,0 L0,20 L20,10 Z" class="cell_$abc$102$auto$blifparse.cc:386:parse_blif$110"/><circle cx="24" cy="10" r="3" class="cell_$abc$102$auto$blifparse.cc:386:parse_blif$110"/><g s:x="-1" s:y="10" s:pid="A"/><g s:x="27" s:y="10" s:pid="Y"/></g><g s:type="nand" transform="translate(254,277)" s:width="30" s:height="25" id="cell_$abc$102$auto$blifparse.cc:386:parse_blif$111"><s:alias val="$nand"/><s:alias val="$logic_nand"/><s:alias val="$_NAND_"/><path d="M0,0 L0,25 L15,25 A15 12.5 0 0 0 15,0 Z" class="cell_$abc$102$auto$blifparse.cc:386:parse_blif$111"/><circle cx="34" cy="12.5" r="3" class="cell_$abc$102$auto$blifparse.cc:386:parse_blif$111"/><g s:x="0" s:y="5" s:pid="A"/><g s:x="0" s:y="20" s:pid="B"/><g s:x="36" s:y="12.5" s:pid="Y"/></g><g s:type="not" transform="translate(326,279.5)" s:width="30" s:height="20" id="cell_$abc$102$auto$blifparse.cc:386:parse_blif$112"><s:alias val="$_NOT_"/><s:alias val="$not"/><s:alias val="$logic_not"/><path d="M0,0 L0,20 L20,10 Z" class="cell_$abc$102$auto$blifparse.cc:386:parse_blif$112"/><circle cx="24" cy="10" r="3" class="cell_$abc$102$auto$blifparse.cc:386:parse_blif$112"/><g s:x="-1" s:y="10" s:pid="A"/><g s:x="27" s:y="10" s:pid="Y"/></g><g s:type="nand" transform="translate(254,387)" s:width="30" s:height="25" id="cell_$abc$102$auto$blifparse.cc:386:parse_blif$113"><s:alias val="$nand"/><s:alias val="$logic_nand"/><s:alias val="$_NAND_"/><path d="M0,0 L0,25 L15,25 A15 12.5 0 0 0 15,0 Z" class="cell_$abc$102$auto$blifparse.cc:386:parse_blif$113"/><circle cx="34" cy="12.5" r="3" class="cell_$abc$102$auto$blifparse.cc:386:parse_blif$113"/><g s:x="0" s:y="5" s:pid="A"/><g s:x="0" s:y="20" s:pid="B"/><g s:x="36" s:y="12.5" s:pid="Y"/></g><g s:type="not" transform="translate(326,389.5)" s:width="30" s:height="20" id="cell_$abc$102$auto$blifparse.cc:386:parse_blif$114"><s:alias val="$_NOT_"/><s:alias val="$not"/><s:alias val="$logic_not"/><path d="M0,0 L0,20 L20,10 Z" class="cell_$abc$102$auto$blifparse.cc:386:parse_blif$114"/><circle cx="24" cy="10" r="3" class="cell_$abc$102$auto$blifparse.cc:386:parse_blif$114"/><g s:x="-1" s:y="10" s:pid="A"/><g s:x="27" s:y="10" s:pid="Y"/></g><g s:type="nand" transform="translate(391,379.5)" s:width="30" s:height="25" id="cell_$abc$102$auto$blifparse.cc:386:parse_blif$115"><s:alias val="$nand"/><s:alias val="$logic_nand"/><s:alias val="$_NAND_"/><path d="M0,0 L0,25 L15,25 A15 12.5 0 0 0 15,0 Z" class="cell_$abc$102$auto$blifparse.cc:386:parse_blif$115"/><circle cx="34" cy="12.5" r="3" class="cell_$abc$102$auto$blifparse.cc:386:parse_blif$115"/><g s:x="0" s:y="5" s:pid="A"/><g s:x="0" s:y="20" s:pid="B"/><g s:x="36" s:y="12.5" s:pid="Y"/></g><g s:type="not" transform="translate(463,382)" s:width="30" s:height="20" id="cell_$abc$102$auto$blifparse.cc:386:parse_blif$116"><s:alias val="$_NOT_"/><s:alias val="$not"/><s:alias val="$logic_not"/><path d="M0,0 L0,20 L20,10 Z" class="cell_$abc$102$auto$blifparse.cc:386:parse_blif$116"/><circle cx="24" cy="10" r="3" class="cell_$abc$102$auto$blifparse.cc:386:parse_blif$116"/><g s:x="-1" s:y="10" s:pid="A"/><g s:x="27" s:y="10" s:pid="Y"/></g><g s:type="nand" transform="translate(254,57)" s:width="30" s:height="25" id="cell_$abc$102$auto$blifparse.cc:386:parse_blif$117"><s:alias val="$nand"/><s:alias val="$logic_nand"/><s:alias val="$_NAND_"/><path d="M0,0 L0,25 L15,25 A15 12.5 0 0 0 15,0 Z" class="cell_$abc$102$auto$blifparse.cc:386:parse_blif$117"/><circle cx="34" cy="12.5" r="3" class="cell_$abc$102$auto$blifparse.cc:386:parse_blif$117"/><g s:x="0" s:y="5" s:pid="A"/><g s:x="0" s:y="20" s:pid="B"/><g s:x="36" s:y="12.5" s:pid="Y"/></g><g s:type="not" transform="translate(326,59.5)" s:width="30" s:height="20" id="cell_$abc$102$auto$blifparse.cc:386:parse_blif$118"><s:alias val="$_NOT_"/><s:alias val="$not"/><s:alias val="$logic_not"/><path d="M0,0 L0,20 L20,10 Z" class="cell_$abc$102$auto$blifparse.cc:386:parse_blif$118"/><circle cx="24" cy="10" r="3" class="cell_$abc$102$auto$blifparse.cc:386:parse_blif$118"/><g s:x="-1" s:y="10" s:pid="A"/><g s:x="27" s:y="10" s:pid="Y"/></g><g s:type="nand" transform="translate(254,167)" s:width="30" s:height="25" id="cell_$abc$102$auto$blifparse.cc:386:parse_blif$119"><s:alias val="$nand"/><s:alias val="$logic_nand"/><s:alias val="$_NAND_"/><path d="M0,0 L0,25 L15,25 A15 12.5 0 0 0 15,0 Z" class="cell_$abc$102$auto$blifparse.cc:386:parse_blif$119"/><circle cx="34" cy="12.5" r="3" class="cell_$abc$102$auto$blifparse.cc:386:parse_blif$119"/><g s:x="0" s:y="5" s:pid="A"/><g s:x="0" s:y="20" s:pid="B"/><g s:x="36" s:y="12.5" s:pid="Y"/></g><g s:type="not" transform="translate(326,169.5)" s:width="30" s:height="20" id="cell_$abc$102$auto$blifparse.cc:386:parse_blif$120"><s:alias val="$_NOT_"/><s:alias val="$not"/><s:alias val="$logic_not"/><path d="M0,0 L0,20 L20,10 Z" class="cell_$abc$102$auto$blifparse.cc:386:parse_blif$120"/><circle cx="24" cy="10" r="3" class="cell_$abc$102$auto$blifparse.cc:386:parse_blif$120"/><g s:x="-1" s:y="10" s:pid="A"/><g s:x="27" s:y="10" s:pid="Y"/></g><g s:type="nand" transform="translate(391,159.5)" s:width="30" s:height="25" id="cell_$abc$102$auto$blifparse.cc:386:parse_blif$121"><s:alias val="$nand"/><s:alias val="$logic_nand"/><s:alias val="$_NAND_"/><path d="M0,0 L0,25 L15,25 A15 12.5 0 0 0 15,0 Z" class="cell_$abc$102$auto$blifparse.cc:386:parse_blif$121"/><circle cx="34" cy="12.5" r="3" class="cell_$abc$102$auto$blifparse.cc:386:parse_blif$121"/><g s:x="0" s:y="5" s:pid="A"/><g s:x="0" s:y="20" s:pid="B"/><g s:x="36" s:y="12.5" s:pid="Y"/></g><g s:type="not" transform="translate(463,162)" s:width="30" s:height="20" id="cell_$abc$102$auto$blifparse.cc:386:parse_blif$122"><s:alias val="$_NOT_"/><s:alias val="$not"/><s:alias val="$logic_not"/><path d="M0,0 L0,20 L20,10 Z" class="cell_$abc$102$auto$blifparse.cc:386:parse_blif$122"/><circle cx="24" cy="10" r="3" class="cell_$abc$102$auto$blifparse.cc:386:parse_blif$122"/><g s:x="-1" s:y="10" s:pid="A"/><g s:x="27" s:y="10" s:pid="Y"/></g><g s:type="nand" transform="translate(528,387)" s:width="30" s:height="25" id="cell_$abc$102$auto$blifparse.cc:386:parse_blif$123"><s:alias val="$nand"/><s:alias val="$logic_nand"/><s:alias val="$_NAND_"/><path d="M0,0 L0,25 L15,25 A15 12.5 0 0 0 15,0 Z" class="cell_$abc$102$auto$blifparse.cc:386:parse_blif$123"/><circle cx="34" cy="12.5" r="3" class="cell_$abc$102$auto$blifparse.cc:386:parse_blif$123"/><g s:x="0" s:y="5" s:pid="A"/><g s:x="0" s:y="20" s:pid="B"/><g s:x="36" s:y="12.5" s:pid="Y"/></g><g s:type="not" transform="translate(600,389.5)" s:width="30" s:height="20" id="cell_$abc$102$auto$blifparse.cc:386:parse_blif$124"><s:alias val="$_NOT_"/><s:alias val="$not"/><s:alias val="$logic_not"/><path d="M0,0 L0,20 L20,10 Z" class="cell_$abc$102$auto$blifparse.cc:386:parse_blif$124"/><circle cx="24" cy="10" r="3" class="cell_$abc$102$auto$blifparse.cc:386:parse_blif$124"/><g s:x="-1" s:y="10" s:pid="A"/><g s:x="27" s:y="10" s:pid="Y"/></g><g s:type="inputExt" transform="translate(12,232)" s:width="30" s:height="20" id="cell_A"><text x="15" y="-4" class="nodelabel cell_A" s:attribute="ref">A</text><s:alias val="$_inputExt_"/><path d="M0,0 L0,20 L15,20 L30,10 L15,0 Z" class="cell_A"/><g s:x="30" s:y="10" s:pid="Y"/></g><g s:type="outputExt" transform="translate(665,389.5)" s:width="30" s:height="20" id="cell_Y"><text x="15" y="-4" class="nodelabel cell_Y" s:attribute="ref">Y</text><s:alias val="$_outputExt_"/><path d="M30,0 L30,20 L15,20 L0,10 L15,0 Z" class="cell_Y"/><g s:x="0" s:y="10" s:pid="A"/></g><g s:type="split" transform="translate(116,221.5)" s:width="5" s:height="40" id="cell_$split$,2,3,4,5,6,7,8,9,"><rect width="5" height="160" class="splitjoinBody" s:generic="body"/><s:alias val="$_split_"/><g s:x="0" s:y="20" s:pid="in"/><g transform="translate(4,10)" s:x="4" s:y="10" s:pid="out0"><text x="5" y="-4">1</text></g><g transform="translate(4,30)" s:x="4" s:y="10" s:pid="out0"><text x="5" y="-4">0</text></g><g transform="translate(4,50)" s:x="4" s:y="10" s:pid="out0"><text x="5" y="-4">3</text></g><g transform="translate(4,70)" s:x="4" s:y="10" s:pid="out0"><text x="5" y="-4">2</text></g><g transform="translate(4,90)" s:x="4" s:y="10" s:pid="out0"><text x="5" y="-4">5</text></g><g transform="translate(4,110)" s:x="4" s:y="10" s:pid="out0"><text x="5" y="-4">4</text></g><g transform="translate(4,130)" s:x="4" s:y="10" s:pid="out0"><text x="5" y="-4">7</text></g><g transform="translate(4,150)" s:x="4" s:y="10" s:pid="out0"><text x="5" y="-4">6</text></g></g><line x1="120.5" x2="120.5" y1="231.5" y2="22" class="net_3 width_1" style="stroke-width: 1"/><line x1="120.5" x2="188" y1="22" y2="22" class="net_3 width_1" style="stroke-width: 1"/><line x1="121" x2="138" y1="252" y2="252" class="net_2 width_1" style="stroke-width: 1"/><line x1="138" x2="138" y1="252" y2="77" class="net_2 width_1" style="stroke-width: 1"/><line x1="138" x2="188" y1="77" y2="77" class="net_2 width_1" style="stroke-width: 1"/><line x1="121" x2="148" y1="272" y2="272" class="net_5 width_1" style="stroke-width: 1"/><line x1="148" x2="148" y1="272" y2="132" class="net_5 width_1" style="stroke-width: 1"/><line x1="148" x2="188" y1="132" y2="132" class="net_5 width_1" style="stroke-width: 1"/><line x1="121" x2="158" y1="292" y2="292" class="net_4 width_1" style="stroke-width: 1"/><line x1="158" x2="158" y1="292" y2="187" class="net_4 width_1" style="stroke-width: 1"/><line x1="158" x2="188" y1="187" y2="187" class="net_4 width_1" style="stroke-width: 1"/><line x1="121" x2="168" y1="312" y2="312" class="net_7 width_1" style="stroke-width: 1"/><line x1="168" x2="168" y1="312" y2="242" class="net_7 width_1" style="stroke-width: 1"/><line x1="168" x2="188" y1="242" y2="242" class="net_7 width_1" style="stroke-width: 1"/><line x1="121" x2="178" y1="332" y2="332" class="net_6 width_1" style="stroke-width: 1"/><line x1="178" x2="178" y1="332" y2="297" class="net_6 width_1" style="stroke-width: 1"/><line x1="178" x2="188" y1="297" y2="297" class="net_6 width_1" style="stroke-width: 1"/><line x1="121" x2="188" y1="352" y2="352" class="net_9 width_1" style="stroke-width: 1"/><line x1="120.5" x2="120.5" y1="372.5" y2="407" class="net_8 width_1" style="stroke-width: 1"/><line x1="120.5" x2="188" y1="407" y2="407" class="net_8 width_1" style="stroke-width: 1"/><line x1="216" x2="229" y1="242" y2="242" class="net_15 width_1" style="stroke-width: 1"/><line x1="229" x2="229" y1="242" y2="282" class="net_15 width_1" style="stroke-width: 1"/><line x1="229" x2="254" y1="282" y2="282" class="net_15 width_1" style="stroke-width: 1"/><line x1="216" x2="254" y1="297" y2="297" class="net_16 width_1" style="stroke-width: 1"/><line x1="290" x2="325" y1="289.5" y2="289.5" class="net_19 width_1" style="stroke-width: 1"/><line x1="216" x2="229" y1="352" y2="352" class="net_17 width_1" style="stroke-width: 1"/><line x1="229" x2="229" y1="352" y2="392" class="net_17 width_1" style="stroke-width: 1"/><line x1="229" x2="254" y1="392" y2="392" class="net_17 width_1" style="stroke-width: 1"/><line x1="216" x2="254" y1="407" y2="407" class="net_18 width_1" style="stroke-width: 1"/><line x1="290" x2="325" y1="399.5" y2="399.5" class="net_21 width_1" style="stroke-width: 1"/><line x1="353" x2="366" y1="289.5" y2="289.5" class="net_20 width_1" style="stroke-width: 1"/><line x1="366" x2="366" y1="289.5" y2="384.5" class="net_20 width_1" style="stroke-width: 1"/><line x1="366" x2="391" y1="384.5" y2="384.5" class="net_20 width_1" style="stroke-width: 1"/><line x1="353" x2="391" y1="399.5" y2="399.5" class="net_22 width_1" style="stroke-width: 1"/><line x1="427" x2="462" y1="392" y2="392" class="net_23 width_1" style="stroke-width: 1"/><line x1="216" x2="229" y1="22" y2="22" class="net_11 width_1" style="stroke-width: 1"/><line x1="229" x2="229" y1="22" y2="62" class="net_11 width_1" style="stroke-width: 1"/><line x1="229" x2="254" y1="62" y2="62" class="net_11 width_1" style="stroke-width: 1"/><line x1="216" x2="254" y1="77" y2="77" class="net_12 width_1" style="stroke-width: 1"/><line x1="290" x2="325" y1="69.5" y2="69.5" class="net_25 width_1" style="stroke-width: 1"/><line x1="216" x2="229" y1="132" y2="132" class="net_13 width_1" style="stroke-width: 1"/><line x1="229" x2="229" y1="132" y2="172" class="net_13 width_1" style="stroke-width: 1"/><line x1="229" x2="254" y1="172" y2="172" class="net_13 width_1" style="stroke-width: 1"/><line x1="216" x2="254" y1="187" y2="187" class="net_14 width_1" style="stroke-width: 1"/><line x1="290" x2="325" y1="179.5" y2="179.5" class="net_27 width_1" style="stroke-width: 1"/><line x1="353" x2="366" y1="69.5" y2="69.5" class="net_26 width_1" style="stroke-width: 1"/><line x1="366" x2="366" y1="69.5" y2="164.5" class="net_26 width_1" style="stroke-width: 1"/><line x1="366" x2="391" y1="164.5" y2="164.5" class="net_26 width_1" style="stroke-width: 1"/><line x1="353" x2="391" y1="179.5" y2="179.5" class="net_28 width_1" style="stroke-width: 1"/><line x1="427" x2="462" y1="172" y2="172" class="net_29 width_1" style="stroke-width: 1"/><line x1="490" x2="528" y1="392" y2="392" class="net_24 width_1" style="stroke-width: 1"/><line x1="490" x2="503" y1="172" y2="172" class="net_30 width_1" style="stroke-width: 1"/><line x1="503" x2="503" y1="172" y2="407" class="net_30 width_1" style="stroke-width: 1"/><line x1="503" x2="528" y1="407" y2="407" class="net_30 width_1" style="stroke-width: 1"/><line x1="564" x2="599" y1="399.5" y2="399.5" class="net_31 width_1" style="stroke-width: 1"/><line x1="627" x2="665" y1="399.5" y2="399.5" class="net_10 width_1" style="stroke-width: 1"/><line x1="42" x2="116" y1="242" y2="242" class="net_2,3,4,5,6,7,8,9 width_8" style="stroke-width: 2"/><rect x="78" y="237" width="16" height="9" class="net_2,3,4,5,6,7,8,9 width_8 busLabel_8" style="fill: white; stroke: none"/><text x="77" y="245" class="net_2,3,4,5,6,7,8,9 width_8 busLabel_8">/8/</text></svg>