<svg xmlns="http://www.w3.org/2000/svg" xmlns:xlink="http://www.w3.org/1999/xlink" xmlns:s="https://github.com/nturley/netlistsvg" width="504" height="399"><style>svg {
  stroke:#000;
  fill:none;
}
text {
  fill:#000;
  stroke:none;
  font-size:10px;
  font-weight: bold;
  font-family: "Courier New", monospace;
}
line {
    stroke-linecap: round;
}
.nodelabel {
  text-anchor: middle;
}
.inputPortLabel {
  text-anchor: end;
}
.splitjoinBody {
  fill:#000;
}</style><g s:type="NOR4" transform="translate(178,45.17)" s:width="30" s:height="25" id="cell_$abc$116$auto$blifparse.cc:386:parse_blif$117"><s:alias val="NOR4"/><s:alias val="$NOR4"/><path d="M0,0 A30 25 0 0 1 0,25 A30 25 0 0 0 30,12.5 A30 25 0 0 0 0,0" class="cell_$abc$116$auto$blifparse.cc:386:parse_blif$117"/><circle cx="33" cy="12.5" r="3" class="cell_$abc$116$auto$blifparse.cc:386:parse_blif$117"/><g s:x="1" s:y="3" s:pid="A"/><g s:x="3" s:y="9.33" s:pid="B"/><g s:x="3" s:y="15.66" s:pid="C"/><g s:x="1" s:y="22" s:pid="D"/><g s:x="36" s:y="12.5" s:pid="Y"/></g><g s:type="NOR4" transform="translate(178,172)" s:width="30" s:height="25" id="cell_$abc$116$auto$blifparse.cc:386:parse_blif$118"><s:alias val="NOR4"/><s:alias val="$NOR4"/><path d="M0,0 A30 25 0 0 1 0,25 A30 25 0 0 0 30,12.5 A30 25 0 0 0 0,0" class="cell_$abc$116$auto$blifparse.cc:386:parse_blif$118"/><circle cx="33" cy="12.5" r="3" class="cell_$abc$116$auto$blifparse.cc:386:parse_blif$118"/><g s:x="1" s:y="3" s:pid="A"/><g s:x="3" s:y="9.33" s:pid="B"/><g s:x="3" s:y="15.66" s:pid="C"/><g s:x="1" s:y="22" s:pid="D"/><g s:x="36" s:y="12.5" s:pid="Y"/></g><g s:type="NAND2" transform="translate(249,52.67)" s:width="30" s:height="25" id="cell_$abc$116$auto$blifparse.cc:386:parse_blif$119"><s:alias val="NAND2"/><s:alias val="$NAND2"/><path d="M0,0 L0,25 L15,25 A15 12.5 0 0 0 15,0 Z" class="cell_$abc$116$auto$blifparse.cc:386:parse_blif$119"/><circle cx="34" cy="12.5" r="3" class="cell_$abc$116$auto$blifparse.cc:386:parse_blif$119"/><g s:x="0" s:y="5" s:pid="A"/><g s:x="0" s:y="20" s:pid="B"/><g s:x="36" s:y="12.5" s:pid="Y"/></g><g s:type="NOT" transform="translate(323,55.17)" s:width="30" s:height="20" id="cell_$abc$116$auto$blifparse.cc:386:parse_blif$120"><s:alias val="NOT"/><s:alias val="$NOT"/><path d="M0,0 L0,20 L20,10 Z" class="cell_$abc$116$auto$blifparse.cc:386:parse_blif$120"/><circle cx="24" cy="10" r="3" class="cell_$abc$116$auto$blifparse.cc:386:parse_blif$120"/><g s:x="-1" s:y="10" s:pid="A"/><g s:x="27" s:y="10" s:pid="Y"/></g><g s:type="NOR6" transform="translate(178,238.75)" s:width="30" s:height="25" id="cell_$abc$116$auto$blifparse.cc:386:parse_blif$121"><s:alias val="NOR6"/><s:alias val="$NOR6"/><path d="M0,0 A30 25 0 0 1 0,25 A30 25 0 0 0 30,12.5 A30 25 0 0 0 0,0" class="cell_$abc$116$auto$blifparse.cc:386:parse_blif$121"/><circle cx="33" cy="12.5" r="3" class="cell_$abc$116$auto$blifparse.cc:386:parse_blif$121"/><g s:x="1" s:y="3" s:pid="A"/><g s:x="3" s:y="7.75" s:pid="B"/><g s:x="3" s:y="12.5" s:pid="C"/><g s:x="1" s:y="17.25" s:pid="D"/><g s:x="1" s:y="22" s:pid="E"/><g s:x="1" s:y="22" s:pid="F"/><g s:x="36" s:y="12.5" s:pid="Y"/></g><g s:type="NOT" transform="translate(252,241.25)" s:width="30" s:height="20" id="cell_$abc$116$auto$blifparse.cc:386:parse_blif$122"><s:alias val="NOT"/><s:alias val="$NOT"/><path d="M0,0 L0,20 L20,10 Z" class="cell_$abc$116$auto$blifparse.cc:386:parse_blif$122"/><circle cx="24" cy="10" r="3" class="cell_$abc$116$auto$blifparse.cc:386:parse_blif$122"/><g s:x="-1" s:y="10" s:pid="A"/><g s:x="27" s:y="10" s:pid="Y"/></g><g s:type="NOR3" transform="translate(320,340.5)" s:width="30" s:height="25" id="cell_$abc$116$auto$blifparse.cc:386:parse_blif$123"><s:alias val="NOR3"/><s:alias val="$NOR3"/><path d="M0,0 A30 25 0 0 1 0,25 A30 25 0 0 0 30,12.5 A30 25 0 0 0 0,0" class="cell_$abc$116$auto$blifparse.cc:386:parse_blif$123"/><circle cx="33" cy="12.5" r="3" class="cell_$abc$116$auto$blifparse.cc:386:parse_blif$123"/><g s:x="2" s:y="6" s:pid="A"/><g s:x="3" s:y="12.5" s:pid="B"/><g s:x="2" s:y="19" s:pid="C"/><g s:x="36" s:y="12.5" s:pid="Y"/></g><g s:type="NOR2" transform="translate(391,60.17)" s:width="33" s:height="25" id="cell_$abc$116$auto$blifparse.cc:386:parse_blif$124"><s:alias val="NOR2"/><s:alias val="$NOR2"/><path d="M0,0 A30 25 0 0 1 0,25 A30 25 0 0 0 30,12.5 A30 25 0 0 0 0,0" class="cell_$abc$116$auto$blifparse.cc:386:parse_blif$124"/><circle cx="33" cy="12.5" r="3" class="cell_$abc$116$auto$blifparse.cc:386:parse_blif$124"/><g s:x="2" s:y="5" s:pid="A"/><g s:x="2" s:y="20" s:pid="B"/><g s:x="36" s:y="12.5" s:pid="Y"/></g><g s:type="inputExt" transform="translate(12,226.5)" s:width="30" s:height="20" id="cell_A"><text x="15" y="-4" class="nodelabel cell_A" s:attribute="ref">A</text><s:alias val="$_inputExt_"/><path d="M0,0 L0,20 L15,20 L30,10 L15,0 Z" class="cell_A"/><g s:x="30" s:y="10" s:pid="Y"/></g><g s:type="inputExt" transform="translate(12,34.5)" s:width="30" s:height="20" id="cell_B"><text x="15" y="-4" class="nodelabel cell_B" s:attribute="ref">B</text><s:alias val="$_inputExt_"/><path d="M0,0 L0,20 L15,20 L30,10 L15,0 Z" class="cell_B"/><g s:x="30" s:y="10" s:pid="Y"/></g><g s:type="outputExt" transform="translate(462,62.67)" s:width="30" s:height="20" id="cell_Y"><text x="15" y="-4" class="nodelabel cell_Y" s:attribute="ref">Y</text><s:alias val="$_outputExt_"/><path d="M30,0 L30,20 L15,20 L0,10 L15,0 Z" class="cell_Y"/><g s:x="0" s:y="10" s:pid="A"/></g><g s:type="split" transform="translate(116,24)" s:width="5" s:height="40" id="cell_$split$,10,11,12,13,14,15,16,17,"><rect width="5" height="160" class="splitjoinBody" s:generic="body"/><s:alias val="$_split_"/><g s:x="0" s:y="20" s:pid="in"/><g transform="translate(4,10)" s:x="4" s:y="10" s:pid="out0"><text x="5" y="-4">5</text></g><g transform="translate(4,30)" s:x="4" s:y="10" s:pid="out0"><text x="5" y="-4">4</text></g><g transform="translate(4,50)" s:x="4" s:y="10" s:pid="out0"><text x="5" y="-4">7</text></g><g transform="translate(4,70)" s:x="4" s:y="10" s:pid="out0"><text x="5" y="-4">6</text></g><g transform="translate(4,90)" s:x="4" s:y="10" s:pid="out0"><text x="5" y="-4">1</text></g><g transform="translate(4,110)" s:x="4" s:y="10" s:pid="out0"><text x="5" y="-4">0</text></g><g transform="translate(4,130)" s:x="4" s:y="10" s:pid="out0"><text x="5" y="-4">3</text></g><g transform="translate(4,150)" s:x="4" s:y="10" s:pid="out0"><text x="5" y="-4">2</text></g></g><g s:type="split" transform="translate(116,216)" s:width="5" s:height="40" id="cell_$split$,2,3,4,5,6,7,8,9,"><rect width="5" height="160" class="splitjoinBody" s:generic="body"/><s:alias val="$_split_"/><g s:x="0" s:y="20" s:pid="in"/><g transform="translate(4,10)" s:x="4" s:y="10" s:pid="out0"><text x="5" y="-4">1</text></g><g transform="translate(4,30)" s:x="4" s:y="10" s:pid="out0"><text x="5" y="-4">3</text></g><g transform="translate(4,50)" s:x="4" s:y="10" s:pid="out0"><text x="5" y="-4">2</text></g><g transform="translate(4,70)" s:x="4" s:y="10" s:pid="out0"><text x="5" y="-4">5</text></g><g transform="translate(4,90)" s:x="4" s:y="10" s:pid="out0"><text x="5" y="-4">4</text></g><g transform="translate(4,110)" s:x="4" s:y="10" s:pid="out0"><text x="5" y="-4">7</text></g><g transform="translate(4,130)" s:x="4" s:y="10" s:pid="out0"><text x="5" y="-4">0</text></g><g transform="translate(4,150)" s:x="4" s:y="10" s:pid="out0"><text x="5" y="-4">6</text></g></g><line x1="120.5" x2="120.5" y1="34" y2="12" class="net_15 width_1" style="stroke-width: 1"/><line x1="120.5" x2="138" y1="12" y2="12" class="net_15 width_1" style="stroke-width: 1"/><line x1="138" x2="138" y1="12" y2="48.17" class="net_15 width_1" style="stroke-width: 1"/><line x1="138" x2="179" y1="48.17" y2="48.17" class="net_15 width_1" style="stroke-width: 1"/><line x1="121" x2="181" y1="54.5" y2="54.5" class="net_14 width_1" style="stroke-width: 1"/><line x1="121" x2="138" y1="74.5" y2="74.5" class="net_17 width_1" style="stroke-width: 1"/><line x1="138" x2="138" y1="74.5" y2="60.83" class="net_17 width_1" style="stroke-width: 1"/><line x1="138" x2="181" y1="60.83" y2="60.83" class="net_17 width_1" style="stroke-width: 1"/><line x1="121" x2="148" y1="94.5" y2="94.5" class="net_16 width_1" style="stroke-width: 1"/><line x1="148" x2="148" y1="94.5" y2="67.17" class="net_16 width_1" style="stroke-width: 1"/><line x1="148" x2="179" y1="67.17" y2="67.17" class="net_16 width_1" style="stroke-width: 1"/><line x1="121" x2="158" y1="114.5" y2="114.5" class="net_11 width_1" style="stroke-width: 1"/><line x1="158" x2="158" y1="114.5" y2="175" class="net_11 width_1" style="stroke-width: 1"/><line x1="158" x2="179" y1="175" y2="175" class="net_11 width_1" style="stroke-width: 1"/><line x1="121" x2="148" y1="134.5" y2="134.5" class="net_10 width_1" style="stroke-width: 1"/><line x1="148" x2="148" y1="134.5" y2="181.33" class="net_10 width_1" style="stroke-width: 1"/><line x1="148" x2="181" y1="181.33" y2="181.33" class="net_10 width_1" style="stroke-width: 1"/><line x1="121" x2="138" y1="154.5" y2="154.5" class="net_13 width_1" style="stroke-width: 1"/><line x1="138" x2="138" y1="154.5" y2="187.66" class="net_13 width_1" style="stroke-width: 1"/><line x1="138" x2="181" y1="187.66" y2="187.66" class="net_13 width_1" style="stroke-width: 1"/><line x1="120.5" x2="120.5" y1="175" y2="194" class="net_12 width_1" style="stroke-width: 1"/><line x1="120.5" x2="179" y1="194" y2="194" class="net_12 width_1" style="stroke-width: 1"/><line x1="214" x2="249" y1="57.67" y2="57.67" class="net_19 width_1" style="stroke-width: 1"/><line x1="214" x2="224" y1="184.5" y2="184.5" class="net_20 width_1" style="stroke-width: 1"/><line x1="224" x2="224" y1="184.5" y2="72.67" class="net_20 width_1" style="stroke-width: 1"/><line x1="224" x2="249" y1="72.67" y2="72.67" class="net_20 width_1" style="stroke-width: 1"/><line x1="285" x2="322" y1="65.17" y2="65.17" class="net_21 width_1" style="stroke-width: 1"/><line x1="120.5" x2="120.5" y1="226" y2="204" class="net_3 width_1" style="stroke-width: 1"/><line x1="120.5" x2="138" y1="204" y2="204" class="net_3 width_1" style="stroke-width: 1"/><line x1="138" x2="138" y1="204" y2="241.75" class="net_3 width_1" style="stroke-width: 1"/><line x1="138" x2="179" y1="241.75" y2="241.75" class="net_3 width_1" style="stroke-width: 1"/><line x1="121" x2="181" y1="246.5" y2="246.5" class="net_5 width_1" style="stroke-width: 1"/><line x1="121" x2="138" y1="266.5" y2="266.5" class="net_4 width_1" style="stroke-width: 1"/><line x1="138" x2="138" y1="266.5" y2="251.25" class="net_4 width_1" style="stroke-width: 1"/><line x1="138" x2="181" y1="251.25" y2="251.25" class="net_4 width_1" style="stroke-width: 1"/><line x1="121" x2="148" y1="286.5" y2="286.5" class="net_7 width_1" style="stroke-width: 1"/><line x1="148" x2="148" y1="286.5" y2="256" class="net_7 width_1" style="stroke-width: 1"/><line x1="148" x2="179" y1="256" y2="256" class="net_7 width_1" style="stroke-width: 1"/><line x1="121" x2="158" y1="306.5" y2="306.5" class="net_6 width_1" style="stroke-width: 1"/><line x1="158" x2="158" y1="306.5" y2="260.75" class="net_6 width_1" style="stroke-width: 1"/><line x1="158" x2="179" y1="260.75" y2="260.75" class="net_6 width_1" style="stroke-width: 1"/><line x1="121" x2="168" y1="326.5" y2="326.5" class="net_9 width_1" style="stroke-width: 1"/><line x1="168" x2="168" y1="326.5" y2="260.75" class="net_9 width_1" style="stroke-width: 1"/><line x1="168" x2="179" y1="260.75" y2="260.75" class="net_9 width_1" style="stroke-width: 1"/><line x1="214" x2="251" y1="251.25" y2="251.25" class="net_23 width_1" style="stroke-width: 1"/><line x1="121" x2="322" y1="346.5" y2="346.5" class="net_2 width_1" style="stroke-width: 1"/><line x1="120.5" x2="120.5" y1="367" y2="386" class="net_8 width_1" style="stroke-width: 1"/><line x1="120.5" x2="295" y1="386" y2="386" class="net_8 width_1" style="stroke-width: 1"/><line x1="295" x2="295" y1="386" y2="353" class="net_8 width_1" style="stroke-width: 1"/><line x1="295" x2="323" y1="353" y2="353" class="net_8 width_1" style="stroke-width: 1"/><line x1="279" x2="305" y1="251.25" y2="251.25" class="net_24 width_1" style="stroke-width: 1"/><line x1="305" x2="305" y1="251.25" y2="359.5" class="net_24 width_1" style="stroke-width: 1"/><line x1="305" x2="322" y1="359.5" y2="359.5" class="net_24 width_1" style="stroke-width: 1"/><line x1="350" x2="393" y1="65.17" y2="65.17" class="net_22 width_1" style="stroke-width: 1"/><line x1="356" x2="366" y1="353" y2="353" class="net_25 width_1" style="stroke-width: 1"/><line x1="366" x2="366" y1="353" y2="80.17" class="net_25 width_1" style="stroke-width: 1"/><line x1="366" x2="393" y1="80.17" y2="80.17" class="net_25 width_1" style="stroke-width: 1"/><line x1="427" x2="462" y1="72.67" y2="72.67" class="net_18 width_1" style="stroke-width: 1"/><line x1="42" x2="116" y1="44.5" y2="44.5" class="net_10,11,12,13,14,15,16,17 width_8" style="stroke-width: 2"/><line x1="42" x2="116" y1="236.5" y2="236.5" class="net_2,3,4,5,6,7,8,9 width_8" style="stroke-width: 2"/><rect x="78" y="39.5" width="16" height="9" class="net_10,11,12,13,14,15,16,17 width_8 busLabel_8" style="fill: white; stroke: none"/><text x="77" y="47.5" class="net_10,11,12,13,14,15,16,17 width_8 busLabel_8">/8/</text><rect x="78" y="231.5" width="16" height="9" class="net_2,3,4,5,6,7,8,9 width_8 busLabel_8" style="fill: white; stroke: none"/><text x="77" y="239.5" class="net_2,3,4,5,6,7,8,9 width_8 busLabel_8">/8/</text></svg>