<svg xmlns="http://www.w3.org/2000/svg" xmlns:xlink="http://www.w3.org/1999/xlink" xmlns:s="https://github.com/nturley/netlistsvg" width="778" height="869"><style>svg {
  stroke:#000;
  fill:none;
}
text {
  fill:#000;
  stroke:none;
  font-size:10px;
  font-weight: bold;
  font-family: "Courier New", monospace;
}
line {
    stroke-linecap: round;
}
.nodelabel {
  text-anchor: middle;
}
.inputPortLabel {
  text-anchor: end;
}
.splitjoinBody {
  fill:#000;
}</style><g s:type="not" transform="translate(189,452)" s:width="30" s:height="20" id="cell_$abc$116$auto$blifparse.cc:386:parse_blif$117"><s:alias val="$_NOT_"/><s:alias val="$not"/><s:alias val="$logic_not"/><path d="M0,0 L0,20 L20,10 Z" class="cell_$abc$116$auto$blifparse.cc:386:parse_blif$117"/><circle cx="24" cy="10" r="3" class="cell_$abc$116$auto$blifparse.cc:386:parse_blif$117"/><g s:x="-1" s:y="10" s:pid="A"/><g s:x="27" s:y="10" s:pid="Y"/></g><g s:type="not" transform="translate(189,507)" s:width="30" s:height="20" id="cell_$abc$116$auto$blifparse.cc:386:parse_blif$118"><s:alias val="$_NOT_"/><s:alias val="$not"/><s:alias val="$logic_not"/><path d="M0,0 L0,20 L20,10 Z" class="cell_$abc$116$auto$blifparse.cc:386:parse_blif$118"/><circle cx="24" cy="10" r="3" class="cell_$abc$116$auto$blifparse.cc:386:parse_blif$118"/><g s:x="-1" s:y="10" s:pid="A"/><g s:x="27" s:y="10" s:pid="Y"/></g><g s:type="not" transform="translate(189,562)" s:width="30" s:height="20" id="cell_$abc$116$auto$blifparse.cc:386:parse_blif$119"><s:alias val="$_NOT_"/><s:alias val="$not"/><s:alias val="$logic_not"/><path d="M0,0 L0,20 L20,10 Z" class="cell_$abc$116$auto$blifparse.cc:386:parse_blif$119"/><circle cx="24" cy="10" r="3" class="cell_$abc$116$auto$blifparse.cc:386:parse_blif$119"/><g s:x="-1" s:y="10" s:pid="A"/><g s:x="27" s:y="10" s:pid="Y"/></g><g s:type="not" transform="translate(189,617)" s:width="30" s:height="20" id="cell_$abc$116$auto$blifparse.cc:386:parse_blif$120"><s:alias val="$_NOT_"/><s:alias val="$not"/><s:alias val="$logic_not"/><path d="M0,0 L0,20 L20,10 Z" class="cell_$abc$116$auto$blifparse.cc:386:parse_blif$120"/><circle cx="24" cy="10" r="3" class="cell_$abc$116$auto$blifparse.cc:386:parse_blif$120"/><g s:x="-1" s:y="10" s:pid="A"/><g s:x="27" s:y="10" s:pid="Y"/></g><g s:type="not" transform="translate(189,672)" s:width="30" s:height="20" id="cell_$abc$116$auto$blifparse.cc:386:parse_blif$121"><s:alias val="$_NOT_"/><s:alias val="$not"/><s:alias val="$logic_not"/><path d="M0,0 L0,20 L20,10 Z" class="cell_$abc$116$auto$blifparse.cc:386:parse_blif$121"/><circle cx="24" cy="10" r="3" class="cell_$abc$116$auto$blifparse.cc:386:parse_blif$121"/><g s:x="-1" s:y="10" s:pid="A"/><g s:x="27" s:y="10" s:pid="Y"/></g><g s:type="not" transform="translate(189,727)" s:width="30" s:height="20" id="cell_$abc$116$auto$blifparse.cc:386:parse_blif$122"><s:alias val="$_NOT_"/><s:alias val="$not"/><s:alias val="$logic_not"/><path d="M0,0 L0,20 L20,10 Z" class="cell_$abc$116$auto$blifparse.cc:386:parse_blif$122"/><circle cx="24" cy="10" r="3" class="cell_$abc$116$auto$blifparse.cc:386:parse_blif$122"/><g s:x="-1" s:y="10" s:pid="A"/><g s:x="27" s:y="10" s:pid="Y"/></g><g s:type="not" transform="translate(189,782)" s:width="30" s:height="20" id="cell_$abc$116$auto$blifparse.cc:386:parse_blif$123"><s:alias val="$_NOT_"/><s:alias val="$not"/><s:alias val="$logic_not"/><path d="M0,0 L0,20 L20,10 Z" class="cell_$abc$116$auto$blifparse.cc:386:parse_blif$123"/><circle cx="24" cy="10" r="3" class="cell_$abc$116$auto$blifparse.cc:386:parse_blif$123"/><g s:x="-1" s:y="10" s:pid="A"/><g s:x="27" s:y="10" s:pid="Y"/></g><g s:type="not" transform="translate(189,837)" s:width="30" s:height="20" id="cell_$abc$116$auto$blifparse.cc:386:parse_blif$124"><s:alias val="$_NOT_"/><s:alias val="$not"/><s:alias val="$logic_not"/><path d="M0,0 L0,20 L20,10 Z" class="cell_$abc$116$auto$blifparse.cc:386:parse_blif$124"/><circle cx="24" cy="10" r="3" class="cell_$abc$116$auto$blifparse.cc:386:parse_blif$124"/><g s:x="-1" s:y="10" s:pid="A"/><g s:x="27" s:y="10" s:pid="Y"/></g><g s:type="not" transform="translate(189,12)" s:width="30" s:height="20" id="cell_$abc$116$auto$blifparse.cc:386:parse_blif$125"><s:alias val="$_NOT_"/><s:alias val="$not"/><s:alias val="$logic_not"/><path d="M0,0 L0,20 L20,10 Z" class="cell_$abc$116$auto$blifparse.cc:386:parse_blif$125"/><circle cx="24" cy="10" r="3" class="cell_$abc$116$auto$blifparse.cc:386:parse_blif$125"/><g s:x="-1" s:y="10" s:pid="A"/><g s:x="27" s:y="10" s:pid="Y"/></g><g s:type="not" transform="translate(189,67)" s:width="30" s:height="20" id="cell_$abc$116$auto$blifparse.cc:386:parse_blif$126"><s:alias val="$_NOT_"/><s:alias val="$not"/><s:alias val="$logic_not"/><path d="M0,0 L0,20 L20,10 Z" class="cell_$abc$116$auto$blifparse.cc:386:parse_blif$126"/><circle cx="24" cy="10" r="3" class="cell_$abc$116$auto$blifparse.cc:386:parse_blif$126"/><g s:x="-1" s:y="10" s:pid="A"/><g s:x="27" s:y="10" s:pid="Y"/></g><g s:type="not" transform="translate(189,122)" s:width="30" s:height="20" id="cell_$abc$116$auto$blifparse.cc:386:parse_blif$127"><s:alias val="$_NOT_"/><s:alias val="$not"/><s:alias val="$logic_not"/><path d="M0,0 L0,20 L20,10 Z" class="cell_$abc$116$auto$blifparse.cc:386:parse_blif$127"/><circle cx="24" cy="10" r="3" class="cell_$abc$116$auto$blifparse.cc:386:parse_blif$127"/><g s:x="-1" s:y="10" s:pid="A"/><g s:x="27" s:y="10" s:pid="Y"/></g><g s:type="not" transform="translate(189,177)" s:width="30" s:height="20" id="cell_$abc$116$auto$blifparse.cc:386:parse_blif$128"><s:alias val="$_NOT_"/><s:alias val="$not"/><s:alias val="$logic_not"/><path d="M0,0 L0,20 L20,10 Z" class="cell_$abc$116$auto$blifparse.cc:386:parse_blif$128"/><circle cx="24" cy="10" r="3" class="cell_$abc$116$auto$blifparse.cc:386:parse_blif$128"/><g s:x="-1" s:y="10" s:pid="A"/><g s:x="27" s:y="10" s:pid="Y"/></g><g s:type="not" transform="translate(189,232)" s:width="30" s:height="20" id="cell_$abc$116$auto$blifparse.cc:386:parse_blif$129"><s:alias val="$_NOT_"/><s:alias val="$not"/><s:alias val="$logic_not"/><path d="M0,0 L0,20 L20,10 Z" class="cell_$abc$116$auto$blifparse.cc:386:parse_blif$129"/><circle cx="24" cy="10" r="3" class="cell_$abc$116$auto$blifparse.cc:386:parse_blif$129"/><g s:x="-1" s:y="10" s:pid="A"/><g s:x="27" s:y="10" s:pid="Y"/></g><g s:type="not" transform="translate(189,287)" s:width="30" s:height="20" id="cell_$abc$116$auto$blifparse.cc:386:parse_blif$130"><s:alias val="$_NOT_"/><s:alias val="$not"/><s:alias val="$logic_not"/><path d="M0,0 L0,20 L20,10 Z" class="cell_$abc$116$auto$blifparse.cc:386:parse_blif$130"/><circle cx="24" cy="10" r="3" class="cell_$abc$116$auto$blifparse.cc:386:parse_blif$130"/><g s:x="-1" s:y="10" s:pid="A"/><g s:x="27" s:y="10" s:pid="Y"/></g><g s:type="not" transform="translate(189,342)" s:width="30" s:height="20" id="cell_$abc$116$auto$blifparse.cc:386:parse_blif$131"><s:alias val="$_NOT_"/><s:alias val="$not"/><s:alias val="$logic_not"/><path d="M0,0 L0,20 L20,10 Z" class="cell_$abc$116$auto$blifparse.cc:386:parse_blif$131"/><circle cx="24" cy="10" r="3" class="cell_$abc$116$auto$blifparse.cc:386:parse_blif$131"/><g s:x="-1" s:y="10" s:pid="A"/><g s:x="27" s:y="10" s:pid="Y"/></g><g s:type="not" transform="translate(189,397)" s:width="30" s:height="20" id="cell_$abc$116$auto$blifparse.cc:386:parse_blif$132"><s:alias val="$_NOT_"/><s:alias val="$not"/><s:alias val="$logic_not"/><path d="M0,0 L0,20 L20,10 Z" class="cell_$abc$116$auto$blifparse.cc:386:parse_blif$132"/><circle cx="24" cy="10" r="3" class="cell_$abc$116$auto$blifparse.cc:386:parse_blif$132"/><g s:x="-1" s:y="10" s:pid="A"/><g s:x="27" s:y="10" s:pid="Y"/></g><g s:type="nand" transform="translate(254,237)" s:width="30" s:height="25" id="cell_$abc$116$auto$blifparse.cc:386:parse_blif$133"><s:alias val="$nand"/><s:alias val="$logic_nand"/><s:alias val="$_NAND_"/><path d="M0,0 L0,25 L15,25 A15 12.5 0 0 0 15,0 Z" class="cell_$abc$116$auto$blifparse.cc:386:parse_blif$133"/><circle cx="34" cy="12.5" r="3" class="cell_$abc$116$auto$blifparse.cc:386:parse_blif$133"/><g s:x="0" s:y="5" s:pid="A"/><g s:x="0" s:y="20" s:pid="B"/><g s:x="36" s:y="12.5" s:pid="Y"/></g><g s:type="not" transform="translate(326,239.5)" s:width="30" s:height="20" id="cell_$abc$116$auto$blifparse.cc:386:parse_blif$134"><s:alias val="$_NOT_"/><s:alias val="$not"/><s:alias val="$logic_not"/><path d="M0,0 L0,20 L20,10 Z" class="cell_$abc$116$auto$blifparse.cc:386:parse_blif$134"/><circle cx="24" cy="10" r="3" class="cell_$abc$116$auto$blifparse.cc:386:parse_blif$134"/><g s:x="-1" s:y="10" s:pid="A"/><g s:x="27" s:y="10" s:pid="Y"/></g><g s:type="nand" transform="translate(254,347)" s:width="30" s:height="25" id="cell_$abc$116$auto$blifparse.cc:386:parse_blif$135"><s:alias val="$nand"/><s:alias val="$logic_nand"/><s:alias val="$_NAND_"/><path d="M0,0 L0,25 L15,25 A15 12.5 0 0 0 15,0 Z" class="cell_$abc$116$auto$blifparse.cc:386:parse_blif$135"/><circle cx="34" cy="12.5" r="3" class="cell_$abc$116$auto$blifparse.cc:386:parse_blif$135"/><g s:x="0" s:y="5" s:pid="A"/><g s:x="0" s:y="20" s:pid="B"/><g s:x="36" s:y="12.5" s:pid="Y"/></g><g s:type="not" transform="translate(326,349.5)" s:width="30" s:height="20" id="cell_$abc$116$auto$blifparse.cc:386:parse_blif$136"><s:alias val="$_NOT_"/><s:alias val="$not"/><s:alias val="$logic_not"/><path d="M0,0 L0,20 L20,10 Z" class="cell_$abc$116$auto$blifparse.cc:386:parse_blif$136"/><circle cx="24" cy="10" r="3" class="cell_$abc$116$auto$blifparse.cc:386:parse_blif$136"/><g s:x="-1" s:y="10" s:pid="A"/><g s:x="27" s:y="10" s:pid="Y"/></g><g s:type="nand" transform="translate(391,244.5)" s:width="30" s:height="25" id="cell_$abc$116$auto$blifparse.cc:386:parse_blif$137"><s:alias val="$nand"/><s:alias val="$logic_nand"/><s:alias val="$_NAND_"/><path d="M0,0 L0,25 L15,25 A15 12.5 0 0 0 15,0 Z" class="cell_$abc$116$auto$blifparse.cc:386:parse_blif$137"/><circle cx="34" cy="12.5" r="3" class="cell_$abc$116$auto$blifparse.cc:386:parse_blif$137"/><g s:x="0" s:y="5" s:pid="A"/><g s:x="0" s:y="20" s:pid="B"/><g s:x="36" s:y="12.5" s:pid="Y"/></g><g s:type="not" transform="translate(463,247)" s:width="30" s:height="20" id="cell_$abc$116$auto$blifparse.cc:386:parse_blif$138"><s:alias val="$_NOT_"/><s:alias val="$not"/><s:alias val="$logic_not"/><path d="M0,0 L0,20 L20,10 Z" class="cell_$abc$116$auto$blifparse.cc:386:parse_blif$138"/><circle cx="24" cy="10" r="3" class="cell_$abc$116$auto$blifparse.cc:386:parse_blif$138"/><g s:x="-1" s:y="10" s:pid="A"/><g s:x="27" s:y="10" s:pid="Y"/></g><g s:type="nand" transform="translate(254,17)" s:width="30" s:height="25" id="cell_$abc$116$auto$blifparse.cc:386:parse_blif$139"><s:alias val="$nand"/><s:alias val="$logic_nand"/><s:alias val="$_NAND_"/><path d="M0,0 L0,25 L15,25 A15 12.5 0 0 0 15,0 Z" class="cell_$abc$116$auto$blifparse.cc:386:parse_blif$139"/><circle cx="34" cy="12.5" r="3" class="cell_$abc$116$auto$blifparse.cc:386:parse_blif$139"/><g s:x="0" s:y="5" s:pid="A"/><g s:x="0" s:y="20" s:pid="B"/><g s:x="36" s:y="12.5" s:pid="Y"/></g><g s:type="not" transform="translate(326,19.5)" s:width="30" s:height="20" id="cell_$abc$116$auto$blifparse.cc:386:parse_blif$140"><s:alias val="$_NOT_"/><s:alias val="$not"/><s:alias val="$logic_not"/><path d="M0,0 L0,20 L20,10 Z" class="cell_$abc$116$auto$blifparse.cc:386:parse_blif$140"/><circle cx="24" cy="10" r="3" class="cell_$abc$116$auto$blifparse.cc:386:parse_blif$140"/><g s:x="-1" s:y="10" s:pid="A"/><g s:x="27" s:y="10" s:pid="Y"/></g><g s:type="nand" transform="translate(254,127)" s:width="30" s:height="25" id="cell_$abc$116$auto$blifparse.cc:386:parse_blif$141"><s:alias val="$nand"/><s:alias val="$logic_nand"/><s:alias val="$_NAND_"/><path d="M0,0 L0,25 L15,25 A15 12.5 0 0 0 15,0 Z" class="cell_$abc$116$auto$blifparse.cc:386:parse_blif$141"/><circle cx="34" cy="12.5" r="3" class="cell_$abc$116$auto$blifparse.cc:386:parse_blif$141"/><g s:x="0" s:y="5" s:pid="A"/><g s:x="0" s:y="20" s:pid="B"/><g s:x="36" s:y="12.5" s:pid="Y"/></g><g s:type="not" transform="translate(326,129.5)" s:width="30" s:height="20" id="cell_$abc$116$auto$blifparse.cc:386:parse_blif$142"><s:alias val="$_NOT_"/><s:alias val="$not"/><s:alias val="$logic_not"/><path d="M0,0 L0,20 L20,10 Z" class="cell_$abc$116$auto$blifparse.cc:386:parse_blif$142"/><circle cx="24" cy="10" r="3" class="cell_$abc$116$auto$blifparse.cc:386:parse_blif$142"/><g s:x="-1" s:y="10" s:pid="A"/><g s:x="27" s:y="10" s:pid="Y"/></g><g s:type="nand" transform="translate(391,24.5)" s:width="30" s:height="25" id="cell_$abc$116$auto$blifparse.cc:386:parse_blif$143"><s:alias val="$nand"/><s:alias val="$logic_nand"/><s:alias val="$_NAND_"/><path d="M0,0 L0,25 L15,25 A15 12.5 0 0 0 15,0 Z" class="cell_$abc$116$auto$blifparse.cc:386:parse_blif$143"/><circle cx="34" cy="12.5" r="3" class="cell_$abc$116$auto$blifparse.cc:386:parse_blif$143"/><g s:x="0" s:y="5" s:pid="A"/><g s:x="0" s:y="20" s:pid="B"/><g s:x="36" s:y="12.5" s:pid="Y"/></g><g s:type="not" transform="translate(463,27)" s:width="30" s:height="20" id="cell_$abc$116$auto$blifparse.cc:386:parse_blif$144"><s:alias val="$_NOT_"/><s:alias val="$not"/><s:alias val="$logic_not"/><path d="M0,0 L0,20 L20,10 Z" class="cell_$abc$116$auto$blifparse.cc:386:parse_blif$144"/><circle cx="24" cy="10" r="3" class="cell_$abc$116$auto$blifparse.cc:386:parse_blif$144"/><g s:x="-1" s:y="10" s:pid="A"/><g s:x="27" s:y="10" s:pid="Y"/></g><g s:type="nand" transform="translate(528,17)" s:width="30" s:height="25" id="cell_$abc$116$auto$blifparse.cc:386:parse_blif$145"><s:alias val="$nand"/><s:alias val="$logic_nand"/><s:alias val="$_NAND_"/><path d="M0,0 L0,25 L15,25 A15 12.5 0 0 0 15,0 Z" class="cell_$abc$116$auto$blifparse.cc:386:parse_blif$145"/><circle cx="34" cy="12.5" r="3" class="cell_$abc$116$auto$blifparse.cc:386:parse_blif$145"/><g s:x="0" s:y="5" s:pid="A"/><g s:x="0" s:y="20" s:pid="B"/><g s:x="36" s:y="12.5" s:pid="Y"/></g><g s:type="nand" transform="translate(254,677)" s:width="30" s:height="25" id="cell_$abc$116$auto$blifparse.cc:386:parse_blif$146"><s:alias val="$nand"/><s:alias val="$logic_nand"/><s:alias val="$_NAND_"/><path d="M0,0 L0,25 L15,25 A15 12.5 0 0 0 15,0 Z" class="cell_$abc$116$auto$blifparse.cc:386:parse_blif$146"/><circle cx="34" cy="12.5" r="3" class="cell_$abc$116$auto$blifparse.cc:386:parse_blif$146"/><g s:x="0" s:y="5" s:pid="A"/><g s:x="0" s:y="20" s:pid="B"/><g s:x="36" s:y="12.5" s:pid="Y"/></g><g s:type="not" transform="translate(326,679.5)" s:width="30" s:height="20" id="cell_$abc$116$auto$blifparse.cc:386:parse_blif$147"><s:alias val="$_NOT_"/><s:alias val="$not"/><s:alias val="$logic_not"/><path d="M0,0 L0,20 L20,10 Z" class="cell_$abc$116$auto$blifparse.cc:386:parse_blif$147"/><circle cx="24" cy="10" r="3" class="cell_$abc$116$auto$blifparse.cc:386:parse_blif$147"/><g s:x="-1" s:y="10" s:pid="A"/><g s:x="27" s:y="10" s:pid="Y"/></g><g s:type="nand" transform="translate(254,787)" s:width="30" s:height="25" id="cell_$abc$116$auto$blifparse.cc:386:parse_blif$148"><s:alias val="$nand"/><s:alias val="$logic_nand"/><s:alias val="$_NAND_"/><path d="M0,0 L0,25 L15,25 A15 12.5 0 0 0 15,0 Z" class="cell_$abc$116$auto$blifparse.cc:386:parse_blif$148"/><circle cx="34" cy="12.5" r="3" class="cell_$abc$116$auto$blifparse.cc:386:parse_blif$148"/><g s:x="0" s:y="5" s:pid="A"/><g s:x="0" s:y="20" s:pid="B"/><g s:x="36" s:y="12.5" s:pid="Y"/></g><g s:type="not" transform="translate(326,789.5)" s:width="30" s:height="20" id="cell_$abc$116$auto$blifparse.cc:386:parse_blif$149"><s:alias val="$_NOT_"/><s:alias val="$not"/><s:alias val="$logic_not"/><path d="M0,0 L0,20 L20,10 Z" class="cell_$abc$116$auto$blifparse.cc:386:parse_blif$149"/><circle cx="24" cy="10" r="3" class="cell_$abc$116$auto$blifparse.cc:386:parse_blif$149"/><g s:x="-1" s:y="10" s:pid="A"/><g s:x="27" s:y="10" s:pid="Y"/></g><g s:type="nand" transform="translate(391,684.5)" s:width="30" s:height="25" id="cell_$abc$116$auto$blifparse.cc:386:parse_blif$150"><s:alias val="$nand"/><s:alias val="$logic_nand"/><s:alias val="$_NAND_"/><path d="M0,0 L0,25 L15,25 A15 12.5 0 0 0 15,0 Z" class="cell_$abc$116$auto$blifparse.cc:386:parse_blif$150"/><circle cx="34" cy="12.5" r="3" class="cell_$abc$116$auto$blifparse.cc:386:parse_blif$150"/><g s:x="0" s:y="5" s:pid="A"/><g s:x="0" s:y="20" s:pid="B"/><g s:x="36" s:y="12.5" s:pid="Y"/></g><g s:type="not" transform="translate(463,687)" s:width="30" s:height="20" id="cell_$abc$116$auto$blifparse.cc:386:parse_blif$151"><s:alias val="$_NOT_"/><s:alias val="$not"/><s:alias val="$logic_not"/><path d="M0,0 L0,20 L20,10 Z" class="cell_$abc$116$auto$blifparse.cc:386:parse_blif$151"/><circle cx="24" cy="10" r="3" class="cell_$abc$116$auto$blifparse.cc:386:parse_blif$151"/><g s:x="-1" s:y="10" s:pid="A"/><g s:x="27" s:y="10" s:pid="Y"/></g><g s:type="nand" transform="translate(254,457)" s:width="30" s:height="25" id="cell_$abc$116$auto$blifparse.cc:386:parse_blif$152"><s:alias val="$nand"/><s:alias val="$logic_nand"/><s:alias val="$_NAND_"/><path d="M0,0 L0,25 L15,25 A15 12.5 0 0 0 15,0 Z" class="cell_$abc$116$auto$blifparse.cc:386:parse_blif$152"/><circle cx="34" cy="12.5" r="3" class="cell_$abc$116$auto$blifparse.cc:386:parse_blif$152"/><g s:x="0" s:y="5" s:pid="A"/><g s:x="0" s:y="20" s:pid="B"/><g s:x="36" s:y="12.5" s:pid="Y"/></g><g s:type="not" transform="translate(326,459.5)" s:width="30" s:height="20" id="cell_$abc$116$auto$blifparse.cc:386:parse_blif$153"><s:alias val="$_NOT_"/><s:alias val="$not"/><s:alias val="$logic_not"/><path d="M0,0 L0,20 L20,10 Z" class="cell_$abc$116$auto$blifparse.cc:386:parse_blif$153"/><circle cx="24" cy="10" r="3" class="cell_$abc$116$auto$blifparse.cc:386:parse_blif$153"/><g s:x="-1" s:y="10" s:pid="A"/><g s:x="27" s:y="10" s:pid="Y"/></g><g s:type="nand" transform="translate(254,567)" s:width="30" s:height="25" id="cell_$abc$116$auto$blifparse.cc:386:parse_blif$154"><s:alias val="$nand"/><s:alias val="$logic_nand"/><s:alias val="$_NAND_"/><path d="M0,0 L0,25 L15,25 A15 12.5 0 0 0 15,0 Z" class="cell_$abc$116$auto$blifparse.cc:386:parse_blif$154"/><circle cx="34" cy="12.5" r="3" class="cell_$abc$116$auto$blifparse.cc:386:parse_blif$154"/><g s:x="0" s:y="5" s:pid="A"/><g s:x="0" s:y="20" s:pid="B"/><g s:x="36" s:y="12.5" s:pid="Y"/></g><g s:type="not" transform="translate(326,569.5)" s:width="30" s:height="20" id="cell_$abc$116$auto$blifparse.cc:386:parse_blif$155"><s:alias val="$_NOT_"/><s:alias val="$not"/><s:alias val="$logic_not"/><path d="M0,0 L0,20 L20,10 Z" class="cell_$abc$116$auto$blifparse.cc:386:parse_blif$155"/><circle cx="24" cy="10" r="3" class="cell_$abc$116$auto$blifparse.cc:386:parse_blif$155"/><g s:x="-1" s:y="10" s:pid="A"/><g s:x="27" s:y="10" s:pid="Y"/></g><g s:type="nand" transform="translate(391,464.5)" s:width="30" s:height="25" id="cell_$abc$116$auto$blifparse.cc:386:parse_blif$156"><s:alias val="$nand"/><s:alias val="$logic_nand"/><s:alias val="$_NAND_"/><path d="M0,0 L0,25 L15,25 A15 12.5 0 0 0 15,0 Z" class="cell_$abc$116$auto$blifparse.cc:386:parse_blif$156"/><circle cx="34" cy="12.5" r="3" class="cell_$abc$116$auto$blifparse.cc:386:parse_blif$156"/><g s:x="0" s:y="5" s:pid="A"/><g s:x="0" s:y="20" s:pid="B"/><g s:x="36" s:y="12.5" s:pid="Y"/></g><g s:type="not" transform="translate(463,467)" s:width="30" s:height="20" id="cell_$abc$116$auto$blifparse.cc:386:parse_blif$157"><s:alias val="$_NOT_"/><s:alias val="$not"/><s:alias val="$logic_not"/><path d="M0,0 L0,20 L20,10 Z" class="cell_$abc$116$auto$blifparse.cc:386:parse_blif$157"/><circle cx="24" cy="10" r="3" class="cell_$abc$116$auto$blifparse.cc:386:parse_blif$157"/><g s:x="-1" s:y="10" s:pid="A"/><g s:x="27" s:y="10" s:pid="Y"/></g><g s:type="nand" transform="translate(528,457)" s:width="30" s:height="25" id="cell_$abc$116$auto$blifparse.cc:386:parse_blif$158"><s:alias val="$nand"/><s:alias val="$logic_nand"/><s:alias val="$_NAND_"/><path d="M0,0 L0,25 L15,25 A15 12.5 0 0 0 15,0 Z" class="cell_$abc$116$auto$blifparse.cc:386:parse_blif$158"/><circle cx="34" cy="12.5" r="3" class="cell_$abc$116$auto$blifparse.cc:386:parse_blif$158"/><g s:x="0" s:y="5" s:pid="A"/><g s:x="0" s:y="20" s:pid="B"/><g s:x="36" s:y="12.5" s:pid="Y"/></g><g s:type="nand" transform="translate(599,24.5)" s:width="30" s:height="25" id="cell_$abc$116$auto$blifparse.cc:386:parse_blif$159"><s:alias val="$nand"/><s:alias val="$logic_nand"/><s:alias val="$_NAND_"/><path d="M0,0 L0,25 L15,25 A15 12.5 0 0 0 15,0 Z" class="cell_$abc$116$auto$blifparse.cc:386:parse_blif$159"/><circle cx="34" cy="12.5" r="3" class="cell_$abc$116$auto$blifparse.cc:386:parse_blif$159"/><g s:x="0" s:y="5" s:pid="A"/><g s:x="0" s:y="20" s:pid="B"/><g s:x="36" s:y="12.5" s:pid="Y"/></g><g s:type="not" transform="translate(671,27)" s:width="30" s:height="20" id="cell_$abc$116$auto$blifparse.cc:386:parse_blif$160"><s:alias val="$_NOT_"/><s:alias val="$not"/><s:alias val="$logic_not"/><path d="M0,0 L0,20 L20,10 Z" class="cell_$abc$116$auto$blifparse.cc:386:parse_blif$160"/><circle cx="24" cy="10" r="3" class="cell_$abc$116$auto$blifparse.cc:386:parse_blif$160"/><g s:x="-1" s:y="10" s:pid="A"/><g s:x="27" s:y="10" s:pid="Y"/></g><g s:type="inputExt" transform="translate(12,497)" s:width="30" s:height="20" id="cell_A"><text x="15" y="-4" class="nodelabel cell_A" s:attribute="ref">A</text><s:alias val="$_inputExt_"/><path d="M0,0 L0,20 L15,20 L30,10 L15,0 Z" class="cell_A"/><g s:x="30" s:y="10" s:pid="Y"/></g><g s:type="inputExt" transform="translate(12,57)" s:width="30" s:height="20" id="cell_B"><text x="15" y="-4" class="nodelabel cell_B" s:attribute="ref">B</text><s:alias val="$_inputExt_"/><path d="M0,0 L0,20 L15,20 L30,10 L15,0 Z" class="cell_B"/><g s:x="30" s:y="10" s:pid="Y"/></g><g s:type="outputExt" transform="translate(736,27)" s:width="30" s:height="20" id="cell_Y"><text x="15" y="-4" class="nodelabel cell_Y" s:attribute="ref">Y</text><s:alias val="$_outputExt_"/><path d="M30,0 L30,20 L15,20 L0,10 L15,0 Z" class="cell_Y"/><g s:x="0" s:y="10" s:pid="A"/></g><g s:type="split" transform="translate(116,486.5)" s:width="5" s:height="40" id="cell_$split$,2,3,4,5,6,7,8,9,"><rect width="5" height="160" class="splitjoinBody" s:generic="body"/><s:alias val="$_split_"/><g s:x="0" s:y="20" s:pid="in"/><g transform="translate(4,10)" s:x="4" s:y="10" s:pid="out0"><text x="5" y="-4">1</text></g><g transform="translate(4,30)" s:x="4" s:y="10" s:pid="out0"><text x="5" y="-4">0</text></g><g transform="translate(4,50)" s:x="4" s:y="10" s:pid="out0"><text x="5" y="-4">3</text></g><g transform="translate(4,70)" s:x="4" s:y="10" s:pid="out0"><text x="5" y="-4">2</text></g><g transform="translate(4,90)" s:x="4" s:y="10" s:pid="out0"><text x="5" y="-4">5</text></g><g transform="translate(4,110)" s:x="4" s:y="10" s:pid="out0"><text x="5" y="-4">4</text></g><g transform="translate(4,130)" s:x="4" s:y="10" s:pid="out0"><text x="5" y="-4">7</text></g><g transform="translate(4,150)" s:x="4" s:y="10" s:pid="out0"><text x="5" y="-4">6</text></g></g><g s:type="split" transform="translate(116,46.5)" s:width="5" s:height="40" id="cell_$split$,10,11,12,13,14,15,16,17,"><rect width="5" height="160" class="splitjoinBody" s:generic="body"/><s:alias val="$_split_"/><g s:x="0" s:y="20" s:pid="in"/><g transform="translate(4,10)" s:x="4" s:y="10" s:pid="out0"><text x="5" y="-4">1</text></g><g transform="translate(4,30)" s:x="4" s:y="10" s:pid="out0"><text x="5" y="-4">0</text></g><g transform="translate(4,50)" s:x="4" s:y="10" s:pid="out0"><text x="5" y="-4">3</text></g><g transform="translate(4,70)" s:x="4" s:y="10" s:pid="out0"><text x="5" y="-4">2</text></g><g transform="translate(4,90)" s:x="4" s:y="10" s:pid="out0"><text x="5" y="-4">5</text></g><g transform="translate(4,110)" s:x="4" s:y="10" s:pid="out0"><text x="5" y="-4">4</text></g><g transform="translate(4,130)" s:x="4" s:y="10" s:pid="out0"><text x="5" y="-4">7</text></g><g transform="translate(4,150)" s:x="4" s:y="10" s:pid="out0"><text x="5" y="-4">6</text></g></g><line x1="120.5" x2="120.5" y1="496.5" y2="462" class="net_3 width_1" style="stroke-width: 1"/><line x1="120.5" x2="188" y1="462" y2="462" class="net_3 width_1" style="stroke-width: 1"/><line x1="121" x2="188" y1="517" y2="517" class="net_2 width_1" style="stroke-width: 1"/><line x1="121" x2="178" y1="537" y2="537" class="net_5 width_1" style="stroke-width: 1"/><line x1="178" x2="178" y1="537" y2="572" class="net_5 width_1" style="stroke-width: 1"/><line x1="178" x2="188" y1="572" y2="572" class="net_5 width_1" style="stroke-width: 1"/><line x1="121" x2="168" y1="557" y2="557" class="net_4 width_1" style="stroke-width: 1"/><line x1="168" x2="168" y1="557" y2="627" class="net_4 width_1" style="stroke-width: 1"/><line x1="168" x2="188" y1="627" y2="627" class="net_4 width_1" style="stroke-width: 1"/><line x1="121" x2="158" y1="577" y2="577" class="net_7 width_1" style="stroke-width: 1"/><line x1="158" x2="158" y1="577" y2="682" class="net_7 width_1" style="stroke-width: 1"/><line x1="158" x2="188" y1="682" y2="682" class="net_7 width_1" style="stroke-width: 1"/><line x1="121" x2="148" y1="597" y2="597" class="net_6 width_1" style="stroke-width: 1"/><line x1="148" x2="148" y1="597" y2="737" class="net_6 width_1" style="stroke-width: 1"/><line x1="148" x2="188" y1="737" y2="737" class="net_6 width_1" style="stroke-width: 1"/><line x1="121" x2="138" y1="617" y2="617" class="net_9 width_1" style="stroke-width: 1"/><line x1="138" x2="138" y1="617" y2="792" class="net_9 width_1" style="stroke-width: 1"/><line x1="138" x2="188" y1="792" y2="792" class="net_9 width_1" style="stroke-width: 1"/><line x1="120.5" x2="120.5" y1="637.5" y2="847" class="net_8 width_1" style="stroke-width: 1"/><line x1="120.5" x2="188" y1="847" y2="847" class="net_8 width_1" style="stroke-width: 1"/><line x1="120.5" x2="120.5" y1="56.5" y2="22" class="net_11 width_1" style="stroke-width: 1"/><line x1="120.5" x2="188" y1="22" y2="22" class="net_11 width_1" style="stroke-width: 1"/><line x1="121" x2="188" y1="77" y2="77" class="net_10 width_1" style="stroke-width: 1"/><line x1="121" x2="178" y1="97" y2="97" class="net_13 width_1" style="stroke-width: 1"/><line x1="178" x2="178" y1="97" y2="132" class="net_13 width_1" style="stroke-width: 1"/><line x1="178" x2="188" y1="132" y2="132" class="net_13 width_1" style="stroke-width: 1"/><line x1="121" x2="168" y1="117" y2="117" class="net_12 width_1" style="stroke-width: 1"/><line x1="168" x2="168" y1="117" y2="187" class="net_12 width_1" style="stroke-width: 1"/><line x1="168" x2="188" y1="187" y2="187" class="net_12 width_1" style="stroke-width: 1"/><line x1="121" x2="158" y1="137" y2="137" class="net_15 width_1" style="stroke-width: 1"/><line x1="158" x2="158" y1="137" y2="242" class="net_15 width_1" style="stroke-width: 1"/><line x1="158" x2="188" y1="242" y2="242" class="net_15 width_1" style="stroke-width: 1"/><line x1="121" x2="148" y1="157" y2="157" class="net_14 width_1" style="stroke-width: 1"/><line x1="148" x2="148" y1="157" y2="297" class="net_14 width_1" style="stroke-width: 1"/><line x1="148" x2="188" y1="297" y2="297" class="net_14 width_1" style="stroke-width: 1"/><line x1="121" x2="138" y1="177" y2="177" class="net_17 width_1" style="stroke-width: 1"/><line x1="138" x2="138" y1="177" y2="352" class="net_17 width_1" style="stroke-width: 1"/><line x1="138" x2="188" y1="352" y2="352" class="net_17 width_1" style="stroke-width: 1"/><line x1="120.5" x2="120.5" y1="197.5" y2="407" class="net_16 width_1" style="stroke-width: 1"/><line x1="120.5" x2="188" y1="407" y2="407" class="net_16 width_1" style="stroke-width: 1"/><line x1="216" x2="254" y1="242" y2="242" class="net_31 width_1" style="stroke-width: 1"/><line x1="216" x2="229" y1="297" y2="297" class="net_32 width_1" style="stroke-width: 1"/><line x1="229" x2="229" y1="297" y2="257" class="net_32 width_1" style="stroke-width: 1"/><line x1="229" x2="254" y1="257" y2="257" class="net_32 width_1" style="stroke-width: 1"/><line x1="290" x2="325" y1="249.5" y2="249.5" class="net_35 width_1" style="stroke-width: 1"/><line x1="216" x2="254" y1="352" y2="352" class="net_33 width_1" style="stroke-width: 1"/><line x1="216" x2="229" y1="407" y2="407" class="net_34 width_1" style="stroke-width: 1"/><line x1="229" x2="229" y1="407" y2="367" class="net_34 width_1" style="stroke-width: 1"/><line x1="229" x2="254" y1="367" y2="367" class="net_34 width_1" style="stroke-width: 1"/><line x1="290" x2="325" y1="359.5" y2="359.5" class="net_37 width_1" style="stroke-width: 1"/><line x1="353" x2="391" y1="249.5" y2="249.5" class="net_36 width_1" style="stroke-width: 1"/><line x1="353" x2="366" y1="359.5" y2="359.5" class="net_38 width_1" style="stroke-width: 1"/><line x1="366" x2="366" y1="359.5" y2="264.5" class="net_38 width_1" style="stroke-width: 1"/><line x1="366" x2="391" y1="264.5" y2="264.5" class="net_38 width_1" style="stroke-width: 1"/><line x1="427" x2="462" y1="257" y2="257" class="net_39 width_1" style="stroke-width: 1"/><line x1="216" x2="254" y1="22" y2="22" class="net_27 width_1" style="stroke-width: 1"/><line x1="216" x2="229" y1="77" y2="77" class="net_28 width_1" style="stroke-width: 1"/><line x1="229" x2="229" y1="77" y2="37" class="net_28 width_1" style="stroke-width: 1"/><line x1="229" x2="254" y1="37" y2="37" class="net_28 width_1" style="stroke-width: 1"/><line x1="290" x2="325" y1="29.5" y2="29.5" class="net_41 width_1" style="stroke-width: 1"/><line x1="216" x2="254" y1="132" y2="132" class="net_29 width_1" style="stroke-width: 1"/><line x1="216" x2="229" y1="187" y2="187" class="net_30 width_1" style="stroke-width: 1"/><line x1="229" x2="229" y1="187" y2="147" class="net_30 width_1" style="stroke-width: 1"/><line x1="229" x2="254" y1="147" y2="147" class="net_30 width_1" style="stroke-width: 1"/><line x1="290" x2="325" y1="139.5" y2="139.5" class="net_43 width_1" style="stroke-width: 1"/><line x1="353" x2="391" y1="29.5" y2="29.5" class="net_42 width_1" style="stroke-width: 1"/><line x1="353" x2="366" y1="139.5" y2="139.5" class="net_44 width_1" style="stroke-width: 1"/><line x1="366" x2="366" y1="139.5" y2="44.5" class="net_44 width_1" style="stroke-width: 1"/><line x1="366" x2="391" y1="44.5" y2="44.5" class="net_44 width_1" style="stroke-width: 1"/><line x1="427" x2="462" y1="37" y2="37" class="net_45 width_1" style="stroke-width: 1"/><line x1="490" x2="503" y1="257" y2="257" class="net_40 width_1" style="stroke-width: 1"/><line x1="503" x2="503" y1="257" y2="22" class="net_40 width_1" style="stroke-width: 1"/><line x1="503" x2="528" y1="22" y2="22" class="net_40 width_1" style="stroke-width: 1"/><line x1="490" x2="528" y1="37" y2="37" class="net_46 width_1" style="stroke-width: 1"/><line x1="216" x2="254" y1="682" y2="682" class="net_23 width_1" style="stroke-width: 1"/><line x1="216" x2="229" y1="737" y2="737" class="net_24 width_1" style="stroke-width: 1"/><line x1="229" x2="229" y1="737" y2="697" class="net_24 width_1" style="stroke-width: 1"/><line x1="229" x2="254" y1="697" y2="697" class="net_24 width_1" style="stroke-width: 1"/><line x1="290" x2="325" y1="689.5" y2="689.5" class="net_48 width_1" style="stroke-width: 1"/><line x1="216" x2="254" y1="792" y2="792" class="net_25 width_1" style="stroke-width: 1"/><line x1="216" x2="229" y1="847" y2="847" class="net_26 width_1" style="stroke-width: 1"/><line x1="229" x2="229" y1="847" y2="807" class="net_26 width_1" style="stroke-width: 1"/><line x1="229" x2="254" y1="807" y2="807" class="net_26 width_1" style="stroke-width: 1"/><line x1="290" x2="325" y1="799.5" y2="799.5" class="net_50 width_1" style="stroke-width: 1"/><line x1="353" x2="391" y1="689.5" y2="689.5" class="net_49 width_1" style="stroke-width: 1"/><line x1="353" x2="366" y1="799.5" y2="799.5" class="net_51 width_1" style="stroke-width: 1"/><line x1="366" x2="366" y1="799.5" y2="704.5" class="net_51 width_1" style="stroke-width: 1"/><line x1="366" x2="391" y1="704.5" y2="704.5" class="net_51 width_1" style="stroke-width: 1"/><line x1="427" x2="462" y1="697" y2="697" class="net_52 width_1" style="stroke-width: 1"/><line x1="216" x2="254" y1="462" y2="462" class="net_19 width_1" style="stroke-width: 1"/><line x1="216" x2="229" y1="517" y2="517" class="net_20 width_1" style="stroke-width: 1"/><line x1="229" x2="229" y1="517" y2="477" class="net_20 width_1" style="stroke-width: 1"/><line x1="229" x2="254" y1="477" y2="477" class="net_20 width_1" style="stroke-width: 1"/><line x1="290" x2="325" y1="469.5" y2="469.5" class="net_54 width_1" style="stroke-width: 1"/><line x1="216" x2="254" y1="572" y2="572" class="net_21 width_1" style="stroke-width: 1"/><line x1="216" x2="229" y1="627" y2="627" class="net_22 width_1" style="stroke-width: 1"/><line x1="229" x2="229" y1="627" y2="587" class="net_22 width_1" style="stroke-width: 1"/><line x1="229" x2="254" y1="587" y2="587" class="net_22 width_1" style="stroke-width: 1"/><line x1="290" x2="325" y1="579.5" y2="579.5" class="net_56 width_1" style="stroke-width: 1"/><line x1="353" x2="391" y1="469.5" y2="469.5" class="net_55 width_1" style="stroke-width: 1"/><line x1="353" x2="366" y1="579.5" y2="579.5" class="net_57 width_1" style="stroke-width: 1"/><line x1="366" x2="366" y1="579.5" y2="484.5" class="net_57 width_1" style="stroke-width: 1"/><line x1="366" x2="391" y1="484.5" y2="484.5" class="net_57 width_1" style="stroke-width: 1"/><line x1="427" x2="462" y1="477" y2="477" class="net_58 width_1" style="stroke-width: 1"/><line x1="490" x2="503" y1="697" y2="697" class="net_53 width_1" style="stroke-width: 1"/><line x1="503" x2="503" y1="697" y2="462" class="net_53 width_1" style="stroke-width: 1"/><line x1="503" x2="528" y1="462" y2="462" class="net_53 width_1" style="stroke-width: 1"/><line x1="490" x2="528" y1="477" y2="477" class="net_59 width_1" style="stroke-width: 1"/><line x1="564" x2="599" y1="29.5" y2="29.5" class="net_47 width_1" style="stroke-width: 1"/><line x1="564" x2="574" y1="469.5" y2="469.5" class="net_60 width_1" style="stroke-width: 1"/><line x1="574" x2="574" y1="469.5" y2="44.5" class="net_60 width_1" style="stroke-width: 1"/><line x1="574" x2="599" y1="44.5" y2="44.5" class="net_60 width_1" style="stroke-width: 1"/><line x1="635" x2="670" y1="37" y2="37" class="net_61 width_1" style="stroke-width: 1"/><line x1="698" x2="736" y1="37" y2="37" class="net_18 width_1" style="stroke-width: 1"/><line x1="42" x2="116" y1="507" y2="507" class="net_2,3,4,5,6,7,8,9 width_8" style="stroke-width: 2"/><line x1="42" x2="116" y1="67" y2="67" class="net_10,11,12,13,14,15,16,17 width_8" style="stroke-width: 2"/><rect x="78" y="502" width="16" height="9" class="net_2,3,4,5,6,7,8,9 width_8 busLabel_8" style="fill: white; stroke: none"/><text x="77" y="510" class="net_2,3,4,5,6,7,8,9 width_8 busLabel_8">/8/</text><rect x="78" y="62" width="16" height="9" class="net_10,11,12,13,14,15,16,17 width_8 busLabel_8" style="fill: white; stroke: none"/><text x="77" y="70" class="net_10,11,12,13,14,15,16,17 width_8 busLabel_8">/8/</text></svg>